<svg width="1433" height="951" viewBox="0 0 1433 951" fill="none" xmlns="http://www.w3.org/2000/svg">
<path d="M738.755 418.69L759.193 453.002L786.255 437.065L738.755 418.69Z" fill="#D4388B"/>
<path d="M789.131 400.19L773.381 418.377L743.005 393.44L789.131 400.19Z" fill="#D4388B"/>
<path d="M922.256 417.752L934.756 431.69L913.694 433.065L922.256 417.752Z" fill="#C84A9D"/>
<path d="M277.127 621.878L364.94 588.441L283.377 527.128L277.127 621.878Z" fill="#3A214E"/>
<path d="M367.877 585.441L354.815 531.128L297.439 548.19L367.877 585.441Z" fill="#542A6C"/>
<path d="M285.94 494.503L297.252 553.565L246.002 548.378L285.94 494.503Z" fill="#6A3787"/>
<path d="M319.814 676.066L375.44 623.941L243.376 603.941L319.814 676.066Z" fill="#7D4AAB"/>
<path d="M270.877 734.316L371.128 663.628L287.502 675.566L270.877 734.316Z" fill="#9A57A3"/>
<path d="M235.627 603.066L199.314 705.066L288.564 688.566L235.627 603.066Z" fill="#542A6C"/>
<path d="M766.305 398.127L748.943 431.19L778.193 430.315L766.305 398.127Z" fill="#883685"/>
<path d="M759.818 442.127L786.256 468.94L788.693 442.127H759.818Z" fill="#A3327C"/>
<path d="M740.193 438.877L772.13 400.565L694.255 386.502L740.193 438.877Z" fill="#A3327C"/>
<path d="M737.568 370.564L781.443 395.252L734.88 406.377L737.568 370.564Z" fill="#883685"/>
<path d="M373.753 526.003L412.19 603.441L338.69 582.941L373.753 526.003Z" fill="#8A4DA7"/>
<path d="M321.002 592.878L414.003 585.878L362.19 665.753L321.002 592.878Z" fill="#6A3787"/>
<path d="M1088.2 271.751L1073.2 322.752L1040.94 306.689L1088.2 271.751Z" fill="#883685"/>
<path d="M1033.13 309.252L1008.82 351.314L992.069 309.252H1033.13Z" fill="#D4388B"/>
<path d="M938.131 402.627L920.381 423.19L930.444 429.815L938.131 402.627Z" fill="#A3327C"/>
<path d="M888.569 376.377L895.131 397.065L905.069 376.377H888.569Z" fill="#883685"/>
<path d="M290.94 535.628L320.565 476.815L389.003 535.628L290.94 535.628Z" fill="#6A3787"/>
<path d="M177.251 594.503L162.188 624.691L235.626 616.628L177.251 594.503Z" fill="#492666"/>
<path d="M1038.32 183.063L1105.76 150.751V216.314L1038.32 183.063Z" fill="#67236D"/>
<path d="M1039.38 344.627L1027.94 378.377L995.757 361.752L1039.38 344.627Z" fill="#D4388B"/>
<path d="M1119.38 278.626L1108.51 306.689L1052.38 282.189L1119.38 278.626Z" fill="#7D4AAB"/>
<path d="M543.691 510.878L568.067 515.94L539.504 550.378L543.691 510.878Z" fill="#73328A"/>
<path d="M572.754 507.253L539.004 522.815L559.754 490.065L572.754 507.253Z" fill="#9A57A3"/>
<path d="M518.066 430.377L555.317 477.94L459.003 480.753L518.066 430.377Z" fill="#8A4DA7"/>
<path d="M967.132 193.939L996.32 199.626V237.314L967.132 193.939Z" fill="#67236D"/>
<path d="M794.13 348.752L787.38 298.377L726.317 361.939L794.13 348.752Z" fill="#67236D"/>
<path d="M946.694 306.377L911.757 327.814L884.381 262.251L946.694 306.377Z" fill="#7D4AAB"/>
<path d="M974.694 324.127L1001.88 353.814L940.319 328.189L974.694 324.127Z" fill="#7D4AAB"/>
<path d="M1069.32 344.439L1039.32 323.814L1095.26 314.439L1069.32 344.439Z" fill="#A3327C"/>
<path d="M781.13 207.939L845.068 267.189L709.88 258.626L781.13 207.939Z" fill="#743C94"/>
<path d="M294.439 609.066L232.564 549.753L221.501 624.128L294.439 609.066Z" fill="#6A3787"/>
<path d="M916.756 268.189L995.194 242.751L913.631 217.314L916.756 268.189Z" fill="#8B4EAD"/>
<path d="M332.128 636.253L295.44 685.504L250.689 636.253H332.128Z" fill="#6A3787"/>
<path d="M848.443 275.064L855.943 313.439L785.818 281.189L848.443 275.064Z" fill="#9A57A3"/>
<path d="M1205.13 376.314L1184.88 422.002L1215.51 386.19L1205.13 376.314Z" fill="#C84A9D"/>
<path d="M1230.95 363.439L1219.38 367.398L1232.88 333.314L1230.95 363.439Z" fill="#883685"/>
<path d="M727.63 379.627L698.192 406.065L725.255 453.002L727.63 379.627Z" fill="#7D4AAB"/>
<path d="M801.805 430.877L781.38 467.002L809.381 459.703L801.805 430.877Z" fill="#883685"/>
<path d="M864.506 199.314L986.694 168.188L891.506 161.001L864.506 199.314Z" fill="#743C94"/>
<path d="M966.944 239.126L913.319 161.876L976.757 150.501L966.944 239.126Z" fill="#69307D"/>
<path d="M1195.07 86.8754L1182.7 59.8753L1147.51 68.4379L1195.07 86.8754Z" fill="#6D2367"/>
<path d="M935.943 288.189L893.88 280.189L909.693 236.689L935.943 288.189Z" fill="#743C94"/>
<path d="M557.691 486.065L489.316 487.815L450.628 534.19L557.691 486.065Z" fill="#8B4EAD"/>
<path d="M621.504 457.565L611.567 490.753L607.787 465.752L621.504 457.565Z" fill="#8B4EAD"/>
<path d="M837.256 372.127L901.194 348.752L869.444 304.064L837.256 372.127Z" fill="#7D4AAB"/>
<path d="M482.378 478.627L454.941 533.19L403.565 421.002L482.378 478.627Z" fill="#6A3787"/>
<path d="M542.629 324.314L511.753 444.752L457.003 400.752L542.629 324.314Z" fill="#6A3787"/>
<path d="M653.755 323.689L710.693 260.314L602.129 286.689L653.755 323.689Z" fill="#743C94"/>
<path d="M939.069 386.502L934.631 425.002L925.194 399.627L939.069 386.502Z" fill="#D4388B"/>
<path d="M918.631 408.877L916.381 452.94L899.944 413.877L918.631 408.877Z" fill="#D4388B"/>
<path d="M1102.45 202.939L1095.57 283.189L1075.88 235.126L1102.45 202.939Z" fill="#D4388B"/>
<path d="M1112.13 91.0005L1149.57 128.938L1078.88 114.938L1112.13 91.0005Z" fill="#883685"/>
<path d="M616.549 331.814L607.067 399.815L540.004 338.377L616.549 331.814Z" fill="#9A57A3"/>
<path d="M767.38 262.126L729.63 309.689L666.817 289.939L767.38 262.126Z" fill="#9A57A3"/>
<path d="M496.503 399.815L484.566 494.628L448.628 426.377L496.503 399.815Z" fill="#9A57A3"/>
<path d="M680.692 376.564L650.504 432.69L624.567 399.815L680.692 376.564Z" fill="#9A57A3"/>
<path d="M645.317 256.376L718.317 309.752L640.129 344.877L645.317 256.376Z" fill="#67236D"/>
<path d="M1397.7 236.126L1378.13 274.314L1392.26 231.626L1397.7 236.126Z" fill="#D4388B"/>
<path d="M615.192 303.252L665.567 376.127L560.254 345.064L615.192 303.252Z" fill="#743C94"/>
<path d="M890.756 362.064L892.318 411.627L872.006 367.002L890.756 362.064Z" fill="#C84A9D"/>
<path d="M866.006 493.878L852.131 526.065L844.006 505.628L866.006 493.878Z" fill="#C84A9D"/>
<path d="M908.694 435.815L911.069 463.815L896.381 435.815H908.694Z" fill="#C84A9D"/>
<path d="M230.564 600.253L213.501 561.315L157.063 600.253H230.564Z" fill="#542D6A"/>
<path d="M890.631 456.877L864.693 482.378L888.131 471.565L890.631 456.877Z" fill="#C84A9D"/>
<path d="M912.319 466.19L879.006 494.878L903.256 457.502L912.319 466.19Z" fill="#C84A9D"/>
<path d="M942.194 472.752L913.256 491.44L924.694 471.065L942.194 472.752Z" fill="#C84A9D"/>
<path d="M934.131 445.69L921.256 470.065L914.881 441.44L934.131 445.69Z" fill="#C84A9D"/>
<path d="M504.191 523.378L529.941 528.253L497.378 558.378L504.191 523.378Z" fill="#9A57A3"/>
<path d="M493.378 548.003L509.191 551.503L450.94 603.941L493.378 548.003Z" fill="#883685"/>
<path d="M537.629 514.753L563.692 493.003L533.441 488.628L537.629 514.753Z" fill="#7D4AAB"/>
<path d="M479.503 529.565L515.191 534.878L495.004 512.003L479.503 529.565Z" fill="#7D4AAB"/>
<path d="M591.129 466.502L613.317 468.815L591.129 508.128V466.502Z" fill="#9A57A3"/>
<path d="M559.399 478.753L549.754 454.252H627.129L559.399 478.753Z" fill="#7D4AAB"/>
<path d="M673.817 337.502L667.067 415.127L596.566 348.252L673.817 337.502Z" fill="#73328A"/>
<path d="M825.568 262.126L787.818 309.689L725.005 289.939L825.568 262.126Z" fill="#73328A"/>
<path d="M566.941 377.877L543.379 485.878L506.816 426.377L566.941 377.877Z" fill="#73328A"/>
<path d="M606.004 513.503L594.879 498.753L587.566 526.378L606.004 513.503Z" fill="#7D4AAB"/>
<path d="M587.317 523.378L595.317 527.378L557.754 559.065L587.317 523.378Z" fill="#883685"/>
<path d="M538.816 542.378L548.066 549.503L512.003 574.503L538.816 542.378Z" fill="#883685"/>
<path d="M650.442 376.127L612.245 444.034H532.879L650.442 376.127Z" fill="#7D4AAB"/>
<path d="M972.881 343.189L998.881 361.564L964.943 369.689L972.881 343.189Z" fill="#C84A9D"/>
<path d="M1058.07 317.564L1015.94 355.377L1021.19 317.564H1058.07Z" fill="#C84A9D"/>
<path d="M1077.76 304.127L1076.19 343.189L1120.26 287.877L1077.76 304.127Z" fill="#C84A9D"/>
<path d="M1058.07 351.002L1025.38 374.439H1045.26L1058.07 351.002Z" fill="#C84A9D"/>
<path d="M904.694 353.377V390.627L889.569 356.189L904.694 353.377Z" fill="#D4388B"/>
<path d="M615.004 480.753L598.879 485.503L603.004 515.315L615.004 480.753Z" fill="#883685"/>
<path d="M942.694 358.252L937.006 380.502L932.131 346.502L942.694 358.252Z" fill="#D4388B"/>
<path d="M850.631 410.94L822.568 429.69L807.881 410.94H850.631Z" fill="#A3327C"/>
<path d="M845.506 413.315L865.694 426.502L828.068 429.252L845.506 413.315Z" fill="#C84A9D"/>
<path d="M803.131 478.753L807.506 454.752L760.693 468.002L803.131 478.753Z" fill="#D4388B"/>
<path d="M899.131 446.502V476.752L886.444 457.815L899.131 446.502Z" fill="#D4388B"/>
<path d="M886.256 486.378L855.943 507.065L862.756 483.253L886.256 486.378Z" fill="#D4388B"/>
<path d="M902.069 495.253L871.756 515.94L878.568 492.128L902.069 495.253Z" fill="#D4388B"/>
<path d="M929.944 476.377L899.631 497.065L906.444 473.252L929.944 476.377Z" fill="#D4388B"/>
<path d="M937.694 458.252V480.19L914.631 458.252H937.694Z" fill="#D4388B"/>
<path d="M672.13 418.627L589.942 427.94L554.254 483.815L672.13 418.627Z" fill="#8863AA"/>
<path d="M436.566 467.127L532.441 311.627L397.503 411.065L436.566 467.127Z" fill="#492666"/>
<path d="M781.381 356.127L699.193 365.439L669.755 417.815L781.381 356.127Z" fill="#8863AA"/>
<path d="M881.443 315.877L808.13 297.814L798.255 344.627L881.443 315.877Z" fill="#883685"/>
<path d="M865.569 360.377L809.443 333.377L805.256 373.377L865.569 360.377Z" fill="#883685"/>
<path d="M895.819 344.064V364.502L853.068 368.752L895.819 344.064Z" fill="#883685"/>
<path d="M856.131 375.814L877.194 388.69L874.693 371.752L856.131 375.814Z" fill="#883685"/>
<path d="M937.444 332.127L923.319 353.252L905.381 344.127L937.444 332.127Z" fill="#883685"/>
<path d="M1177.07 115.063L1189.7 89.1407L1144.57 71.3754L1177.07 115.063Z" fill="#542A6C"/>
<path d="M1105.38 102.938V139.876L1018.26 113.251L1105.38 102.938Z" fill="#542A6C"/>
<path d="M1199.76 76.8129L1190.63 50.2815L1163.38 40.2502L1199.76 76.8129Z" fill="#542A6C"/>
<path d="M1209.82 133.313H1173.26L1185.95 121.563L1209.82 133.313Z" fill="#743C94"/>
<path d="M1124.82 162.438L1064.32 122.063L1005.07 150.751L1124.82 162.438Z" fill="#743C94"/>
<path d="M1160.88 167.501L1142.26 137.126L1127.2 162.751L1160.88 167.501Z" fill="#743C94"/>
<path d="M774.693 305.002L739.817 366.627H658.129L774.693 305.002Z" fill="#7D4AAB"/>
<path d="M897.881 146.251L975.194 119.313L934.319 172.313L897.881 146.251Z" fill="#542A6C"/>
<path d="M968.444 181.126L1071.51 132.813L1016.51 217.439L968.444 181.126Z" fill="#3A214E"/>
<path d="M908.006 304.002L967.944 235.626L1017.38 267.939L908.006 304.002Z" fill="#542A6C"/>
<path d="M832.069 163.751L870.881 305.564L805.568 236.001L832.069 163.751Z" fill="#67236D"/>
<path d="M1102.51 256.251L1131.63 263.189L1073.88 279.126L1102.51 256.251Z" fill="#542A6C"/>
<path d="M1225.38 178.813L1279.42 196.501L1270.63 178.813H1225.38Z" fill="#D4388B"/>
<path d="M1164.63 145.563L1216.07 170.001L1184.38 175.188L1164.63 145.563Z" fill="#D4388B"/>
<path d="M1035.26 266.126L1079.38 274.939L1024.76 323.939L1035.26 266.126Z" fill="#A3327C"/>
<path d="M1037.82 293.127L946.569 337.564L1016.51 270.689L1037.82 293.127Z" fill="#542A6C"/>
<path d="M940.131 327.439L911.569 345.627L915.194 318.627L940.131 327.439Z" fill="#542A6C"/>
<path d="M992.632 267.689L1103.63 222.814L1030.01 213.626L992.632 267.689Z" fill="#883685"/>
<path d="M930.006 331.814L1031.51 282.814L957.382 277.626L930.006 331.814Z" fill="#883685"/>
<path d="M989.507 252.126L1087.32 183.001L1036.26 151.376L989.507 252.126Z" fill="#743C94"/>
<path d="M1167.95 159.438L1153.82 129.376L1145.7 148.626L1167.95 159.438Z" fill="#A3327C"/>
<path d="M954.443 125.188L1061.44 106.313L1011.57 157.751L954.443 125.188Z" fill="#73328A"/>
<path d="M864.256 206.126L909.381 284.126L895.319 313.502L864.256 206.126Z" fill="#542A6C"/>
<path d="M1105.88 260.439L1158.82 220.376L1102.26 196.501L1105.88 260.439Z" fill="#883685"/>
<path d="M1142.07 166.063L1179.7 193.376L1164.63 163.688L1142.07 166.063Z" fill="#A3327C"/>
<path d="M1130.32 146.126L1175.01 176.251L1181.26 161.188L1130.32 146.126Z" fill="#883685"/>
<path d="M1268.57 186.251L1299.51 188.251L1334.57 222.814L1268.57 186.251Z" fill="#883685"/>
<path d="M1318.63 193.064L1363.2 219.501L1371.38 201.126L1318.63 193.064Z" fill="#883685"/>
<path d="M1358.01 228.876L1380.88 225.001L1394.14 244.064L1358.01 228.876Z" fill="#A3327C"/>
<path d="M1177.57 149.251L1226.07 164.376L1235.01 187.438L1177.57 149.251Z" fill="#883685"/>
<path d="M1189.76 137.813L1141.13 139.063L1164.63 125.188L1189.76 137.813Z" fill="#883685"/>
<path d="M896.881 270.689L873.444 204.501L906.569 178.688L896.881 270.689Z" fill="#67236D"/>
<path d="M894.569 222.626L997.445 233.751L923.757 183.751L894.569 222.626Z" fill="#743C94"/>
<path d="M855.131 155.251L897.881 142.938L871.381 196.751L855.131 155.251Z" fill="#542A6C"/>
<path d="M741.568 298.377L725.443 338.814L671.005 324.314L741.568 298.377Z" fill="#73328A"/>
<path d="M1161.88 37.6252L1183.51 54.2503L1141.63 47.0002L1161.88 37.6252Z" fill="#3A214E"/>
<path d="M352.315 495.69L339.44 440.752L264.627 508.253L352.315 495.69Z" fill="#492666"/>
<path d="M787.63 299.627L800.568 344.939H871.699L787.63 299.627Z" fill="#7D4AAB"/>
<path d="M884.943 360.627L897.568 372.377L888.568 386.19L884.943 360.627Z" fill="#A3327C"/>
<path d="M891.881 427.815L852.194 410.627L863.006 430.752L891.881 427.815Z" fill="#A3327C"/>
<path d="M899.131 385.252L892.506 411.502L909.787 412.752L899.131 385.252Z" fill="#A3327C"/>
<path d="M910.505 349.189L936.943 346.189L924.318 371.752L910.505 349.189Z" fill="#A3327C"/>
<path d="M927.944 371.814L935.194 385.877L921.069 408.127L927.944 371.814Z" fill="#A3327C"/>
<path d="M970.444 381.752L1029.26 374.502L983.257 358.627L970.444 381.752Z" fill="#A3327C"/>
<path d="M1055.45 361.564L1025.63 350.045L1053.63 342.627L1055.45 361.564Z" fill="#A3327C"/>
<path d="M1203.88 388.565L1176.26 406.627L1207.7 371.127L1203.88 388.565Z" fill="#A3327C"/>
<path d="M976.631 350.127L1009.13 359.752L994.193 310.314L976.631 350.127Z" fill="#A3327C"/>
<path d="M1120.45 271.439L1098.51 290.939L1069.88 262.376L1120.45 271.439Z" fill="#A3327C"/>
<path d="M1153.38 240.939L1115.88 263.126L1075.94 236.439L1153.38 240.939Z" fill="#A3327C"/>
<path d="M1074.19 194.439L1125.57 232.001L1053.07 214.189L1074.19 194.439Z" fill="#A3327C"/>
<path d="M922.319 396.002L929.006 411.377L913.944 423.69L922.319 396.002Z" fill="#C84A9D"/>
<path d="M866.006 410.002L879.506 422.94L900.256 413.315L866.006 410.002Z" fill="#C84A9D"/>
<path d="M746.005 479.128V454.815L795.318 487.253L746.005 479.128Z" fill="#C84A9D"/>
<path d="M917.444 423.377L901.256 436.565L884.506 416.565L917.444 423.377Z" fill="#A3327C"/>
<path d="M891.006 428.627L893.381 449.065L910.069 457.502L891.006 428.627Z" fill="#A3327C"/>
<path d="M892.131 469.252L890.319 483.253H867.631L892.131 469.252Z" fill="#A3327C"/>
<path d="M872.318 510.003L869.318 526.378H849.63L872.318 510.003Z" fill="#A3327C"/>
<path d="M931.819 432.252V458.377L912.881 435.565L931.819 432.252Z" fill="#A3327C"/>
<path d="M849.381 508.628L867.381 483.878L833.693 497.003L849.381 508.628Z" fill="#A3327C"/>
<path d="M893.944 497.815L907.507 478.253L881.944 487.565L893.944 497.815Z" fill="#A3327C"/>
<path d="M915.381 475.315L926.757 457.815L903.381 465.065L915.381 475.315Z" fill="#A3327C"/>
<path d="M1142.26 47.8752L1171.88 76.5004L1124.88 86.5004L1142.26 47.8752Z" fill="#3A214E"/>
<path d="M799.193 469.502L817.256 507.753L787.505 482.128L799.193 469.502Z" fill="#A3327C"/>
<path d="M1151.26 70.3754L1203.38 75.3754L1191.26 95.938L1151.26 70.3754Z" fill="#542A6C"/>
<path d="M955.444 157.251L1011.57 117.751L1016.76 171.751L955.444 157.251Z" fill="#542A6C"/>
<path d="M573.948 435.377L607.136 389.627L519.253 342.127L573.948 435.377Z" fill="#743C94"/>
<path d="M712.192 435.377L761.88 451.127L749.818 468.065L712.192 435.377Z" fill="#A3327C"/>
<path d="M213.689 748.316L244.377 681.316L293.752 722.379L213.689 748.316Z" fill="#743C94"/>
<path d="M823.006 216.751V170.563L758.005 198.251L823.006 216.751Z" fill="#73328A"/>
<path d="M569.129 358.752L669.317 239.751L530.879 312.877L569.129 358.752Z" fill="#542A6C"/>
<path d="M705.38 296.627L810.631 176.313L667.88 239.126L705.38 296.627Z" fill="#542A6C"/>
<path d="M504.691 560.253L517.504 540.753L494.503 542.994L504.691 560.253Z" fill="#73328A"/>
<path d="M217.502 674.441L215.189 613.253L177.251 659.878L217.502 674.441Z" fill="#743C94"/>
<path d="M782.693 396.377L807.568 442.502L775.568 418.315L782.693 396.377Z" fill="#A3327C"/>
<path d="M1323.51 90.563L1289.51 96.5005L1309.13 103.376L1323.51 90.563Z" fill="#883685"/>
<path d="M1272.76 106.251L1294.88 95.438L1305.82 103.876L1272.76 106.251Z" fill="#67236D"/>
<path d="M1293.63 102.626H1272.38V112.938L1293.63 102.626Z" fill="#743C94"/>
<path d="M1402.82 50.0003L1375.45 66.3128H1391.82L1402.82 50.0003Z" fill="#883685"/>
<path d="M1417.82 77.3754L1384.45 79.4379L1406.13 90.563L1417.82 77.3754Z" fill="#883685"/>
<path d="M1404.64 31.0627L1367.26 14.1876L1382.63 8.50004L1404.64 31.0627Z" fill="#883685"/>
<path d="M1422.95 30.1251L1407.95 35.5627L1416.07 54.1878L1422.95 30.1251Z" fill="#883685"/>
<path d="M1355.76 75.4379L1377.26 63.1878L1385.32 69.2504L1355.76 75.4379Z" fill="#67236D"/>
<path d="M1376.63 73.7504H1355.38V84.0629L1376.63 73.7504Z" fill="#743C94"/>
<path d="M1277.26 103.876L1243.26 109.813L1262.88 116.688L1277.26 103.876Z" fill="#883685"/>
<path d="M1226.51 119.563L1248.63 108.751L1259.57 117.188L1226.51 119.563Z" fill="#67236D"/>
<path d="M1241.51 120.438L1220.45 114.813L1208.88 129.438L1241.51 120.438Z" fill="#883685"/>
<path d="M1343.57 79.1879L1318.88 93.7505H1338.13L1343.57 79.1879Z" fill="#883685"/>
<path d="M1383.88 77.9379L1346.26 81.5629L1355.57 91.5005L1383.88 77.9379Z" fill="#883685"/>
<path d="M1303.38 97.188L1325.51 86.3754L1336.45 94.813L1303.38 97.188Z" fill="#67236D"/>
<path d="M1149.01 214.546L1160.07 210.751L1180.45 235.796L1149.01 214.546Z" fill="#743C94"/>
<path d="M1357.07 73.0161L1337.82 84.4537L1350.2 91.0162L1357.07 73.0161Z" fill="#67236D"/>
<path d="M1187.88 133.751L1212.13 117.376L1223.82 127.188L1187.88 133.751Z" fill="#67236D"/>
<path d="M923.694 358.627L941.944 369.377L936.694 391.69L923.694 358.627Z" fill="#C84A9D"/>
<path d="M1251.26 114.063L1228.45 112.501L1237.2 123.251L1251.26 114.063Z" fill="#743C94"/>
<path d="M1167.51 99.5122L1177.32 120.001L1126.13 110.251L1167.51 99.5122Z" fill="#3A214E"/>
<path d="M1165.2 213.064L1143.38 235.501L1121.57 193.876L1165.2 213.064Z" fill="#67236D"/>
<path d="M1112.51 207.064L1139.63 192.939L1097.26 167.001L1112.51 207.064Z" fill="#743C94"/>
<path d="M1120.38 161.563L1168.57 112.313L1079.07 122.251L1120.38 161.563Z" fill="#6D2367"/>
<path d="M1377.63 220.439L1329.82 258.876L1362.07 220.439H1377.63Z" fill="#D4388B"/>
<path d="M1332.51 221.501L1343.7 211.751L1368.63 236.689L1332.51 221.501Z" fill="#A3327C"/>
<path d="M1363.45 216.064L1312.88 252.689L1347.88 216.064H1363.45Z" fill="#D4388B"/>
<path d="M1304.95 198.751L1316.13 189.001L1341.07 213.939L1304.95 198.751Z" fill="#A3327C"/>
<path d="M1383.57 11.8126L1352.88 26.5001L1374.26 3.06251L1383.57 11.8126Z" fill="#D4388B"/>
<path d="M1419.38 47.8752L1389.26 63.1253L1410.63 39.7502L1419.38 47.8752Z" fill="#D4388B"/>
<path d="M1389.88 25.9376L1418.76 32.5627L1389.88 11.8126V25.9376Z" fill="#D4388B"/>
<path d="M1425.07 81.8754L1413.95 100.813L1408.2 77.9379L1425.07 81.8754Z" fill="#D4388B"/>
<path d="M1401.88 85.5004L1374.57 76.7504L1371.26 91.188L1401.88 85.5004Z" fill="#67236D"/>
<path d="M1312.88 207.189L1360.61 211.751L1368.61 198.626L1312.88 207.189Z" fill="#D4388B"/>
<path d="M1107.38 262.126L1004.07 274.939L1063.82 239.626L1107.38 262.126Z" fill="#743C94"/>
<path d="M1225.51 371.502L1218.51 362.502L1206.26 382.377L1225.51 371.502Z" fill="#D4388B"/>
<path d="M1241.38 346.752L1236.2 337.502L1226.26 361.564L1241.38 346.752Z" fill="#D4388B"/>
<path d="M1203.07 358.002L1208.88 342.877L1212.63 382.44L1203.07 358.002Z" fill="#883685"/>
<path d="M1204.76 335.877L1213.51 331.252L1213.51 364.127L1204.76 335.877Z" fill="#A3327C"/>
<path d="M1209.13 307.66L1198.13 313.502V280.376L1209.13 307.66Z" fill="#D4388B"/>
<path d="M1201.01 328.947L1211.51 338.814L1206.55 299.252L1201.01 328.947Z" fill="#883685"/>
<path d="M1199.16 265.15L1189.26 275.564L1182.38 235.751L1199.16 265.15Z" fill="#A3327C"/>
<path d="M1189.95 247.689L1180.04 253.376L1164.7 221.814L1189.95 247.689Z" fill="#883685"/>
<path d="M1193.13 285.322L1203.63 295.189L1197.51 261.376L1193.13 285.322Z" fill="#883685"/>
<path d="M1220.13 287.501L1230.76 282.876L1230.76 315.752L1220.13 287.501Z" fill="#A3327C"/>
<path d="M1209.13 235.534L1218.76 230.001L1221.2 274.001L1209.13 235.534Z" fill="#D4388B"/>
<path d="M1218.26 276.197L1228.76 286.064L1223.8 246.501L1218.26 276.197Z" fill="#883685"/>
<path d="M1228.63 318.439L1239.26 313.814L1239.26 346.689L1228.63 318.439Z" fill="#A3327C"/>
<path d="M1233.13 293.535L1222.13 299.377V266.251L1233.13 293.535Z" fill="#D4388B"/>
<path d="M1226.76 315.572L1237.26 325.439L1232.3 285.877L1226.76 315.572Z" fill="#883685"/>
<path d="M1206.26 214.501L1201.88 224.126L1171.63 191.251L1206.26 214.501Z" fill="#A3327C"/>
<path d="M1163.13 175.376L1194.26 198.564L1191.13 209.001L1163.13 175.376Z" fill="#883685"/>
<path d="M1205.01 229.626L1220.51 234.626L1201.57 208.689L1205.01 229.626Z" fill="#883685"/>
<path d="M261.627 511.003L195.501 568.94L276.002 564.503L261.627 511.003Z" fill="#542A6C"/>
<g filter="url(#filter0_d)">
<path d="M1348.35 91.3321H1408.42L1414.84 105.673L1427.56 76.9571L1370.46 76.7497L1414.88 56.5091L1427.55 32.682L1370.51 1L1362.54 12.1078L1362.54 12.1086L1348.37 32.7612L1370.53 20.1499L1408.38 32.7443L1400.64 50.19L1349 76.7497M1348.35 91.3321L1259.73 118.267L1259.73 118.267L1209.04 132.518M1348.35 91.3321L1304.01 104.677L1259.7 118.147L1259.69 118.147L1209.01 132.397L1161.57 145.022L1161.58 145.144L1202.7 153.081L1250.19 173.64L1250.19 173.642L1250.2 173.643L1300.82 187.893L1300.83 187.894L1370.46 197.387V216.367L1400.51 235.355L1370.83 291.631L1386.42 244.797L1362.58 235.261L1317.2 271.24L1348.39 235.374L1348.31 235.278L1301.21 260.376L1337.38 225.818L1300.87 206.777L1300.86 206.776L1300.86 206.774L1250.22 187.77H1234.41L1202.72 173.518L1175.71 176.722L1208.98 216.373L1208.98 216.375L1208.98 216.377L1218.47 225.866L1240.01 314.456L1243.84 339.708L1234.34 360.37M1209.04 132.518L1209.02 132.457M1209.04 132.518L1161.87 145.073L1202.73 152.96L1250.23 173.522L1250.24 173.525L1300.85 187.771L1300.85 187.772L1370.59 197.278V216.298L1400.67 235.311L1370.59 292.353L1370.58 292.362L1370.47 292.313L1370.47 292.304L1386.26 244.869L1362.6 235.404L1316.76 271.749L1316.75 271.757L1316.67 271.667L1316.67 271.659L1348.07 235.547L1300.87 260.701L1300.79 260.6L1337.17 225.848L1300.82 206.891L1300.81 206.888L1250.2 187.895H1234.39L1202.7 173.647L1175.96 176.819L1209.07 216.289L1209.07 216.293L1218.57 225.789L1218.58 225.8L1218.58 225.816M1234.34 360.37L1218.58 382.554L1218.58 382.558L1193.27 423.742L1193.26 423.751L1175.88 437.945L1175.78 437.872L1193.06 396.964L1166.38 417.384L1166.29 417.294L1202.65 372.999V339.771L1193.15 284.413L1183.66 260.674L1161.59 225.953L1144.2 255.939L1144.18 255.948L1120.46 271.742V292.354L1084.07 339.809L1084.07 339.818L1084.06 339.824L1063.5 352.506L1047.64 373.059L1047.62 373.076L1014.41 382.584H969.982L960.455 360.395L969.928 339.829L935.286 338.274M1234.34 360.37L1218.47 382.485L1218.47 382.487L1218.47 382.488L1193.16 423.667L1175.99 437.689L1193.36 396.578L1166.73 416.956L1202.76 373.061L1202.77 373.043V339.766L1202.77 339.76L1193.27 284.385L1193.27 284.379L1193.27 284.372L1183.77 260.622L1183.77 260.617L1183.76 260.612L1161.58 225.712L1144.1 255.852L1120.37 271.651L1076.06 284.338L1063.43 292.277L1063.43 292.28L1030.18 308.089L1030.17 308.096L1014.36 328.653L970.017 339.708L935.135 338.142M943.21 382.51L943.212 382.522L943.209 382.533M751.623 372.959L742.686 338.061L729.446 255.867L724.682 206.776M751.623 372.959L696.209 415.771M751.623 372.959L789.693 400.44L807.88 437.959L810.63 471.229L803.951 479.878L812.622 489.71L821.269 513.897L796.059 491.796L742.686 482.815M795.927 353.953L779.897 271.653L770.56 187.775M795.927 353.953L837.21 314.471M795.927 353.953L751.67 373.084M795.927 353.953L805.193 376.252H852.568M852.568 376.252L881.881 360.395L905.631 348.314M852.568 376.252L879.318 392.502L885.756 409.521M905.631 348.314L935.135 338.142M905.631 348.314L837.21 314.471M905.631 348.314L925.66 376.252L916.21 409.459L908.298 409.438M905.631 348.314L908.298 409.438M905.631 348.314L910.006 329.064M935.151 430.209L943.085 382.521V360.397L935.135 338.142M935.151 430.209V445.584L943.212 477.847L896.819 501.628L879.096 513.28L864.739 533.378L842.256 524.94L847.453 513.28M935.151 430.209L920.506 430.756L908.298 431.381L916.21 468.44L864.735 506.385L847.453 513.28M935.135 338.142L925.444 328.189L910.006 329.064M1349 76.7497L1259.73 105.579L1259.73 105.58L1202.73 118.268L1202.72 118.269L1155.23 126.143L1155.22 126.144L1155.2 126.022M1349 76.7497L1259.7 105.459L1259.69 105.46L1202.7 118.146L1202.7 118.146L1156.37 125.827L1183.76 118.259L1193.27 91.2977L1202.78 77.0282L1193.27 50.1236L1193.26 50.0984L1161.58 35.8244L1136.21 50.1079V67.5006M1155.2 126.022L1155.2 126.021M1155.2 126.022L1126.77 111.832L1120.43 91.3321M1155.2 126.021L1183.66 118.156L1193.15 91.2489L1193.16 91.2415M1155.2 126.021L1120.34 152.96L1084 105.457M1193.16 91.2415L1202.64 77.0109L1193.16 50.1905L1161.59 35.9643L1136.34 50.181V67.5385L1136.33 67.5543L1120.43 91.3321M1193.16 91.2415L1166.73 67.5543L1136.21 67.5006M1120.43 91.3321H1099.86L1084.07 105.566L1084.05 105.582H1047.59M1047.59 105.582L970.041 118.267L970.033 118.269L840.272 159.707M1047.59 105.582L1084 105.457M1047.59 105.582L1008.8 111.802L970.01 118.146L970.006 118.147M840.272 159.707L849.74 230.083L870.398 289.396M840.272 159.707L803.813 173.524M803.859 173.64L803.853 173.642M803.853 173.642L770.609 187.89L724.736 206.889L724.733 206.89L664.613 235.388L664.61 235.389M803.853 173.642L810.25 214.755L819.835 255.867L837.21 314.471M664.61 235.389L594.926 271.763L594.925 271.764L530.054 308.198L530.051 308.2M664.61 235.389L673.959 328.799L696.209 415.771M664.61 235.389L724.685 206.775M530.051 308.2L461.991 352.511L461.99 352.512L461.989 352.512M530.051 308.2C535.311 344.84 538.26 365.382 543.52 402.021L558.52 487.022M461.989 352.512L428.673 380.976M461.989 352.512L470.77 402.021L488.958 469.209L499.958 513.897M428.673 380.976L395.529 409.471M428.673 380.976L395.418 409.408M428.673 380.976L395.423 409.545L421.89 477.897L451.565 543.253L475.389 528.14M428.673 380.976L461.923 352.406L461.926 352.405L529.986 308.093L529.988 308.092L529.99 308.091L594.865 271.654M594.865 271.654L594.867 271.653L664.555 235.277L664.556 235.277L664.557 235.276L724.682 206.776M594.865 271.654L608.333 363.271L616.271 406.271L628.146 450.584M724.682 206.776L724.684 206.776L724.685 206.775M724.685 206.775L770.56 187.775M770.56 187.775L803.813 173.524M770.56 187.775L803.816 173.523L803.813 173.524M1084 105.457L1099.79 91.2232L1099.81 91.2071M1120.37 91.2071L1136.21 67.5006M885.756 409.521H803.951L819.193 430.209L847.453 430.756L867.193 431.381L887.693 432.065L890.881 453.002L860.061 485.664L828.437 496.025L847.453 513.28M885.756 409.521L908.298 409.438M499.958 513.897L558.52 487.022M499.958 513.897L475.389 528.14M499.958 513.897L520.378 521.503L531.441 527.253L509.458 556.647L438.94 615.503L498.878 537.44L475.389 528.14M558.52 487.022L588.697 471.229M558.52 487.022L574.333 502.834L569.879 517.078L547.129 551.94L506.191 579.128L537.958 542.384V513.897L529.986 499.735M628.146 450.584L696.209 415.771M628.146 450.584L618.646 474.334L604.396 520.206L545.833 570.897L588.697 520.213V471.229M628.146 450.584L588.697 471.229M696.209 415.771L700.567 418.94L713.067 429.252M837.21 314.471L870.398 289.396M706.942 445.315L743.192 464.002M870.398 289.396L881.134 314.471L894.881 316.877L910.006 329.064M413.753 608.316L352.727 687.975L252.252 750.023L203.064 753.379L223.251 714.254L185.314 709.004L209.439 672.004L170.314 662.128L190.268 633.71L157.251 626.128V594.253L236.456 528.14L285.894 480.299L338.456 437.858L421.89 595.316L413.753 608.316ZM1076.11 284.453L1120.34 271.791V292.312L1083.98 339.724L1063.44 352.396H1047.62L1038.16 338.205L1063.51 292.378L1076.11 284.453ZM1063.33 352.521L1047.55 372.967L1014.44 382.444L1004.96 352.461L1014.45 328.74L1030.25 308.196L1063.31 292.473L1038.01 338.211L1047.55 352.521H1063.33ZM1004.84 352.477L1014.31 382.459H970.064L960.592 360.397L970.067 339.824L1014.3 328.799L1004.83 352.456L1004.84 352.477ZM1109.34 173.518L1144.2 187.77L1136.34 197.278L1161.57 206.774L1166.73 216.377L1193.36 247.958L1202.64 271.742L1218.47 361.959L1230.38 338.142L1208.98 235.311L1175.99 197.278L1155.23 176.819L1126.77 162.575L1109.34 173.518Z" stroke="#8B98A9" stroke-width="0.625"/>
</g>
<path d="M840.568 409.877L847.318 431.252" stroke="#8B98A9" stroke-width="0.625"/>
<path d="M860.006 485.753L862.1 496.534L864.193 507.315L878.631 513.065M887.756 432.127L908.819 431.44" stroke="#8B98A9" stroke-width="0.625"/>
<path d="M588.504 471.252L618.254 475.377" stroke="#8B98A9" stroke-width="0.625"/>
<path d="M537.816 514.253L574.504 502.94" stroke="#8B98A9" stroke-width="0.625"/>
<path d="M588.441 520.565H603.942" stroke="#8B98A9" stroke-width="0.625"/>
<path d="M499.066 537.128L516.441 546.753" stroke="#8B98A9" stroke-width="0.625"/>
<path d="M497.753 538.753L519.754 521.253" stroke="#8B98A9" stroke-width="0.625"/>
<path d="M751.818 438.002L724.38 409.627V429.752L751.818 450.565V438.002Z" stroke="#8B98A9" stroke-width="0.875"/>
<path d="M777.255 419.94L764.193 424.065L793.693 442.565L777.255 419.94Z" stroke="#8B98A9" stroke-width="0.875"/>
<path d="M793.693 480.753L764.193 450.565L756.63 461.315L793.693 480.753Z" stroke="#8B98A9" stroke-width="0.875"/>
<path d="M712.255 429.002L707.255 446.502" stroke="#8B98A9" stroke-width="0.875"/>
<path d="M742.443 463.502L743.255 483.628" stroke="#8B98A9" stroke-width="0.875"/>
<path d="M1111.51 91.6255L1119.3 119.085L1147.63 131.938" stroke="#8B98A9" stroke-width="0.625"/>
<path d="M1167.32 68.4379L1182.38 93.0005L1176.88 110.751L1154.76 125.938" stroke="#8B98A9" stroke-width="0.625"/>
<path d="M1161.2 36.2502L1186.51 56.1253L1193.63 76.3129L1186.51 85.8129" stroke="#8B98A9" stroke-width="0.625"/>
<path d="M892.569 317.502L947.319 292.502L985.569 275.501L1026.63 253.126L1070.82 227.876L1095.01 198.876L1112.63 204.189L1117.7 224.751L1107.57 239.751L1086.95 253.126L1073.26 266.564L1049.82 274.251L1031.69 290.189L1003.94 301.814L985.569 313.627L960.944 320.627L943.569 326.439L925.319 328.189" stroke="#8B98A9" stroke-width="0.94"/>
<path d="M1095.01 200.314L1094.13 224.001M1094.13 224.001L1117.63 224.751M1094.13 224.001L1071.07 227.876L1061.51 249.751M1094.13 224.001L1086.95 253.251L1061.51 249.751M1061.51 249.751L1050.07 274.001L1018.19 274.314M1061.51 249.751L1026.82 252.939L1018.19 274.314M1018.19 274.314L986.132 275.314L972.819 298.189M1018.19 274.314L1004.13 301.814L972.819 298.189M972.819 298.189L960.944 320.752L934.632 311.564M972.819 298.189L946.882 292.564L934.632 311.564M934.632 311.564L925.569 327.877M934.632 311.564L894.569 316.939" stroke="#8B98A9" stroke-width="0.625"/>
<path d="M857.318 155.813L889.319 167.001M889.319 167.001L909.194 138.751L944.694 150.376M889.319 167.001L922.819 180.626M889.319 167.001L861.506 200.189L899.381 201.501L922.819 180.626M944.694 150.376L968.632 120.313L1002.76 134.001M944.694 150.376L982.507 163.251M944.694 150.376L922.819 180.626M1002.76 134.001L1024.63 109.376L1062.88 125.751M1002.76 134.001L1037.07 150.376M1002.76 134.001L982.507 163.251M1062.88 125.751L1084.01 105.313M1062.88 125.751L1037.07 150.376M1062.88 125.751L1106.26 136.126L1074.44 155.813L1037.07 150.376M1037.07 150.376L1016.76 168.501L982.507 163.251M982.507 163.251L957.507 184.251L922.819 180.626" stroke="#8B98A9" stroke-width="0.625"/>
<path d="M1158.82 226.939L1135.2 246.001L1118.51 259.564L1073.51 273.314L1057.88 283.189L1024.76 299.877L1007.69 319.377L967.569 328.564L933.944 337.377" stroke="#8B98A9" stroke-width="0.625"/>
<path d="M395.94 409.94L470.253 402.377M470.253 402.377L422.003 478.69L488.816 469.19M470.253 402.377H543.754M470.253 402.377L529.504 309.127L602.254 320.564M488.816 469.19L451.878 543.065M488.816 469.19L543.754 402.377M488.816 469.19L558.816 487.003L616.504 406.752M543.754 402.377L602.254 320.564M543.754 402.377L616.504 406.752M602.254 320.564L664.317 236.376M602.254 320.564L674.63 328.877M616.504 406.752L696.317 415.815M616.504 406.752L674.63 328.877M664.317 236.376L674.63 328.877M664.317 236.376L730.318 255.751M674.63 328.877L696.317 415.815M674.63 328.877L730.318 255.751M674.63 328.877L743.005 337.189M696.317 415.815L743.005 337.189M743.005 337.189L778.943 272.751M743.005 337.189L795.943 353.752M778.943 272.751L730.318 255.751M778.943 272.751L827.943 283.439M778.943 272.751L810.193 214.251M730.318 255.751L769.068 188.938L810.193 214.251M827.943 283.439L795.943 353.752M827.943 283.439L848.506 231.251L810.193 214.251M827.943 283.439L869.069 289.752M795.943 353.752L852.756 375.564L837.193 313.564L881.006 314.752L905.131 347.627M810.193 214.251L839.443 160.126" stroke="#8B98A9" stroke-width="0.75"/>
<path d="M350.315 460.002L299.752 526.815M299.752 526.815L362.19 482.94M299.752 526.815L261.002 605.066L342.44 599.941M342.44 599.941L391.44 538.69M342.44 599.941L406.065 566.315" stroke="#8B98A9" stroke-width="0.625"/>
<path d="M383.19 449.44L338.002 438.002L362.315 416.815L394.753 409.877L383.19 449.44ZM383.19 449.44L423.065 478.753M383.19 449.44L362.315 484.503L400.065 495.565M423.065 478.753L400.065 495.565M423.065 478.753V535.503M400.065 495.565L391.19 538.315L423.065 535.503M423.065 535.503L451.941 543.69L444.128 569.878L421.69 595.503L423.065 535.503Z" stroke="#8B98A9" stroke-width="0.75"/>
<path d="M862.444 200.876L849.193 231.564L877.194 263.439M862.444 200.876L840.193 161.188M862.444 200.876L877.194 263.439M862.444 200.876L855.818 155.188M877.194 263.439L869.069 289.564L895.194 317.564L877.194 263.439Z" stroke="#8B98A9" stroke-width="0.75"/>
<ellipse cx="286.439" cy="480.69" rx="5.93754" ry="5.93753" fill="#F7F7F7"/>
<ellipse cx="235.689" cy="527.065" rx="5.93754" ry="5.93753" fill="#F7F7F7"/>
<ellipse cx="339.002" cy="438.752" rx="3.75002" ry="3.75002" fill="#F7F7F7"/>
<ellipse cx="349.877" cy="689.129" rx="3.75002" ry="3.75002" fill="#F7F7F7"/>
<path d="M425.628 594.503C425.628 596.574 423.949 598.253 421.878 598.253C419.807 598.253 418.128 596.574 418.128 594.503C418.128 592.432 419.807 590.753 421.878 590.753C423.949 590.753 425.628 592.432 425.628 594.503Z" fill="#F7F7F7"/>
<path d="M448.003 569.628C448.003 571.699 446.324 573.378 444.253 573.378C442.182 573.378 440.503 571.699 440.503 569.628C440.503 567.557 442.182 565.878 444.253 565.878C446.324 565.878 448.003 567.557 448.003 569.628Z" fill="#F7F7F7"/>
<path d="M397.128 537.815C397.128 541.095 394.47 543.753 391.19 543.753C387.911 543.753 385.253 541.095 385.253 537.815C385.253 534.536 387.911 531.878 391.19 531.878C394.47 531.878 397.128 534.536 397.128 537.815Z" fill="#F7F7F7"/>
<path d="M369.253 483.69C369.253 486.969 366.594 489.628 363.315 489.628C360.036 489.628 357.377 486.969 357.377 483.69C357.377 480.411 360.036 477.753 363.315 477.753C366.594 477.753 369.253 480.411 369.253 483.69Z" fill="#F7F7F7"/>
<path d="M302.502 526.003C302.502 528.074 300.823 529.753 298.752 529.753C296.681 529.753 295.002 528.074 295.002 526.003C295.002 523.932 296.681 522.253 298.752 522.253C300.823 522.253 302.502 523.932 302.502 526.003Z" fill="#F7F7F7"/>
<path d="M264.502 604.378C264.502 606.449 262.823 608.128 260.752 608.128C258.681 608.128 257.002 606.449 257.002 604.378C257.002 602.307 258.681 600.628 260.752 600.628C262.823 600.628 264.502 602.307 264.502 604.378Z" fill="#F7F7F7"/>
<path d="M346.127 599.128C346.127 601.199 344.449 602.878 342.377 602.878C340.306 602.878 338.627 601.199 338.627 599.128C338.627 597.057 340.306 595.378 342.377 595.378C344.449 595.378 346.127 597.057 346.127 599.128Z" fill="#F7F7F7"/>
<path d="M367.127 416.877C367.127 418.948 365.449 420.627 363.377 420.627C361.306 420.627 359.627 418.948 359.627 416.877C359.627 414.806 361.306 413.127 363.377 413.127C365.449 413.127 367.127 414.806 367.127 416.877Z" fill="#F7F7F7"/>
<path d="M405.878 495.565C405.878 498.844 403.22 501.503 399.94 501.503C396.661 501.503 394.003 498.844 394.003 495.565C394.003 492.286 396.661 489.628 399.94 489.628C403.22 489.628 405.878 492.286 405.878 495.565Z" fill="#F7F7F7"/>
<path d="M428.878 535.94C428.878 539.22 426.22 541.878 422.94 541.878C419.661 541.878 417.003 539.22 417.003 535.94C417.003 532.661 419.661 530.003 422.94 530.003C426.22 530.003 428.878 532.661 428.878 535.94Z" fill="#F7F7F7"/>
<path d="M455.753 543.128C455.753 545.199 454.074 546.878 452.003 546.878C449.932 546.878 448.253 545.199 448.253 543.128C448.253 541.057 449.932 539.378 452.003 539.378C454.074 539.378 455.753 541.057 455.753 543.128Z" fill="#F7F7F7"/>
<path d="M389.378 449.565C389.378 452.844 386.719 455.502 383.44 455.502C380.161 455.502 377.502 452.844 377.502 449.565C377.502 446.286 380.161 443.627 383.44 443.627C386.719 443.627 389.378 446.286 389.378 449.565Z" fill="#F7F7F7"/>
<ellipse cx="499.253" cy="512.628" rx="3.75002" ry="3.75002" fill="#F7F7F7"/>
<ellipse cx="558.129" cy="487.253" rx="3.75002" ry="3.75002" fill="#F7F7F7"/>
<ellipse cx="628.379" cy="451.752" rx="3.75002" ry="3.75002" fill="#F7F7F7"/>
<ellipse cx="696.38" cy="415.377" rx="3.75002" ry="3.75002" fill="#F7F7F7"/>
<ellipse cx="751.755" cy="373.377" rx="3.75002" ry="3.75002" fill="#F7F7F7"/>
<ellipse cx="796.38" cy="353.627" rx="3.75002" ry="3.75002" fill="#F7F7F7"/>
<ellipse cx="837.631" cy="314.252" rx="3.75002" ry="3.75002" fill="#F7F7F7"/>
<ellipse cx="869.506" cy="289.377" rx="3.75002" ry="3.75002" fill="#F7F7F7"/>
<ellipse cx="840.256" cy="161.001" rx="3.75002" ry="3.75002" fill="#F7F7F7"/>
<path d="M808.505 173.968C808.505 176.039 806.826 177.718 804.755 177.718C802.684 177.718 801.005 176.039 801.005 173.968C801.005 171.897 802.684 170.218 804.755 170.218C806.826 170.218 808.505 171.897 808.505 173.968Z" fill="#F7F7F7"/>
<ellipse cx="770.005" cy="189.126" rx="3.75002" ry="3.75002" fill="#F7F7F7"/>
<ellipse cx="725.63" cy="208.626" rx="3.75002" ry="3.75002" fill="#F7F7F7"/>
<ellipse cx="665.38" cy="236.126" rx="3.75002" ry="3.75002" fill="#F7F7F7"/>
<path d="M598.441 271.439C598.441 273.51 596.763 275.189 594.691 275.189C592.62 275.189 590.941 273.51 590.941 271.439C590.941 269.368 592.62 267.689 594.691 267.689C596.763 267.689 598.441 269.368 598.441 271.439Z" fill="#F7F7F7"/>
<ellipse cx="529.754" cy="308.002" rx="3.75002" ry="3.75002" fill="#F7F7F7"/>
<ellipse cx="461.253" cy="353.502" rx="3.75002" ry="3.75002" fill="#F7F7F7"/>
<ellipse cx="395.003" cy="410.002" rx="3.75002" ry="3.75002" fill="#F7F7F7"/>
<path d="M426.128 478.753C426.128 480.824 424.449 482.503 422.378 482.503C420.307 482.503 418.628 480.824 418.628 478.753C418.628 476.681 420.307 475.003 422.378 475.003C424.449 475.003 426.128 476.681 426.128 478.753Z" fill="#F7F7F7"/>
<ellipse cx="543.379" cy="401.877" rx="3.75002" ry="3.75002" fill="#F7F7F7"/>
<ellipse cx="674.005" cy="329.252" rx="3.75002" ry="3.75002" fill="#F7F7F7"/>
<ellipse cx="779.63" cy="272.251" rx="3.75002" ry="3.75002" fill="#F7F7F7"/>
<path d="M852.631 231.751C852.631 233.822 850.952 235.501 848.881 235.501C846.81 235.501 845.131 233.822 845.131 231.751C845.131 229.68 846.81 228.001 848.881 228.001C850.952 228.001 852.631 229.68 852.631 231.751Z" fill="#F7F7F7"/>
<path d="M898.631 316.752C898.631 318.823 896.952 320.502 894.881 320.502C892.81 320.502 891.131 318.823 891.131 316.752C891.131 314.681 892.81 313.002 894.881 313.002C896.952 313.002 898.631 314.681 898.631 316.752Z" fill="#F7F7F7"/>
<path d="M913.131 329.127C913.131 330.853 911.732 332.252 910.006 332.252C908.28 332.252 906.881 330.853 906.881 329.127C906.881 327.401 908.28 326.002 910.006 326.002C911.732 326.002 913.131 327.401 913.131 329.127Z" fill="#F7F7F7"/>
<path d="M880.756 262.876C880.756 264.947 879.077 266.626 877.006 266.626C874.935 266.626 873.256 264.947 873.256 262.876C873.256 260.805 874.935 259.126 877.006 259.126C879.077 259.126 880.756 260.805 880.756 262.876Z" fill="#F7F7F7"/>
<path d="M865.756 200.376C865.756 202.447 864.077 204.126 862.006 204.126C859.935 204.126 858.256 202.447 858.256 200.376C858.256 198.305 859.935 196.626 862.006 196.626C864.077 196.626 865.756 198.305 865.756 200.376Z" fill="#F7F7F7"/>
<path d="M860.131 154.251C860.131 156.322 858.452 158.001 856.381 158.001C854.31 158.001 852.631 156.322 852.631 154.251C852.631 152.18 854.31 150.501 856.381 150.501C858.452 150.501 860.131 152.18 860.131 154.251Z" fill="#F7F7F7"/>
<path d="M1140.26 69.0004C1140.26 71.0714 1138.58 72.7504 1136.51 72.7504C1134.44 72.7504 1132.76 71.0714 1132.76 69.0004C1132.76 66.9293 1134.44 65.2503 1136.51 65.2503C1138.58 65.2503 1140.26 66.9293 1140.26 69.0004Z" fill="#F7F7F7"/>
<path d="M948.506 150.501C948.506 152.572 946.827 154.251 944.756 154.251C942.685 154.251 941.006 152.572 941.006 150.501C941.006 148.43 942.685 146.751 944.756 146.751C946.827 146.751 948.506 148.43 948.506 150.501Z" fill="#F7F7F7"/>
<path d="M1065.38 125.501C1065.38 127.572 1063.7 129.251 1061.63 129.251C1059.56 129.251 1057.88 127.572 1057.88 125.501C1057.88 123.43 1059.56 121.751 1061.63 121.751C1063.7 121.751 1065.38 123.43 1065.38 125.501Z" fill="#F7F7F7"/>
<ellipse cx="905.631" cy="348.752" rx="3.75002" ry="3.75002" fill="#F7F7F7"/>
<path d="M857.131 376.752C857.131 378.823 855.452 380.502 853.381 380.502C851.31 380.502 849.631 378.823 849.631 376.752C849.631 374.681 851.31 373.002 853.381 373.002C855.452 373.002 857.131 374.681 857.131 376.752Z" fill="#F7F7F7"/>
<ellipse cx="934.881" cy="337.877" rx="3.75002" ry="3.75002" fill="#F7F7F7"/>
<ellipse cx="969.132" cy="339.627" rx="3.75002" ry="3.75002" fill="#F7F7F7"/>
<ellipse cx="1013.76" cy="328.752" rx="3.75002" ry="3.75002" fill="#F7F7F7"/>
<ellipse cx="1062.38" cy="292.752" rx="3.75002" ry="3.75002" fill="#F7F7F7"/>
<ellipse cx="1119.63" cy="271.876" rx="3.75002" ry="3.75002" fill="#F7F7F7"/>
<ellipse cx="1161.38" cy="225.751" rx="3.75002" ry="3.75002" fill="#F7F7F7"/>
<ellipse cx="979.069" cy="373.439" rx="7.93755" ry="3.31252" fill="#F7F7F7"/>
<ellipse cx="1021.69" cy="370.064" rx="7.93755" ry="3.31252" fill="#F7F7F7"/>
<ellipse cx="1056.57" cy="341.689" rx="7.93755" ry="3.31252" fill="#F7F7F7"/>
<ellipse cx="1061.13" cy="250.251" rx="3.75002" ry="3.75002" fill="#F7F7F7"/>
<ellipse cx="1094.01" cy="224.251" rx="3.75002" ry="3.75002" fill="#F7F7F7"/>
<ellipse cx="1018.01" cy="274.376" rx="3.75002" ry="3.75002" fill="#F7F7F7"/>
<ellipse cx="972.882" cy="298.502" rx="3.75002" ry="3.75002" fill="#F7F7F7"/>
<ellipse cx="934.506" cy="312.002" rx="3.75002" ry="3.75002" fill="#F7F7F7"/>
<ellipse cx="1075.88" cy="175.626" rx="6.25004" ry="6.25003" fill="#F7F7F7"/>
<path d="M1025.38 184.438C1025.38 183.748 1025.94 183.188 1026.63 183.188C1027.32 183.188 1027.88 183.748 1027.88 184.438C1027.88 185.129 1027.32 185.688 1026.63 185.688C1025.94 185.688 1025.38 185.129 1025.38 184.438Z" fill="#F7F7F7" stroke="#F7F7F7" stroke-width="15"/>
<g filter="url(#filter1_d)">
<ellipse cx="988.632" cy="213.626" rx="6.25004" ry="6.25003" fill="#F7F7F7"/>
</g>
<g filter="url(#filter2_d)">
<ellipse cx="956.132" cy="234.251" rx="6.25004" ry="6.25003" fill="#F7F7F7"/>
</g>
<ellipse cx="932.631" cy="208.626" rx="6.25004" ry="6.25003" fill="#F7F7F7"/>
<ellipse cx="902.256" cy="241.751" rx="6.25004" ry="6.25003" fill="#F7F7F7"/>
<ellipse cx="1206.63" cy="116.001" rx="5.00003" ry="5.00003" fill="#CECECE"/>
<ellipse cx="1262.26" cy="103.626" rx="5.00003" ry="5.00003" fill="#CECECE"/>
<ellipse cx="1319.51" cy="85.5005" rx="5.00003" ry="5.00003" fill="#CECECE"/>
<ellipse cx="1374.76" cy="61.7503" rx="5.00003" ry="5.00003" fill="#CECECE"/>
<ellipse cx="90.0005" cy="693.879" rx="6.25004" ry="6.25003" fill="#998AA3"/>
<ellipse cx="132.376" cy="711.754" rx="6.25004" ry="6.25003" fill="#998AA3"/>
<ellipse cx="145.001" cy="652.128" rx="7.50005" ry="7.50004" fill="#CECECE"/>
<ellipse cx="113.001" cy="671.379" rx="6.25004" ry="6.25003" fill="#998AA3"/>
<ellipse cx="68.2505" cy="659.628" rx="6.25004" ry="6.25003" fill="#898AA3"/>
<ellipse cx="75.6255" cy="720.254" rx="5.00003" ry="5.00003" fill="#898AA3"/>
<ellipse cx="45.7505" cy="697.629" rx="5.00003" ry="5.00003" fill="#898AA3"/>
<ellipse cx="39.75" cy="740.254" rx="5.00003" ry="5.00003" fill="#898AA3"/>
<ellipse cx="111.564" cy="738.191" rx="5.43754" ry="5.43753" fill="#998AA3"/>
<ellipse cx="28.5" cy="947.255" rx="3.12502" ry="3.12502" fill="#898AA3"/>
<ellipse cx="9.37502" cy="922.005" rx="3.12502" ry="3.12502" fill="#898AA3"/>
<ellipse cx="3.12502" cy="893.38" rx="3.12502" ry="3.12502" fill="#898AA3"/>
<ellipse cx="15.875" cy="868.505" rx="3.12502" ry="3.12502" fill="#898AA3"/>
<ellipse cx="31.625" cy="846.129" rx="3.12502" ry="3.12502" fill="#898AA3"/>
<ellipse cx="99.813" cy="769.942" rx="4.68753" ry="4.68752" fill="#898AA3"/>
<ellipse cx="66.8755" cy="813.504" rx="3.75002" ry="3.75002" fill="#898AA3"/>
<ellipse cx="48.8755" cy="831.004" rx="3.12502" ry="3.12502" fill="#898AA3"/>
<ellipse cx="71.563" cy="749.191" rx="4.68753" ry="4.68752" fill="#898AA3"/>
<ellipse cx="63.563" cy="781.817" rx="4.68753" ry="4.68752" fill="#898AA3"/>
<ellipse cx="36.3125" cy="775.567" rx="4.68753" ry="4.68752" fill="#898AA3"/>
<ellipse cx="38.8125" cy="804.442" rx="4.06253" ry="4.06252" fill="#898AA3"/>
<ellipse cx="94.688" cy="798.692" rx="4.68753" ry="4.68752" fill="#898AA3"/>
<ellipse cx="196.189" cy="795.692" rx="4.68753" ry="4.68752" fill="#998AA3"/>
<ellipse cx="161.314" cy="798.692" rx="4.68753" ry="4.68752" fill="#998AA3"/>
<ellipse cx="129.564" cy="793.942" rx="4.68753" ry="4.68752" fill="#898AA3"/>
<ellipse cx="137.814" cy="769.192" rx="5.43754" ry="5.43753" fill="#998AA3"/>
<ellipse cx="130.001" cy="604.753" rx="7.50005" ry="7.50004" fill="#CECECE"/>
<ellipse cx="222.252" cy="777.129" rx="7.50005" ry="7.50004" fill="#CECECE"/>
<ellipse cx="99.2505" cy="629.753" rx="7.50005" ry="7.50004" fill="#998AA3"/>
<ellipse cx="186.002" cy="732.754" rx="7.50005" ry="7.50004" fill="#CECECE"/>
<ellipse cx="176.751" cy="771.504" rx="5.62504" ry="5.62503" fill="#998AA3"/>
<ellipse cx="163.251" cy="695.129" rx="7.50005" ry="7.50004" fill="#CECECE"/>
<ellipse cx="155.751" cy="743.629" rx="5.62504" ry="5.62503" fill="#998AA3"/>
<ellipse cx="569.129" cy="680.754" rx="3.12502" ry="3.12502" fill="#898AA3"/>
<ellipse cx="603.129" cy="683.879" rx="3.12502" ry="3.12502" fill="#898AA3"/>
<ellipse cx="637.067" cy="676.066" rx="4.68753" ry="4.68752" fill="#898AA3"/>
<ellipse cx="673.13" cy="663.629" rx="6.25004" ry="6.25003" fill="#898AA3"/>
<ellipse cx="709.505" cy="638.503" rx="6.25004" ry="6.25003" fill="#898AA3"/>
<ellipse cx="753.13" cy="611.378" rx="6.25004" ry="6.25003" fill="#998AA3"/>
<ellipse cx="780.505" cy="579.878" rx="6.25004" ry="6.25003" fill="#CECECE"/>
<ellipse cx="820.756" cy="552.128" rx="7.50005" ry="7.50004" fill="#CECECE"/>
<ellipse cx="1232.26" cy="547.753" rx="3.12502" ry="3.12502" fill="#898AA3"/>
<ellipse cx="1256.01" cy="529.753" rx="3.12502" ry="3.12502" fill="#898AA3"/>
<ellipse cx="1277.7" cy="504.19" rx="4.68753" ry="4.68752" fill="#898AA3"/>
<ellipse cx="1299.38" cy="474.252" rx="6.25004" ry="6.25003" fill="#898AA3"/>
<ellipse cx="1325.63" cy="439.002" rx="6.25004" ry="6.25003" fill="#898AA3"/>
<ellipse cx="1338.13" cy="400.377" rx="6.25004" ry="6.25003" fill="#B2B3BC"/>
<ellipse cx="1350.63" cy="365.002" rx="6.25004" ry="6.25003" fill="#CECECE"/>
<ellipse cx="1364.38" cy="327.502" rx="7.50005" ry="7.50004" fill="#CECECE"/>
<ellipse cx="889.256" cy="568.878" rx="3.12502" ry="3.12502" fill="#898AA3"/>
<ellipse cx="923.256" cy="572.003" rx="3.12502" ry="3.12502" fill="#898AA3"/>
<ellipse cx="957.194" cy="564.19" rx="4.68753" ry="4.68752" fill="#898AA3"/>
<ellipse cx="993.257" cy="551.753" rx="6.25004" ry="6.25003" fill="#898AA3"/>
<ellipse cx="1029.63" cy="526.628" rx="6.25004" ry="6.25003" fill="#998AA3"/>
<ellipse cx="1073.26" cy="499.503" rx="6.25004" ry="6.25003" fill="#B2B3BC"/>
<ellipse cx="1100.63" cy="468.002" rx="6.25004" ry="6.25003" fill="#CECECE"/>
<ellipse cx="1140.88" cy="440.252" rx="7.50005" ry="7.50004" fill="#CECECE"/>
<ellipse cx="955.632" cy="677.004" rx="3.12502" ry="3.12502" fill="#898AA3"/>
<ellipse cx="993.194" cy="673.816" rx="4.68753" ry="4.68752" fill="#898AA3"/>
<ellipse cx="1024.01" cy="659.003" rx="6.25004" ry="6.25003" fill="#898AA3"/>
<ellipse cx="1062.26" cy="633.003" rx="6.25004" ry="6.25003" fill="#898AA3"/>
<ellipse cx="1085.76" cy="591.628" rx="6.25004" ry="6.25003" fill="#898AA3"/>
<ellipse cx="1106.88" cy="551.753" rx="6.25004" ry="6.25003" fill="#B2B3BC"/>
<ellipse cx="1125.63" cy="520.378" rx="6.25004" ry="6.25003" fill="#F7F7F7"/>
<ellipse cx="1145.26" cy="481.128" rx="6.87505" ry="6.87504" fill="#F7F7F7"/>
<path d="M1102.63 91.6255C1102.63 93.6966 1100.95 95.3755 1098.88 95.3755C1096.81 95.3755 1095.13 93.6966 1095.13 91.6255C1095.13 89.5544 1096.81 87.8755 1098.88 87.8755C1100.95 87.8755 1102.63 89.5544 1102.63 91.6255Z" fill="#F7F7F7"/>
<path d="M972.257 119.626C972.257 121.697 970.578 123.376 968.507 123.376C966.436 123.376 964.757 121.697 964.757 119.626C964.757 117.555 966.436 115.876 968.507 115.876C970.578 115.876 972.257 117.555 972.257 119.626Z" fill="#F7F7F7"/>
<path d="M912.631 138.251C912.631 140.322 910.952 142.001 908.881 142.001C906.81 142.001 905.131 140.322 905.131 138.251C905.131 136.18 906.81 134.501 908.881 134.501C910.952 134.501 912.631 136.18 912.631 138.251Z" fill="#F7F7F7"/>
<path d="M1028.51 109.001C1028.51 111.072 1026.83 112.751 1024.76 112.751C1022.69 112.751 1021.01 111.072 1021.01 109.001C1021.01 106.929 1022.69 105.251 1024.76 105.251C1026.83 105.251 1028.51 106.929 1028.51 109.001Z" fill="#F7F7F7"/>
<path d="M1165.01 36.2502C1165.01 38.3213 1163.33 40.0002 1161.26 40.0002C1159.19 40.0002 1157.51 38.3213 1157.51 36.2502C1157.51 34.1791 1159.19 32.5002 1161.26 32.5002C1163.33 32.5002 1165.01 34.1791 1165.01 36.2502Z" fill="#F7F7F7"/>
<defs>
<filter id="filter0_d" x="152.938" y="0.591644" width="1279.1" height="761.137" filterUnits="userSpaceOnUse" color-interpolation-filters="sRGB">
<feFlood flood-opacity="0" result="BackgroundImageFix"/>
<feColorMatrix in="SourceAlpha" type="matrix" values="0 0 0 0 0 0 0 0 0 0 0 0 0 0 0 0 0 0 127 0"/>
<feOffset dy="4"/>
<feGaussianBlur stdDeviation="2"/>
<feColorMatrix type="matrix" values="0 0 0 0 0 0 0 0 0 0 0 0 0 0 0 0 0 0 0.25 0"/>
<feBlend mode="normal" in2="BackgroundImageFix" result="effect1_dropShadow"/>
<feBlend mode="normal" in="SourceGraphic" in2="effect1_dropShadow" result="shape"/>
</filter>
<filter id="filter1_d" x="978.382" y="207.376" width="20.5001" height="20.5001" filterUnits="userSpaceOnUse" color-interpolation-filters="sRGB">
<feFlood flood-opacity="0" result="BackgroundImageFix"/>
<feColorMatrix in="SourceAlpha" type="matrix" values="0 0 0 0 0 0 0 0 0 0 0 0 0 0 0 0 0 0 127 0"/>
<feOffset dy="4"/>
<feGaussianBlur stdDeviation="2"/>
<feColorMatrix type="matrix" values="0 0 0 0 0 0 0 0 0 0 0 0 0 0 0 0 0 0 0.25 0"/>
<feBlend mode="normal" in2="BackgroundImageFix" result="effect1_dropShadow"/>
<feBlend mode="normal" in="SourceGraphic" in2="effect1_dropShadow" result="shape"/>
</filter>
<filter id="filter2_d" x="945.882" y="228.001" width="20.5001" height="20.5001" filterUnits="userSpaceOnUse" color-interpolation-filters="sRGB">
<feFlood flood-opacity="0" result="BackgroundImageFix"/>
<feColorMatrix in="SourceAlpha" type="matrix" values="0 0 0 0 0 0 0 0 0 0 0 0 0 0 0 0 0 0 127 0"/>
<feOffset dy="4"/>
<feGaussianBlur stdDeviation="2"/>
<feColorMatrix type="matrix" values="0 0 0 0 0 0 0 0 0 0 0 0 0 0 0 0 0 0 0.25 0"/>
<feBlend mode="normal" in2="BackgroundImageFix" result="effect1_dropShadow"/>
<feBlend mode="normal" in="SourceGraphic" in2="effect1_dropShadow" result="shape"/>
</filter>
</defs>
</svg>
