<svg width="11433" height="7602" viewBox="0 0 11433 7602" fill="none" xmlns="http://www.w3.org/2000/svg">
<path d="M5910 3348.5L6073.5 3623L6290 3495.5L5910 3348.5Z" fill="#D4388B"/>
<path d="M6313 3200.5L6187 3346L5944 3146.5L6313 3200.5Z" fill="#D4388B"/>
<path d="M7378 3341L7478 3452.5L7309.5 3463.5L7378 3341Z" fill="#C84A9D"/>
<path d="M2217 4974L2919.5 4706.5L2267 4216L2217 4974Z" fill="#3A214E"/>
<path d="M2943 4682.5L2838.5 4248L2379.5 4384.5L2943 4682.5Z" fill="#542A6C"/>
<path d="M2287.5 3955L2378 4427.5L1968 4386L2287.5 3955Z" fill="#6A3787"/>
<path d="M2558.5 5407.5L3003.5 4990.5L1947 4830.5L2558.5 5407.5Z" fill="#7D4AAB"/>
<path d="M2167 5873.5L2969 5308L2300 5403.5L2167 5873.5Z" fill="#9A57A3"/>
<path d="M1885 4823.5L1594.5 5639.5L2308.5 5507.5L1885 4823.5Z" fill="#542A6C"/>
<path d="M6130.39 3184L5991.5 3448.5L6225.5 3441.5L6130.39 3184Z" fill="#883685"/>
<path d="M6078.5 3536L6290 3750.5L6309.5 3536H6078.5Z" fill="#A3327C"/>
<path d="M5921.5 3510L6177 3203.5L5554 3091L5921.5 3510Z" fill="#A3327C"/>
<path d="M5900.5 2963.5L6251.5 3161L5879 3250L5900.5 2963.5Z" fill="#883685"/>
<path d="M2990 4207L3297.5 4826.5L2709.5 4662.5L2990 4207Z" fill="#8A4DA7"/>
<path d="M2568 4742L3312 4686L2897.5 5325L2568 4742Z" fill="#6A3787"/>
<path d="M8705.5 2173L8585.5 2581L8327.5 2452.5L8705.5 2173Z" fill="#883685"/>
<path d="M8265 2473L8070.5 2809.5L7936.5 2473H8265Z" fill="#D4388B"/>
<path d="M7505 3220L7363 3384.5L7443.5 3437.5L7505 3220Z" fill="#A3327C"/>
<path d="M7108.5 3010L7161 3175.5L7240.5 3010H7108.5Z" fill="#883685"/>
<path d="M2327.5 4284L2564.5 3813.5L3112 4284L2327.5 4284Z" fill="#6A3787"/>
<path d="M1418 4755L1297.5 4996.5L1885 4932L1418 4755Z" fill="#492666"/>
<path d="M8306.5 1463.5L8846 1205V1729.5L8306.5 1463.5Z" fill="#67236D"/>
<path d="M8315 2756L8223.5 3026L7966 2893L8315 2756Z" fill="#D4388B"/>
<path d="M8955 2228L8868 2452.5L8419 2256.5L8955 2228Z" fill="#7D4AAB"/>
<path d="M4349.5 4086L4544.5 4126.5L4316 4402L4349.5 4086Z" fill="#73328A"/>
<path d="M4582 4057L4312 4181.5L4478 3919.5L4582 4057Z" fill="#9A57A3"/>
<path d="M4144.5 3442L4442.5 3822.5L3672 3845L4144.5 3442Z" fill="#8A4DA7"/>
<path d="M7737 1550.5L7970.5 1596V1897.5L7737 1550.5Z" fill="#67236D"/>
<path d="M6353 2789L6299 2386L5810.5 2894.5L6353 2789Z" fill="#67236D"/>
<path d="M7573.5 2450L7294 2621.5L7075 2097L7573.5 2450Z" fill="#7D4AAB"/>
<path d="M7797.5 2592L8015 2829.5L7522.5 2624.5L7797.5 2592Z" fill="#7D4AAB"/>
<path d="M8554.5 2754.5L8314.5 2589.5L8762 2514.5L8554.5 2754.5Z" fill="#A3327C"/>
<path d="M6249 1662.5L6760.5 2136.5L5679 2068L6249 1662.5Z" fill="#743C94"/>
<path d="M2355.5 4871.5L1860.5 4397L1772 4992L2355.5 4871.5Z" fill="#6A3787"/>
<path d="M7334 2144.5L7961.5 1941L7309 1737.5L7334 2144.5Z" fill="#8B4EAD"/>
<path d="M2657 5089L2363.5 5483L2005.5 5089H2657Z" fill="#6A3787"/>
<path d="M6787.5 2199.5L6847.5 2506.5L6286.5 2248.5L6787.5 2199.5Z" fill="#9A57A3"/>
<path d="M9641 3009.5L9479 3375L9724 3088.5L9641 3009.5Z" fill="#C84A9D"/>
<path d="M9847.5 2906.5L9755 2938.17L9863 2665.5L9847.5 2906.5Z" fill="#883685"/>
<path d="M5821 3036L5585.5 3247.5L5802 3623L5821 3036Z" fill="#7D4AAB"/>
<path d="M6414.39 3446L6251 3735L6475 3676.6L6414.39 3446Z" fill="#883685"/>
<path d="M6916 1593.5L7893.5 1344.5L7132 1287L6916 1593.5Z" fill="#743C94"/>
<path d="M7735.5 1912L7306.5 1294L7814 1203L7735.5 1912Z" fill="#69307D"/>
<path d="M9560.5 694L9461.5 478L9180 546.5L9560.5 694Z" fill="#6D2367"/>
<path d="M7487.5 2304.5L7151 2240.5L7277.5 1892.5L7487.5 2304.5Z" fill="#743C94"/>
<path d="M4461.5 3887.5L3914.5 3901.5L3605 4272.5L4461.5 3887.5Z" fill="#8B4EAD"/>
<path d="M4972 3659.5L4892.5 3925L4862.26 3725L4972 3659.5Z" fill="#8B4EAD"/>
<path d="M6698 2976L7209.5 2789L6955.5 2431.5L6698 2976Z" fill="#7D4AAB"/>
<path d="M3859 3828L3639.5 4264.5L3228.5 3367L3859 3828Z" fill="#6A3787"/>
<path d="M4341 2593.5L4094 3557L3656 3205L4341 2593.5Z" fill="#6A3787"/>
<path d="M5230 2588.5L5685.5 2081.5L4817 2292.5L5230 2588.5Z" fill="#743C94"/>
<path d="M7512.5 3091L7477 3399L7401.5 3196L7512.5 3091Z" fill="#D4388B"/>
<path d="M7349 3270L7331 3622.5L7199.5 3310L7349 3270Z" fill="#D4388B"/>
<path d="M8819.5 1622.5L8764.5 2264.5L8607 1880L8819.5 1622.5Z" fill="#D4388B"/>
<path d="M8897 727L9196.5 1030.5L8631 918.5L8897 727Z" fill="#883685"/>
<path d="M4932.36 2653.5L4856.5 3197.5L4320 2706L4932.36 2653.5Z" fill="#9A57A3"/>
<path d="M6139 2096L5837 2476.5L5334.5 2318.5L6139 2096Z" fill="#9A57A3"/>
<path d="M3972 3197.5L3876.5 3956L3589 3410L3972 3197.5Z" fill="#9A57A3"/>
<path d="M5445.5 3011.5L5204 3460.5L4996.5 3197.5L5445.5 3011.5Z" fill="#9A57A3"/>
<path d="M5162.5 2050L5746.5 2477L5121 2758L5162.5 2050Z" fill="#67236D"/>
<path d="M11181.5 1888L11025 2193.5L11138 1852L11181.5 1888Z" fill="#D4388B"/>
<path d="M4921.5 2425L5324.5 3008L4482 2759.5L4921.5 2425Z" fill="#743C94"/>
<path d="M7126 2895.5L7138.5 3292L6976 2935L7126 2895.5Z" fill="#C84A9D"/>
<path d="M6928 3950L6817 4207.5L6752 4044L6928 3950Z" fill="#C84A9D"/>
<path d="M7269.5 3485.5L7288.5 3709.5L7171 3485.5H7269.5Z" fill="#C84A9D"/>
<path d="M1844.5 4801L1708 4489.5L1256.5 4801H1844.5Z" fill="#542D6A"/>
<path d="M7125 3654L6917.5 3858L7105 3771.5L7125 3654Z" fill="#C84A9D"/>
<path d="M7298.5 3728.5L7032 3958L7226 3659L7298.5 3728.5Z" fill="#C84A9D"/>
<path d="M7537.5 3781L7306 3930.5L7397.5 3767.5L7537.5 3781Z" fill="#C84A9D"/>
<path d="M7473 3564.5L7370 3759.5L7319 3530.5L7473 3564.5Z" fill="#C84A9D"/>
<path d="M4033.5 4186L4239.5 4225L3979 4466L4033.5 4186Z" fill="#9A57A3"/>
<path d="M3947 4383L4073.5 4411L3607.5 4830.5L3947 4383Z" fill="#883685"/>
<path d="M4301 4117L4509.5 3943L4267.5 3908L4301 4117Z" fill="#7D4AAB"/>
<path d="M3836 4235.5L4121.5 4278L3960 4095L3836 4235.5Z" fill="#7D4AAB"/>
<path d="M4729 3731L4906.5 3749.5L4729 4064V3731Z" fill="#9A57A3"/>
<path d="M4475.16 3829L4398 3633H5017L4475.16 3829Z" fill="#7D4AAB"/>
<path d="M5390.5 2699L5336.5 3320L4772.5 2785L5390.5 2699Z" fill="#73328A"/>
<path d="M6604.5 2096L6302.5 2476.5L5800 2318.5L6604.5 2096Z" fill="#73328A"/>
<path d="M4535.5 3022L4347 3886L4054.5 3410L4535.5 3022Z" fill="#73328A"/>
<path d="M4848 4107L4759 3989L4700.5 4210L4848 4107Z" fill="#7D4AAB"/>
<path d="M4698.5 4186L4762.5 4218L4462 4471.5L4698.5 4186Z" fill="#883685"/>
<path d="M4310.5 4338L4384.5 4395L4096 4595L4310.5 4338Z" fill="#883685"/>
<path d="M5203.5 3008L4897.92 3551.25H4263L5203.5 3008Z" fill="#7D4AAB"/>
<path d="M7783 2744.5L7991 2891.5L7719.5 2956.5L7783 2744.5Z" fill="#C84A9D"/>
<path d="M8464.5 2539.5L8127.5 2842L8169.5 2539.5H8464.5Z" fill="#C84A9D"/>
<path d="M8622 2432L8609.5 2744.5L8962 2302L8622 2432Z" fill="#C84A9D"/>
<path d="M8464.5 2807L8203 2994.5H8362L8464.5 2807Z" fill="#C84A9D"/>
<path d="M7237.5 2826V3124L7116.5 2848.5L7237.5 2826Z" fill="#D4388B"/>
<path d="M4920 3845L4791 3883L4824 4121.5L4920 3845Z" fill="#883685"/>
<path d="M7541.5 2865L7496 3043L7457 2771L7541.5 2865Z" fill="#D4388B"/>
<path d="M6805 3286.5L6580.5 3436.5L6463 3286.5H6805Z" fill="#A3327C"/>
<path d="M6764 3305.5L6925.5 3411L6624.5 3433L6764 3305.5Z" fill="#C84A9D"/>
<path d="M6425 3829L6460 3637L6085.5 3743L6425 3829Z" fill="#D4388B"/>
<path d="M7193 3571V3813L7091.5 3661.5L7193 3571Z" fill="#D4388B"/>
<path d="M7090 3890L6847.5 4055.5L6902 3865L7090 3890Z" fill="#D4388B"/>
<path d="M7216.5 3961L6974 4126.5L7028.5 3936L7216.5 3961Z" fill="#D4388B"/>
<path d="M7439.5 3810L7197 3975.5L7251.5 3785L7439.5 3810Z" fill="#D4388B"/>
<path d="M7501.5 3665V3840.5L7317 3665H7501.5Z" fill="#D4388B"/>
<path d="M5377 3348L4719.5 3422.5L4434 3869.5L5377 3348Z" fill="#8863AA"/>
<path d="M3492.5 3736L4259.5 2492L3180 3287.5L3492.5 3736Z" fill="#492666"/>
<path d="M6251 2848L5593.5 2922.5L5358 3341.5L6251 2848Z" fill="#8863AA"/>
<path d="M7051.5 2526L6465 2381.5L6386 2756L7051.5 2526Z" fill="#883685"/>
<path d="M6924.5 2882L6475.5 2666L6442 2986L6924.5 2882Z" fill="#883685"/>
<path d="M7166.5 2751.5V2915L6824.5 2949L7166.5 2751.5Z" fill="#883685"/>
<path d="M6849 3005.5L7017.5 3108.5L6997.5 2973L6849 3005.5Z" fill="#883685"/>
<path d="M7499.5 2656L7386.5 2825L7243 2752L7499.5 2656Z" fill="#883685"/>
<path d="M9416.5 919.5L9517.5 712.122L9156.5 570L9416.5 919.5Z" fill="#542A6C"/>
<path d="M8843 822.5V1118L8146 905L8843 822.5Z" fill="#542A6C"/>
<path d="M9598 613.5L9525 401.25L9307 321L9598 613.5Z" fill="#542A6C"/>
<path d="M9678.5 1065.5H9386L9487.5 971.5L9678.5 1065.5Z" fill="#743C94"/>
<path d="M8998.5 1298.5L8514.5 975.5L8040.5 1205L8998.5 1298.5Z" fill="#743C94"/>
<path d="M9287 1339L9138 1096L9017.5 1301L9287 1339Z" fill="#743C94"/>
<path d="M6197.5 2439L5918.5 2932H5265L6197.5 2439Z" fill="#7D4AAB"/>
<path d="M7183 1169L7801.5 953.5L7474.5 1377.5L7183 1169Z" fill="#542A6C"/>
<path d="M7747.5 1448L8572 1061.5L8132 1738.5L7747.5 1448Z" fill="#3A214E"/>
<path d="M7264 2431L7743.5 1884L8139 2142.5L7264 2431Z" fill="#542A6C"/>
<path d="M6656.5 1309L6967 2443.5L6444.5 1887L6656.5 1309Z" fill="#67236D"/>
<path d="M8820 2049L9053 2104.5L8591 2232L8820 2049Z" fill="#542A6C"/>
<path d="M9803 1429.5L10235.3 1571L10165 1429.5H9803Z" fill="#D4388B"/>
<path d="M9317 1163.5L9728.5 1359L9475 1400.5L9317 1163.5Z" fill="#D4388B"/>
<path d="M8282 2128L8635 2198.5L8198 2590.5L8282 2128Z" fill="#A3327C"/>
<path d="M8302.5 2344L7572.5 2699.5L8132 2164.5L8302.5 2344Z" fill="#542A6C"/>
<path d="M7521 2618.5L7292.5 2764L7321.5 2548L7521 2618.5Z" fill="#542A6C"/>
<path d="M7941 2140.5L8829 1781.5L8240 1708L7941 2140.5Z" fill="#883685"/>
<path d="M7440 2653.5L8252 2261.5L7659 2220L7440 2653.5Z" fill="#883685"/>
<path d="M7916 2016L8698.5 1463L8290 1210L7916 2016Z" fill="#743C94"/>
<path d="M9343.5 1274.5L9230.5 1034L9165.5 1188L9343.5 1274.5Z" fill="#A3327C"/>
<path d="M7635.5 1000.5L8491.5 849.5L8092.5 1261L7635.5 1000.5Z" fill="#73328A"/>
<path d="M6914 1648L7275 2272L7162.5 2507L6914 1648Z" fill="#542A6C"/>
<path d="M8847 2082.5L9270.5 1762L8818 1571L8847 2082.5Z" fill="#883685"/>
<path d="M9136.5 1327.5L9437.5 1546L9317 1308.5L9136.5 1327.5Z" fill="#A3327C"/>
<path d="M9042.5 1168L9400 1409L9450 1288.5L9042.5 1168Z" fill="#883685"/>
<path d="M10148.5 1489L10396 1505L10676.5 1781.5L10148.5 1489Z" fill="#883685"/>
<path d="M10549 1543.5L10905.5 1755L10971 1608L10549 1543.5Z" fill="#883685"/>
<path d="M10864 1830L11047 1799L11153 1951.5L10864 1830Z" fill="#A3327C"/>
<path d="M9420.5 1193L9808.5 1314L9880 1498.5L9420.5 1193Z" fill="#883685"/>
<path d="M9518 1101.5L9129 1111.5L9317 1000.5L9518 1101.5Z" fill="#883685"/>
<path d="M7175 2164.5L6987.5 1635L7252.5 1428.5L7175 2164.5Z" fill="#67236D"/>
<path d="M7156.5 1780L7979.5 1869L7390 1469L7156.5 1780Z" fill="#743C94"/>
<path d="M6841 1241L7183 1142.5L6971 1573L6841 1241Z" fill="#542A6C"/>
<path d="M5932.5 2386L5803.5 2709.5L5368 2593.5L5932.5 2386Z" fill="#73328A"/>
<path d="M9295 300L9468 433L9133 375L9295 300Z" fill="#3A214E"/>
<path d="M2818.5 3964.5L2715.5 3525L2117 4065L2818.5 3964.5Z" fill="#492666"/>
<path d="M6301 2396L6404.5 2758.5H6973.55L6301 2396Z" fill="#7D4AAB"/>
<path d="M7079.5 2884L7180.5 2978L7108.5 3088.5L7079.5 2884Z" fill="#A3327C"/>
<path d="M7135 3421.5L6817.5 3284L6904 3445L7135 3421.5Z" fill="#A3327C"/>
<path d="M7193 3081L7140 3291L7278.24 3301L7193 3081Z" fill="#A3327C"/>
<path d="M7284 2792.5L7495.5 2768.5L7394.5 2973L7284 2792.5Z" fill="#A3327C"/>
<path d="M7423.5 2973.5L7481.5 3086L7368.5 3264L7423.5 2973.5Z" fill="#A3327C"/>
<path d="M7763.5 3053L8234 2995L7866 2868L7763.5 3053Z" fill="#A3327C"/>
<path d="M8443.5 2891.5L8205 2799.34L8429 2740L8443.5 2891.5Z" fill="#A3327C"/>
<path d="M9631 3107.5L9410 3252L9661.5 2968L9631 3107.5Z" fill="#A3327C"/>
<path d="M7813 2800L8073 2877L7953.5 2481.5L7813 2800Z" fill="#A3327C"/>
<path d="M8963.5 2170.5L8788 2326.5L8559 2098L8963.5 2170.5Z" fill="#A3327C"/>
<path d="M9227 1926.5L8927 2104L8607.5 1890.5L9227 1926.5Z" fill="#A3327C"/>
<path d="M8593.5 1554.5L9004.5 1855L8424.5 1712.5L8593.5 1554.5Z" fill="#A3327C"/>
<path d="M7378.5 3167L7432 3290L7311.5 3388.5L7378.5 3167Z" fill="#C84A9D"/>
<path d="M6928 3279L7036 3382.5L7202 3305.5L6928 3279Z" fill="#C84A9D"/>
<path d="M5968 3832V3637.5L6362.5 3897L5968 3832Z" fill="#C84A9D"/>
<path d="M7339.5 3386L7210 3491.5L7076 3331.5L7339.5 3386Z" fill="#A3327C"/>
<path d="M7128 3428L7147 3591.5L7280.5 3659L7128 3428Z" fill="#A3327C"/>
<path d="M7137 3753L7122.5 3865H6941L7137 3753Z" fill="#A3327C"/>
<path d="M6978.5 4079L6954.5 4210H6797L6978.5 4079Z" fill="#A3327C"/>
<path d="M7454.5 3457V3666L7303 3483.5L7454.5 3457Z" fill="#A3327C"/>
<path d="M6795 4068L6939 3870L6669.5 3975L6795 4068Z" fill="#A3327C"/>
<path d="M7151.5 3981.5L7260 3825L7055.5 3899.5L7151.5 3981.5Z" fill="#A3327C"/>
<path d="M7323 3801.5L7414 3661.5L7227 3719.5L7323 3801.5Z" fill="#A3327C"/>
<path d="M9138 382L9375 611L8999 691L9138 382Z" fill="#3A214E"/>
<path d="M6393.5 3755L6538 4061L6300 3856L6393.5 3755Z" fill="#A3327C"/>
<path d="M9210 562L9627 602L9530 766.5L9210 562Z" fill="#542A6C"/>
<path d="M7643.5 1257L8092.5 941L8134 1373L7643.5 1257Z" fill="#542A6C"/>
<path d="M4591.55 3482L4857.05 3116L4154 2736L4591.55 3482Z" fill="#743C94"/>
<path d="M5697.5 3482L6095 3608L5998.5 3743.5L5697.5 3482Z" fill="#A3327C"/>
<path d="M1709.5 5985.5L1955 5449.5L2350 5778L1709.5 5985.5Z" fill="#743C94"/>
<path d="M6584 1733V1363.5L6064 1585L6584 1733Z" fill="#73328A"/>
<path d="M4553 2869L5354.5 1917L4247 2502L4553 2869Z" fill="#542A6C"/>
<path d="M5643 2372L6485 1409.5L5343 1912L5643 2372Z" fill="#542A6C"/>
<path d="M4037.5 4481L4140 4325L3956 4342.93L4037.5 4481Z" fill="#73328A"/>
<path d="M1740 5394.5L1721.5 4905L1418 5278L1740 5394.5Z" fill="#743C94"/>
<path d="M6261.5 3170L6460.5 3539L6204.5 3345.5L6261.5 3170Z" fill="#A3327C"/>
<path d="M10588 723.5L10316 771L10473 826L10588 723.5Z" fill="#883685"/>
<path d="M10182 849L10359 762.5L10446.5 830L10182 849Z" fill="#67236D"/>
<path d="M10349 820H10179V902.5L10349 820Z" fill="#743C94"/>
<path d="M11222.5 399L11003.5 529.5H11134.5L11222.5 399Z" fill="#883685"/>
<path d="M11342.5 618L11075.5 634.5L11249 723.5L11342.5 618Z" fill="#883685"/>
<path d="M11237 247.5L10938 112.5L11061 67L11237 247.5Z" fill="#883685"/>
<path d="M11383.5 240L11263.5 283.5L11328.5 432.5L11383.5 240Z" fill="#883685"/>
<path d="M10846 602.5L11018 504.5L11082.5 553L10846 602.5Z" fill="#67236D"/>
<path d="M11013 589H10843V671.5L11013 589Z" fill="#743C94"/>
<path d="M10218 830L9946 877.5L10103 932.5L10218 830Z" fill="#883685"/>
<path d="M9812 955.5L9989 869L10076.5 936.5L9812 955.5Z" fill="#67236D"/>
<path d="M9932 962.5L9763.5 917.5L9671 1034.5L9932 962.5Z" fill="#883685"/>
<path d="M10748.5 632.5L10551 749H10705L10748.5 632.5Z" fill="#883685"/>
<path d="M11071 622.5L10770 651.5L10844.5 731L11071 622.5Z" fill="#883685"/>
<path d="M10427 776.5L10604 690L10691.5 757.5L10427 776.5Z" fill="#67236D"/>
<path d="M9192 1715.36L9280.5 1685L9443.5 1885.36L9192 1715.36Z" fill="#743C94"/>
<path d="M10856.5 583.126L10702.5 674.626L10801.5 727.126L10856.5 583.126Z" fill="#67236D"/>
<path d="M9503 1069L9697 938L9790.5 1016.5L9503 1069Z" fill="#67236D"/>
<path d="M7389.5 2868L7535.5 2954L7493.5 3132.5L7389.5 2868Z" fill="#C84A9D"/>
<path d="M10010 911.5L9827.5 899L9897.5 985L10010 911.5Z" fill="#743C94"/>
<path d="M9340.04 795.094L9418.5 958.999L9009 881L9340.04 795.094Z" fill="#3A214E"/>
<path d="M9321.5 1703.5L9147 1883L8972.5 1550L9321.5 1703.5Z" fill="#67236D"/>
<path d="M8900 1655.5L9117 1542.5L8778 1335L8900 1655.5Z" fill="#743C94"/>
<path d="M8963 1291.5L9348.5 897.5L8632.5 977L8963 1291.5Z" fill="#6D2367"/>
<path d="M11021 1762.5L10638.5 2070L10896.5 1762.5H11021Z" fill="#D4388B"/>
<path d="M10660 1771L10749.5 1693L10949 1892.5L10660 1771Z" fill="#A3327C"/>
<path d="M10907.5 1727.5L10503 2020.5L10783 1727.5H10907.5Z" fill="#D4388B"/>
<path d="M10439.5 1589L10529 1511L10728.5 1710.5L10439.5 1589Z" fill="#A3327C"/>
<path d="M11068.5 93.5L10823 211L10994 23.5L11068.5 93.5Z" fill="#D4388B"/>
<path d="M11355 382L11114 504L11285 317L11355 382Z" fill="#D4388B"/>
<path d="M11119 206.5L11350 259.5L11119 93.5V206.5Z" fill="#D4388B"/>
<path d="M11400.5 654L11311.5 805.5L11265.5 622.5L11400.5 654Z" fill="#D4388B"/>
<path d="M11215 683L10996.5 613L10970 728.5L11215 683Z" fill="#67236D"/>
<path d="M10503 1656.5L10884.8 1693L10948.8 1588L10503 1656.5Z" fill="#D4388B"/>
<path d="M8859 2096L8032.5 2198.5L8510.5 1916L8859 2096Z" fill="#743C94"/>
<path d="M9804 2971L9748 2899L9650 3058L9804 2971Z" fill="#D4388B"/>
<path d="M9931 2773L9889.5 2699L9810 2891.5L9931 2773Z" fill="#D4388B"/>
<path d="M9624.5 2863L9671 2742L9701 3058.5L9624.5 2863Z" fill="#883685"/>
<path d="M9638 2686L9708 2649L9708 2912L9638 2686Z" fill="#A3327C"/>
<path d="M9673 2460.27L9585 2507V2242L9673 2460.27Z" fill="#D4388B"/>
<path d="M9608 2630.57L9692 2709.5L9652.36 2393L9608 2630.57Z" fill="#883685"/>
<path d="M9593.2 2120.19L9514 2203.5L9459 1885L9593.2 2120.19Z" fill="#A3327C"/>
<path d="M9519.5 1980.5L9440.28 2026L9317.5 1773.5L9519.5 1980.5Z" fill="#883685"/>
<path d="M9545 2281.57L9629 2360.5L9580 2090L9545 2281.57Z" fill="#883685"/>
<path d="M9632 2453.5L9678.5 2332.5L9708.5 2649L9632 2453.5Z" fill="#883685"/>
<path d="M9761 2299L9846 2262L9846 2525L9761 2299Z" fill="#A3327C"/>
<path d="M9673 1883.26L9750 1839L9769.5 2191L9673 1883.26Z" fill="#D4388B"/>
<path d="M9746 2208.57L9830 2287.5L9790.37 1971L9746 2208.57Z" fill="#883685"/>
<path d="M9829 2546.5L9914 2509.5L9914 2772.5L9829 2546.5Z" fill="#A3327C"/>
<path d="M9865 2347.27L9777 2394V2129L9865 2347.27Z" fill="#D4388B"/>
<path d="M9814 2523.57L9898 2602.5L9858.37 2286L9814 2523.57Z" fill="#883685"/>
<path d="M9650 1715L9615 1792L9373 1529L9650 1715Z" fill="#A3327C"/>
<path d="M9305 1402L9554 1587.5L9529 1671L9305 1402Z" fill="#883685"/>
<path d="M9640 1836L9764 1876L9612.5 1668.5L9640 1836Z" fill="#883685"/>
<path d="M2093 4087L1564 4550.5L2208 4515L2093 4087Z" fill="#542A6C"/>
<g filter="url(#filter0_d)">
<path d="M10786.7 729.653H11267.3L11318.6 844.383L11420.4 614.653L10963.6 612.994L11319 451.07L11420.3 260.455L10964 7L10900.2 95.8619L10900.2 95.8686L10786.9 261.088L10964.2 160.198L11266.9 260.953L11205 400.518L10791.9 612.994M10786.7 729.653L10077.8 945.132L10077.8 945.135L9672.27 1059.13L9672.13 1058.65L9672.26 1059.14L9294.87 1159.58L9621.78 1222.67L10001.8 1387.17L10001.8 1387.19L10406.7 1501.16L10406.8 1501.17L10964.6 1577.22V1729.38L11205.3 1881.48L10964.6 2337.81L10964.6 2337.89L10963.7 2337.5L10963.7 2337.42L11090 1957.94L10900.7 1882.23L10534 2172.98L10533.9 2173.05L10533.3 2172.33L10533.3 2172.26L10784.5 1883.37L10406.9 2084.59L10406.3 2083.79L10697.3 1805.77L10406.5 1654.12L10406.4 1654.1L10001.5 1502.15H9875.02L9621.55 1388.17L9407.61 1413.54L9672.49 1729.3L9672.51 1729.33L9748.49 1805.3L9748.58 1805.39L9748.61 1805.52M10786.7 729.653L10432 836.413L10077.5 944.172L10077.5 944.175L9672 1058.17L9292.5 1159.17L9292.54 1160.14L9621.54 1223.64L10001.4 1388.11L10001.5 1388.13L10001.5 1388.13L10406.5 1502.13L10406.5 1502.14L10963.6 1578.09V1729.93L11204 1881.83L10966.5 2332.04L11091.3 1957.36L10900.5 1881.08L10537.5 2168.91L10787 1881.98L10786.4 1881.21L10409.6 2082L10699 1805.53L10406.9 1653.21L10406.8 1653.2L10406.8 1653.19L10001.7 1501.15H9875.24L9621.71 1387.14L9405.65 1412.77L9671.75 1729.97L9671.76 1729.99L9671.78 1730.01L9747.69 1805.92L9920 2514.63L9950.62 2716.65L9874.66 2881.95M9874.66 2881.95L9748.56 3059.42L9748.54 3059.44L9546.06 3388.92L9546.01 3388.99L9406.95 3502.54L9406.17 3501.96L9544.44 3174.7L9330.94 3338.05L9330.25 3337.34L9621.13 2982.97V2717.15L9545.15 2274.29L9469.18 2084.38L9292.65 1806.62L9153.51 2046.51L9153.41 2046.57L8963.63 2172.92V2337.82L8672.53 2717.46L8672.47 2717.53L8672.39 2717.58L8507.97 2819.03L8381.03 2983.46L8380.93 2983.59L8115.2 3059.65H7759.8L7683.59 2882.15L7759.37 2717.62L7482.23 2705.18M9874.66 2881.95L9747.73 3058.86L9747.72 3058.88L9747.71 3058.89L9545.25 3388.32L9407.88 3500.49L9546.83 3171.61L9333.76 3334.63L9622.02 2983.47L9622.13 2983.33V2717.11L9622.13 2717.07L9546.13 2274.07L9546.12 2274.02L9546.1 2273.97L9470.1 2083.97L9470.08 2083.92L9470.05 2083.89L9292.61 1804.69L9152.76 2045.8L8962.92 2172.19L8608.43 2273.69L8507.42 2337.2L8507.37 2337.23L8241.42 2463.7L8241.31 2463.75L8114.84 2628.21L7760.08 2716.65L7481.03 2704.13M7545.62 3059.07L7545.64 3059.16L7545.62 3059.25M6012.94 2982.65L5941.45 2703.47L5835.53 2045.93L5797.42 1653.2M6012.94 2982.65L5569.63 3325.15M6012.94 2982.65L6317.5 3202.5L6463 3502.65L6485 3768.81L6431.57 3838L6500.93 3916.66L6570.11 4110.15L6368.43 3933.34L5941.45 3861.5M6367.37 2830.61L6239.13 2172.21L6164.44 1501.19M6367.37 2830.61L6697.63 2514.75M6367.37 2830.61L6013.32 2983.65M6367.37 2830.61L6441.5 3009H6820.5M6820.5 3009L7055 2882.15L7245 2785.5M6820.5 3009L7034.5 3139L7086 3275.15M7245 2785.5L7481.03 2704.13M7245 2785.5L6697.63 2514.75M7245 2785.5L7405.23 3009L7329.63 3274.65L7266.33 3274.49M7245 2785.5L7266.33 3274.49M7245 2785.5L7280 2631.5M7481.16 3440.65L7544.62 3059.15V2882.16L7481.03 2704.13M7481.16 3440.65V3563.65L7545.64 3821.76L7174.5 4012L7032.72 4105.22L6917.86 4266L6738 4198.5L6779.58 4105.22M7481.16 3440.65L7364 3445.03L7266.33 3450.03L7329.63 3746.5L6917.84 4050.06L6779.58 4105.22M7481.03 2704.13L7403.5 2624.5L7280 2631.5M10791.9 612.994L10077.8 843.629L10077.8 843.636L9621.74 945.141L9621.73 945.144L9241.77 1008.14L9241.71 1008.15L9241.5 1007.17M10791.9 612.994L10077.5 842.665L10077.5 842.677L9621.55 944.16L9621.52 944.165L9250.91 1005.61L9470.02 945.066L9546.08 729.378L9622.19 615.223L9546.1 399.987L9546.03 399.785L9292.61 285.594L9089.63 399.861V539.002M9241.5 1007.17L9241.55 1007.16M9241.5 1007.17L9014.13 893.653L8963.4 729.653M9241.55 1007.16L9469.25 944.241L9545.16 728.987L9545.18 728.928M9241.55 1007.16L8962.63 1222.67L8671.94 842.653M9545.18 728.928L9621.08 615.084L9545.23 400.522L9292.66 286.713L9090.63 400.446V539.305L9090.55 539.431L8963.4 729.653M9545.18 728.928L9333.76 539.431L9089.63 539.002M8963.4 729.653H8798.82L8672.47 843.525L8672.32 843.653H8380.63M8380.63 843.653L7760.27 945.134L7760.21 945.147L6722.13 1276.65M8380.63 843.653L8671.94 842.653M8380.63 843.653L8070.31 893.409L7760.02 944.165L7759.99 944.173M6722.13 1276.65L6797.87 1839.65L6963.13 2314.15M6722.13 1276.65L6430.46 1387.18M6430.83 1388.11L6430.78 1388.13M6430.78 1388.13L6164.83 1502.11L6164.82 1502.12L5797.85 1654.11L5797.82 1654.12L5316.86 1882.1L5316.85 1882.11M6430.78 1388.13L6481.95 1717.03L6558.63 2045.93L6697.63 2514.75M5316.85 1882.11L4759.38 2173.09L4759.36 2173.1L4240.41 2464.57L4240.38 2464.59M5316.85 1882.11L5391.63 2629.37L5569.63 3325.15M5316.85 1882.11L5797.44 1653.19M4240.38 2464.59L3695.91 2819.07L3695.9 2819.08L3695.89 2819.08M4240.38 2464.59C4282.46 2757.7 4306.05 2922.04 4348.13 3215.15L4468.13 3895.15M3695.89 2819.08L3429.36 3046.79M3695.89 2819.08L3766.13 3215.15L3911.63 3752.65L3999.63 4110.15M3429.36 3046.79L3164.21 3274.75M3429.36 3046.79L3163.32 3274.25M3429.36 3046.79L3163.36 3275.35L3375.1 3822.15L3612.5 4345L3803.08 4224.1M3429.36 3046.79L3695.36 2818.23L3695.38 2818.22L4239.86 2463.73L4239.87 2463.73L4239.89 2463.72L4758.89 2172.22M4758.89 2172.22L4758.89 2172.21L4758.9 2172.21L5316.4 1881.21L5316.41 1881.21L5316.42 1881.2L5797.42 1653.2M4758.89 2172.22L4866.63 2905.15L4930.13 3249.15L5025.13 3603.65M5797.42 1653.2L5797.43 1653.2L5797.44 1653.19M5797.44 1653.19L6164.44 1501.19L6164.44 1501.19M6164.44 1501.19L6430.46 1387.18M6164.44 1501.19L6430.49 1387.17L6430.46 1387.18M8671.94 842.653L8798.3 728.782L8798.44 728.653M8962.87 728.653L9089.63 539.002M7086 3275.15H6431.57L6553.5 3440.65L6779.58 3445.03L6937.5 3450.03L7101.5 3455.5L7127 3623L6880.44 3884.29L6627.45 3967.18L6779.58 4105.22M7086 3275.15L7266.33 3274.49M3999.63 4110.15L4468.13 3895.15M3999.63 4110.15L3803.08 4224.1M3999.63 4110.15L4163 4171L4251.5 4217L4075.63 4452.15L3511.5 4923L3991 4298.5L3803.08 4224.1M4468.13 3895.15L4709.54 3768.81M4468.13 3895.15L4594.63 4021.65L4559 4135.6L4377 4414.5L4049.5 4632L4303.63 4338.05V4110.15L4239.86 3996.86M5025.13 3603.65L5569.63 3325.15M5025.13 3603.65L4949.13 3793.65L4835.13 4160.63L4366.63 4566.15L4709.54 4160.68V3768.81M5025.13 3603.65L4709.54 3768.81M5569.63 3325.15L5604.5 3350.5L5704.5 3433M6697.63 2514.75L6963.13 2314.15M5655.5 3561.5L5945.5 3711M6963.13 2314.15L7049.02 2514.75L7159 2534L7280 2631.5M3310 4865.5L2821.8 5502.77L2018 5999.15L1624.5 6026L1786 5713L1482.5 5671L1675.5 5375L1362.5 5296L1522.13 5068.65L1258 5008V4753L1891.63 4224.1L2287.13 3841.37L2707.63 3501.84L3375.1 4761.5L3310 4865.5ZM8608.84 2274.61L8962.63 2173.32V2337.48L8671.79 2716.78L8507.49 2818.15H8380.9L8305.22 2704.63L8508.01 2338.01L8608.84 2274.61ZM8506.61 2819.15L8380.34 2982.72L8115.46 3058.54L8039.66 2818.67L8115.57 2628.9L8241.96 2464.55L8506.44 2338.77L8304.05 2704.68L8380.36 2819.15H8506.61ZM8038.66 2818.8L8114.45 3058.65H7760.46L7684.68 2882.16L7760.49 2717.58L8114.31 2629.37L8038.6 2818.63L8038.66 2818.8ZM8874.63 1387.14L9153.51 1501.15L9090.63 1577.22L9292.5 1653.19L9333.76 1730.01L9546.83 1982.65L9621.08 2172.92L9747.69 2894.65L9843 2704.13L9671.75 1881.48L9407.88 1577.22L9241.77 1413.54L9014.13 1299.6L8874.63 1387.14Z" stroke="#8B98A9" stroke-width="10"/>
</g>
<path d="M6724.5 3278L6778.5 3449" stroke="#8B98A9" stroke-width="10"/>
<path d="M6880 3885L6896.75 3971.25L6913.5 4057.5L7029 4103.5M7102 3448L7270.5 3442.5" stroke="#8B98A9" stroke-width="10"/>
<path d="M4710.5 3765.5L4938.5 3797" stroke="#8B98A9" stroke-width="10"/>
<path d="M4302.5 4113L4596 4022.5" stroke="#8B98A9" stroke-width="10"/>
<path d="M4707.5 4163.5H4831.5" stroke="#8B98A9" stroke-width="10"/>
<path d="M3992.5 4296L4131.5 4373" stroke="#8B98A9" stroke-width="10"/>
<path d="M3982 4309L4158 4169" stroke="#8B98A9" stroke-width="10"/>
<path d="M6014.5 3503L5795 3276V3437L6014.5 3603.5V3503Z" stroke="#8B98A9" stroke-width="15"/>
<path d="M6218 3358.5L6113.5 3391.5L6349.5 3539.5L6218 3358.5Z" stroke="#8B98A9" stroke-width="15"/>
<path d="M6349.5 3845L6113.5 3603.5L6053 3689.5L6349.5 3845Z" stroke="#8B98A9" stroke-width="15"/>
<path d="M5939.5 3707L5946 3868" stroke="#8B98A9" stroke-width="15"/>
<path d="M5700 3428L5660 3568" stroke="#8B98A9" stroke-width="15"/>
<path d="M5700 3428L5660 3568" stroke="#8B98A9" stroke-width="15"/>
<path d="M5939.5 3707L5946 3868" stroke="#8B98A9" stroke-width="15"/>
<path d="M8892 732L8954.33 951.678L9181 1054.5" stroke="#8B98A9" stroke-width="10"/>
<path d="M9338.5 546.5L9459 743L9415 885L9238 1006.5" stroke="#8B98A9" stroke-width="10"/>
<path d="M9289.5 289L9492 448L9549 609.5L9492 685.5" stroke="#8B98A9" stroke-width="10"/>
<path d="M2800.5 3673.5L2396 4208M2396 4208L2895.5 3857M2396 4208L2086 4834L2737.5 4793M2737.5 4793L3129.5 4303M2737.5 4793L3246.5 4524" stroke="#8B98A9" stroke-width="10"/>
<path d="M7140.5 2539L7578.5 2339L7884.5 2203L8213 2024L8566.5 1822L8760 1590L8901 1632.5L8941.5 1797L8860.5 1917L8695.5 2024L8586 2131.5L8398.5 2193L8253.5 2320.5L8031.5 2413.5L7884.5 2508L7687.5 2564L7548.5 2610.5L7402.5 2624.5" stroke="#8B98A9" stroke-width="15"/>
<path d="M8760 1601.5L8753 1791M8753 1791L8941 1797M8753 1791L8568.5 1822L8492 1997M8753 1791L8695.5 2025L8492 1997M8492 1997L8400.5 2191L8145.5 2193.5M8492 1997L8214.5 2022.5L8145.5 2193.5M8145.5 2193.5L7889 2201.5L7782.5 2384.5M8145.5 2193.5L8033 2413.5L7782.5 2384.5M7782.5 2384.5L7687.5 2565L7477 2491.5M7782.5 2384.5L7575 2339.5L7477 2491.5M7477 2491.5L7404.5 2622M7477 2491.5L7156.5 2534.5" stroke="#8B98A9" stroke-width="10"/>
<path d="M6858.5 1245.5L7114.5 1335M7114.5 1335L7273.5 1109L7557.5 1202M7114.5 1335L7382.5 1444M7114.5 1335L6892 1600.5L7195 1611L7382.5 1444M7557.5 1202L7749 961.5L8022 1071M7557.5 1202L7860 1305M7557.5 1202L7382.5 1444M8022 1071L8197 874L8503 1005M8022 1071L8296.5 1202M8022 1071L7860 1305M8503 1005L8672 841.5M8503 1005L8296.5 1202M8503 1005L8850 1088L8595.5 1245.5L8296.5 1202M8296.5 1202L8134 1347L7860 1305M7860 1305L7660 1473L7382.5 1444" stroke="#8B98A9" stroke-width="10"/>
<path d="M9270.5 1814.5L9081.5 1967L8948 2075.5L8588 2185.5L8463 2264.5L8198 2398L8061.5 2554L7740.5 2627.5L7471.5 2698" stroke="#8B98A9" stroke-width="10"/>
<path d="M3167.5 3278.5L3762 3218M3762 3218L3376 3828.5L3910.5 3752.5M3762 3218H4350M3762 3218L4236 2472L4818 2563.5M3910.5 3752.5L3615 4343.5M3910.5 3752.5L4350 3218M3910.5 3752.5L4470.5 3895L4932 3253M4350 3218L4818 2563.5M4350 3218L4932 3253M4818 2563.5L5314.5 1890M4818 2563.5L5397 2630M4932 3253L5570.5 3325.5M4932 3253L5397 2630M5314.5 1890L5397 2630M5314.5 1890L5842.5 2045M5397 2630L5570.5 3325.5M5397 2630L5842.5 2045M5397 2630L5944 2696.5M5570.5 3325.5L5944 2696.5M5944 2696.5L6231.5 2181M5944 2696.5L6367.5 2829M6231.5 2181L5842.5 2045M6231.5 2181L6623.5 2266.5M6231.5 2181L6481.5 1713M5842.5 2045L6152.5 1510.5L6481.5 1713M6623.5 2266.5L6367.5 2829M6623.5 2266.5L6788 1849L6481.5 1713M6623.5 2266.5L6952.5 2317M6367.5 2829L6822 3003.5L6697.5 2507.5L7048 2517L7241 2780M6481.5 1713L6715.5 1280" stroke="#8B98A9" stroke-width="6"/>
<path d="M2800.5 3673.5L2396 4208M2396 4208L2895.5 3857M2396 4208L2086 4834L2737.5 4793M2737.5 4793L3129.5 4303M2737.5 4793L3246.5 4524" stroke="#8B98A9" stroke-width="10"/>
<path d="M3065.5 3594.5L2704 3503L2898.5 3333.5L3158 3278L3065.5 3594.5ZM3065.5 3594.5L3384.5 3829M3065.5 3594.5L2898.5 3875L3200.5 3963.5M3384.5 3829L3200.5 3963.5M3384.5 3829V4283M3200.5 3963.5L3129.5 4305.5L3384.5 4283M3384.5 4283L3615.5 4348.5L3553 4558L3373.5 4763L3384.5 4283Z" stroke="#8B98A9" stroke-width="6"/>
<path d="M6899.5 1606L6793.5 1851.5L7017.5 2106.5M6899.5 1606L6721.5 1288.5M6899.5 1606L7017.5 2106.5M6899.5 1606L6846.5 1240.5M7017.5 2106.5L6952.5 2315.5L7161.5 2539.5L7017.5 2106.5Z" stroke="#8B98A9" stroke-width="6"/>
<ellipse cx="2291.5" cy="3844.5" rx="47.5" ry="47.5" fill="#F7F7F7"/>
<ellipse cx="1885.5" cy="4215.5" rx="47.5" ry="47.5" fill="#F7F7F7"/>
<ellipse cx="2712" cy="3509" rx="30" ry="30" fill="#F7F7F7"/>
<ellipse cx="2799" cy="5512" rx="30" ry="30" fill="#F7F7F7"/>
<path d="M3405 4755C3405 4771.57 3391.57 4785 3375 4785C3358.43 4785 3345 4771.57 3345 4755C3345 4738.43 3358.43 4725 3375 4725C3391.57 4725 3405 4738.43 3405 4755Z" fill="#F7F7F7"/>
<path d="M3584 4556C3584 4572.57 3570.57 4586 3554 4586C3537.43 4586 3524 4572.57 3524 4556C3524 4539.43 3537.43 4526 3554 4526C3570.57 4526 3584 4539.43 3584 4556Z" fill="#F7F7F7"/>
<path d="M3177 4301.5C3177 4327.73 3155.73 4349 3129.5 4349C3103.27 4349 3082 4327.73 3082 4301.5C3082 4275.27 3103.27 4254 3129.5 4254C3155.73 4254 3177 4275.27 3177 4301.5Z" fill="#F7F7F7"/>
<path d="M2954 3868.5C2954 3894.73 2932.73 3916 2906.5 3916C2880.27 3916 2859 3894.73 2859 3868.5C2859 3842.27 2880.27 3821 2906.5 3821C2932.73 3821 2954 3842.27 2954 3868.5Z" fill="#F7F7F7"/>
<path d="M2420 4207C2420 4223.57 2406.57 4237 2390 4237C2373.43 4237 2360 4223.57 2360 4207C2360 4190.43 2373.43 4177 2390 4177C2406.57 4177 2420 4190.43 2420 4207Z" fill="#F7F7F7"/>
<path d="M2116 4834C2116 4850.57 2102.57 4864 2086 4864C2069.43 4864 2056 4850.57 2056 4834C2056 4817.43 2069.43 4804 2086 4804C2102.57 4804 2116 4817.43 2116 4834Z" fill="#F7F7F7"/>
<path d="M2769 4792C2769 4808.57 2755.57 4822 2739 4822C2722.43 4822 2709 4808.57 2709 4792C2709 4775.43 2722.43 4762 2739 4762C2755.57 4762 2769 4775.43 2769 4792Z" fill="#F7F7F7"/>
<path d="M2937 3334C2937 3350.57 2923.57 3364 2907 3364C2890.43 3364 2877 3350.57 2877 3334C2877 3317.43 2890.43 3304 2907 3304C2923.57 3304 2937 3317.43 2937 3334Z" fill="#F7F7F7"/>
<path d="M3247 3963.5C3247 3989.73 3225.73 4011 3199.5 4011C3173.27 4011 3152 3989.73 3152 3963.5C3152 3937.27 3173.27 3916 3199.5 3916C3225.73 3916 3247 3937.27 3247 3963.5Z" fill="#F7F7F7"/>
<path d="M3431 4286.5C3431 4312.73 3409.73 4334 3383.5 4334C3357.27 4334 3336 4312.73 3336 4286.5C3336 4260.27 3357.27 4239 3383.5 4239C3409.73 4239 3431 4260.27 3431 4286.5Z" fill="#F7F7F7"/>
<path d="M3646 4344C3646 4360.57 3632.57 4374 3616 4374C3599.43 4374 3586 4360.57 3586 4344C3586 4327.43 3599.43 4314 3616 4314C3632.57 4314 3646 4327.43 3646 4344Z" fill="#F7F7F7"/>
<path d="M3115 3595.5C3115 3621.73 3093.73 3643 3067.5 3643C3041.27 3643 3020 3621.73 3020 3595.5C3020 3569.27 3041.27 3548 3067.5 3548C3093.73 3548 3115 3569.27 3115 3595.5Z" fill="#F7F7F7"/>
<ellipse cx="3994" cy="4100" rx="30" ry="30" fill="#F7F7F7"/>
<ellipse cx="4465" cy="3897" rx="30" ry="30" fill="#F7F7F7"/>
<ellipse cx="5027" cy="3613" rx="30" ry="30" fill="#F7F7F7"/>
<ellipse cx="5571" cy="3322" rx="30" ry="30" fill="#F7F7F7"/>
<ellipse cx="6014" cy="2986" rx="30" ry="30" fill="#F7F7F7"/>
<ellipse cx="6371" cy="2828" rx="30" ry="30" fill="#F7F7F7"/>
<ellipse cx="6701" cy="2513" rx="30" ry="30" fill="#F7F7F7"/>
<ellipse cx="6956" cy="2314" rx="30" ry="30" fill="#F7F7F7"/>
<ellipse cx="6722" cy="1287" rx="30" ry="30" fill="#F7F7F7"/>
<path d="M6468 1390.74C6468 1407.31 6454.57 1420.74 6438 1420.74C6421.43 1420.74 6408 1407.31 6408 1390.74C6408 1374.17 6421.43 1360.74 6438 1360.74C6454.57 1360.74 6468 1374.17 6468 1390.74Z" fill="#F7F7F7"/>
<ellipse cx="6160" cy="1512" rx="30" ry="30" fill="#F7F7F7"/>
<ellipse cx="5805" cy="1668" rx="30" ry="30" fill="#F7F7F7"/>
<ellipse cx="5323" cy="1888" rx="30" ry="30" fill="#F7F7F7"/>
<path d="M4787.5 2170.5C4787.5 2187.07 4774.07 2200.5 4757.5 2200.5C4740.93 2200.5 4727.5 2187.07 4727.5 2170.5C4727.5 2153.93 4740.93 2140.5 4757.5 2140.5C4774.07 2140.5 4787.5 2153.93 4787.5 2170.5Z" fill="#F7F7F7"/>
<ellipse cx="4238" cy="2463" rx="30" ry="30" fill="#F7F7F7"/>
<ellipse cx="3706" cy="2832" rx="30" ry="30" fill="#F7F7F7"/>
<ellipse cx="3193" cy="3304" rx="30" ry="30" fill="#F7F7F7"/>
<path d="M3409 3829C3409 3845.57 3395.57 3859 3379 3859C3362.43 3859 3349 3845.57 3349 3829C3349 3812.43 3362.43 3799 3379 3799C3395.57 3799 3409 3812.43 3409 3829Z" fill="#F7F7F7"/>
<ellipse cx="4347" cy="3214" rx="30" ry="30" fill="#F7F7F7"/>
<ellipse cx="5392" cy="2633" rx="30" ry="30" fill="#F7F7F7"/>
<ellipse cx="6237" cy="2177" rx="30" ry="30" fill="#F7F7F7"/>
<path d="M6821 1853C6821 1869.57 6807.57 1883 6791 1883C6774.43 1883 6761 1869.57 6761 1853C6761 1836.43 6774.43 1823 6791 1823C6807.57 1823 6821 1836.43 6821 1853Z" fill="#F7F7F7"/>
<path d="M7189 2533C7189 2549.57 7175.57 2563 7159 2563C7142.43 2563 7129 2549.57 7129 2533C7129 2516.43 7142.43 2503 7159 2503C7175.57 2503 7189 2516.43 7189 2533Z" fill="#F7F7F7"/>
<path d="M7305 2632C7305 2645.81 7293.81 2657 7280 2657C7266.19 2657 7255 2645.81 7255 2632C7255 2618.19 7266.19 2607 7280 2607C7293.81 2607 7305 2618.19 7305 2632Z" fill="#F7F7F7"/>
<path d="M7046 2102C7046 2118.57 7032.57 2132 7016 2132C6999.43 2132 6986 2118.57 6986 2102C6986 2085.43 6999.43 2072 7016 2072C7032.57 2072 7046 2085.43 7046 2102Z" fill="#F7F7F7"/>
<path d="M6926 1602C6926 1618.57 6912.57 1632 6896 1632C6879.43 1632 6866 1618.57 6866 1602C6866 1585.43 6879.43 1572 6896 1572C6912.57 1572 6926 1585.43 6926 1602Z" fill="#F7F7F7"/>
<path d="M6881 1233C6881 1249.57 6867.57 1263 6851 1263C6834.43 1263 6821 1249.57 6821 1233C6821 1216.43 6834.43 1203 6851 1203C6867.57 1203 6881 1216.43 6881 1233Z" fill="#F7F7F7"/>
<path d="M9122 551C9122 567.569 9108.57 581 9092 581C9075.43 581 9062 567.569 9062 551C9062 534.431 9075.43 521 9092 521C9108.57 521 9122 534.431 9122 551Z" fill="#F7F7F7"/>
<path d="M7588 1203C7588 1219.57 7574.57 1233 7558 1233C7541.43 1233 7528 1219.57 7528 1203C7528 1186.43 7541.43 1173 7558 1173C7574.57 1173 7588 1186.43 7588 1203Z" fill="#F7F7F7"/>
<path d="M8523 1003C8523 1019.57 8509.57 1033 8493 1033C8476.43 1033 8463 1019.57 8463 1003C8463 986.431 8476.43 973 8493 973C8509.57 973 8523 986.431 8523 1003Z" fill="#F7F7F7"/>
<ellipse cx="7245" cy="2789" rx="30" ry="30" fill="#F7F7F7"/>
<path d="M6857 3013C6857 3029.57 6843.57 3043 6827 3043C6810.43 3043 6797 3029.57 6797 3013C6797 2996.43 6810.43 2983 6827 2983C6843.57 2983 6857 2996.43 6857 3013Z" fill="#F7F7F7"/>
<ellipse cx="7479" cy="2702" rx="30" ry="30" fill="#F7F7F7"/>
<ellipse cx="7753" cy="2716" rx="30" ry="30" fill="#F7F7F7"/>
<ellipse cx="8110" cy="2629" rx="30" ry="30" fill="#F7F7F7"/>
<ellipse cx="8499" cy="2341" rx="30" ry="30" fill="#F7F7F7"/>
<ellipse cx="8957" cy="2174" rx="30" ry="30" fill="#F7F7F7"/>
<ellipse cx="9291" cy="1805" rx="30" ry="30" fill="#F7F7F7"/>
<ellipse cx="7832.5" cy="2986.5" rx="63.5" ry="26.5" fill="#F7F7F7"/>
<ellipse cx="8173.5" cy="2959.5" rx="63.5" ry="26.5" fill="#F7F7F7"/>
<ellipse cx="8452.5" cy="2732.5" rx="63.5" ry="26.5" fill="#F7F7F7"/>
<ellipse cx="8489" cy="2001" rx="30" ry="30" fill="#F7F7F7"/>
<ellipse cx="8752" cy="1793" rx="30" ry="30" fill="#F7F7F7"/>
<ellipse cx="8144" cy="2194" rx="30" ry="30" fill="#F7F7F7"/>
<ellipse cx="7783" cy="2387" rx="30" ry="30" fill="#F7F7F7"/>
<ellipse cx="7476" cy="2495" rx="30" ry="30" fill="#F7F7F7"/>
<path d="M8649.5 1404C8649.5 1427.47 8630.47 1446.5 8607 1446.5C8583.53 1446.5 8564.5 1427.47 8564.5 1404C8564.5 1380.53 8583.53 1361.5 8607 1361.5C8630.47 1361.5 8649.5 1380.53 8649.5 1404Z" fill="#F7F7F7" stroke="#F7F7F7" stroke-width="15"/>
<path d="M8255.5 1474.5C8255.5 1497.97 8236.47 1517 8213 1517C8189.53 1517 8170.5 1497.97 8170.5 1474.5C8170.5 1451.03 8189.53 1432 8213 1432C8236.47 1432 8255.5 1451.03 8255.5 1474.5Z" fill="#F7F7F7" stroke="#F7F7F7" stroke-width="15"/>
<g filter="url(#filter1_d)">
<ellipse cx="7909" cy="1708" rx="50" ry="50" fill="#F7F7F7"/>
<path d="M7951.5 1708C7951.5 1731.47 7932.47 1750.5 7909 1750.5C7885.53 1750.5 7866.5 1731.47 7866.5 1708C7866.5 1684.53 7885.53 1665.5 7909 1665.5C7932.47 1665.5 7951.5 1684.53 7951.5 1708Z" stroke="#F7F7F7" stroke-width="15"/>
</g>
<g filter="url(#filter2_d)">
<ellipse cx="7649" cy="1873" rx="50" ry="50" fill="#F7F7F7"/>
<path d="M7691.5 1873C7691.5 1896.47 7672.47 1915.5 7649 1915.5C7625.53 1915.5 7606.5 1896.47 7606.5 1873C7606.5 1849.53 7625.53 1830.5 7649 1830.5C7672.47 1830.5 7691.5 1849.53 7691.5 1873Z" stroke="#F7F7F7" stroke-width="15"/>
</g>
<path d="M7503.5 1668C7503.5 1691.47 7484.47 1710.5 7461 1710.5C7437.53 1710.5 7418.5 1691.47 7418.5 1668C7418.5 1644.53 7437.53 1625.5 7461 1625.5C7484.47 1625.5 7503.5 1644.53 7503.5 1668Z" fill="#F7F7F7" stroke="#F7F7F7" stroke-width="15"/>
<path d="M7260.5 1933C7260.5 1956.47 7241.47 1975.5 7218 1975.5C7194.53 1975.5 7175.5 1956.47 7175.5 1933C7175.5 1909.53 7194.53 1890.5 7218 1890.5C7241.47 1890.5 7260.5 1909.53 7260.5 1933Z" fill="#F7F7F7" stroke="#F7F7F7" stroke-width="15"/>
<ellipse cx="9653" cy="927" rx="40" ry="40" fill="#CECECE"/>
<ellipse cx="10098" cy="828" rx="40" ry="40" fill="#CECECE"/>
<ellipse cx="10556" cy="683" rx="40" ry="40" fill="#CECECE"/>
<ellipse cx="10998" cy="493" rx="40" ry="40" fill="#CECECE"/>
<ellipse cx="720" cy="5550" rx="50" ry="50" fill="#998AA3"/>
<ellipse cx="1059" cy="5693" rx="50" ry="50" fill="#998AA3"/>
<ellipse cx="1160" cy="5216" rx="60" ry="60" fill="#CECECE"/>
<ellipse cx="904" cy="5370" rx="50" ry="50" fill="#998AA3"/>
<ellipse cx="546" cy="5276" rx="50" ry="50" fill="#898AA3"/>
<ellipse cx="605" cy="5761" rx="40" ry="40" fill="#898AA3"/>
<ellipse cx="366" cy="5580" rx="40" ry="40" fill="#898AA3"/>
<ellipse cx="318" cy="5921" rx="40" ry="40" fill="#898AA3"/>
<ellipse cx="892.5" cy="5904.5" rx="43.5" ry="43.5" fill="#998AA3"/>
<ellipse cx="228" cy="7577" rx="25" ry="25" fill="#898AA3"/>
<ellipse cx="75" cy="7375" rx="25" ry="25" fill="#898AA3"/>
<ellipse cx="25" cy="7146" rx="25" ry="25" fill="#898AA3"/>
<ellipse cx="127" cy="6947" rx="25" ry="25" fill="#898AA3"/>
<ellipse cx="253" cy="6768" rx="25" ry="25" fill="#898AA3"/>
<ellipse cx="798.5" cy="6158.5" rx="37.5" ry="37.5" fill="#898AA3"/>
<ellipse cx="535" cy="6507" rx="30" ry="30" fill="#898AA3"/>
<ellipse cx="391" cy="6647" rx="25" ry="25" fill="#898AA3"/>
<ellipse cx="572.5" cy="5992.5" rx="37.5" ry="37.5" fill="#898AA3"/>
<ellipse cx="508.5" cy="6253.5" rx="37.5" ry="37.5" fill="#898AA3"/>
<ellipse cx="290.5" cy="6203.5" rx="37.5" ry="37.5" fill="#898AA3"/>
<ellipse cx="310.5" cy="6434.5" rx="32.5" ry="32.5" fill="#898AA3"/>
<ellipse cx="757.5" cy="6388.5" rx="37.5" ry="37.5" fill="#898AA3"/>
<ellipse cx="1569.5" cy="6364.5" rx="37.5" ry="37.5" fill="#998AA3"/>
<ellipse cx="1290.5" cy="6388.5" rx="37.5" ry="37.5" fill="#998AA3"/>
<ellipse cx="1036.5" cy="6350.5" rx="37.5" ry="37.5" fill="#898AA3"/>
<ellipse cx="1102.5" cy="6152.5" rx="43.5" ry="43.5" fill="#998AA3"/>
<ellipse cx="1040" cy="4837" rx="60" ry="60" fill="#CECECE"/>
<ellipse cx="1778" cy="6216" rx="60" ry="60" fill="#CECECE"/>
<ellipse cx="794" cy="5037" rx="60" ry="60" fill="#998AA3"/>
<ellipse cx="1488" cy="5861" rx="60" ry="60" fill="#CECECE"/>
<ellipse cx="1414" cy="6171" rx="45" ry="45" fill="#998AA3"/>
<ellipse cx="1306" cy="5560" rx="60" ry="60" fill="#CECECE"/>
<ellipse cx="1246" cy="5948" rx="45" ry="45" fill="#998AA3"/>
<ellipse cx="4553" cy="5445" rx="25" ry="25" fill="#898AA3"/>
<ellipse cx="4825" cy="5470" rx="25" ry="25" fill="#898AA3"/>
<ellipse cx="5096.5" cy="5407.5" rx="37.5" ry="37.5" fill="#898AA3"/>
<ellipse cx="5385" cy="5308" rx="50" ry="50" fill="#898AA3"/>
<ellipse cx="5676" cy="5107" rx="50" ry="50" fill="#898AA3"/>
<ellipse cx="6025" cy="4890" rx="50" ry="50" fill="#998AA3"/>
<ellipse cx="6244" cy="4638" rx="50" ry="50" fill="#CECECE"/>
<ellipse cx="6566" cy="4416" rx="60" ry="60" fill="#CECECE"/>
<ellipse cx="9858" cy="4381" rx="25" ry="25" fill="#898AA3"/>
<ellipse cx="10048" cy="4237" rx="25" ry="25" fill="#898AA3"/>
<ellipse cx="10221.5" cy="4032.5" rx="37.5" ry="37.5" fill="#898AA3"/>
<ellipse cx="10395" cy="3793" rx="50" ry="50" fill="#898AA3"/>
<ellipse cx="10605" cy="3511" rx="50" ry="50" fill="#898AA3"/>
<ellipse cx="10705" cy="3202" rx="50" ry="50" fill="#B2B3BC"/>
<ellipse cx="10805" cy="2919" rx="50" ry="50" fill="#CECECE"/>
<ellipse cx="10915" cy="2619" rx="60" ry="60" fill="#CECECE"/>
<ellipse cx="7114" cy="4550" rx="25" ry="25" fill="#898AA3"/>
<ellipse cx="7386" cy="4575" rx="25" ry="25" fill="#898AA3"/>
<ellipse cx="7657.5" cy="4512.5" rx="37.5" ry="37.5" fill="#898AA3"/>
<ellipse cx="7946" cy="4413" rx="50" ry="50" fill="#898AA3"/>
<ellipse cx="8237" cy="4212" rx="50" ry="50" fill="#998AA3"/>
<ellipse cx="8586" cy="3995" rx="50" ry="50" fill="#B2B3BC"/>
<ellipse cx="8805" cy="3743" rx="50" ry="50" fill="#CECECE"/>
<ellipse cx="9127" cy="3521" rx="60" ry="60" fill="#CECECE"/>
<ellipse cx="7645" cy="5415" rx="25" ry="25" fill="#898AA3"/>
<ellipse cx="7945.5" cy="5389.5" rx="37.5" ry="37.5" fill="#898AA3"/>
<ellipse cx="8192" cy="5271" rx="50" ry="50" fill="#898AA3"/>
<ellipse cx="8498" cy="5063" rx="50" ry="50" fill="#898AA3"/>
<ellipse cx="8686" cy="4732" rx="50" ry="50" fill="#898AA3"/>
<ellipse cx="8855" cy="4413" rx="50" ry="50" fill="#B2B3BC"/>
<ellipse cx="9005" cy="4162" rx="50" ry="50" fill="#F7F7F7"/>
<ellipse cx="9162" cy="3848" rx="55" ry="55" fill="#F7F7F7"/>
<path d="M8821 732C8821 748.569 8807.57 762 8791 762C8774.43 762 8761 748.569 8761 732C8761 715.431 8774.43 702 8791 702C8807.57 702 8821 715.431 8821 732Z" fill="#F7F7F7"/>
<path d="M7778 956C7778 972.569 7764.57 986 7748 986C7731.43 986 7718 972.569 7718 956C7718 939.431 7731.43 926 7748 926C7764.57 926 7778 939.431 7778 956Z" fill="#F7F7F7"/>
<path d="M7301 1105C7301 1121.57 7287.57 1135 7271 1135C7254.43 1135 7241 1121.57 7241 1105C7241 1088.43 7254.43 1075 7271 1075C7287.57 1075 7301 1088.43 7301 1105Z" fill="#F7F7F7"/>
<path d="M8228 871C8228 887.569 8214.57 901 8198 901C8181.43 901 8168 887.569 8168 871C8168 854.431 8181.43 841 8198 841C8214.57 841 8228 854.431 8228 871Z" fill="#F7F7F7"/>
<path d="M9320 289C9320 305.569 9306.57 319 9290 319C9273.43 319 9260 305.569 9260 289C9260 272.431 9273.43 259 9290 259C9306.57 259 9320 272.431 9320 289Z" fill="#F7F7F7"/>
<defs>
<filter id="filter0_d" x="1249" y="0.466309" width="10183.1" height="6039.13" filterUnits="userSpaceOnUse" color-interpolation-filters="sRGB">
<feFlood flood-opacity="0" result="BackgroundImageFix"/>
<feColorMatrix in="SourceAlpha" type="matrix" values="0 0 0 0 0 0 0 0 0 0 0 0 0 0 0 0 0 0 127 0"/>
<feOffset dy="4"/>
<feGaussianBlur stdDeviation="2"/>
<feColorMatrix type="matrix" values="0 0 0 0 0 0 0 0 0 0 0 0 0 0 0 0 0 0 0.25 0"/>
<feBlend mode="normal" in2="BackgroundImageFix" result="effect1_dropShadow"/>
<feBlend mode="normal" in="SourceGraphic" in2="effect1_dropShadow" result="shape"/>
</filter>
<filter id="filter1_d" x="7855" y="1658" width="108" height="108" filterUnits="userSpaceOnUse" color-interpolation-filters="sRGB">
<feFlood flood-opacity="0" result="BackgroundImageFix"/>
<feColorMatrix in="SourceAlpha" type="matrix" values="0 0 0 0 0 0 0 0 0 0 0 0 0 0 0 0 0 0 127 0"/>
<feOffset dy="4"/>
<feGaussianBlur stdDeviation="2"/>
<feColorMatrix type="matrix" values="0 0 0 0 0 0 0 0 0 0 0 0 0 0 0 0 0 0 0.25 0"/>
<feBlend mode="normal" in2="BackgroundImageFix" result="effect1_dropShadow"/>
<feBlend mode="normal" in="SourceGraphic" in2="effect1_dropShadow" result="shape"/>
</filter>
<filter id="filter2_d" x="7595" y="1823" width="108" height="108" filterUnits="userSpaceOnUse" color-interpolation-filters="sRGB">
<feFlood flood-opacity="0" result="BackgroundImageFix"/>
<feColorMatrix in="SourceAlpha" type="matrix" values="0 0 0 0 0 0 0 0 0 0 0 0 0 0 0 0 0 0 127 0"/>
<feOffset dy="4"/>
<feGaussianBlur stdDeviation="2"/>
<feColorMatrix type="matrix" values="0 0 0 0 0 0 0 0 0 0 0 0 0 0 0 0 0 0 0.25 0"/>
<feBlend mode="normal" in2="BackgroundImageFix" result="effect1_dropShadow"/>
<feBlend mode="normal" in="SourceGraphic" in2="effect1_dropShadow" result="shape"/>
</filter>
</defs>
</svg>
