<svg width="719" height="476" viewBox="0 0 719 476" fill="none" xmlns="http://www.w3.org/2000/svg">
<g filter="url(#filter0_d)">
<path d="M674.169 46.1661H704.207L707.415 53.3367L713.775 38.9785L685.227 38.8748L707.436 28.7545L713.769 16.841L685.249 1L681.264 6.5539L681.264 6.55432L674.18 16.8806L685.262 10.5749L704.184 16.8721L700.313 25.595L674.495 38.8748M674.169 46.1661L629.861 59.6335L629.86 59.6337L604.517 66.7588M674.169 46.1661L652.002 52.8386L629.844 59.5736L629.843 59.5737L604.5 66.6986L580.781 73.011L580.784 73.0719L601.346 77.0407L625.09 87.32L625.091 87.3208L625.094 87.3214L650.406 94.4464L650.408 94.447L685.227 99.1936V108.684L700.248 118.177L685.408 146.316L693.203 122.898L681.284 118.131L658.597 136.12L674.188 118.187L674.15 118.139L650.601 130.688L668.686 113.409L650.429 103.889L650.427 103.888L650.425 103.887L625.108 94.3851H617.202L601.357 87.2592L587.853 88.8608L604.484 108.686L604.485 108.688L604.486 108.688L609.23 113.433L620 157.728L621.914 170.354L617.167 180.685M604.517 66.7588L604.508 66.7287M604.517 66.7588L580.929 73.0364L601.361 76.9799L625.11 87.2612L625.114 87.2626L650.419 94.3854L650.423 94.3862L685.289 99.1391V108.649L700.331 118.155L685.288 146.676L685.286 146.681L685.229 146.657L685.231 146.652L693.126 122.935L681.295 118.202L658.376 136.375L658.371 136.379L658.328 136.334L658.333 136.33L674.03 118.274L650.429 130.85L650.393 130.8L668.58 113.424L650.404 103.946L650.4 103.944L625.096 94.4476H617.189L601.347 87.3233L587.976 88.9093L604.53 108.644L604.532 108.646L609.28 113.394L609.286 113.4L609.288 113.408M617.167 180.685L609.285 191.777L609.284 191.779L596.629 212.371L596.626 212.375L587.934 219.472L587.886 219.436L596.527 198.982L583.184 209.192L583.14 209.147L601.321 186.999V170.385L596.572 142.706L591.824 130.837L580.791 113.477L572.094 128.47L572.088 128.474L560.227 136.371V146.677L542.033 170.404L542.03 170.409L542.025 170.412L531.748 176.753L523.814 187.03L523.808 187.038L507.2 191.792H484.988L480.224 180.698L484.96 170.415L467.64 169.637M617.167 180.685L609.233 191.742L609.232 191.743L609.232 191.744L596.578 212.334L587.992 219.344L596.677 198.789L583.36 208.978L601.376 187.03L601.383 187.022V170.383L601.383 170.38L596.633 142.693L596.632 142.689L596.631 142.686L591.881 130.811L591.88 130.808L591.878 130.806L580.788 113.356L572.047 128.426L560.183 136.325L538.027 142.669L531.714 146.638L531.71 146.64L515.089 154.545L515.082 154.548L507.178 164.827L485.005 170.354L467.564 169.571M471.602 191.755L471.603 191.761L471.601 191.767M375.809 186.979L371.341 169.531L364.72 128.434L362.339 103.888M375.809 186.979L348.102 208.386M375.809 186.979L394.844 200.72L403.937 219.479L405.312 236.115L401.973 240.439L406.308 245.355L410.632 257.448L398.027 246.398L371.341 241.908M397.961 177.477L389.946 136.326L385.277 94.3876M397.961 177.477L418.602 157.735M397.961 177.477L375.833 187.042M397.961 177.477L402.594 188.626H426.281M426.281 188.626L440.937 180.698L452.812 174.657M426.281 188.626L439.656 196.751L442.875 205.261M452.812 174.657L467.564 169.571M452.812 174.657L418.602 157.735M452.812 174.657L462.827 188.626L458.102 205.229L454.146 205.219M452.812 174.657L454.146 205.219M452.812 174.657L455 165.032M467.572 215.604L471.539 191.76V180.698L467.564 169.571M467.572 215.604V223.292L471.603 239.423L448.406 251.314L439.545 257.14L432.367 267.189L421.125 262.97L423.724 257.14M467.572 215.604L460.25 215.878L454.146 216.19L458.102 234.72L432.365 253.693L423.724 257.14M467.564 169.571L462.719 164.595L455 165.032M674.495 38.8748L629.862 53.2896L629.86 53.2901L601.359 59.6341L601.358 59.6343L577.61 63.5713L577.607 63.572L577.594 63.511M674.495 38.8748L629.845 53.2294L629.842 53.2301L601.347 59.5728L601.345 59.5731L578.182 63.4133L591.876 59.6294L596.63 46.1489L601.387 39.0141L596.631 25.5618L596.627 25.5492L580.788 18.4122L568.102 25.5539V34.2503M577.594 63.511L577.597 63.5103M577.594 63.511L563.383 56.4161L560.212 46.1661M577.597 63.5103L591.828 59.5779L596.573 46.1244L596.574 46.1207M577.597 63.5103L560.165 76.9799L541.996 53.2286M596.574 46.1207L601.317 39.0054L596.577 25.5952L580.791 18.4822L568.165 25.5905V34.2692L568.159 34.2771L560.212 46.1661M596.574 46.1207L583.36 34.2771L568.102 34.2503M560.212 46.1661H549.927L542.029 53.2831L542.02 53.2911H523.79M523.79 53.2911L485.017 59.6337L485.013 59.6345L420.133 80.3537M523.79 53.2911L541.996 53.2286M523.79 53.2911L504.394 56.4009L485.001 59.5731L485 59.5736M420.133 80.3537L424.867 115.541L435.196 145.198M420.133 80.3537L401.904 87.2619M401.927 87.32L401.924 87.3212M401.924 87.3212L385.302 94.445L362.365 103.945L362.364 103.945L332.304 118.194L332.303 118.195M401.924 87.3212L405.122 107.877L409.915 128.434L418.602 157.735M332.303 118.195L297.461 136.381L297.46 136.382L265.025 154.599L265.024 154.6M332.303 118.195L336.977 164.899L348.102 208.386M332.303 118.195L362.34 103.888M265.024 154.6L230.994 176.755L230.994 176.756L230.993 176.756M265.024 154.6C267.654 172.92 269.128 183.191 271.758 201.511L279.258 244.011M230.993 176.756L214.335 190.988M230.993 176.756L235.383 201.511L244.477 235.105L249.977 257.448M214.335 190.988L197.763 205.236M214.335 190.988L197.708 205.204M214.335 190.988L197.71 205.273L210.944 239.448L225.781 272.126L237.693 264.57M214.335 190.988L230.96 176.703L230.961 176.702L264.991 154.547L264.992 154.546L264.993 154.546L297.431 136.327M297.431 136.327L297.431 136.326L332.275 118.139L332.276 118.138L332.276 118.138L362.339 103.888M297.431 136.327L304.165 182.136L308.133 203.636L314.071 225.792M362.339 103.888L362.339 103.888L362.34 103.888M362.34 103.888L385.277 94.3876M385.277 94.3876L401.904 87.2619M385.277 94.3876L401.905 87.2614L401.904 87.2619M541.996 53.2286L549.894 46.1116L549.903 46.1036M560.179 46.1036L568.102 34.2503M442.875 205.261H401.973L409.594 215.604L423.724 215.878L433.594 216.19L443.844 216.532L445.437 227.001L430.028 243.332L414.216 248.512L423.724 257.14M442.875 205.261L454.146 205.219M249.977 257.448L279.258 244.011M249.977 257.448L237.693 264.57M249.977 257.448L260.187 261.251L265.719 264.126L254.727 278.824L219.469 308.252L249.437 269.22L237.693 264.57M279.258 244.011L294.346 236.115M279.258 244.011L287.165 251.917L284.937 259.039L273.562 276.47L253.094 290.064L268.977 271.692V257.448L264.991 250.367M314.071 225.792L348.102 208.386M314.071 225.792L309.321 237.667L302.196 260.603L272.915 285.949L294.346 260.606V236.115M314.071 225.792L294.346 236.115M348.102 208.386L350.281 209.97L356.531 215.126M418.602 157.735L435.196 145.198M353.469 223.157L371.594 232.501M435.196 145.198L440.564 157.735L447.437 158.938L455 165.032M206.875 304.658L176.362 344.487L126.125 375.512L101.531 377.189L111.625 357.627L92.6562 355.002L104.719 336.502L85.1562 331.564L95.1334 317.355L78.625 313.564V297.627L118.227 264.57L142.946 240.649L169.227 219.429L210.944 298.158L206.875 304.658ZM538.052 142.727L560.165 136.396V146.656L541.987 170.362L531.718 176.698H523.806L519.076 169.603L531.75 146.689L538.052 142.727ZM531.663 176.761L523.771 186.983L507.216 191.722L502.479 176.731L507.223 164.87L515.122 154.598L531.653 146.737L519.003 169.606L523.773 176.761H531.663ZM502.416 176.739L507.153 191.729H485.029L480.293 180.698L485.03 170.412L507.144 164.899L502.413 176.728L502.416 176.739ZM554.665 87.2592L572.094 94.3851L568.165 99.1391L580.781 103.887L583.36 108.688L596.677 124.479L601.317 136.371L609.23 181.479L615.187 169.571L604.484 118.155L587.992 99.1391L577.61 88.9093L563.383 81.7876L554.665 87.2592Z" stroke="#8B98A9" stroke-width="0.625"/>
</g>
<path d="M420.281 205.439L423.656 216.126" stroke="#8B98A9" stroke-width="0.625"/>
<path d="M430 243.376L431.047 248.767L432.094 254.158L439.312 257.033M443.875 216.564L454.406 216.22" stroke="#8B98A9" stroke-width="0.625"/>
<path d="M294.25 236.126L309.125 238.189" stroke="#8B98A9" stroke-width="0.625"/>
<path d="M268.906 257.626L287.25 251.97" stroke="#8B98A9" stroke-width="0.625"/>
<path d="M294.219 260.783H301.969" stroke="#8B98A9" stroke-width="0.625"/>
<path d="M249.531 269.064L258.219 273.876" stroke="#8B98A9" stroke-width="0.625"/>
<path d="M248.875 269.876L259.875 261.126" stroke="#8B98A9" stroke-width="0.625"/>
<path d="M375.906 219.501L362.188 205.314V215.376L375.906 225.782V219.501Z" stroke="#8B98A9" stroke-width="0.875"/>
<path d="M388.625 210.47L382.094 212.532L396.844 221.782L388.625 210.47Z" stroke="#8B98A9" stroke-width="0.875"/>
<path d="M396.844 240.876L382.094 225.782L378.312 231.157L396.844 240.876Z" stroke="#8B98A9" stroke-width="0.875"/>
<path d="M356.125 215.001L353.625 223.751" stroke="#8B98A9" stroke-width="0.875"/>
<path d="M371.219 232.251L371.625 242.314" stroke="#8B98A9" stroke-width="0.875"/>
<path d="M555.75 46.3127L559.646 60.0427L573.812 66.4691" stroke="#8B98A9" stroke-width="0.625"/>
<path d="M583.656 34.7189L591.187 47.0002L588.437 55.8753L577.375 63.4691" stroke="#8B98A9" stroke-width="0.625"/>
<path d="M580.594 18.6251L593.25 28.5626L596.812 38.6564L593.25 43.4065" stroke="#8B98A9" stroke-width="0.625"/>
<path d="M446.281 159.251L473.656 146.751L492.781 138.251L513.312 127.063L535.406 114.438L547.5 99.938L556.312 102.594L558.844 112.876L553.781 120.376L543.469 127.063L536.625 133.782L524.906 137.626L515.844 145.595L501.969 151.407L492.781 157.313L480.469 160.813L471.781 163.72L462.656 164.595" stroke="#8B98A9" stroke-width="0.94"/>
<path d="M547.5 100.657L547.062 112.501M547.062 112.501L558.812 112.876M547.062 112.501L535.531 114.438L530.75 125.376M547.062 112.501L543.469 127.126L530.75 125.376M530.75 125.376L525.031 137.501L509.094 137.657M530.75 125.376L513.406 126.969L509.094 137.657M509.094 137.657L493.062 138.157L486.406 149.595M509.094 137.657L502.062 151.407L486.406 149.595M486.406 149.595L480.469 160.876L467.312 156.282M486.406 149.595L473.437 146.782L467.312 156.282M467.312 156.282L462.781 164.438M467.312 156.282L447.281 158.97" stroke="#8B98A9" stroke-width="0.625"/>
<path d="M428.656 78.4067L444.656 84.0004M444.656 84.0004L454.594 69.8754L472.344 75.6879M444.656 84.0004L461.406 90.813M444.656 84.0004L430.75 100.594L449.687 101.251L461.406 90.813M472.344 75.6879L484.312 60.6566L501.375 67.5003M472.344 75.6879L491.25 82.1254M472.344 75.6879L461.406 90.813M501.375 67.5003L512.312 55.1878L531.437 63.3753M501.375 67.5003L518.531 75.6879M501.375 67.5003L491.25 82.1254M531.437 63.3753L542 53.1565M531.437 63.3753L518.531 75.6879M531.437 63.3753L553.125 68.5629L537.219 78.4067L518.531 75.6879M518.531 75.6879L508.375 84.7504L491.25 82.1254M491.25 82.1254L478.75 92.6255L461.406 90.813" stroke="#8B98A9" stroke-width="0.625"/>
<path d="M579.406 113.969L567.594 123.501L559.25 130.282L536.75 137.157L528.937 142.094L512.375 150.438L503.844 160.188L483.781 164.782L466.969 169.188" stroke="#8B98A9" stroke-width="0.625"/>
<path d="M197.969 205.47L235.125 201.689M235.125 201.689L211 239.845L244.406 235.095M235.125 201.689H271.875M235.125 201.689L264.75 155.063L301.125 160.782M244.406 235.095L225.937 272.033M244.406 235.095L271.875 201.689M244.406 235.095L279.406 244.001L308.25 203.876M271.875 201.689L301.125 160.782M271.875 201.689L308.25 203.876M301.125 160.782L332.156 118.688M301.125 160.782L337.312 164.938M308.25 203.876L348.156 208.407M308.25 203.876L337.312 164.938M332.156 118.688L337.312 164.938M332.156 118.688L365.156 128.376M337.312 164.938L348.156 208.407M337.312 164.938L365.156 128.376M337.312 164.938L371.5 169.095M348.156 208.407L371.5 169.095M371.5 169.095L389.469 136.876M371.5 169.095L397.969 177.376M389.469 136.876L365.156 128.376M389.469 136.876L413.969 142.22M389.469 136.876L405.094 107.626M365.156 128.376L384.531 94.9693L405.094 107.626M413.969 142.22L397.969 177.376M413.969 142.22L424.25 116.126L405.094 107.626M413.969 142.22L434.531 145.376M397.969 177.376L426.375 188.282L418.594 157.282L440.5 157.876L452.562 174.313M405.094 107.626L419.719 80.5629" stroke="#8B98A9" stroke-width="0.75"/>
<path d="M175.156 230.501L149.875 263.908M149.875 263.908L181.094 241.97M149.875 263.908L130.5 303.033L171.219 300.47M171.219 300.47L195.719 269.845M171.219 300.47L203.031 283.658" stroke="#8B98A9" stroke-width="0.625"/>
<path d="M191.594 225.22L169 219.501L181.156 208.907L197.375 205.439L191.594 225.22ZM191.594 225.22L211.531 239.876M191.594 225.22L181.156 242.751L200.031 248.283M211.531 239.876L200.031 248.283M211.531 239.876V268.251M200.031 248.283L195.594 269.658L211.531 268.251M211.531 268.251L225.969 272.345L222.062 285.439L210.844 298.252L211.531 268.251Z" stroke="#8B98A9" stroke-width="0.75"/>
<path d="M431.219 100.938L424.594 116.282L438.594 132.219M431.219 100.938L420.094 81.0942M431.219 100.938L438.594 132.219M431.219 100.938L427.906 78.0941M438.594 132.219L434.531 145.282L447.594 159.282L438.594 132.219Z" stroke="#8B98A9" stroke-width="0.75"/>
<ellipse cx="143.219" cy="240.845" rx="2.96875" ry="2.96877" fill="#F7F7F7"/>
<ellipse cx="117.844" cy="264.033" rx="2.96875" ry="2.96877" fill="#F7F7F7"/>
<ellipse cx="169.5" cy="219.876" rx="1.875" ry="1.87501" fill="#F7F7F7"/>
<ellipse cx="174.938" cy="345.064" rx="1.875" ry="1.87501" fill="#F7F7F7"/>
<path d="M212.812 297.752C212.812 298.787 211.973 299.627 210.937 299.627C209.902 299.627 209.062 298.787 209.062 297.752C209.062 296.716 209.902 295.877 210.937 295.877C211.973 295.877 212.812 296.716 212.812 297.752Z" fill="#F7F7F7"/>
<path d="M224 285.314C224 286.35 223.161 287.189 222.125 287.189C221.089 287.189 220.25 286.35 220.25 285.314C220.25 284.278 221.089 283.439 222.125 283.439C223.161 283.439 224 284.278 224 285.314Z" fill="#F7F7F7"/>
<path d="M198.562 269.408C198.562 271.047 197.233 272.376 195.594 272.376C193.954 272.376 192.625 271.047 192.625 269.408C192.625 267.768 193.954 266.439 195.594 266.439C197.233 266.439 198.562 267.768 198.562 269.408Z" fill="#F7F7F7"/>
<path d="M184.625 242.345C184.625 243.985 183.296 245.314 181.656 245.314C180.017 245.314 178.688 243.985 178.688 242.345C178.688 240.705 180.017 239.376 181.656 239.376C183.296 239.376 184.625 240.705 184.625 242.345Z" fill="#F7F7F7"/>
<path d="M151.25 263.501C151.25 264.537 150.411 265.376 149.375 265.376C148.339 265.376 147.5 264.537 147.5 263.501C147.5 262.466 148.339 261.626 149.375 261.626C150.411 261.626 151.25 262.466 151.25 263.501Z" fill="#F7F7F7"/>
<path d="M132.25 302.689C132.25 303.725 131.411 304.564 130.375 304.564C129.339 304.564 128.5 303.725 128.5 302.689C128.5 301.654 129.339 300.814 130.375 300.814C131.411 300.814 132.25 301.654 132.25 302.689Z" fill="#F7F7F7"/>
<path d="M173.062 300.064C173.062 301.1 172.223 301.939 171.187 301.939C170.152 301.939 169.312 301.1 169.312 300.064C169.312 299.029 170.152 298.189 171.187 298.189C172.223 298.189 173.062 299.029 173.062 300.064Z" fill="#F7F7F7"/>
<path d="M183.562 208.939C183.562 209.974 182.723 210.814 181.687 210.814C180.652 210.814 179.812 209.974 179.812 208.939C179.812 207.903 180.652 207.064 181.687 207.064C182.723 207.064 183.562 207.903 183.562 208.939Z" fill="#F7F7F7"/>
<path d="M202.937 248.283C202.937 249.922 201.608 251.251 199.969 251.251C198.329 251.251 197 249.922 197 248.283C197 246.643 198.329 245.314 199.969 245.314C201.608 245.314 202.937 246.643 202.937 248.283Z" fill="#F7F7F7"/>
<path d="M214.437 268.47C214.437 270.11 213.108 271.439 211.469 271.439C209.829 271.439 208.5 270.11 208.5 268.47C208.5 266.831 209.829 265.501 211.469 265.501C213.108 265.501 214.437 266.831 214.437 268.47Z" fill="#F7F7F7"/>
<path d="M227.875 272.064C227.875 273.099 227.036 273.939 226 273.939C224.964 273.939 224.125 273.099 224.125 272.064C224.125 271.028 224.964 270.189 226 270.189C227.036 270.189 227.875 271.028 227.875 272.064Z" fill="#F7F7F7"/>
<path d="M194.687 225.282C194.687 226.922 193.358 228.251 191.719 228.251C190.079 228.251 188.75 226.922 188.75 225.282C188.75 223.643 190.079 222.314 191.719 222.314C193.358 222.314 194.687 223.643 194.687 225.282Z" fill="#F7F7F7"/>
<ellipse cx="249.625" cy="256.814" rx="1.875" ry="1.87501" fill="#F7F7F7"/>
<ellipse cx="279.062" cy="244.126" rx="1.875" ry="1.87501" fill="#F7F7F7"/>
<ellipse cx="314.188" cy="226.376" rx="1.875" ry="1.87501" fill="#F7F7F7"/>
<ellipse cx="348.188" cy="208.189" rx="1.875" ry="1.87501" fill="#F7F7F7"/>
<ellipse cx="375.875" cy="187.188" rx="1.875" ry="1.87501" fill="#F7F7F7"/>
<ellipse cx="398.188" cy="177.313" rx="1.875" ry="1.87501" fill="#F7F7F7"/>
<ellipse cx="418.812" cy="157.626" rx="1.875" ry="1.87501" fill="#F7F7F7"/>
<ellipse cx="434.75" cy="145.188" rx="1.875" ry="1.87501" fill="#F7F7F7"/>
<ellipse cx="420.125" cy="81.0004" rx="1.875" ry="1.87501" fill="#F7F7F7"/>
<path d="M404.25 87.484C404.25 88.5195 403.411 89.359 402.375 89.359C401.339 89.359 400.5 88.5195 400.5 87.484C400.5 86.4484 401.339 85.609 402.375 85.609C403.411 85.609 404.25 86.4484 404.25 87.484Z" fill="#F7F7F7"/>
<ellipse cx="385" cy="95.063" rx="1.875" ry="1.87501" fill="#F7F7F7"/>
<ellipse cx="362.812" cy="104.813" rx="1.875" ry="1.87501" fill="#F7F7F7"/>
<ellipse cx="332.688" cy="118.563" rx="1.875" ry="1.87501" fill="#F7F7F7"/>
<path d="M299.219 136.219C299.219 137.255 298.379 138.094 297.344 138.094C296.308 138.094 295.469 137.255 295.469 136.219C295.469 135.184 296.308 134.344 297.344 134.344C298.379 134.344 299.219 135.184 299.219 136.219Z" fill="#F7F7F7"/>
<ellipse cx="264.875" cy="154.501" rx="1.875" ry="1.87501" fill="#F7F7F7"/>
<ellipse cx="230.625" cy="177.251" rx="1.875" ry="1.87501" fill="#F7F7F7"/>
<ellipse cx="197.5" cy="205.501" rx="1.875" ry="1.87501" fill="#F7F7F7"/>
<path d="M213.062 239.876C213.062 240.912 212.223 241.751 211.187 241.751C210.152 241.751 209.312 240.912 209.312 239.876C209.312 238.841 210.152 238.001 211.187 238.001C212.223 238.001 213.062 238.841 213.062 239.876Z" fill="#F7F7F7"/>
<ellipse cx="271.688" cy="201.439" rx="1.875" ry="1.87501" fill="#F7F7F7"/>
<ellipse cx="337" cy="165.126" rx="1.875" ry="1.87501" fill="#F7F7F7"/>
<ellipse cx="389.812" cy="136.626" rx="1.875" ry="1.87501" fill="#F7F7F7"/>
<path d="M426.312 116.376C426.312 117.411 425.473 118.251 424.437 118.251C423.402 118.251 422.562 117.411 422.562 116.376C422.562 115.34 423.402 114.501 424.437 114.501C425.473 114.501 426.312 115.34 426.312 116.376Z" fill="#F7F7F7"/>
<path d="M449.312 158.876C449.312 159.911 448.473 160.751 447.437 160.751C446.402 160.751 445.562 159.911 445.562 158.876C445.562 157.84 446.402 157.001 447.437 157.001C448.473 157.001 449.312 157.84 449.312 158.876Z" fill="#F7F7F7"/>
<path d="M456.562 165.063C456.562 165.926 455.863 166.626 455 166.626C454.137 166.626 453.438 165.926 453.438 165.063C453.438 164.2 454.137 163.501 455 163.501C455.863 163.501 456.562 164.2 456.562 165.063Z" fill="#F7F7F7"/>
<path d="M440.375 131.938C440.375 132.974 439.536 133.813 438.5 133.813C437.464 133.813 436.625 132.974 436.625 131.938C436.625 130.903 437.464 130.063 438.5 130.063C439.536 130.063 440.375 130.903 440.375 131.938Z" fill="#F7F7F7"/>
<path d="M432.875 100.688C432.875 101.724 432.036 102.563 431 102.563C429.964 102.563 429.125 101.724 429.125 100.688C429.125 99.6525 429.964 98.813 431 98.813C432.036 98.813 432.875 99.6525 432.875 100.688Z" fill="#F7F7F7"/>
<path d="M430.062 77.6254C430.062 78.6609 429.223 79.5004 428.187 79.5004C427.152 79.5004 426.312 78.6609 426.312 77.6254C426.312 76.5899 427.152 75.7504 428.187 75.7504C429.223 75.7504 430.062 76.5899 430.062 77.6254Z" fill="#F7F7F7"/>
<path d="M570.125 35.0002C570.125 36.0357 569.286 36.8752 568.25 36.8752C567.214 36.8752 566.375 36.0357 566.375 35.0002C566.375 33.9647 567.214 33.1252 568.25 33.1252C569.286 33.1252 570.125 33.9647 570.125 35.0002Z" fill="#F7F7F7"/>
<path d="M474.25 75.7504C474.25 76.7859 473.411 77.6254 472.375 77.6254C471.339 77.6254 470.5 76.7859 470.5 75.7504C470.5 74.7148 471.339 73.8754 472.375 73.8754C473.411 73.8754 474.25 74.7148 474.25 75.7504Z" fill="#F7F7F7"/>
<path d="M532.687 63.2503C532.687 64.2859 531.848 65.1253 530.812 65.1253C529.777 65.1253 528.938 64.2859 528.938 63.2503C528.938 62.2148 529.777 61.3753 530.812 61.3753C531.848 61.3753 532.687 62.2148 532.687 63.2503Z" fill="#F7F7F7"/>
<ellipse cx="452.812" cy="174.876" rx="1.875" ry="1.87501" fill="#F7F7F7"/>
<path d="M428.562 188.876C428.562 189.912 427.723 190.751 426.687 190.751C425.652 190.751 424.812 189.912 424.812 188.876C424.812 187.84 425.652 187.001 426.687 187.001C427.723 187.001 428.562 187.84 428.562 188.876Z" fill="#F7F7F7"/>
<ellipse cx="467.438" cy="169.438" rx="1.875" ry="1.87501" fill="#F7F7F7"/>
<ellipse cx="484.562" cy="170.313" rx="1.875" ry="1.87501" fill="#F7F7F7"/>
<ellipse cx="506.875" cy="164.876" rx="1.875" ry="1.87501" fill="#F7F7F7"/>
<ellipse cx="531.188" cy="146.876" rx="1.875" ry="1.87501" fill="#F7F7F7"/>
<ellipse cx="559.812" cy="136.438" rx="1.875" ry="1.87501" fill="#F7F7F7"/>
<ellipse cx="580.688" cy="113.376" rx="1.875" ry="1.87501" fill="#F7F7F7"/>
<ellipse cx="489.531" cy="187.22" rx="3.96875" ry="1.65626" fill="#F7F7F7"/>
<ellipse cx="510.844" cy="185.532" rx="3.96875" ry="1.65626" fill="#F7F7F7"/>
<ellipse cx="528.281" cy="171.345" rx="3.96875" ry="1.65626" fill="#F7F7F7"/>
<ellipse cx="530.562" cy="125.626" rx="1.875" ry="1.87501" fill="#F7F7F7"/>
<ellipse cx="547" cy="112.626" rx="1.875" ry="1.87501" fill="#F7F7F7"/>
<ellipse cx="509" cy="137.688" rx="1.875" ry="1.87501" fill="#F7F7F7"/>
<ellipse cx="486.438" cy="149.751" rx="1.875" ry="1.87501" fill="#F7F7F7"/>
<ellipse cx="467.25" cy="156.501" rx="1.875" ry="1.87501" fill="#F7F7F7"/>
<ellipse cx="537.938" cy="88.3129" rx="3.125" ry="3.12502" fill="#F7F7F7"/>
<path d="M516.437 92.7192C516.437 94.4451 515.038 95.8442 513.312 95.8442C511.587 95.8442 510.188 94.4451 510.188 92.7192C510.188 90.9933 511.587 89.5942 513.312 89.5942C515.038 89.5942 516.437 90.9933 516.437 92.7192Z" fill="#F7F7F7" stroke="#F7F7F7" stroke-width="15"/>
<g filter="url(#filter1_d)">
<ellipse cx="494.312" cy="107.313" rx="3.125" ry="3.12502" fill="#F7F7F7"/>
</g>
<g filter="url(#filter2_d)">
<ellipse cx="478.062" cy="117.626" rx="3.125" ry="3.12502" fill="#F7F7F7"/>
</g>
<ellipse cx="466.312" cy="104.813" rx="3.125" ry="3.12502" fill="#F7F7F7"/>
<ellipse cx="451.125" cy="121.376" rx="3.125" ry="3.12502" fill="#F7F7F7"/>
<ellipse cx="603.312" cy="58.5003" rx="2.5" ry="2.50001" fill="#CECECE"/>
<ellipse cx="631.125" cy="52.3128" rx="2.5" ry="2.50001" fill="#CECECE"/>
<ellipse cx="659.75" cy="43.2502" rx="2.5" ry="2.50001" fill="#CECECE"/>
<ellipse cx="687.375" cy="31.3752" rx="2.5" ry="2.50001" fill="#CECECE"/>
<ellipse cx="45" cy="347.439" rx="3.125" ry="3.12502" fill="#998AA3"/>
<ellipse cx="66.1875" cy="356.377" rx="3.125" ry="3.12502" fill="#998AA3"/>
<ellipse cx="72.5" cy="326.564" rx="3.75" ry="3.75002" fill="#CECECE"/>
<ellipse cx="56.5" cy="336.189" rx="3.125" ry="3.12502" fill="#998AA3"/>
<ellipse cx="34.125" cy="330.314" rx="3.125" ry="3.12502" fill="#898AA3"/>
<ellipse cx="37.8125" cy="360.627" rx="2.5" ry="2.50001" fill="#898AA3"/>
<ellipse cx="22.875" cy="349.314" rx="2.5" ry="2.50001" fill="#898AA3"/>
<ellipse cx="19.875" cy="370.627" rx="2.5" ry="2.50001" fill="#898AA3"/>
<ellipse cx="55.7812" cy="369.596" rx="2.71875" ry="2.71876" fill="#998AA3"/>
<ellipse cx="14.25" cy="474.127" rx="1.5625" ry="1.56251" fill="#898AA3"/>
<ellipse cx="4.6875" cy="461.502" rx="1.5625" ry="1.56251" fill="#898AA3"/>
<ellipse cx="1.5625" cy="447.19" rx="1.5625" ry="1.56251" fill="#898AA3"/>
<ellipse cx="7.9375" cy="434.752" rx="1.5625" ry="1.56251" fill="#898AA3"/>
<ellipse cx="15.8125" cy="423.565" rx="1.5625" ry="1.56251" fill="#898AA3"/>
<ellipse cx="49.9062" cy="385.471" rx="2.34375" ry="2.34376" fill="#898AA3"/>
<ellipse cx="33.4375" cy="407.252" rx="1.875" ry="1.87501" fill="#898AA3"/>
<ellipse cx="24.4375" cy="416.002" rx="1.5625" ry="1.56251" fill="#898AA3"/>
<ellipse cx="35.7812" cy="375.096" rx="2.34375" ry="2.34376" fill="#898AA3"/>
<ellipse cx="31.7812" cy="391.408" rx="2.34375" ry="2.34376" fill="#898AA3"/>
<ellipse cx="18.1562" cy="388.283" rx="2.34375" ry="2.34376" fill="#898AA3"/>
<ellipse cx="19.4062" cy="402.721" rx="2.03125" ry="2.03126" fill="#898AA3"/>
<ellipse cx="47.3438" cy="399.846" rx="2.34375" ry="2.34376" fill="#898AA3"/>
<ellipse cx="98.0938" cy="398.346" rx="2.34375" ry="2.34376" fill="#998AA3"/>
<ellipse cx="80.6562" cy="399.846" rx="2.34375" ry="2.34376" fill="#998AA3"/>
<ellipse cx="64.7812" cy="397.471" rx="2.34375" ry="2.34376" fill="#898AA3"/>
<ellipse cx="68.9062" cy="385.096" rx="2.71875" ry="2.71876" fill="#998AA3"/>
<ellipse cx="65" cy="302.877" rx="3.75" ry="3.75002" fill="#CECECE"/>
<ellipse cx="111.125" cy="389.065" rx="3.75" ry="3.75002" fill="#CECECE"/>
<ellipse cx="49.625" cy="315.377" rx="3.75" ry="3.75002" fill="#998AA3"/>
<ellipse cx="93" cy="366.877" rx="3.75" ry="3.75002" fill="#CECECE"/>
<ellipse cx="88.375" cy="386.252" rx="2.8125" ry="2.81251" fill="#998AA3"/>
<ellipse cx="81.625" cy="348.064" rx="3.75" ry="3.75002" fill="#CECECE"/>
<ellipse cx="77.875" cy="372.314" rx="2.8125" ry="2.81251" fill="#998AA3"/>
<ellipse cx="284.562" cy="340.877" rx="1.5625" ry="1.56251" fill="#898AA3"/>
<ellipse cx="301.562" cy="342.439" rx="1.5625" ry="1.56251" fill="#898AA3"/>
<ellipse cx="318.531" cy="338.533" rx="2.34375" ry="2.34376" fill="#898AA3"/>
<ellipse cx="336.562" cy="332.314" rx="3.125" ry="3.12502" fill="#898AA3"/>
<ellipse cx="354.75" cy="319.752" rx="3.125" ry="3.12502" fill="#898AA3"/>
<ellipse cx="376.562" cy="306.189" rx="3.125" ry="3.12502" fill="#998AA3"/>
<ellipse cx="390.25" cy="290.439" rx="3.125" ry="3.12502" fill="#CECECE"/>
<ellipse cx="410.375" cy="276.564" rx="3.75" ry="3.75002" fill="#CECECE"/>
<ellipse cx="616.125" cy="274.376" rx="1.5625" ry="1.56251" fill="#898AA3"/>
<ellipse cx="628" cy="265.376" rx="1.5625" ry="1.56251" fill="#898AA3"/>
<ellipse cx="638.844" cy="252.595" rx="2.34375" ry="2.34376" fill="#898AA3"/>
<ellipse cx="649.688" cy="237.626" rx="3.125" ry="3.12502" fill="#898AA3"/>
<ellipse cx="662.812" cy="220.001" rx="3.125" ry="3.12502" fill="#898AA3"/>
<ellipse cx="669.062" cy="200.689" rx="3.125" ry="3.12502" fill="#B2B3BC"/>
<ellipse cx="675.312" cy="183.001" rx="3.125" ry="3.12502" fill="#CECECE"/>
<ellipse cx="682.188" cy="164.251" rx="3.75" ry="3.75002" fill="#CECECE"/>
<ellipse cx="444.625" cy="284.939" rx="1.5625" ry="1.56251" fill="#898AA3"/>
<ellipse cx="461.625" cy="286.501" rx="1.5625" ry="1.56251" fill="#898AA3"/>
<ellipse cx="478.594" cy="282.595" rx="2.34375" ry="2.34376" fill="#898AA3"/>
<ellipse cx="496.625" cy="276.376" rx="3.125" ry="3.12502" fill="#898AA3"/>
<ellipse cx="514.812" cy="263.814" rx="3.125" ry="3.12502" fill="#998AA3"/>
<ellipse cx="536.625" cy="250.251" rx="3.125" ry="3.12502" fill="#B2B3BC"/>
<ellipse cx="550.312" cy="234.501" rx="3.125" ry="3.12502" fill="#CECECE"/>
<ellipse cx="570.438" cy="220.626" rx="3.75" ry="3.75002" fill="#CECECE"/>
<ellipse cx="477.812" cy="339.002" rx="1.5625" ry="1.56251" fill="#898AA3"/>
<ellipse cx="496.594" cy="337.408" rx="2.34375" ry="2.34376" fill="#898AA3"/>
<ellipse cx="512" cy="330.002" rx="3.125" ry="3.12502" fill="#898AA3"/>
<ellipse cx="531.125" cy="317.002" rx="3.125" ry="3.12502" fill="#898AA3"/>
<ellipse cx="542.875" cy="296.314" rx="3.125" ry="3.12502" fill="#898AA3"/>
<ellipse cx="553.438" cy="276.376" rx="3.125" ry="3.12502" fill="#B2B3BC"/>
<ellipse cx="562.812" cy="260.689" rx="3.125" ry="3.12502" fill="#F7F7F7"/>
<ellipse cx="572.625" cy="241.064" rx="3.4375" ry="3.43752" fill="#F7F7F7"/>
<path d="M551.312 46.3128C551.312 47.3483 550.473 48.1878 549.437 48.1878C548.402 48.1878 547.562 47.3483 547.562 46.3128C547.562 45.2772 548.402 44.4377 549.437 44.4377C550.473 44.4377 551.312 45.2772 551.312 46.3128Z" fill="#F7F7F7"/>
<path d="M486.125 60.3128C486.125 61.3484 485.286 62.1878 484.25 62.1878C483.214 62.1878 482.375 61.3484 482.375 60.3128C482.375 59.2773 483.214 58.4378 484.25 58.4378C485.286 58.4378 486.125 59.2773 486.125 60.3128Z" fill="#F7F7F7"/>
<path d="M456.312 69.6254C456.312 70.6609 455.473 71.5004 454.437 71.5004C453.402 71.5004 452.562 70.6609 452.562 69.6254C452.562 68.5898 453.402 67.7504 454.437 67.7504C455.473 67.7504 456.312 68.5898 456.312 69.6254Z" fill="#F7F7F7"/>
<path d="M514.25 55.0003C514.25 56.0358 513.411 56.8753 512.375 56.8753C511.339 56.8753 510.5 56.0358 510.5 55.0003C510.5 53.9647 511.339 53.1253 512.375 53.1253C513.411 53.1253 514.25 53.9647 514.25 55.0003Z" fill="#F7F7F7"/>
<path d="M582.5 18.6251C582.5 19.6606 581.661 20.5001 580.625 20.5001C579.589 20.5001 578.75 19.6606 578.75 18.6251C578.75 17.5896 579.589 16.7501 580.625 16.7501C581.661 16.7501 582.5 17.5896 582.5 18.6251Z" fill="#F7F7F7"/>
<defs>
<filter id="filter0_d" x="74.3125" y="0.591644" width="643.942" height="384.947" filterUnits="userSpaceOnUse" color-interpolation-filters="sRGB">
<feFlood flood-opacity="0" result="BackgroundImageFix"/>
<feColorMatrix in="SourceAlpha" type="matrix" values="0 0 0 0 0 0 0 0 0 0 0 0 0 0 0 0 0 0 127 0"/>
<feOffset dy="4"/>
<feGaussianBlur stdDeviation="2"/>
<feColorMatrix type="matrix" values="0 0 0 0 0 0 0 0 0 0 0 0 0 0 0 0 0 0 0.25 0"/>
<feBlend mode="normal" in2="BackgroundImageFix" result="effect1_dropShadow"/>
<feBlend mode="normal" in="SourceGraphic" in2="effect1_dropShadow" result="shape"/>
</filter>
<filter id="filter1_d" x="487.188" y="104.188" width="14.25" height="14.25" filterUnits="userSpaceOnUse" color-interpolation-filters="sRGB">
<feFlood flood-opacity="0" result="BackgroundImageFix"/>
<feColorMatrix in="SourceAlpha" type="matrix" values="0 0 0 0 0 0 0 0 0 0 0 0 0 0 0 0 0 0 127 0"/>
<feOffset dy="4"/>
<feGaussianBlur stdDeviation="2"/>
<feColorMatrix type="matrix" values="0 0 0 0 0 0 0 0 0 0 0 0 0 0 0 0 0 0 0.25 0"/>
<feBlend mode="normal" in2="BackgroundImageFix" result="effect1_dropShadow"/>
<feBlend mode="normal" in="SourceGraphic" in2="effect1_dropShadow" result="shape"/>
</filter>
<filter id="filter2_d" x="470.938" y="114.501" width="14.25" height="14.25" filterUnits="userSpaceOnUse" color-interpolation-filters="sRGB">
<feFlood flood-opacity="0" result="BackgroundImageFix"/>
<feColorMatrix in="SourceAlpha" type="matrix" values="0 0 0 0 0 0 0 0 0 0 0 0 0 0 0 0 0 0 127 0"/>
<feOffset dy="4"/>
<feGaussianBlur stdDeviation="2"/>
<feColorMatrix type="matrix" values="0 0 0 0 0 0 0 0 0 0 0 0 0 0 0 0 0 0 0.25 0"/>
<feBlend mode="normal" in2="BackgroundImageFix" result="effect1_dropShadow"/>
<feBlend mode="normal" in="SourceGraphic" in2="effect1_dropShadow" result="shape"/>
</filter>
</defs>
</svg>
