<svg width="5719" height="3802" viewBox="0 0 5719 3802" fill="none" xmlns="http://www.w3.org/2000/svg">
<path d="M2955 1674.75L3036.75 1812L3145 1748.25L2955 1674.75Z" fill="#D4388B"/>
<path d="M3156.5 1600.75L3093.5 1673.5L2972 1573.75L3156.5 1600.75Z" fill="#D4388B"/>
<path d="M3689 1671L3739 1726.75L3654.75 1732.25L3689 1671Z" fill="#C84A9D"/>
<path d="M1108.5 2487.5L1459.75 2353.75L1133.5 2108.5L1108.5 2487.5Z" fill="#3A214E"/>
<path d="M1471.5 2341.75L1419.25 2124.5L1189.75 2192.75L1471.5 2341.75Z" fill="#542A6C"/>
<path d="M1143.75 1978L1189 2214.25L984 2193.5L1143.75 1978Z" fill="#6A3787"/>
<path d="M1279.25 2704.25L1501.75 2495.75L973.5 2415.75L1279.25 2704.25Z" fill="#7D4AAB"/>
<path d="M1083.5 2937.25L1484.5 2654.5L1150 2702.25L1083.5 2937.25Z" fill="#9A57A3"/>
<path d="M942.5 2412.25L797.25 2820.25L1154.25 2754.25L942.5 2412.25Z" fill="#542A6C"/>
<path d="M3065.2 1592.5L2995.75 1724.75L3112.75 1721.25L3065.2 1592.5Z" fill="#883685"/>
<path d="M3039.25 1768.5L3145 1875.75L3154.75 1768.5H3039.25Z" fill="#A3327C"/>
<path d="M2960.75 1755.5L3088.5 1602.25L2777 1546L2960.75 1755.5Z" fill="#A3327C"/>
<path d="M2950.25 1482.25L3125.75 1581L2939.5 1625.5L2950.25 1482.25Z" fill="#883685"/>
<path d="M1495 2104L1648.75 2413.75L1354.75 2331.75L1495 2104Z" fill="#8A4DA7"/>
<path d="M1284 2371.5L1656 2343.5L1448.75 2663L1284 2371.5Z" fill="#6A3787"/>
<path d="M4352.75 1087L4292.75 1291L4163.75 1226.75L4352.75 1087Z" fill="#883685"/>
<path d="M4132.5 1237L4035.25 1405.25L3968.25 1237H4132.5Z" fill="#D4388B"/>
<path d="M3752.5 1610.5L3681.5 1692.75L3721.75 1719.25L3752.5 1610.5Z" fill="#A3327C"/>
<path d="M3554.25 1505.5L3580.5 1588.25L3620.25 1505.5H3554.25Z" fill="#883685"/>
<path d="M1163.75 2142.5L1282.25 1907.25L1556 2142.5L1163.75 2142.5Z" fill="#6A3787"/>
<path d="M709 2378L648.75 2498.75L942.5 2466.5L709 2378Z" fill="#492666"/>
<path d="M4153.25 732.25L4423 603V865.25L4153.25 732.25Z" fill="#67236D"/>
<path d="M4157.5 1378.5L4111.75 1513.5L3983 1447L4157.5 1378.5Z" fill="#D4388B"/>
<path d="M4477.5 1114.5L4434 1226.75L4209.5 1128.75L4477.5 1114.5Z" fill="#7D4AAB"/>
<path d="M2174.75 2043.5L2272.25 2063.75L2158 2201.5L2174.75 2043.5Z" fill="#73328A"/>
<path d="M2291 2029L2156 2091.25L2239 1960.25L2291 2029Z" fill="#9A57A3"/>
<path d="M2072.25 1721.5L2221.25 1911.75L1836 1923L2072.25 1721.5Z" fill="#8A4DA7"/>
<path d="M3868.5 775.75L3985.25 798.5V949.25L3868.5 775.75Z" fill="#67236D"/>
<path d="M3176.5 1395L3149.5 1193.5L2905.25 1447.75L3176.5 1395Z" fill="#67236D"/>
<path d="M3786.75 1225.5L3647 1311.25L3537.5 1049L3786.75 1225.5Z" fill="#7D4AAB"/>
<path d="M3898.75 1296.5L4007.5 1415.25L3761.25 1312.75L3898.75 1296.5Z" fill="#7D4AAB"/>
<path d="M4277.25 1377.75L4157.25 1295.25L4381 1257.75L4277.25 1377.75Z" fill="#A3327C"/>
<path d="M3124.5 831.75L3380.25 1068.75L2839.5 1034.5L3124.5 831.75Z" fill="#743C94"/>
<path d="M1177.75 2436.25L930.25 2199L886 2496.5L1177.75 2436.25Z" fill="#6A3787"/>
<path d="M3667 1072.75L3980.75 971L3654.5 869.25L3667 1072.75Z" fill="#8B4EAD"/>
<path d="M1328.5 2545L1181.75 2742L1002.75 2545H1328.5Z" fill="#6A3787"/>
<path d="M3393.75 1100.25L3423.75 1253.75L3143.25 1124.75L3393.75 1100.25Z" fill="#9A57A3"/>
<path d="M4820.5 1505.25L4739.5 1688L4862 1544.75L4820.5 1505.25Z" fill="#C84A9D"/>
<path d="M4923.75 1453.75L4877.5 1469.58L4931.5 1333.25L4923.75 1453.75Z" fill="#883685"/>
<path d="M2910.5 1518.5L2792.75 1624.25L2901 1812L2910.5 1518.5Z" fill="#7D4AAB"/>
<path d="M3207.2 1723.5L3125.5 1868L3237.5 1838.8L3207.2 1723.5Z" fill="#883685"/>
<path d="M3458 797.25L3946.75 672.75L3566 644L3458 797.25Z" fill="#743C94"/>
<path d="M3867.75 956.5L3653.25 647.5L3907 602L3867.75 956.5Z" fill="#69307D"/>
<path d="M4780.25 347.5L4730.75 239.5L4590 273.75L4780.25 347.5Z" fill="#6D2367"/>
<path d="M3743.75 1152.75L3575.5 1120.75L3638.75 946.75L3743.75 1152.75Z" fill="#743C94"/>
<path d="M2230.75 1944.25L1957.25 1951.25L1802.5 2136.75L2230.75 1944.25Z" fill="#8B4EAD"/>
<path d="M2486 1830.25L2446.25 1963L2431.13 1863L2486 1830.25Z" fill="#8B4EAD"/>
<path d="M3349 1488.5L3604.75 1395L3477.75 1216.25L3349 1488.5Z" fill="#7D4AAB"/>
<path d="M1929.5 1914.5L1819.75 2132.75L1614.25 1684L1929.5 1914.5Z" fill="#6A3787"/>
<path d="M2170.5 1297.25L2047 1779L1828 1603L2170.5 1297.25Z" fill="#6A3787"/>
<path d="M2615 1294.75L2842.75 1041.25L2408.5 1146.75L2615 1294.75Z" fill="#743C94"/>
<path d="M3756.25 1546L3738.5 1700L3700.75 1598.5L3756.25 1546Z" fill="#D4388B"/>
<path d="M3674.5 1635.5L3665.5 1811.75L3599.75 1655.5L3674.5 1635.5Z" fill="#D4388B"/>
<path d="M4409.75 811.75L4382.25 1132.75L4303.5 940.5L4409.75 811.75Z" fill="#D4388B"/>
<path d="M4448.5 364L4598.25 515.75L4315.5 459.75L4448.5 364Z" fill="#883685"/>
<path d="M2466.18 1327.25L2428.25 1599.25L2160 1353.5L2466.18 1327.25Z" fill="#9A57A3"/>
<path d="M3069.5 1048.5L2918.5 1238.75L2667.25 1159.75L3069.5 1048.5Z" fill="#9A57A3"/>
<path d="M1986 1599.25L1938.25 1978.5L1794.5 1705.5L1986 1599.25Z" fill="#9A57A3"/>
<path d="M2722.75 1506.25L2602 1730.75L2498.25 1599.25L2722.75 1506.25Z" fill="#9A57A3"/>
<path d="M2581.25 1025.5L2873.25 1239L2560.5 1379.5L2581.25 1025.5Z" fill="#67236D"/>
<path d="M5590.75 944.5L5512.5 1097.25L5569 926.5L5590.75 944.5Z" fill="#D4388B"/>
<path d="M2460.75 1213L2662.25 1504.5L2241 1380.25L2460.75 1213Z" fill="#743C94"/>
<path d="M3563 1448.25L3569.25 1646.5L3488 1468L3563 1448.25Z" fill="#C84A9D"/>
<path d="M3464 1975.5L3408.5 2104.25L3376 2022.5L3464 1975.5Z" fill="#C84A9D"/>
<path d="M3634.75 1743.25L3644.25 1855.25L3585.5 1743.25H3634.75Z" fill="#C84A9D"/>
<path d="M922.25 2401L854 2245.25L628.25 2401H922.25Z" fill="#542D6A"/>
<path d="M3562.5 1827.5L3458.75 1929.5L3552.5 1886.25L3562.5 1827.5Z" fill="#C84A9D"/>
<path d="M3649.25 1864.75L3516 1979.5L3613 1830L3649.25 1864.75Z" fill="#C84A9D"/>
<path d="M3768.75 1891L3653 1965.75L3698.75 1884.25L3768.75 1891Z" fill="#C84A9D"/>
<path d="M3736.5 1782.75L3685 1880.25L3659.5 1765.75L3736.5 1782.75Z" fill="#C84A9D"/>
<path d="M2016.75 2093.5L2119.75 2113L1989.5 2233.5L2016.75 2093.5Z" fill="#9A57A3"/>
<path d="M1973.5 2192L2036.75 2206L1803.75 2415.75L1973.5 2192Z" fill="#883685"/>
<path d="M2150.5 2059L2254.75 1972L2133.75 1954.5L2150.5 2059Z" fill="#7D4AAB"/>
<path d="M1918 2118.25L2060.75 2139.5L1980 2048L1918 2118.25Z" fill="#7D4AAB"/>
<path d="M2364.5 1866L2453.25 1875.25L2364.5 2032.5V1866Z" fill="#9A57A3"/>
<path d="M2237.58 1915L2199 1817H2508.5L2237.58 1915Z" fill="#7D4AAB"/>
<path d="M2695.25 1350L2668.25 1660.5L2386.25 1393L2695.25 1350Z" fill="#73328A"/>
<path d="M3302.25 1048.5L3151.25 1238.75L2900 1159.75L3302.25 1048.5Z" fill="#73328A"/>
<path d="M2267.75 1511.5L2173.5 1943.5L2027.25 1705.5L2267.75 1511.5Z" fill="#73328A"/>
<path d="M2424 2054L2379.5 1995L2350.25 2105.5L2424 2054Z" fill="#7D4AAB"/>
<path d="M2349.25 2093.5L2381.25 2109.5L2231 2236.25L2349.25 2093.5Z" fill="#883685"/>
<path d="M2155.25 2169.5L2192.25 2198L2048 2298L2155.25 2169.5Z" fill="#883685"/>
<path d="M2601.75 1504.5L2448.96 1776.12H2131.5L2601.75 1504.5Z" fill="#7D4AAB"/>
<path d="M3891.5 1372.75L3995.5 1446.25L3859.75 1478.75L3891.5 1372.75Z" fill="#C84A9D"/>
<path d="M4232.25 1270.25L4063.75 1421.5L4084.75 1270.25H4232.25Z" fill="#C84A9D"/>
<path d="M4311 1216.5L4304.75 1372.75L4481 1151.5L4311 1216.5Z" fill="#C84A9D"/>
<path d="M4232.25 1404L4101.5 1497.75H4181L4232.25 1404Z" fill="#C84A9D"/>
<path d="M3618.75 1413.5V1562.5L3558.25 1424.75L3618.75 1413.5Z" fill="#D4388B"/>
<path d="M2460 1923L2395.5 1942L2412 2061.25L2460 1923Z" fill="#883685"/>
<path d="M3770.75 1433L3748 1522L3728.5 1386L3770.75 1433Z" fill="#D4388B"/>
<path d="M3402.5 1643.75L3290.25 1718.75L3231.5 1643.75H3402.5Z" fill="#A3327C"/>
<path d="M3382 1653.25L3462.75 1706L3312.25 1717L3382 1653.25Z" fill="#C84A9D"/>
<path d="M3212.5 1915L3230 1819L3042.75 1872L3212.5 1915Z" fill="#D4388B"/>
<path d="M3596.5 1786V1907L3545.75 1831.25L3596.5 1786Z" fill="#D4388B"/>
<path d="M3545 1945.5L3423.75 2028.25L3451 1933L3545 1945.5Z" fill="#D4388B"/>
<path d="M3608.25 1981L3487 2063.75L3514.25 1968.5L3608.25 1981Z" fill="#D4388B"/>
<path d="M3719.75 1905.5L3598.5 1988.25L3625.75 1893L3719.75 1905.5Z" fill="#D4388B"/>
<path d="M3750.75 1833V1920.75L3658.5 1833H3750.75Z" fill="#D4388B"/>
<path d="M2688.5 1674.5L2359.75 1711.75L2217 1935.25L2688.5 1674.5Z" fill="#8863AA"/>
<path d="M1746.25 1868.5L2129.75 1246.5L1590 1644.25L1746.25 1868.5Z" fill="#492666"/>
<path d="M3125.5 1424.5L2796.75 1461.75L2679 1671.25L3125.5 1424.5Z" fill="#8863AA"/>
<path d="M3525.75 1263.5L3232.5 1191.25L3193 1378.5L3525.75 1263.5Z" fill="#883685"/>
<path d="M3462.25 1441.5L3237.75 1333.5L3221 1493.5L3462.25 1441.5Z" fill="#883685"/>
<path d="M3583.25 1376.25V1458L3412.25 1475L3583.25 1376.25Z" fill="#883685"/>
<path d="M3424.5 1503.25L3508.75 1554.75L3498.75 1487L3424.5 1503.25Z" fill="#883685"/>
<path d="M3749.75 1328.5L3693.25 1413L3621.5 1376.5L3749.75 1328.5Z" fill="#883685"/>
<path d="M4708.25 460.25L4758.75 356.561L4578.25 285.5L4708.25 460.25Z" fill="#542A6C"/>
<path d="M4421.5 411.75V559.5L4073 453L4421.5 411.75Z" fill="#542A6C"/>
<path d="M4799 307.25L4762.5 201.125L4653.5 161L4799 307.25Z" fill="#542A6C"/>
<path d="M4839.25 533.25H4693L4743.75 486.25L4839.25 533.25Z" fill="#743C94"/>
<path d="M4499.25 649.75L4257.25 488.25L4020.25 603L4499.25 649.75Z" fill="#743C94"/>
<path d="M4643.5 670L4569 548.5L4508.75 651L4643.5 670Z" fill="#743C94"/>
<path d="M3098.75 1220L2959.25 1466.5H2632.5L3098.75 1220Z" fill="#7D4AAB"/>
<path d="M3591.5 585L3900.75 477.25L3737.25 689.25L3591.5 585Z" fill="#542A6C"/>
<path d="M3873.75 724.5L4286 531.25L4066 869.75L3873.75 724.5Z" fill="#3A214E"/>
<path d="M3632 1216L3871.75 942.5L4069.5 1071.75L3632 1216Z" fill="#542A6C"/>
<path d="M3328.25 655L3483.5 1222.25L3222.25 944L3328.25 655Z" fill="#67236D"/>
<path d="M4410 1025L4526.5 1052.75L4295.5 1116.5L4410 1025Z" fill="#542A6C"/>
<path d="M4901.5 715.25L5117.64 786L5082.5 715.25H4901.5Z" fill="#D4388B"/>
<path d="M4658.5 582.25L4864.25 680L4737.5 700.75L4658.5 582.25Z" fill="#D4388B"/>
<path d="M4141 1064.5L4317.5 1099.75L4099 1295.75L4141 1064.5Z" fill="#A3327C"/>
<path d="M4151.25 1172.5L3786.25 1350.25L4066 1082.75L4151.25 1172.5Z" fill="#542A6C"/>
<path d="M3760.5 1309.75L3646.25 1382.5L3660.75 1274.5L3760.5 1309.75Z" fill="#542A6C"/>
<path d="M3970.5 1070.75L4414.5 891.25L4120 854.5L3970.5 1070.75Z" fill="#883685"/>
<path d="M3720 1327.25L4126 1131.25L3829.5 1110.5L3720 1327.25Z" fill="#883685"/>
<path d="M3958 1008.5L4349.25 732L4145 605.5L3958 1008.5Z" fill="#743C94"/>
<path d="M4671.75 637.75L4615.25 517.5L4582.75 594.5L4671.75 637.75Z" fill="#A3327C"/>
<path d="M3817.75 500.75L4245.75 425.25L4046.25 631L3817.75 500.75Z" fill="#73328A"/>
<path d="M3457 824.5L3637.5 1136.5L3581.25 1254L3457 824.5Z" fill="#542A6C"/>
<path d="M4423.5 1041.75L4635.25 881.5L4409 786L4423.5 1041.75Z" fill="#883685"/>
<path d="M4568.25 664.25L4718.75 773.5L4658.5 654.75L4568.25 664.25Z" fill="#A3327C"/>
<path d="M4521.25 584.5L4700 705L4725 644.75L4521.25 584.5Z" fill="#883685"/>
<path d="M5074.25 745L5198 753L5338.25 891.25L5074.25 745Z" fill="#883685"/>
<path d="M5274.5 772.25L5452.75 878L5485.5 804.5L5274.5 772.25Z" fill="#883685"/>
<path d="M5432 915.5L5523.5 900L5576.5 976.25L5432 915.5Z" fill="#A3327C"/>
<path d="M4710.25 597L4904.25 657.5L4940 749.75L4710.25 597Z" fill="#883685"/>
<path d="M4759 551.25L4564.5 556.25L4658.5 500.75L4759 551.25Z" fill="#883685"/>
<path d="M3587.5 1082.75L3493.75 818L3626.25 714.75L3587.5 1082.75Z" fill="#67236D"/>
<path d="M3578.25 890.5L3989.75 935L3695 735L3578.25 890.5Z" fill="#743C94"/>
<path d="M3420.5 621L3591.5 571.75L3485.5 787L3420.5 621Z" fill="#542A6C"/>
<path d="M2966.25 1193.5L2901.75 1355.25L2684 1297.25L2966.25 1193.5Z" fill="#73328A"/>
<path d="M4647.5 150.5L4734 217L4566.5 188L4647.5 150.5Z" fill="#3A214E"/>
<path d="M1409.25 1982.75L1357.75 1763L1058.5 2033L1409.25 1982.75Z" fill="#492666"/>
<path d="M3150.5 1198.5L3202.25 1379.75H3486.77L3150.5 1198.5Z" fill="#7D4AAB"/>
<path d="M3539.75 1442.5L3590.25 1489.5L3554.25 1544.75L3539.75 1442.5Z" fill="#A3327C"/>
<path d="M3567.5 1711.25L3408.75 1642.5L3452 1723L3567.5 1711.25Z" fill="#A3327C"/>
<path d="M3596.5 1541L3570 1646L3639.12 1651L3596.5 1541Z" fill="#A3327C"/>
<path d="M3642 1396.75L3747.75 1384.75L3697.25 1487L3642 1396.75Z" fill="#A3327C"/>
<path d="M3711.75 1487.25L3740.75 1543.5L3684.25 1632.5L3711.75 1487.25Z" fill="#A3327C"/>
<path d="M3881.75 1527L4117 1498L3933 1434.5L3881.75 1527Z" fill="#A3327C"/>
<path d="M4221.75 1446.25L4102.5 1400.17L4214.5 1370.5L4221.75 1446.25Z" fill="#A3327C"/>
<path d="M4815.5 1554.25L4705 1626.5L4830.75 1484.5L4815.5 1554.25Z" fill="#A3327C"/>
<path d="M3906.5 1400.5L4036.5 1439L3976.75 1241.25L3906.5 1400.5Z" fill="#A3327C"/>
<path d="M4481.75 1085.75L4394 1163.75L4279.5 1049.5L4481.75 1085.75Z" fill="#A3327C"/>
<path d="M4613.5 963.75L4463.5 1052.5L4303.75 945.75L4613.5 963.75Z" fill="#A3327C"/>
<path d="M4296.75 777.75L4502.25 928L4212.25 856.75L4296.75 777.75Z" fill="#A3327C"/>
<path d="M3689.25 1584L3716 1645.5L3655.75 1694.75L3689.25 1584Z" fill="#C84A9D"/>
<path d="M3464 1640L3518 1691.75L3601 1653.25L3464 1640Z" fill="#C84A9D"/>
<path d="M2984 1916.5V1819.25L3181.25 1949L2984 1916.5Z" fill="#C84A9D"/>
<path d="M3669.75 1693.5L3605 1746.25L3538 1666.25L3669.75 1693.5Z" fill="#A3327C"/>
<path d="M3564 1714.5L3573.5 1796.25L3640.25 1830L3564 1714.5Z" fill="#A3327C"/>
<path d="M3568.5 1877L3561.25 1933H3470.5L3568.5 1877Z" fill="#A3327C"/>
<path d="M3489.25 2040L3477.25 2105.5H3398.5L3489.25 2040Z" fill="#A3327C"/>
<path d="M3727.25 1729V1833.5L3651.5 1742.25L3727.25 1729Z" fill="#A3327C"/>
<path d="M3397.5 2034.5L3469.5 1935.5L3334.75 1988L3397.5 2034.5Z" fill="#A3327C"/>
<path d="M3575.75 1991.25L3630 1913L3527.75 1950.25L3575.75 1991.25Z" fill="#A3327C"/>
<path d="M3661.5 1901.25L3707 1831.25L3613.5 1860.25L3661.5 1901.25Z" fill="#A3327C"/>
<path d="M4569 191.5L4687.5 306L4499.5 346L4569 191.5Z" fill="#3A214E"/>
<path d="M3196.75 1878L3269 2031L3150 1928.5L3196.75 1878Z" fill="#A3327C"/>
<path d="M4605 281.5L4813.5 301.5L4765 383.75L4605 281.5Z" fill="#542A6C"/>
<path d="M3821.75 629L4046.25 471L4067 687L3821.75 629Z" fill="#542A6C"/>
<path d="M2295.78 1741.5L2428.53 1558.5L2077 1368.5L2295.78 1741.5Z" fill="#743C94"/>
<path d="M2848.75 1741.5L3047.5 1804.5L2999.25 1872.25L2848.75 1741.5Z" fill="#A3327C"/>
<path d="M854.75 2993.25L977.5 2725.25L1175 2889.5L854.75 2993.25Z" fill="#743C94"/>
<path d="M3292 867V682.25L3032 793L3292 867Z" fill="#73328A"/>
<path d="M2276.5 1435L2677.25 959L2123.5 1251.5L2276.5 1435Z" fill="#542A6C"/>
<path d="M2821.5 1186.5L3242.5 705.25L2671.5 956.5L2821.5 1186.5Z" fill="#542A6C"/>
<path d="M2018.75 2241L2070 2163L1978 2171.96L2018.75 2241Z" fill="#73328A"/>
<path d="M870 2697.75L860.75 2453L709 2639.5L870 2697.75Z" fill="#743C94"/>
<path d="M3130.75 1585.5L3230.25 1770L3102.25 1673.25L3130.75 1585.5Z" fill="#A3327C"/>
<path d="M5294 362.25L5158 386L5236.5 413.5L5294 362.25Z" fill="#883685"/>
<path d="M5091 425L5179.5 381.75L5223.25 415.5L5091 425Z" fill="#67236D"/>
<path d="M5174.5 410.5H5089.5V451.75L5174.5 410.5Z" fill="#743C94"/>
<path d="M5611.25 200L5501.75 265.25H5567.25L5611.25 200Z" fill="#883685"/>
<path d="M5671.25 309.5L5537.75 317.75L5624.5 362.25L5671.25 309.5Z" fill="#883685"/>
<path d="M5618.5 124.25L5469 56.75L5530.5 34L5618.5 124.25Z" fill="#883685"/>
<path d="M5691.75 120.5L5631.75 142.25L5664.25 216.75L5691.75 120.5Z" fill="#883685"/>
<path d="M5423 301.75L5509 252.75L5541.25 277L5423 301.75Z" fill="#67236D"/>
<path d="M5506.5 295H5421.5V336.25L5506.5 295Z" fill="#743C94"/>
<path d="M5109 415.5L4973 439.25L5051.5 466.75L5109 415.5Z" fill="#883685"/>
<path d="M4906 478.25L4994.5 435L5038.25 468.75L4906 478.25Z" fill="#67236D"/>
<path d="M4966 481.75L4881.75 459.25L4835.5 517.75L4966 481.75Z" fill="#883685"/>
<path d="M5374.25 316.75L5275.5 375H5352.5L5374.25 316.75Z" fill="#883685"/>
<path d="M5535.5 311.75L5385 326.25L5422.25 366L5535.5 311.75Z" fill="#883685"/>
<path d="M5213.5 388.75L5302 345.5L5345.75 379.25L5213.5 388.75Z" fill="#67236D"/>
<path d="M4596 858.181L4640.25 843L4721.75 943.181L4596 858.181Z" fill="#743C94"/>
<path d="M5428.25 292.063L5351.25 337.813L5400.75 364.063L5428.25 292.063Z" fill="#67236D"/>
<path d="M4751.5 535L4848.5 469.5L4895.25 508.75L4751.5 535Z" fill="#67236D"/>
<path d="M3694.75 1434.5L3767.75 1477.5L3746.75 1566.75L3694.75 1434.5Z" fill="#C84A9D"/>
<path d="M5005 456.25L4913.75 450L4948.75 493L5005 456.25Z" fill="#743C94"/>
<path d="M4670.02 398.047L4709.25 480L4504.5 441L4670.02 398.047Z" fill="#3A214E"/>
<path d="M4660.75 852.25L4573.5 942L4486.25 775.5L4660.75 852.25Z" fill="#67236D"/>
<path d="M4450 828.25L4558.5 771.75L4389 668L4450 828.25Z" fill="#743C94"/>
<path d="M4481.5 646.25L4674.25 449.25L4316.25 489L4481.5 646.25Z" fill="#6D2367"/>
<path d="M5510.5 881.75L5319.25 1035.5L5448.25 881.75H5510.5Z" fill="#D4388B"/>
<path d="M5330 886L5374.75 847L5474.5 946.75L5330 886Z" fill="#A3327C"/>
<path d="M5453.75 864.25L5251.5 1010.75L5391.5 864.25H5453.75Z" fill="#D4388B"/>
<path d="M5219.75 795L5264.5 756L5364.25 855.75L5219.75 795Z" fill="#A3327C"/>
<path d="M5534.25 47.25L5411.5 106L5497 12.25L5534.25 47.25Z" fill="#D4388B"/>
<path d="M5677.5 191.5L5557 252.5L5642.5 159L5677.5 191.5Z" fill="#D4388B"/>
<path d="M5559.5 103.75L5675 130.25L5559.5 47.25V103.75Z" fill="#D4388B"/>
<path d="M5700.25 327.5L5655.75 403.25L5632.75 311.75L5700.25 327.5Z" fill="#D4388B"/>
<path d="M5607.5 342L5498.25 307L5485 364.75L5607.5 342Z" fill="#67236D"/>
<path d="M5251.5 828.75L5442.39 847L5474.39 794.5L5251.5 828.75Z" fill="#D4388B"/>
<path d="M4429.5 1048.5L4016.25 1099.75L4255.25 958.5L4429.5 1048.5Z" fill="#743C94"/>
<path d="M4902 1486L4874 1450L4825 1529.5L4902 1486Z" fill="#D4388B"/>
<path d="M4965.5 1387L4944.75 1350L4905 1446.25L4965.5 1387Z" fill="#D4388B"/>
<path d="M4812.25 1432L4835.5 1371.5L4850.5 1529.75L4812.25 1432Z" fill="#883685"/>
<path d="M4819 1343.5L4854 1325L4854 1456.5L4819 1343.5Z" fill="#A3327C"/>
<path d="M4836.5 1230.63L4792.5 1254V1121.5L4836.5 1230.63Z" fill="#D4388B"/>
<path d="M4804 1315.78L4846 1355.25L4826.18 1197L4804 1315.78Z" fill="#883685"/>
<path d="M4796.6 1060.59L4757 1102.25L4729.5 943L4796.6 1060.59Z" fill="#A3327C"/>
<path d="M4759.75 990.75L4720.14 1013.5L4658.75 887.25L4759.75 990.75Z" fill="#883685"/>
<path d="M4772.5 1141.28L4814.5 1180.75L4790 1045.5L4772.5 1141.28Z" fill="#883685"/>
<path d="M4880.5 1150L4923 1131.5L4923 1263L4880.5 1150Z" fill="#A3327C"/>
<path d="M4836.5 942.132L4875 920L4884.75 1096L4836.5 942.132Z" fill="#D4388B"/>
<path d="M4873 1104.78L4915 1144.25L4895.18 986L4873 1104.78Z" fill="#883685"/>
<path d="M4914.5 1273.75L4957 1255.25L4957 1386.75L4914.5 1273.75Z" fill="#A3327C"/>
<path d="M4932.5 1174.13L4888.5 1197.5V1065L4932.5 1174.13Z" fill="#D4388B"/>
<path d="M4907 1262.28L4949 1301.75L4929.18 1143.5L4907 1262.28Z" fill="#883685"/>
<path d="M4825 858L4807.5 896.5L4686.5 765L4825 858Z" fill="#A3327C"/>
<path d="M4652.5 701.5L4777 794.25L4764.5 836L4652.5 701.5Z" fill="#883685"/>
<path d="M4820 918.5L4882 938.5L4806.25 834.75L4820 918.5Z" fill="#883685"/>
<path d="M1046.5 2044L782 2275.75L1104 2258L1046.5 2044Z" fill="#542A6C"/>
<g filter="url(#filter0_d)">
<path d="M5393.35 365.327H5633.65L5659.32 422.691L5710.2 307.827L5481.82 306.997L5659.49 226.035L5710.15 130.727L5481.99 4L5450.11 48.4309L5450.11 48.4343L5393.44 131.044L5482.09 80.5991L5633.47 130.976L5602.51 200.759L5395.96 306.997M5393.35 365.327L5038.89 473.066L5038.88 473.067L4836.13 530.067L4836.07 529.827L4836.13 530.068L4647.43 580.288L4810.89 611.836L5000.88 694.086L5000.92 694.097L5203.35 751.079L5203.38 751.086L5482.32 789.108V865.189L5602.65 941.239L5482.3 1169.41L5482.29 1169.44L5481.83 1169.25L5481.84 1169.21L5545 979.471L5450.36 941.613L5267 1086.99L5266.97 1087.02L5266.63 1086.66L5266.66 1086.63L5392.24 942.183L5203.43 1042.8L5203.14 1042.4L5348.64 903.387L5203.23 827.561L5203.2 827.548L5000.77 751.577H4937.51L4810.78 694.583L4703.81 707.27L4836.24 865.15L4836.26 865.166L4874.24 903.15L4874.29 903.196L4874.31 903.258M5393.35 365.327L5216.01 418.706L5038.75 472.586L5038.74 472.587L4836 529.586L4646.25 580.085L4646.27 580.572L4810.77 612.322L5000.72 694.556L5000.73 694.563L5000.75 694.567L5203.25 751.567L5203.27 751.572L5481.82 789.545V865.464L5601.99 941.415L5483.26 1166.52L5545.63 979.182L5450.27 941.041L5268.77 1084.95L5393.5 941.491L5393.2 941.106L5204.81 1041.5L5349.49 903.266L5203.43 827.105L5203.42 827.098L5203.4 827.093L5000.86 751.077H4937.62L4810.86 694.07L4702.83 706.883L4835.87 865.487L4835.88 865.496L4835.89 865.503L4873.84 903.458L4960 1257.82L4975.31 1358.83L4937.33 1441.47M4937.33 1441.47L4874.28 1530.21L4874.27 1530.22L4773.03 1694.96L4773.01 1694.99L4703.47 1751.77L4703.09 1751.48L4772.22 1587.85L4665.47 1669.53L4665.12 1669.17L4810.57 1491.99V1359.08L4772.57 1137.65L4734.59 1042.69L4646.33 903.808L4576.75 1023.75L4576.7 1023.78L4481.82 1086.96V1169.41L4336.26 1359.23L4336.24 1359.27L4336.2 1359.29L4253.99 1410.02L4190.51 1492.23L4190.46 1492.29L4057.6 1530.33H3879.9L3841.79 1441.57L3879.68 1359.31L3741.12 1353.09M4937.33 1441.47L4873.86 1529.93L4873.86 1529.94L4873.85 1529.95L4772.62 1694.66L4703.94 1750.75L4773.41 1586.3L4666.88 1667.82L4811.01 1492.24L4811.07 1492.17V1359.06L4811.06 1359.03L4773.06 1137.53L4773.06 1137.51L4773.05 1137.48L4735.05 1042.48L4735.04 1042.46L4735.03 1042.44L4646.31 902.845L4576.38 1023.4L4481.46 1086.6L4304.21 1137.35L4253.71 1169.1L4253.68 1169.11L4120.71 1232.35L4120.65 1232.38L4057.42 1314.61L3880.04 1358.83L3740.52 1352.56M3772.81 1530.03L3772.82 1530.08L3772.81 1530.12M3006.47 1491.83L2970.72 1352.24L2917.76 1023.46L2898.71 827.101M3006.47 1491.83L2784.82 1663.08M3006.47 1491.83L3158.75 1601.75L3231.5 1751.83L3242.5 1884.91L3215.78 1919.5L3250.47 1958.83L3285.05 2055.58L3184.22 1967.17L2970.72 1931.25M3183.69 1415.81L3119.57 1086.6L3082.22 751.096M3183.69 1415.81L3348.82 1257.88M3183.69 1415.81L3006.66 1492.33M3183.69 1415.81L3220.75 1505H3410.25M3410.25 1505L3527.5 1441.57L3622.5 1393.25M3410.25 1505L3517.25 1570L3543 1638.08M3622.5 1393.25L3740.52 1352.56M3622.5 1393.25L3348.82 1257.88M3622.5 1393.25L3702.62 1505L3664.82 1637.83L3633.17 1637.74M3622.5 1393.25L3633.17 1637.74M3622.5 1393.25L3640 1316.25M3740.58 1720.83L3772.31 1530.08V1441.58L3740.52 1352.56M3740.58 1720.83V1782.33L3772.82 1911.38L3587.25 2006.5L3516.36 2053.11L3458.93 2133.5L3369 2099.75L3389.79 2053.11M3740.58 1720.83L3682 1723.01L3633.17 1725.51L3664.82 1873.75L3458.92 2025.53L3389.79 2053.11M3740.52 1352.56L3701.75 1312.75L3640 1316.25M5395.96 306.997L5038.89 422.315L5038.88 422.318L4810.87 473.071L4810.86 473.072L4620.88 504.568L4620.86 504.573L4620.75 504.086M5395.96 306.997L5038.76 421.833L5038.74 421.839L4810.78 472.58L4810.76 472.583L4625.46 503.304L4735.01 473.033L4773.04 365.189L4811.09 308.111L4773.05 200.493L4773.02 200.393L4646.3 143.297L4544.82 200.431V270.001M4620.75 504.086L4620.78 504.08M4620.75 504.086L4507.07 447.327L4481.7 365.327M4620.78 504.08L4734.62 472.62L4772.58 364.994L4772.59 364.964M4620.78 504.08L4481.32 611.836L4335.97 421.827M4772.59 364.964L4810.54 308.042L4772.62 200.761L4646.33 143.857L4545.32 200.723V270.153L4545.27 270.216L4481.7 365.327M4772.59 364.964L4666.88 270.216L4544.82 270.001M4481.7 365.327H4399.41L4336.23 422.262L4336.16 422.327H4190.32M4190.32 422.327L3880.14 473.067L3880.11 473.073L3361.07 638.827M4190.32 422.327L4335.97 421.827M4190.32 422.327L4035.15 447.205L3880.01 472.582L3880 472.587M3361.07 638.827L3398.94 920.327L3481.57 1157.58M3361.07 638.827L3215.23 694.091M3215.41 694.556L3215.39 694.566M3215.39 694.566L3082.41 751.556L3082.41 751.558L2898.92 827.553L2898.91 827.558L2658.43 941.548L2658.42 941.553M3215.39 694.566L3240.98 859.015L3279.32 1023.46L3348.82 1257.88M2658.42 941.553L2379.69 1087.04L2379.68 1087.05L2120.2 1232.79L2120.19 1232.79M2658.42 941.553L2695.82 1315.19L2784.82 1663.08M2658.42 941.553L2898.72 827.096M2120.19 1232.79L1847.95 1410.04L1847.95 1410.04L1847.94 1410.04M2120.19 1232.79C2141.23 1379.35 2153.03 1461.52 2174.07 1608.08L2234.07 1948.08M1847.94 1410.04L1714.68 1523.9M1847.94 1410.04L1883.07 1608.08L1955.82 1876.83L1999.82 2055.58M1714.68 1523.9L1582.1 1637.88M1714.68 1523.9L1581.66 1637.63M1714.68 1523.9L1581.68 1638.17L1687.55 1911.58L1806.25 2173L1901.54 2112.55M1714.68 1523.9L1847.68 1409.62L1847.69 1409.61L2119.93 1232.37L2119.94 1232.36L2119.94 1232.36L2379.44 1086.61M2379.44 1086.61L2379.45 1086.61L2379.45 1086.6L2658.2 941.105L2658.21 941.103L2658.21 941.101L2898.71 827.101M2379.44 1086.61L2433.32 1453.08L2465.07 1625.08L2512.57 1802.33M2898.71 827.101L2898.72 827.098L2898.72 827.096M2898.72 827.096L3082.22 751.097L3082.22 751.096M3082.22 751.096L3215.23 694.091M3082.22 751.096L3215.24 694.087L3215.23 694.091M4335.97 421.827L4399.15 364.891L4399.22 364.827M4481.43 364.827L4544.82 270.001M3543 1638.08H3215.78L3276.75 1720.83L3389.79 1723.01L3468.75 1725.51L3550.75 1728.25L3563.5 1812L3440.22 1942.65L3313.73 1984.09L3389.79 2053.11M3543 1638.08L3633.17 1637.74M1999.82 2055.58L2234.07 1948.08M1999.82 2055.58L1901.54 2112.55M1999.82 2055.58L2081.5 2086L2125.75 2109L2037.82 2226.58L1755.75 2462L1995.5 2149.75L1901.54 2112.55M2234.07 1948.08L2354.77 1884.91M2234.07 1948.08L2297.32 2011.33L2279.5 2068.3L2188.5 2207.75L2024.75 2316.5L2151.82 2169.52V2055.58L2119.93 1998.93M2512.57 1802.33L2784.82 1663.08M2512.57 1802.33L2474.57 1897.33L2417.57 2080.81L2183.32 2283.58L2354.77 2080.84V1884.91M2512.57 1802.33L2354.77 1884.91M2784.82 1663.08L2802.25 1675.75L2852.25 1717M3348.82 1257.88L3481.57 1157.58M2827.75 1781.25L2972.75 1856M3481.57 1157.58L3524.51 1257.88L3579.5 1267.5L3640 1316.25M1655 2433.25L1410.9 2751.88L1009 3000.08L812.25 3013.5L893 2857L741.25 2836L837.75 2688L681.25 2648.5L761.067 2534.83L629 2504.5V2377L945.817 2112.55L1143.57 1921.19L1353.82 1751.42L1687.55 2381.25L1655 2433.25ZM4304.42 1137.81L4481.32 1087.16V1169.24L4335.9 1358.89L4253.75 1409.58H4190.45L4152.61 1352.81L4254 1169.5L4304.42 1137.81ZM4253.31 1410.08L4190.17 1491.86L4057.73 1529.77L4019.83 1409.84L4057.79 1314.95L4120.98 1232.78L4253.22 1169.89L4152.02 1352.84L4190.18 1410.08H4253.31ZM4019.33 1409.9L4057.23 1529.83H3880.23L3842.34 1441.58L3880.24 1359.29L4057.15 1315.19L4019.3 1409.82L4019.33 1409.9ZM4437.32 694.07L4576.75 751.077L4545.32 789.108L4646.25 827.093L4666.88 865.503L4773.41 991.827L4810.54 1086.96L4873.84 1447.83L4921.5 1352.56L4835.87 941.239L4703.94 789.108L4620.88 707.27L4507.07 650.298L4437.32 694.07Z" stroke="#8B98A9" stroke-width="5"/>
</g>
<path d="M3362.25 1639.5L3389.25 1725" stroke="#8B98A9" stroke-width="5"/>
<path d="M3440 1943L3448.37 1986.12L3456.75 2029.25L3514.5 2052.25M3551 1728.5L3635.25 1725.75" stroke="#8B98A9" stroke-width="5"/>
<path d="M2354 1885L2473 1901.5" stroke="#8B98A9" stroke-width="5"/>
<path d="M2151.25 2057L2298 2011.75" stroke="#8B98A9" stroke-width="5"/>
<path d="M2353.75 2082.25H2415.75" stroke="#8B98A9" stroke-width="5"/>
<path d="M1996.25 2148.5L2065.75 2187" stroke="#8B98A9" stroke-width="5"/>
<path d="M1991 2155L2079 2085" stroke="#8B98A9" stroke-width="5"/>
<path d="M3007.25 1752L2897.5 1638.5V1719L3007.25 1802.25V1752Z" stroke="#8B98A9" stroke-width="7"/>
<path d="M3109 1679.75L3056.75 1696.25L3174.75 1770.25L3109 1679.75Z" stroke="#8B98A9" stroke-width="7"/>
<path d="M3174.75 1923L3056.75 1802.25L3026.5 1845.25L3174.75 1923Z" stroke="#8B98A9" stroke-width="7"/>
<path d="M2849 1716L2829 1786" stroke="#8B98A9" stroke-width="7"/>
<path d="M2969.75 1854L2973 1934.5" stroke="#8B98A9" stroke-width="7"/>
<path d="M4446 366.5L4477.16 476.339L4590.5 527.75" stroke="#8B98A9" stroke-width="5"/>
<path d="M4669.25 273.75L4729.5 372L4707.5 443L4619 503.75" stroke="#8B98A9" stroke-width="5"/>
<path d="M4644.75 145L4746 224.5L4774.5 305.25L4746 343.25" stroke="#8B98A9" stroke-width="5"/>
<path d="M1400.25 1837.25L1198 2104.5M1198 2104.5L1447.75 1929M1198 2104.5L1043 2417.5L1368.75 2397M1368.75 2397L1564.75 2152M1368.75 2397L1623.25 2262.5" stroke="#8B98A9" stroke-width="10"/>
<path d="M3570.25 1270L3789.25 1170L3942.25 1102L4106.5 1012.5L4283.25 911.5L4380 795.5L4450.5 816.75L4470.75 899L4430.25 959L4347.75 1012.5L4293 1066.25L4199.25 1097L4126.75 1160.75L4015.75 1207.25L3942.25 1254.5L3843.75 1282.5L3774.25 1305.75L3701.25 1312.75" stroke="#8B98A9" stroke-width="7.5"/>
<path d="M4380 801.25L4376.5 896M4376.5 896L4470.5 899M4376.5 896L4284.25 911.5L4246 999M4376.5 896L4347.75 1013L4246 999M4246 999L4200.25 1096L4072.75 1097.25M4246 999L4107.25 1011.75L4072.75 1097.25M4072.75 1097.25L3944.5 1101.25L3891.25 1192.75M4072.75 1097.25L4016.5 1207.25L3891.25 1192.75M3891.25 1192.75L3843.75 1283L3738.5 1246.25M3891.25 1192.75L3787.5 1170.25L3738.5 1246.25M3738.5 1246.25L3702.25 1311.5M3738.5 1246.25L3578.25 1267.75" stroke="#8B98A9" stroke-width="5"/>
<path d="M3429.25 623.25L3557.25 668M3557.25 668L3636.75 555L3778.75 601.5M3557.25 668L3691.25 722.5M3557.25 668L3446 800.75L3597.5 806L3691.25 722.5M3778.75 601.5L3874.5 481.25L4011 536M3778.75 601.5L3930 653M3778.75 601.5L3691.25 722.5M4011 536L4098.5 437.5L4251.5 503M4011 536L4148.25 601.5M4011 536L3930 653M4251.5 503L4336 421.25M4251.5 503L4148.25 601.5M4251.5 503L4425 544.5L4297.75 623.25L4148.25 601.5M4148.25 601.5L4067 674L3930 653M3930 653L3830 737L3691.25 722.5" stroke="#8B98A9" stroke-width="5"/>
<path d="M4635.25 907.75L4540.75 984L4474 1038.25L4294 1093.25L4231.5 1132.75L4099 1199.5L4030.75 1277.5L3870.25 1314.25L3735.75 1349.5" stroke="#8B98A9" stroke-width="5"/>
<path d="M1583.75 1639.75L1881 1609.5M1881 1609.5L1688 1914.75L1955.25 1876.75M1881 1609.5H2175M1881 1609.5L2118 1236.5L2409 1282.25M1955.25 1876.75L1807.5 2172.25M1955.25 1876.75L2175 1609.5M1955.25 1876.75L2235.25 1948L2466 1627M2175 1609.5L2409 1282.25M2175 1609.5L2466 1627M2409 1282.25L2657.25 945.5M2409 1282.25L2698.5 1315.5M2466 1627L2785.25 1663.25M2466 1627L2698.5 1315.5M2657.25 945.5L2698.5 1315.5M2657.25 945.5L2921.25 1023M2698.5 1315.5L2785.25 1663.25M2698.5 1315.5L2921.25 1023M2698.5 1315.5L2972 1348.75M2785.25 1663.25L2972 1348.75M2972 1348.75L3115.75 1091M2972 1348.75L3183.75 1415M3115.75 1091L2921.25 1023M3115.75 1091L3311.75 1133.75M3115.75 1091L3240.75 857M2921.25 1023L3076.25 755.75L3240.75 857M3311.75 1133.75L3183.75 1415M3311.75 1133.75L3394 925L3240.75 857M3311.75 1133.75L3476.25 1159M3183.75 1415L3411 1502.25L3348.75 1254.25L3524 1259L3620.5 1390.5M3240.75 857L3357.75 640.5" stroke="#8B98A9" stroke-width="6"/>
<path d="M1400.25 1837.25L1198 2104.5M1198 2104.5L1447.75 1929M1198 2104.5L1043 2417.5L1368.75 2397M1368.75 2397L1564.75 2152M1368.75 2397L1623.25 2262.5" stroke="#8B98A9" stroke-width="5"/>
<path d="M1532.75 1797.75L1352 1752L1449.25 1667.25L1579 1639.5L1532.75 1797.75ZM1532.75 1797.75L1692.25 1915M1532.75 1797.75L1449.25 1938L1600.25 1982.25M1692.25 1915L1600.25 1982.25M1692.25 1915V2142M1600.25 1982.25L1564.75 2153.25L1692.25 2142M1692.25 2142L1807.75 2174.75L1776.5 2279.5L1686.75 2382L1692.25 2142Z" stroke="#8B98A9" stroke-width="6"/>
<path d="M3449.75 803.5L3396.75 926.25L3508.75 1053.75M3449.75 803.5L3360.75 644.75M3449.75 803.5L3508.75 1053.75M3449.75 803.5L3423.25 620.75M3508.75 1053.75L3476.25 1158.25L3580.75 1270.25L3508.75 1053.75Z" stroke="#8B98A9" stroke-width="6"/>
<ellipse cx="1145.75" cy="1922.75" rx="23.75" ry="23.75" fill="#F7F7F7"/>
<ellipse cx="942.75" cy="2108.25" rx="23.75" ry="23.75" fill="#F7F7F7"/>
<ellipse cx="1356" cy="1755" rx="15" ry="15" fill="#F7F7F7"/>
<ellipse cx="1399.5" cy="2756.5" rx="15" ry="15" fill="#F7F7F7"/>
<path d="M1702.5 2378C1702.5 2386.28 1695.78 2393 1687.5 2393C1679.22 2393 1672.5 2386.28 1672.5 2378C1672.5 2369.72 1679.22 2363 1687.5 2363C1695.78 2363 1702.5 2369.72 1702.5 2378Z" fill="#F7F7F7"/>
<path d="M1792 2278.5C1792 2286.78 1785.28 2293.5 1777 2293.5C1768.72 2293.5 1762 2286.78 1762 2278.5C1762 2270.22 1768.72 2263.5 1777 2263.5C1785.28 2263.5 1792 2270.22 1792 2278.5Z" fill="#F7F7F7"/>
<path d="M1588.5 2151.25C1588.5 2164.37 1577.87 2175 1564.75 2175C1551.63 2175 1541 2164.37 1541 2151.25C1541 2138.13 1551.63 2127.5 1564.75 2127.5C1577.87 2127.5 1588.5 2138.13 1588.5 2151.25Z" fill="#F7F7F7"/>
<path d="M1477 1934.75C1477 1947.87 1466.37 1958.5 1453.25 1958.5C1440.13 1958.5 1429.5 1947.87 1429.5 1934.75C1429.5 1921.63 1440.13 1911 1453.25 1911C1466.37 1911 1477 1921.63 1477 1934.75Z" fill="#F7F7F7"/>
<path d="M1210 2104C1210 2112.28 1203.28 2119 1195 2119C1186.72 2119 1180 2112.28 1180 2104C1180 2095.72 1186.72 2089 1195 2089C1203.28 2089 1210 2095.72 1210 2104Z" fill="#F7F7F7"/>
<path d="M1058 2417.5C1058 2425.78 1051.28 2432.5 1043 2432.5C1034.72 2432.5 1028 2425.78 1028 2417.5C1028 2409.22 1034.72 2402.5 1043 2402.5C1051.28 2402.5 1058 2409.22 1058 2417.5Z" fill="#F7F7F7"/>
<path d="M1384.5 2396.5C1384.5 2404.78 1377.78 2411.5 1369.5 2411.5C1361.22 2411.5 1354.5 2404.78 1354.5 2396.5C1354.5 2388.22 1361.22 2381.5 1369.5 2381.5C1377.78 2381.5 1384.5 2388.22 1384.5 2396.5Z" fill="#F7F7F7"/>
<path d="M1468.5 1667.5C1468.5 1675.78 1461.78 1682.5 1453.5 1682.5C1445.22 1682.5 1438.5 1675.78 1438.5 1667.5C1438.5 1659.22 1445.22 1652.5 1453.5 1652.5C1461.78 1652.5 1468.5 1659.22 1468.5 1667.5Z" fill="#F7F7F7"/>
<path d="M1623.5 1982.25C1623.5 1995.37 1612.87 2006 1599.75 2006C1586.63 2006 1576 1995.37 1576 1982.25C1576 1969.13 1586.63 1958.5 1599.75 1958.5C1612.87 1958.5 1623.5 1969.13 1623.5 1982.25Z" fill="#F7F7F7"/>
<path d="M1715.5 2143.75C1715.5 2156.87 1704.87 2167.5 1691.75 2167.5C1678.63 2167.5 1668 2156.87 1668 2143.75C1668 2130.63 1678.63 2120 1691.75 2120C1704.87 2120 1715.5 2130.63 1715.5 2143.75Z" fill="#F7F7F7"/>
<path d="M1823 2172.5C1823 2180.78 1816.28 2187.5 1808 2187.5C1799.71 2187.5 1793 2180.78 1793 2172.5C1793 2164.22 1799.71 2157.5 1808 2157.5C1816.28 2157.5 1823 2164.22 1823 2172.5Z" fill="#F7F7F7"/>
<path d="M1557.5 1798.25C1557.5 1811.37 1546.87 1822 1533.75 1822C1520.63 1822 1510 1811.37 1510 1798.25C1510 1785.13 1520.63 1774.5 1533.75 1774.5C1546.87 1774.5 1557.5 1785.13 1557.5 1798.25Z" fill="#F7F7F7"/>
<ellipse cx="1997" cy="2050.5" rx="15" ry="15" fill="#F7F7F7"/>
<ellipse cx="2232.5" cy="1949" rx="15" ry="15" fill="#F7F7F7"/>
<ellipse cx="2513.5" cy="1807" rx="15" ry="15" fill="#F7F7F7"/>
<ellipse cx="2785.5" cy="1661.5" rx="15" ry="15" fill="#F7F7F7"/>
<ellipse cx="3007" cy="1493.5" rx="15" ry="15" fill="#F7F7F7"/>
<ellipse cx="3185.5" cy="1414.5" rx="15" ry="15" fill="#F7F7F7"/>
<ellipse cx="3350.5" cy="1257" rx="15" ry="15" fill="#F7F7F7"/>
<ellipse cx="3478" cy="1157.5" rx="15" ry="15" fill="#F7F7F7"/>
<ellipse cx="3361" cy="644" rx="15" ry="15" fill="#F7F7F7"/>
<path d="M3234 695.868C3234 704.153 3227.28 710.868 3219 710.868C3210.71 710.868 3204 704.153 3204 695.868C3204 687.584 3210.71 680.868 3219 680.868C3227.28 680.868 3234 687.584 3234 695.868Z" fill="#F7F7F7"/>
<ellipse cx="3080" cy="756.5" rx="15" ry="15" fill="#F7F7F7"/>
<ellipse cx="2902.5" cy="834.5" rx="15" ry="15" fill="#F7F7F7"/>
<ellipse cx="2661.5" cy="944.5" rx="15" ry="15" fill="#F7F7F7"/>
<path d="M2393.75 1085.75C2393.75 1094.03 2387.03 1100.75 2378.75 1100.75C2370.47 1100.75 2363.75 1094.03 2363.75 1085.75C2363.75 1077.47 2370.47 1070.75 2378.75 1070.75C2387.03 1070.75 2393.75 1077.47 2393.75 1085.75Z" fill="#F7F7F7"/>
<ellipse cx="2119" cy="1232" rx="15" ry="15" fill="#F7F7F7"/>
<ellipse cx="1845" cy="1414" rx="15" ry="15" fill="#F7F7F7"/>
<ellipse cx="1580" cy="1640" rx="15" ry="15" fill="#F7F7F7"/>
<path d="M1704.5 1915C1704.5 1923.28 1697.78 1930 1689.5 1930C1681.22 1930 1674.5 1923.28 1674.5 1915C1674.5 1906.72 1681.22 1900 1689.5 1900C1697.78 1900 1704.5 1906.72 1704.5 1915Z" fill="#F7F7F7"/>
<ellipse cx="2173.5" cy="1607.5" rx="15" ry="15" fill="#F7F7F7"/>
<ellipse cx="2696" cy="1317" rx="15" ry="15" fill="#F7F7F7"/>
<ellipse cx="3118.5" cy="1089" rx="15" ry="15" fill="#F7F7F7"/>
<path d="M3410.5 927C3410.5 935.284 3403.78 942 3395.5 942C3387.21 942 3380.5 935.284 3380.5 927C3380.5 918.716 3387.21 912 3395.5 912C3403.78 912 3410.5 918.716 3410.5 927Z" fill="#F7F7F7"/>
<path d="M3594.5 1267C3594.5 1275.28 3587.78 1282 3579.5 1282C3571.21 1282 3564.5 1275.28 3564.5 1267C3564.5 1258.72 3571.21 1252 3579.5 1252C3587.78 1252 3594.5 1258.72 3594.5 1267Z" fill="#F7F7F7"/>
<path d="M3652.5 1316.5C3652.5 1323.4 3646.9 1329 3640 1329C3633.1 1329 3627.5 1323.4 3627.5 1316.5C3627.5 1309.6 3633.1 1304 3640 1304C3646.9 1304 3652.5 1309.6 3652.5 1316.5Z" fill="#F7F7F7"/>
<path d="M3523 1051.5C3523 1059.78 3516.28 1066.5 3508 1066.5C3499.71 1066.5 3493 1059.78 3493 1051.5C3493 1043.22 3499.71 1036.5 3508 1036.5C3516.28 1036.5 3523 1043.22 3523 1051.5Z" fill="#F7F7F7"/>
<path d="M3463 801.5C3463 809.784 3456.28 816.5 3448 816.5C3439.71 816.5 3433 809.784 3433 801.5C3433 793.216 3439.71 786.5 3448 786.5C3456.28 786.5 3463 793.216 3463 801.5Z" fill="#F7F7F7"/>
<path d="M3440.5 617C3440.5 625.284 3433.78 632 3425.5 632C3417.21 632 3410.5 625.284 3410.5 617C3410.5 608.716 3417.21 602 3425.5 602C3433.78 602 3440.5 608.716 3440.5 617Z" fill="#F7F7F7"/>
<path d="M4561 276C4561 284.284 4554.28 291 4546 291C4537.71 291 4531 284.284 4531 276C4531 267.716 4537.71 261 4546 261C4554.28 261 4561 267.716 4561 276Z" fill="#F7F7F7"/>
<path d="M3794 602C3794 610.284 3787.28 617 3779 617C3770.71 617 3764 610.284 3764 602C3764 593.716 3770.71 587 3779 587C3787.28 587 3794 593.716 3794 602Z" fill="#F7F7F7"/>
<path d="M4261.5 502C4261.5 510.284 4254.78 517 4246.5 517C4238.21 517 4231.5 510.284 4231.5 502C4231.5 493.716 4238.21 487 4246.5 487C4254.78 487 4261.5 493.716 4261.5 502Z" fill="#F7F7F7"/>
<ellipse cx="3622.5" cy="1395" rx="15" ry="15" fill="#F7F7F7"/>
<path d="M3428.5 1507C3428.5 1515.28 3421.78 1522 3413.5 1522C3405.21 1522 3398.5 1515.28 3398.5 1507C3398.5 1498.72 3405.21 1492 3413.5 1492C3421.78 1492 3428.5 1498.72 3428.5 1507Z" fill="#F7F7F7"/>
<ellipse cx="3739.5" cy="1351.5" rx="15" ry="15" fill="#F7F7F7"/>
<ellipse cx="3876.5" cy="1358.5" rx="15" ry="15" fill="#F7F7F7"/>
<ellipse cx="4055" cy="1315" rx="15" ry="15" fill="#F7F7F7"/>
<ellipse cx="4249.5" cy="1171" rx="15" ry="15" fill="#F7F7F7"/>
<ellipse cx="4478.5" cy="1087.5" rx="15" ry="15" fill="#F7F7F7"/>
<ellipse cx="4645.5" cy="903" rx="15" ry="15" fill="#F7F7F7"/>
<ellipse cx="3916.25" cy="1493.75" rx="31.75" ry="13.25" fill="#F7F7F7"/>
<ellipse cx="4086.75" cy="1480.25" rx="31.75" ry="13.25" fill="#F7F7F7"/>
<ellipse cx="4226.25" cy="1366.75" rx="31.75" ry="13.25" fill="#F7F7F7"/>
<ellipse cx="4244.5" cy="1001" rx="15" ry="15" fill="#F7F7F7"/>
<ellipse cx="4376" cy="897" rx="15" ry="15" fill="#F7F7F7"/>
<ellipse cx="4072" cy="1097.5" rx="15" ry="15" fill="#F7F7F7"/>
<ellipse cx="3891.5" cy="1194" rx="15" ry="15" fill="#F7F7F7"/>
<ellipse cx="3738" cy="1248" rx="15" ry="15" fill="#F7F7F7"/>
<path d="M4321 702.5C4321 712.165 4313.16 720 4303.5 720C4293.83 720 4286 712.165 4286 702.5C4286 692.835 4293.83 685 4303.5 685C4313.16 685 4321 692.835 4321 702.5Z" fill="#F7F7F7" stroke="#F7F7F7" stroke-width="15"/>
<path d="M4124 737.75C4124 747.415 4116.16 755.25 4106.5 755.25C4096.83 755.25 4089 747.415 4089 737.75C4089 728.085 4096.83 720.25 4106.5 720.25C4116.16 720.25 4124 728.085 4124 737.75Z" fill="#F7F7F7" stroke="#F7F7F7" stroke-width="15"/>
<g filter="url(#filter1_d)">
<ellipse cx="3954.5" cy="854.5" rx="25" ry="25" fill="#F7F7F7"/>
<path d="M3972 854.5C3972 864.165 3964.16 872 3954.5 872C3944.83 872 3937 864.165 3937 854.5C3937 844.835 3944.83 837 3954.5 837C3964.16 837 3972 844.835 3972 854.5Z" stroke="#F7F7F7" stroke-width="15"/>
</g>
<g filter="url(#filter2_d)">
<ellipse cx="3824.5" cy="937" rx="25" ry="25" fill="#F7F7F7"/>
<path d="M3842 937C3842 946.665 3834.16 954.5 3824.5 954.5C3814.83 954.5 3807 946.665 3807 937C3807 927.335 3814.83 919.5 3824.5 919.5C3834.16 919.5 3842 927.335 3842 937Z" stroke="#F7F7F7" stroke-width="15"/>
</g>
<path d="M3748 834.5C3748 844.165 3740.16 852 3730.5 852C3720.83 852 3713 844.165 3713 834.5C3713 824.835 3720.83 817 3730.5 817C3740.16 817 3748 824.835 3748 834.5Z" fill="#F7F7F7" stroke="#F7F7F7" stroke-width="15"/>
<path d="M3626.5 967C3626.5 976.665 3618.66 984.5 3609 984.5C3599.33 984.5 3591.5 976.665 3591.5 967C3591.5 957.335 3599.33 949.5 3609 949.5C3618.66 949.5 3626.5 957.335 3626.5 967Z" fill="#F7F7F7" stroke="#F7F7F7" stroke-width="15"/>
<ellipse cx="4826.5" cy="464" rx="20" ry="20" fill="#CECECE"/>
<ellipse cx="5049" cy="414.5" rx="20" ry="20" fill="#CECECE"/>
<ellipse cx="5278" cy="342" rx="20" ry="20" fill="#CECECE"/>
<ellipse cx="5499" cy="247" rx="20" ry="20" fill="#CECECE"/>
<ellipse cx="360" cy="2775.5" rx="25" ry="25" fill="#998AA3"/>
<ellipse cx="529.5" cy="2847" rx="25" ry="25" fill="#998AA3"/>
<ellipse cx="580" cy="2608.5" rx="30" ry="30" fill="#CECECE"/>
<ellipse cx="452" cy="2685.5" rx="25" ry="25" fill="#998AA3"/>
<ellipse cx="273" cy="2638.5" rx="25" ry="25" fill="#898AA3"/>
<ellipse cx="302.5" cy="2881" rx="20" ry="20" fill="#898AA3"/>
<ellipse cx="183" cy="2790.5" rx="20" ry="20" fill="#898AA3"/>
<ellipse cx="159" cy="2961" rx="20" ry="20" fill="#898AA3"/>
<ellipse cx="446.25" cy="2952.75" rx="21.75" ry="21.75" fill="#998AA3"/>
<ellipse cx="114" cy="3789" rx="12.5" ry="12.5" fill="#898AA3"/>
<ellipse cx="37.5" cy="3688" rx="12.5" ry="12.5" fill="#898AA3"/>
<ellipse cx="12.5" cy="3573.5" rx="12.5" ry="12.5" fill="#898AA3"/>
<ellipse cx="63.5" cy="3474" rx="12.5" ry="12.5" fill="#898AA3"/>
<ellipse cx="126.5" cy="3384.5" rx="12.5" ry="12.5" fill="#898AA3"/>
<ellipse cx="399.25" cy="3079.75" rx="18.75" ry="18.75" fill="#898AA3"/>
<ellipse cx="267.5" cy="3254" rx="15" ry="15" fill="#898AA3"/>
<ellipse cx="195.5" cy="3324" rx="12.5" ry="12.5" fill="#898AA3"/>
<ellipse cx="286.25" cy="2996.75" rx="18.75" ry="18.75" fill="#898AA3"/>
<ellipse cx="254.25" cy="3127.25" rx="18.75" ry="18.75" fill="#898AA3"/>
<ellipse cx="145.25" cy="3102.25" rx="18.75" ry="18.75" fill="#898AA3"/>
<ellipse cx="155.25" cy="3217.75" rx="16.25" ry="16.25" fill="#898AA3"/>
<ellipse cx="378.75" cy="3194.75" rx="18.75" ry="18.75" fill="#898AA3"/>
<ellipse cx="784.75" cy="3182.75" rx="18.75" ry="18.75" fill="#998AA3"/>
<ellipse cx="645.25" cy="3194.75" rx="18.75" ry="18.75" fill="#998AA3"/>
<ellipse cx="518.25" cy="3175.75" rx="18.75" ry="18.75" fill="#898AA3"/>
<ellipse cx="551.25" cy="3076.75" rx="21.75" ry="21.75" fill="#998AA3"/>
<ellipse cx="520" cy="2419" rx="30" ry="30" fill="#CECECE"/>
<ellipse cx="889" cy="3108.5" rx="30" ry="30" fill="#CECECE"/>
<ellipse cx="397" cy="2519" rx="30" ry="30" fill="#998AA3"/>
<ellipse cx="744" cy="2931" rx="30" ry="30" fill="#CECECE"/>
<ellipse cx="707" cy="3086" rx="22.5" ry="22.5" fill="#998AA3"/>
<ellipse cx="653" cy="2780.5" rx="30" ry="30" fill="#CECECE"/>
<ellipse cx="623" cy="2974.5" rx="22.5" ry="22.5" fill="#998AA3"/>
<ellipse cx="2276.5" cy="2723" rx="12.5" ry="12.5" fill="#898AA3"/>
<ellipse cx="2412.5" cy="2735.5" rx="12.5" ry="12.5" fill="#898AA3"/>
<ellipse cx="2548.25" cy="2704.25" rx="18.75" ry="18.75" fill="#898AA3"/>
<ellipse cx="2692.5" cy="2654.5" rx="25" ry="25" fill="#898AA3"/>
<ellipse cx="2838" cy="2554" rx="25" ry="25" fill="#898AA3"/>
<ellipse cx="3012.5" cy="2445.5" rx="25" ry="25" fill="#998AA3"/>
<ellipse cx="3122" cy="2319.5" rx="25" ry="25" fill="#CECECE"/>
<ellipse cx="3283" cy="2208.5" rx="30" ry="30" fill="#CECECE"/>
<ellipse cx="4929" cy="2191" rx="12.5" ry="12.5" fill="#898AA3"/>
<ellipse cx="5024" cy="2119" rx="12.5" ry="12.5" fill="#898AA3"/>
<ellipse cx="5110.75" cy="2016.75" rx="18.75" ry="18.75" fill="#898AA3"/>
<ellipse cx="5197.5" cy="1897" rx="25" ry="25" fill="#898AA3"/>
<ellipse cx="5302.5" cy="1756" rx="25" ry="25" fill="#898AA3"/>
<ellipse cx="5352.5" cy="1601.5" rx="25" ry="25" fill="#B2B3BC"/>
<ellipse cx="5402.5" cy="1460" rx="25" ry="25" fill="#CECECE"/>
<ellipse cx="5457.5" cy="1310" rx="30" ry="30" fill="#CECECE"/>
<ellipse cx="3557" cy="2275.5" rx="12.5" ry="12.5" fill="#898AA3"/>
<ellipse cx="3693" cy="2288" rx="12.5" ry="12.5" fill="#898AA3"/>
<ellipse cx="3828.75" cy="2256.75" rx="18.75" ry="18.75" fill="#898AA3"/>
<ellipse cx="3973" cy="2207" rx="25" ry="25" fill="#898AA3"/>
<ellipse cx="4118.5" cy="2106.5" rx="25" ry="25" fill="#998AA3"/>
<ellipse cx="4293" cy="1998" rx="25" ry="25" fill="#B2B3BC"/>
<ellipse cx="4402.5" cy="1872" rx="25" ry="25" fill="#CECECE"/>
<ellipse cx="4563.5" cy="1761" rx="30" ry="30" fill="#CECECE"/>
<ellipse cx="3822.5" cy="2708" rx="12.5" ry="12.5" fill="#898AA3"/>
<ellipse cx="3972.75" cy="2695.25" rx="18.75" ry="18.75" fill="#898AA3"/>
<ellipse cx="4096" cy="2636" rx="25" ry="25" fill="#898AA3"/>
<ellipse cx="4249" cy="2532" rx="25" ry="25" fill="#898AA3"/>
<ellipse cx="4343" cy="2366.5" rx="25" ry="25" fill="#898AA3"/>
<ellipse cx="4427.5" cy="2207" rx="25" ry="25" fill="#B2B3BC"/>
<ellipse cx="4502.5" cy="2081.5" rx="25" ry="25" fill="#F7F7F7"/>
<ellipse cx="4581" cy="1924.5" rx="27.5" ry="27.5" fill="#F7F7F7"/>
<path d="M4410.5 366.5C4410.5 374.784 4403.78 381.5 4395.5 381.5C4387.21 381.5 4380.5 374.784 4380.5 366.5C4380.5 358.216 4387.21 351.5 4395.5 351.5C4403.78 351.5 4410.5 358.216 4410.5 366.5Z" fill="#F7F7F7"/>
<path d="M3889 478.5C3889 486.784 3882.28 493.5 3874 493.5C3865.71 493.5 3859 486.784 3859 478.5C3859 470.216 3865.71 463.5 3874 463.5C3882.28 463.5 3889 470.216 3889 478.5Z" fill="#F7F7F7"/>
<path d="M3650.5 553C3650.5 561.284 3643.78 568 3635.5 568C3627.21 568 3620.5 561.284 3620.5 553C3620.5 544.716 3627.21 538 3635.5 538C3643.78 538 3650.5 544.716 3650.5 553Z" fill="#F7F7F7"/>
<path d="M4114 436C4114 444.284 4107.28 451 4099 451C4090.71 451 4084 444.284 4084 436C4084 427.716 4090.71 421 4099 421C4107.28 421 4114 427.716 4114 436Z" fill="#F7F7F7"/>
<path d="M4660 145C4660 153.284 4653.28 160 4645 160C4636.71 160 4630 153.284 4630 145C4630 136.716 4636.71 130 4645 130C4653.28 130 4660 136.716 4660 145Z" fill="#F7F7F7"/>
<defs>
<filter id="filter0_d" x="622.5" y="0.733154" width="5095.54" height="3023.56" filterUnits="userSpaceOnUse" color-interpolation-filters="sRGB">
<feFlood flood-opacity="0" result="BackgroundImageFix"/>
<feColorMatrix in="SourceAlpha" type="matrix" values="0 0 0 0 0 0 0 0 0 0 0 0 0 0 0 0 0 0 127 0"/>
<feOffset dy="4"/>
<feGaussianBlur stdDeviation="2"/>
<feColorMatrix type="matrix" values="0 0 0 0 0 0 0 0 0 0 0 0 0 0 0 0 0 0 0.25 0"/>
<feBlend mode="normal" in2="BackgroundImageFix" result="effect1_dropShadow"/>
<feBlend mode="normal" in="SourceGraphic" in2="effect1_dropShadow" result="shape"/>
</filter>
<filter id="filter1_d" x="3925.5" y="829.5" width="58" height="58" filterUnits="userSpaceOnUse" color-interpolation-filters="sRGB">
<feFlood flood-opacity="0" result="BackgroundImageFix"/>
<feColorMatrix in="SourceAlpha" type="matrix" values="0 0 0 0 0 0 0 0 0 0 0 0 0 0 0 0 0 0 127 0"/>
<feOffset dy="4"/>
<feGaussianBlur stdDeviation="2"/>
<feColorMatrix type="matrix" values="0 0 0 0 0 0 0 0 0 0 0 0 0 0 0 0 0 0 0.25 0"/>
<feBlend mode="normal" in2="BackgroundImageFix" result="effect1_dropShadow"/>
<feBlend mode="normal" in="SourceGraphic" in2="effect1_dropShadow" result="shape"/>
</filter>
<filter id="filter2_d" x="3795.5" y="912" width="58" height="58" filterUnits="userSpaceOnUse" color-interpolation-filters="sRGB">
<feFlood flood-opacity="0" result="BackgroundImageFix"/>
<feColorMatrix in="SourceAlpha" type="matrix" values="0 0 0 0 0 0 0 0 0 0 0 0 0 0 0 0 0 0 127 0"/>
<feOffset dy="4"/>
<feGaussianBlur stdDeviation="2"/>
<feColorMatrix type="matrix" values="0 0 0 0 0 0 0 0 0 0 0 0 0 0 0 0 0 0 0.25 0"/>
<feBlend mode="normal" in2="BackgroundImageFix" result="effect1_dropShadow"/>
<feBlend mode="normal" in="SourceGraphic" in2="effect1_dropShadow" result="shape"/>
</filter>
</defs>
</svg>
