<svg width="1433" height="951" viewBox="0 0 1433 951" fill="none" xmlns="http://www.w3.org/2000/svg">
<path d="M738.75 418.688L759.188 453L786.25 437.062L738.75 418.688Z" fill="#D4388B"/>
<path d="M789.125 400.188L773.375 418.375L743 393.438L789.125 400.188Z" fill="#D4388B"/>
<path d="M922.25 417.75L934.75 431.688L913.688 433.062L922.25 417.75Z" fill="#C84A9D"/>
<path d="M277.125 621.875L364.937 588.438L283.375 527.125L277.125 621.875Z" fill="#3A214E"/>
<path d="M367.875 585.438L354.812 531.125L297.438 548.188L367.875 585.438Z" fill="#542A6C"/>
<path d="M285.937 494.5L297.25 553.562L246 548.375L285.937 494.5Z" fill="#6A3787"/>
<path d="M319.812 676.062L375.437 623.938L243.375 603.938L319.812 676.062Z" fill="#7D4AAB"/>
<path d="M270.875 734.312L371.125 663.625L287.5 675.562L270.875 734.312Z" fill="#9A57A3"/>
<path d="M235.625 603.062L199.313 705.062L288.562 688.562L235.625 603.062Z" fill="#542A6C"/>
<path d="M766.299 398.125L748.938 431.188L778.187 430.312L766.299 398.125Z" fill="#883685"/>
<path d="M759.812 442.125L786.25 468.938L788.687 442.125H759.812Z" fill="#A3327C"/>
<path d="M740.188 438.875L772.125 400.562L694.25 386.5L740.188 438.875Z" fill="#A3327C"/>
<path d="M737.563 370.562L781.438 395.25L734.875 406.375L737.563 370.562Z" fill="#883685"/>
<path d="M373.75 526L412.187 603.438L338.688 582.938L373.75 526Z" fill="#8A4DA7"/>
<path d="M321 592.875L414 585.875L362.187 665.75L321 592.875Z" fill="#6A3787"/>
<path d="M1088.19 271.75L1073.19 322.75L1040.94 306.688L1088.19 271.75Z" fill="#883685"/>
<path d="M1033.12 309.25L1008.81 351.312L992.062 309.25H1033.12Z" fill="#D4388B"/>
<path d="M938.125 402.625L920.375 423.188L930.438 429.812L938.125 402.625Z" fill="#A3327C"/>
<path d="M888.562 376.375L895.125 397.062L905.062 376.375H888.562Z" fill="#883685"/>
<path d="M290.938 535.625L320.563 476.813L389 535.625L290.938 535.625Z" fill="#6A3787"/>
<path d="M177.25 594.5L162.188 624.688L235.625 616.625L177.25 594.5Z" fill="#492666"/>
<path d="M1038.31 183.062L1105.75 150.75V216.312L1038.31 183.062Z" fill="#67236D"/>
<path d="M1039.37 344.625L1027.94 378.375L995.75 361.75L1039.37 344.625Z" fill="#D4388B"/>
<path d="M1119.37 278.625L1108.5 306.688L1052.38 282.188L1119.37 278.625Z" fill="#7D4AAB"/>
<path d="M543.687 510.875L568.062 515.938L539.5 550.375L543.687 510.875Z" fill="#73328A"/>
<path d="M572.75 507.25L539 522.812L559.75 490.062L572.75 507.25Z" fill="#9A57A3"/>
<path d="M518.062 430.375L555.312 477.938L459 480.75L518.062 430.375Z" fill="#8A4DA7"/>
<path d="M967.125 193.938L996.312 199.625V237.312L967.125 193.938Z" fill="#67236D"/>
<path d="M794.125 348.75L787.375 298.375L726.312 361.938L794.125 348.75Z" fill="#67236D"/>
<path d="M946.687 306.375L911.75 327.812L884.375 262.25L946.687 306.375Z" fill="#7D4AAB"/>
<path d="M974.687 324.125L1001.87 353.812L940.312 328.188L974.687 324.125Z" fill="#7D4AAB"/>
<path d="M1069.31 344.438L1039.31 323.812L1095.25 314.438L1069.31 344.438Z" fill="#A3327C"/>
<path d="M781.125 207.938L845.062 267.188L709.875 258.625L781.125 207.938Z" fill="#743C94"/>
<path d="M294.437 609.062L232.562 549.75L221.5 624.125L294.437 609.062Z" fill="#6A3787"/>
<path d="M916.75 268.188L995.187 242.75L913.625 217.312L916.75 268.188Z" fill="#8B4EAD"/>
<path d="M332.125 636.25L295.437 685.5L250.688 636.25H332.125Z" fill="#6A3787"/>
<path d="M848.437 275.062L855.937 313.438L785.812 281.188L848.437 275.062Z" fill="#9A57A3"/>
<path d="M1205.13 376.312L1184.88 422L1215.5 386.188L1205.13 376.312Z" fill="#C84A9D"/>
<path d="M1230.94 363.438L1219.38 367.396L1232.88 333.312L1230.94 363.438Z" fill="#883685"/>
<path d="M727.625 379.625L698.188 406.062L725.25 453L727.625 379.625Z" fill="#7D4AAB"/>
<path d="M801.799 430.875L781.375 467L809.375 459.7L801.799 430.875Z" fill="#883685"/>
<path d="M864.5 199.312L986.687 168.188L891.5 161L864.5 199.312Z" fill="#743C94"/>
<path d="M966.938 239.125L913.313 161.875L976.75 150.5L966.938 239.125Z" fill="#69307D"/>
<path d="M1195.06 86.875L1182.69 59.875L1147.5 68.4375L1195.06 86.875Z" fill="#6D2367"/>
<path d="M935.937 288.187L893.875 280.187L909.687 236.687L935.937 288.187Z" fill="#743C94"/>
<path d="M557.687 486.062L489.312 487.812L450.625 534.188L557.687 486.062Z" fill="#8B4EAD"/>
<path d="M621.5 457.562L611.562 490.75L607.782 465.75L621.5 457.562Z" fill="#8B4EAD"/>
<path d="M837.25 372.125L901.187 348.75L869.437 304.062L837.25 372.125Z" fill="#7D4AAB"/>
<path d="M482.375 478.625L454.937 533.188L403.562 421L482.375 478.625Z" fill="#6A3787"/>
<path d="M542.625 324.312L511.75 444.75L457 400.75L542.625 324.312Z" fill="#6A3787"/>
<path d="M653.75 323.688L710.687 260.312L602.125 286.688L653.75 323.688Z" fill="#743C94"/>
<path d="M939.062 386.5L934.625 425L925.188 399.625L939.062 386.5Z" fill="#D4388B"/>
<path d="M918.625 408.875L916.375 452.938L899.938 413.875L918.625 408.875Z" fill="#D4388B"/>
<path d="M1102.44 202.938L1095.56 283.188L1075.88 235.125L1102.44 202.938Z" fill="#D4388B"/>
<path d="M1112.12 91L1149.56 128.938L1078.88 114.938L1112.12 91Z" fill="#883685"/>
<path d="M616.545 331.812L607.062 399.812L540 338.375L616.545 331.812Z" fill="#9A57A3"/>
<path d="M767.375 262.125L729.625 309.688L666.812 289.938L767.375 262.125Z" fill="#9A57A3"/>
<path d="M496.5 399.812L484.562 494.625L448.625 426.375L496.5 399.812Z" fill="#9A57A3"/>
<path d="M680.687 376.562L650.5 432.688L624.562 399.812L680.687 376.562Z" fill="#9A57A3"/>
<path d="M645.312 256.375L718.312 309.75L640.125 344.875L645.312 256.375Z" fill="#67236D"/>
<path d="M1397.69 236.125L1378.12 274.312L1392.25 231.625L1397.69 236.125Z" fill="#D4388B"/>
<path d="M615.187 303.25L665.562 376.125L560.25 345.062L615.187 303.25Z" fill="#743C94"/>
<path d="M890.75 362.062L892.312 411.625L872 367L890.75 362.062Z" fill="#C84A9D"/>
<path d="M866 493.875L852.125 526.062L844 505.625L866 493.875Z" fill="#C84A9D"/>
<path d="M908.687 435.812L911.062 463.812L896.375 435.812H908.687Z" fill="#C84A9D"/>
<path d="M230.562 600.25L213.5 561.312L157.062 600.25H230.562Z" fill="#542D6A"/>
<path d="M890.625 456.875L864.688 482.375L888.125 471.563L890.625 456.875Z" fill="#C84A9D"/>
<path d="M912.312 466.188L879 494.875L903.25 457.5L912.312 466.188Z" fill="#C84A9D"/>
<path d="M942.187 472.75L913.25 491.438L924.687 471.062L942.187 472.75Z" fill="#C84A9D"/>
<path d="M934.125 445.688L921.25 470.062L914.875 441.438L934.125 445.688Z" fill="#C84A9D"/>
<path d="M504.187 523.375L529.937 528.25L497.375 558.375L504.187 523.375Z" fill="#9A57A3"/>
<path d="M493.375 548L509.187 551.5L450.938 603.938L493.375 548Z" fill="#883685"/>
<path d="M537.625 514.75L563.687 493L533.438 488.625L537.625 514.75Z" fill="#7D4AAB"/>
<path d="M479.5 529.562L515.187 534.875L495 512L479.5 529.562Z" fill="#7D4AAB"/>
<path d="M591.125 466.5L613.312 468.812L591.125 508.125V466.5Z" fill="#9A57A3"/>
<path d="M559.395 478.75L549.75 454.25H627.125L559.395 478.75Z" fill="#7D4AAB"/>
<path d="M673.812 337.5L667.062 415.125L596.562 348.25L673.812 337.5Z" fill="#73328A"/>
<path d="M825.562 262.125L787.812 309.688L725 289.938L825.562 262.125Z" fill="#73328A"/>
<path d="M566.937 377.875L543.375 485.875L506.812 426.375L566.937 377.875Z" fill="#73328A"/>
<path d="M606 513.5L594.875 498.75L587.562 526.375L606 513.5Z" fill="#7D4AAB"/>
<path d="M587.312 523.375L595.312 527.375L557.75 559.062L587.312 523.375Z" fill="#883685"/>
<path d="M538.812 542.375L548.062 549.5L512 574.5L538.812 542.375Z" fill="#883685"/>
<path d="M650.437 376.125L612.241 444.031H532.875L650.437 376.125Z" fill="#7D4AAB"/>
<path d="M972.875 343.188L998.875 361.562L964.937 369.688L972.875 343.188Z" fill="#C84A9D"/>
<path d="M1058.06 317.562L1015.94 355.375L1021.19 317.562H1058.06Z" fill="#C84A9D"/>
<path d="M1077.75 304.125L1076.19 343.188L1120.25 287.875L1077.75 304.125Z" fill="#C84A9D"/>
<path d="M1058.06 351L1025.37 374.438H1045.25L1058.06 351Z" fill="#C84A9D"/>
<path d="M904.687 353.375V390.625L889.562 356.188L904.687 353.375Z" fill="#D4388B"/>
<path d="M615 480.75L598.875 485.5L603 515.312L615 480.75Z" fill="#883685"/>
<path d="M942.687 358.25L937 380.5L932.125 346.5L942.687 358.25Z" fill="#D4388B"/>
<path d="M850.625 410.938L822.562 429.688L807.875 410.938H850.625Z" fill="#A3327C"/>
<path d="M845.5 413.312L865.687 426.5L828.062 429.25L845.5 413.312Z" fill="#C84A9D"/>
<path d="M803.125 478.75L807.5 454.75L760.688 468L803.125 478.75Z" fill="#D4388B"/>
<path d="M899.125 446.5V476.75L886.438 457.812L899.125 446.5Z" fill="#D4388B"/>
<path d="M886.25 486.375L855.938 507.062L862.75 483.25L886.25 486.375Z" fill="#D4388B"/>
<path d="M902.062 495.25L871.75 515.938L878.562 492.125L902.062 495.25Z" fill="#D4388B"/>
<path d="M929.937 476.375L899.625 497.062L906.437 473.25L929.937 476.375Z" fill="#D4388B"/>
<path d="M937.687 458.25V480.188L914.625 458.25H937.687Z" fill="#D4388B"/>
<path d="M672.125 418.625L589.937 427.938L554.25 483.812L672.125 418.625Z" fill="#8863AA"/>
<path d="M436.562 467.125L532.437 311.625L397.5 411.062L436.562 467.125Z" fill="#492666"/>
<path d="M781.375 356.125L699.187 365.438L669.75 417.812L781.375 356.125Z" fill="#8863AA"/>
<path d="M881.437 315.875L808.125 297.812L798.25 344.625L881.437 315.875Z" fill="#883685"/>
<path d="M865.562 360.375L809.437 333.375L805.25 373.375L865.562 360.375Z" fill="#883685"/>
<path d="M895.812 344.062V364.5L853.062 368.75L895.812 344.062Z" fill="#883685"/>
<path d="M856.125 375.812L877.187 388.688L874.687 371.75L856.125 375.812Z" fill="#883685"/>
<path d="M937.437 332.125L923.312 353.25L905.375 344.125L937.437 332.125Z" fill="#883685"/>
<path d="M1177.06 115.062L1189.69 89.1402L1144.56 71.375L1177.06 115.062Z" fill="#542A6C"/>
<path d="M1105.37 102.938V139.875L1018.25 113.25L1105.37 102.938Z" fill="#542A6C"/>
<path d="M1199.75 76.8125L1190.62 50.2812L1163.38 40.25L1199.75 76.8125Z" fill="#542A6C"/>
<path d="M1209.81 133.312H1173.25L1185.94 121.562L1209.81 133.312Z" fill="#743C94"/>
<path d="M1124.81 162.438L1064.31 122.062L1005.06 150.75L1124.81 162.438Z" fill="#743C94"/>
<path d="M1160.87 167.5L1142.25 137.125L1127.19 162.75L1160.87 167.5Z" fill="#743C94"/>
<path d="M774.687 305L739.812 366.625H658.125L774.687 305Z" fill="#7D4AAB"/>
<path d="M897.875 146.25L975.187 119.312L934.312 172.312L897.875 146.25Z" fill="#542A6C"/>
<path d="M968.438 181.125L1071.5 132.812L1016.5 217.438L968.438 181.125Z" fill="#3A214E"/>
<path d="M908 304L967.937 235.625L1017.37 267.938L908 304Z" fill="#542A6C"/>
<path d="M832.062 163.75L870.875 305.562L805.562 236L832.062 163.75Z" fill="#67236D"/>
<path d="M1102.5 256.25L1131.62 263.187L1073.88 279.125L1102.5 256.25Z" fill="#542A6C"/>
<path d="M1225.38 178.812L1279.41 196.5L1270.62 178.812H1225.38Z" fill="#D4388B"/>
<path d="M1164.62 145.562L1216.06 170L1184.37 175.188L1164.62 145.562Z" fill="#D4388B"/>
<path d="M1035.25 266.125L1079.38 274.938L1024.75 323.938L1035.25 266.125Z" fill="#A3327C"/>
<path d="M1037.81 293.125L946.563 337.562L1016.5 270.688L1037.81 293.125Z" fill="#542A6C"/>
<path d="M940.125 327.438L911.563 345.625L915.188 318.625L940.125 327.438Z" fill="#542A6C"/>
<path d="M992.625 267.688L1103.62 222.812L1030 213.625L992.625 267.688Z" fill="#883685"/>
<path d="M930 331.812L1031.5 282.812L957.375 277.625L930 331.812Z" fill="#883685"/>
<path d="M989.5 252.125L1087.31 183L1036.25 151.375L989.5 252.125Z" fill="#743C94"/>
<path d="M1167.94 159.438L1153.81 129.375L1145.69 148.625L1167.94 159.438Z" fill="#A3327C"/>
<path d="M954.437 125.188L1061.44 106.312L1011.56 157.75L954.437 125.188Z" fill="#73328A"/>
<path d="M864.25 206.125L909.375 284.125L895.312 313.5L864.25 206.125Z" fill="#542A6C"/>
<path d="M1105.87 260.438L1158.81 220.375L1102.25 196.5L1105.87 260.438Z" fill="#883685"/>
<path d="M1142.06 166.062L1179.69 193.375L1164.62 163.688L1142.06 166.062Z" fill="#A3327C"/>
<path d="M1130.31 146.125L1175 176.25L1181.25 161.188L1130.31 146.125Z" fill="#883685"/>
<path d="M1268.56 186.25L1299.5 188.25L1334.56 222.812L1268.56 186.25Z" fill="#883685"/>
<path d="M1318.62 193.062L1363.19 219.5L1371.37 201.125L1318.62 193.062Z" fill="#883685"/>
<path d="M1358 228.875L1380.87 225L1394.12 244.062L1358 228.875Z" fill="#A3327C"/>
<path d="M1177.56 149.25L1226.06 164.375L1235 187.438L1177.56 149.25Z" fill="#883685"/>
<path d="M1189.75 137.812L1141.13 139.062L1164.63 125.188L1189.75 137.812Z" fill="#883685"/>
<path d="M896.875 270.688L873.438 204.5L906.562 178.688L896.875 270.688Z" fill="#67236D"/>
<path d="M894.562 222.625L997.437 233.75L923.75 183.75L894.562 222.625Z" fill="#743C94"/>
<path d="M855.125 155.25L897.875 142.938L871.375 196.75L855.125 155.25Z" fill="#542A6C"/>
<path d="M741.562 298.375L725.437 338.812L671 324.312L741.562 298.375Z" fill="#73328A"/>
<path d="M1161.87 37.625L1183.5 54.25L1141.62 47L1161.87 37.625Z" fill="#3A214E"/>
<path d="M352.312 495.688L339.437 440.75L264.625 508.25L352.312 495.688Z" fill="#492666"/>
<path d="M787.625 299.625L800.563 344.938H871.693L787.625 299.625Z" fill="#7D4AAB"/>
<path d="M884.937 360.625L897.562 372.375L888.562 386.188L884.937 360.625Z" fill="#A3327C"/>
<path d="M891.875 427.812L852.188 410.625L863 430.75L891.875 427.812Z" fill="#A3327C"/>
<path d="M899.125 385.25L892.5 411.5L909.78 412.75L899.125 385.25Z" fill="#A3327C"/>
<path d="M910.5 349.188L936.937 346.188L924.312 371.75L910.5 349.188Z" fill="#A3327C"/>
<path d="M927.938 371.812L935.188 385.875L921.063 408.125L927.938 371.812Z" fill="#A3327C"/>
<path d="M970.438 381.75L1029.25 374.5L983.25 358.625L970.438 381.75Z" fill="#A3327C"/>
<path d="M1055.44 361.562L1025.62 350.043L1053.62 342.625L1055.44 361.562Z" fill="#A3327C"/>
<path d="M1203.87 388.562L1176.25 406.625L1207.69 371.125L1203.87 388.562Z" fill="#A3327C"/>
<path d="M976.625 350.125L1009.12 359.75L994.187 310.312L976.625 350.125Z" fill="#A3327C"/>
<path d="M1120.44 271.438L1098.5 290.938L1069.88 262.375L1120.44 271.438Z" fill="#A3327C"/>
<path d="M1153.38 240.938L1115.88 263.125L1075.94 236.438L1153.38 240.938Z" fill="#A3327C"/>
<path d="M1074.19 194.438L1125.56 232L1053.06 214.188L1074.19 194.438Z" fill="#A3327C"/>
<path d="M922.312 396L929 411.375L913.938 423.688L922.312 396Z" fill="#C84A9D"/>
<path d="M866 410L879.5 422.938L900.25 413.312L866 410Z" fill="#C84A9D"/>
<path d="M746 479.125V454.812L795.312 487.25L746 479.125Z" fill="#C84A9D"/>
<path d="M917.437 423.375L901.25 436.562L884.5 416.562L917.437 423.375Z" fill="#A3327C"/>
<path d="M891 428.625L893.375 449.062L910.062 457.5L891 428.625Z" fill="#A3327C"/>
<path d="M892.125 469.25L890.312 483.25H867.625L892.125 469.25Z" fill="#A3327C"/>
<path d="M872.312 510L869.312 526.375H849.625L872.312 510Z" fill="#A3327C"/>
<path d="M931.812 432.25V458.375L912.875 435.562L931.812 432.25Z" fill="#A3327C"/>
<path d="M849.375 508.625L867.375 483.875L833.688 497L849.375 508.625Z" fill="#A3327C"/>
<path d="M893.937 497.812L907.5 478.25L881.938 487.562L893.937 497.812Z" fill="#A3327C"/>
<path d="M915.375 475.312L926.75 457.812L903.375 465.062L915.375 475.312Z" fill="#A3327C"/>
<path d="M1142.25 47.875L1171.87 76.5L1124.88 86.5L1142.25 47.875Z" fill="#3A214E"/>
<path d="M799.187 469.5L817.25 507.75L787.5 482.125L799.187 469.5Z" fill="#A3327C"/>
<path d="M1151.25 70.375L1203.37 75.375L1191.25 95.9375L1151.25 70.375Z" fill="#542A6C"/>
<path d="M955.438 157.25L1011.56 117.75L1016.75 171.75L955.438 157.25Z" fill="#542A6C"/>
<path d="M573.944 435.375L607.132 389.625L519.25 342.125L573.944 435.375Z" fill="#743C94"/>
<path d="M712.188 435.375L761.875 451.125L749.812 468.062L712.188 435.375Z" fill="#A3327C"/>
<path d="M213.688 748.312L244.375 681.312L293.75 722.375L213.688 748.312Z" fill="#743C94"/>
<path d="M823 216.75V170.562L758 198.25L823 216.75Z" fill="#73328A"/>
<path d="M569.125 358.75L669.312 239.75L530.875 312.875L569.125 358.75Z" fill="#542A6C"/>
<path d="M705.375 296.625L810.625 176.312L667.875 239.125L705.375 296.625Z" fill="#542A6C"/>
<path d="M504.687 560.25L517.5 540.75L494.5 542.991L504.687 560.25Z" fill="#73328A"/>
<path d="M217.5 674.438L215.187 613.25L177.25 659.875L217.5 674.438Z" fill="#743C94"/>
<path d="M782.688 396.375L807.562 442.5L775.563 418.312L782.688 396.375Z" fill="#A3327C"/>
<path d="M1323.5 90.5625L1289.5 96.5L1309.12 103.375L1323.5 90.5625Z" fill="#883685"/>
<path d="M1272.75 106.25L1294.87 95.4375L1305.81 103.875L1272.75 106.25Z" fill="#67236D"/>
<path d="M1293.62 102.625H1272.38V112.938L1293.62 102.625Z" fill="#743C94"/>
<path d="M1402.81 50L1375.44 66.3125H1391.81L1402.81 50Z" fill="#883685"/>
<path d="M1417.81 77.375L1384.44 79.4375L1406.12 90.5625L1417.81 77.375Z" fill="#883685"/>
<path d="M1404.62 31.0625L1367.25 14.1875L1382.62 8.5L1404.62 31.0625Z" fill="#883685"/>
<path d="M1422.94 30.125L1407.94 35.5625L1416.06 54.1875L1422.94 30.125Z" fill="#883685"/>
<path d="M1355.75 75.4375L1377.25 63.1875L1385.31 69.25L1355.75 75.4375Z" fill="#67236D"/>
<path d="M1376.62 73.75H1355.38V84.0625L1376.62 73.75Z" fill="#743C94"/>
<path d="M1277.25 103.875L1243.25 109.812L1262.87 116.688L1277.25 103.875Z" fill="#883685"/>
<path d="M1226.5 119.562L1248.62 108.75L1259.56 117.188L1226.5 119.562Z" fill="#67236D"/>
<path d="M1241.5 120.438L1220.44 114.812L1208.88 129.438L1241.5 120.438Z" fill="#883685"/>
<path d="M1343.56 79.1875L1318.88 93.75H1338.12L1343.56 79.1875Z" fill="#883685"/>
<path d="M1383.87 77.9375L1346.25 81.5625L1355.56 91.5L1383.87 77.9375Z" fill="#883685"/>
<path d="M1303.38 97.1875L1325.5 86.375L1336.44 94.8125L1303.38 97.1875Z" fill="#67236D"/>
<path d="M1149 214.545L1160.06 210.75L1180.44 235.795L1149 214.545Z" fill="#743C94"/>
<path d="M1357.06 73.0157L1337.81 84.4532L1350.19 91.0157L1357.06 73.0157Z" fill="#67236D"/>
<path d="M1187.88 133.75L1212.12 117.375L1223.81 127.188L1187.88 133.75Z" fill="#67236D"/>
<path d="M923.688 358.625L941.937 369.375L936.687 391.688L923.688 358.625Z" fill="#C84A9D"/>
<path d="M1251.25 114.062L1228.44 112.5L1237.19 123.25L1251.25 114.062Z" fill="#743C94"/>
<path d="M1167.5 99.5117L1177.31 120L1126.12 110.25L1167.5 99.5117Z" fill="#3A214E"/>
<path d="M1165.19 213.062L1143.38 235.5L1121.56 193.875L1165.19 213.062Z" fill="#67236D"/>
<path d="M1112.5 207.062L1139.62 192.938L1097.25 167L1112.5 207.062Z" fill="#743C94"/>
<path d="M1120.37 161.562L1168.56 112.312L1079.06 122.25L1120.37 161.562Z" fill="#6D2367"/>
<path d="M1377.62 220.438L1329.81 258.875L1362.06 220.438H1377.62Z" fill="#D4388B"/>
<path d="M1332.5 221.5L1343.69 211.75L1368.62 236.688L1332.5 221.5Z" fill="#A3327C"/>
<path d="M1363.44 216.062L1312.88 252.688L1347.87 216.062H1363.44Z" fill="#D4388B"/>
<path d="M1304.94 198.75L1316.12 189L1341.06 213.938L1304.94 198.75Z" fill="#A3327C"/>
<path d="M1383.56 11.8125L1352.88 26.5L1374.25 3.0625L1383.56 11.8125Z" fill="#D4388B"/>
<path d="M1419.37 47.875L1389.25 63.125L1410.62 39.75L1419.37 47.875Z" fill="#D4388B"/>
<path d="M1389.88 25.9375L1418.75 32.5625L1389.88 11.8125V25.9375Z" fill="#D4388B"/>
<path d="M1425.06 81.875L1413.94 100.812L1408.19 77.9375L1425.06 81.875Z" fill="#D4388B"/>
<path d="M1401.88 85.5L1374.56 76.75L1371.25 91.1875L1401.88 85.5Z" fill="#67236D"/>
<path d="M1312.88 207.188L1360.6 211.75L1368.6 198.625L1312.88 207.188Z" fill="#D4388B"/>
<path d="M1107.38 262.125L1004.06 274.938L1063.81 239.625L1107.38 262.125Z" fill="#743C94"/>
<path d="M1225.5 371.5L1218.5 362.5L1206.25 382.375L1225.5 371.5Z" fill="#D4388B"/>
<path d="M1241.37 346.75L1236.19 337.5L1226.25 361.562L1241.37 346.75Z" fill="#D4388B"/>
<path d="M1203.06 358L1208.88 342.875L1212.62 382.438L1203.06 358Z" fill="#883685"/>
<path d="M1204.75 335.875L1213.5 331.25L1213.5 364.125L1204.75 335.875Z" fill="#A3327C"/>
<path d="M1209.12 307.658L1198.13 313.5V280.375L1209.12 307.658Z" fill="#D4388B"/>
<path d="M1201 328.946L1211.5 338.812L1206.55 299.25L1201 328.946Z" fill="#883685"/>
<path d="M1199.15 265.148L1189.25 275.562L1182.38 235.75L1199.15 265.148Z" fill="#A3327C"/>
<path d="M1189.94 247.688L1180.04 253.375L1164.69 221.812L1189.94 247.688Z" fill="#883685"/>
<path d="M1193.12 285.321L1203.62 295.188L1197.5 261.375L1193.12 285.321Z" fill="#883685"/>
<path d="M1220.12 287.5L1230.75 282.875L1230.75 315.75L1220.12 287.5Z" fill="#A3327C"/>
<path d="M1209.12 235.533L1218.75 230L1221.19 274L1209.12 235.533Z" fill="#D4388B"/>
<path d="M1218.25 276.196L1228.75 286.062L1223.8 246.5L1218.25 276.196Z" fill="#883685"/>
<path d="M1228.62 318.438L1239.25 313.812L1239.25 346.688L1228.62 318.438Z" fill="#A3327C"/>
<path d="M1233.12 293.533L1222.13 299.375V266.25L1233.12 293.533Z" fill="#D4388B"/>
<path d="M1226.75 315.571L1237.25 325.438L1232.3 285.875L1226.75 315.571Z" fill="#883685"/>
<path d="M1206.25 214.5L1201.88 224.125L1171.63 191.25L1206.25 214.5Z" fill="#A3327C"/>
<path d="M1163.12 175.375L1194.25 198.562L1191.12 209L1163.12 175.375Z" fill="#883685"/>
<path d="M1205 229.625L1220.5 234.625L1201.56 208.688L1205 229.625Z" fill="#883685"/>
<path d="M261.625 511L195.5 568.938L276 564.5L261.625 511Z" fill="#542A6C"/>
<g filter="url(#filter0_d)">
<path d="M1348.34 91.3317H1408.41L1414.83 105.673L1427.55 76.9567L1370.45 76.7493L1414.87 56.5088L1427.54 32.6818L1370.5 1L1362.53 12.1077L1362.53 12.1086L1348.36 32.761L1370.52 20.1498L1408.37 32.7441L1400.63 50.1898L1348.99 76.7493M1348.34 91.3317L1259.72 118.266L1259.72 118.267L1209.03 132.517M1348.34 91.3317L1304 104.677L1259.69 118.147L1259.69 118.147L1209 132.396L1161.56 145.021L1161.57 145.143L1202.69 153.081L1250.18 173.639L1250.18 173.641L1250.19 173.642L1300.81 187.892L1300.82 187.893L1370.45 197.386V216.366L1400.5 235.354L1370.82 291.63L1386.41 244.796L1362.57 235.26L1317.19 271.239L1348.38 235.373L1348.3 235.277L1301.2 260.375L1337.37 225.817L1300.86 206.776L1300.85 206.774L1300.85 206.773L1250.22 187.769H1234.4L1202.71 173.518L1175.71 176.721L1208.97 216.372L1208.97 216.374L1208.97 216.376L1218.46 225.864L1240 314.454L1243.83 339.706L1234.33 360.368M1209.03 132.517L1209.02 132.457M1209.03 132.517L1161.86 145.072L1202.72 152.959L1250.22 173.521L1250.23 173.524L1300.84 187.77L1300.85 187.771L1370.58 197.277V216.297L1400.66 235.31L1370.58 292.351L1370.57 292.361L1370.46 292.312L1370.46 292.303L1386.25 244.868L1362.59 235.403L1316.75 271.748L1316.74 271.756L1316.66 271.666L1316.67 271.658L1348.06 235.546L1300.86 260.699L1300.79 260.599L1337.16 225.847L1300.81 206.89L1300.8 206.887L1250.19 187.894H1234.38L1202.69 173.646L1175.95 176.818L1209.06 216.287L1209.06 216.292L1218.56 225.787L1218.57 225.799L1218.58 225.814M1234.33 360.368L1218.57 382.552L1218.57 382.556L1193.26 423.739L1193.25 423.748L1175.87 437.943L1175.77 437.87L1193.05 396.962L1166.37 417.381L1166.28 417.292L1202.64 372.997V339.769L1193.14 284.411L1183.65 260.673L1161.58 225.952L1144.19 255.938L1144.18 255.946L1120.45 271.74V292.353L1084.07 339.807L1084.06 339.816L1084.05 339.822L1063.5 352.504L1047.63 373.057L1047.62 373.074L1014.4 382.582H969.975L960.448 360.393L969.921 339.827L935.279 338.273M1234.33 360.368L1218.47 382.483L1218.46 382.485L1218.46 382.486L1193.16 423.665L1175.98 437.686L1193.35 396.576L1166.72 416.954L1202.75 373.059L1202.77 373.042V339.764L1202.77 339.759L1193.27 284.384L1193.26 284.377L1193.26 284.371L1183.76 260.621L1183.76 260.616L1183.76 260.611L1161.58 225.711L1144.09 255.85L1120.37 271.649L1076.05 284.337L1063.43 292.275L1063.42 292.279L1030.18 308.088L1030.16 308.094L1014.36 328.651L970.01 339.706L935.129 338.141M943.203 382.508L943.205 382.52L943.203 382.531M751.618 372.957L742.681 338.059L729.441 255.866L724.677 206.775M751.618 372.957L696.204 415.769M751.618 372.957L789.687 400.438L807.875 437.957L810.625 471.227L803.946 479.875L812.617 489.708L821.263 513.894L796.054 491.793L742.681 482.812M795.921 353.951L779.892 271.651L770.555 187.774M795.921 353.951L837.204 314.469M795.921 353.951L751.665 373.082M795.921 353.951L805.187 376.25H852.562M852.562 376.25L881.875 360.393L905.625 348.312M852.562 376.25L879.312 392.5L885.75 409.519M905.625 348.312L935.129 338.141M905.625 348.312L837.204 314.469M905.625 348.312L925.654 376.25L916.204 409.457L908.291 409.436M905.625 348.312L908.291 409.436M905.625 348.312L910 329.062M935.145 430.207L943.078 382.519V360.395L935.129 338.141M935.145 430.207V445.582L943.205 477.844L896.812 501.625L879.09 513.277L864.733 533.375L842.25 524.938L847.447 513.277M935.145 430.207L920.5 430.754L908.291 431.379L916.204 468.438L864.729 506.383L847.447 513.277M935.129 338.141L925.437 328.188L910 329.062M1348.99 76.7493L1259.72 105.579L1259.72 105.58L1202.72 118.268L1202.72 118.268L1155.22 126.142L1155.21 126.143L1155.19 126.021M1348.99 76.7493L1259.69 105.458L1259.68 105.46L1202.69 118.145L1202.69 118.146L1156.36 125.826L1183.75 118.258L1193.26 91.2973L1202.77 77.0278L1193.26 50.1233L1193.25 50.0982L1161.58 35.8242L1136.2 50.1076V67.5002M1155.19 126.021L1155.19 126.02M1155.19 126.021L1126.77 111.832L1120.42 91.3317M1155.19 126.02L1183.66 118.155L1193.15 91.2484L1193.15 91.241M1155.19 126.02L1120.33 152.959L1083.99 105.457M1193.15 91.241L1202.63 77.0105L1193.15 50.1902L1161.58 35.9641L1136.33 50.1807V67.5381L1136.32 67.5539L1120.42 91.3317M1193.15 91.241L1166.72 67.5539L1136.2 67.5002M1120.42 91.3317H1099.85L1084.06 105.566L1084.04 105.582H1047.58M1047.58 105.582L970.034 118.267L970.027 118.268L840.267 159.707M1047.58 105.582L1083.99 105.457M1047.58 105.582L1008.79 111.801L970.003 118.146L969.999 118.147M840.267 159.707L849.734 230.082L870.392 289.394M840.267 159.707L803.808 173.523M803.854 173.639L803.847 173.641M803.847 173.641L770.604 187.889L724.731 206.888L724.728 206.889L664.608 235.387L664.606 235.388M803.847 173.641L810.244 214.754L819.829 255.866L837.204 314.469M664.606 235.388L594.922 271.761L594.921 271.762L530.051 308.197L530.047 308.199M664.606 235.388L673.954 328.797L696.204 415.769M664.606 235.388L724.68 206.774M530.047 308.199L461.988 352.509L461.987 352.51L461.986 352.51M530.047 308.199C535.307 344.838 538.257 365.38 543.517 402.019L558.517 487.019M461.986 352.51L428.67 380.974M461.986 352.51L470.767 402.019L488.954 469.207L499.954 513.894M428.67 380.974L395.526 409.469M428.67 380.974L395.415 409.406M428.67 380.974L395.421 409.543L421.887 477.894L451.562 543.25L475.385 528.138M428.67 380.974L461.92 352.404L461.922 352.403L529.983 308.092L529.984 308.091L529.986 308.09L594.861 271.652M594.861 271.652L594.863 271.651L664.55 235.276L664.551 235.276L664.552 235.275L724.677 206.775M594.861 271.652L608.329 363.269L616.267 406.269L628.142 450.582M724.677 206.775L724.679 206.775L724.68 206.774M724.68 206.774L770.555 187.774M770.555 187.774L803.808 173.523M770.555 187.774L803.811 173.522L803.808 173.523M1083.99 105.457L1099.79 91.2227L1099.81 91.2067M1120.36 91.2067L1136.2 67.5002M885.75 409.519H803.946L819.187 430.207L847.447 430.754L867.187 431.379L887.687 432.062L890.875 453L860.055 485.662L828.432 496.022L847.447 513.277M885.75 409.519L908.291 409.436M499.954 513.894L558.517 487.019M499.954 513.894L475.385 528.138M499.954 513.894L520.375 521.5L531.437 527.25L509.454 556.644L438.937 615.5L498.875 537.438L475.385 528.138M558.517 487.019L588.693 471.227M558.517 487.019L574.329 502.832L569.875 517.075L547.125 551.938L506.187 579.125L537.954 542.381V513.894L529.983 499.732M628.142 450.582L696.204 415.769M628.142 450.582L618.642 474.332L604.392 520.203L545.829 570.894L588.693 520.21V471.227M628.142 450.582L588.693 471.227M696.204 415.769L700.562 418.938L713.062 429.25M837.204 314.469L870.392 289.394M706.937 445.312L743.187 464M870.392 289.394L881.128 314.469L894.875 316.875L910 329.062M413.75 608.312L352.725 687.971L252.25 750.019L203.062 753.375L223.25 714.25L185.312 709L209.437 672L170.312 662.125L190.267 633.707L157.25 626.125V594.25L236.454 528.138L285.892 480.296L338.454 437.856L421.887 595.312L413.75 608.312ZM1076.1 284.452L1120.33 271.79V292.31L1083.97 339.722L1063.44 352.394H1047.61L1038.15 338.204L1063.5 292.376L1076.1 284.452ZM1063.33 352.519L1047.54 372.965L1014.43 382.442L1004.96 352.459L1014.45 328.738L1030.24 308.194L1063.31 292.472L1038.01 338.21L1047.55 352.519H1063.33ZM1004.83 352.475L1014.31 382.457H970.058L960.585 360.395L970.061 339.823L1014.29 328.797L1004.83 352.454L1004.83 352.475ZM1109.33 173.518L1144.19 187.769L1136.33 197.277L1161.56 206.773L1166.72 216.376L1193.35 247.957L1202.63 271.74L1218.46 361.957L1230.37 338.141L1208.97 235.31L1175.98 197.277L1155.22 176.818L1126.77 162.574L1109.33 173.518Z" stroke="#8B98A9" stroke-width="1.25"/>
</g>
<path d="M840.562 409.875L847.312 431.25" stroke="#8B98A9" stroke-width="1.25"/>
<path d="M860 485.75L862.094 496.531L864.187 507.312L878.625 513.062M887.75 432.125L908.812 431.438" stroke="#8B98A9" stroke-width="1.25"/>
<path d="M588.5 471.25L618.25 475.375" stroke="#8B98A9" stroke-width="1.25"/>
<path d="M537.812 514.25L574.5 502.938" stroke="#8B98A9" stroke-width="1.25"/>
<path d="M588.438 520.562H603.937" stroke="#8B98A9" stroke-width="1.25"/>
<path d="M499.062 537.125L516.437 546.75" stroke="#8B98A9" stroke-width="1.25"/>
<path d="M497.75 538.75L519.75 521.25" stroke="#8B98A9" stroke-width="1.25"/>
<path d="M751.812 438L724.375 409.625V429.75L751.812 450.562V438Z" stroke="#8B98A9" stroke-width="1.75"/>
<path d="M777.25 419.938L764.187 424.062L793.687 442.562L777.25 419.938Z" stroke="#8B98A9" stroke-width="1.75"/>
<path d="M793.687 480.75L764.187 450.562L756.625 461.312L793.687 480.75Z" stroke="#8B98A9" stroke-width="1.75"/>
<path d="M712.25 429L707.25 446.5" stroke="#8B98A9" stroke-width="1.75"/>
<path d="M742.438 463.5L743.25 483.625" stroke="#8B98A9" stroke-width="1.75"/>
<path d="M1111.5 91.625L1119.29 119.085L1147.62 131.938" stroke="#8B98A9" stroke-width="1.25"/>
<path d="M1167.31 68.4375L1182.37 93L1176.87 110.75L1154.75 125.938" stroke="#8B98A9" stroke-width="1.25"/>
<path d="M1161.19 36.25L1186.5 56.125L1193.62 76.3125L1186.5 85.8125" stroke="#8B98A9" stroke-width="1.25"/>
<path d="M892.562 317.5L947.312 292.5L985.562 275.5L1026.62 253.125L1070.81 227.875L1095 198.875L1112.62 204.188L1117.69 224.75L1107.56 239.75L1086.94 253.125L1073.25 266.562L1049.81 274.25L1031.69 290.188L1003.94 301.812L985.562 313.625L960.937 320.625L943.562 326.438L925.312 328.188" stroke="#8B98A9" stroke-width="1.875"/>
<path d="M1095 200.312L1094.12 224M1094.12 224L1117.62 224.75M1094.12 224L1071.06 227.875L1061.5 249.75M1094.12 224L1086.94 253.25L1061.5 249.75M1061.5 249.75L1050.06 274L1018.19 274.312M1061.5 249.75L1026.81 252.938L1018.19 274.312M1018.19 274.312L986.125 275.312L972.812 298.188M1018.19 274.312L1004.12 301.812L972.812 298.188M972.812 298.188L960.937 320.75L934.625 311.562M972.812 298.188L946.875 292.562L934.625 311.562M934.625 311.562L925.562 327.875M934.625 311.562L894.562 316.938" stroke="#8B98A9" stroke-width="1.25"/>
<path d="M857.312 155.812L889.312 167M889.312 167L909.187 138.75L944.687 150.375M889.312 167L922.812 180.625M889.312 167L861.5 200.188L899.375 201.5L922.812 180.625M944.687 150.375L968.625 120.312L1002.75 134M944.687 150.375L982.5 163.25M944.687 150.375L922.812 180.625M1002.75 134L1024.62 109.375L1062.87 125.75M1002.75 134L1037.06 150.375M1002.75 134L982.5 163.25M1062.87 125.75L1084 105.312M1062.87 125.75L1037.06 150.375M1062.87 125.75L1106.25 136.125L1074.44 155.812L1037.06 150.375M1037.06 150.375L1016.75 168.5L982.5 163.25M982.5 163.25L957.5 184.25L922.812 180.625" stroke="#8B98A9" stroke-width="1.25"/>
<path d="M1158.81 226.938L1135.19 246L1118.5 259.562L1073.5 273.312L1057.87 283.188L1024.75 299.875L1007.69 319.375L967.562 328.562L933.938 337.375" stroke="#8B98A9" stroke-width="1.25"/>
<path d="M395.938 409.938L470.25 402.375M470.25 402.375L422 478.688L488.812 469.188M470.25 402.375H543.75M470.25 402.375L529.5 309.125L602.25 320.562M488.812 469.188L451.875 543.062M488.812 469.188L543.75 402.375M488.812 469.188L558.812 487L616.5 406.75M543.75 402.375L602.25 320.562M543.75 402.375L616.5 406.75M602.25 320.562L664.312 236.375M602.25 320.562L674.625 328.875M616.5 406.75L696.312 415.812M616.5 406.75L674.625 328.875M664.312 236.375L674.625 328.875M664.312 236.375L730.312 255.75M674.625 328.875L696.312 415.812M674.625 328.875L730.312 255.75M674.625 328.875L743 337.188M696.312 415.812L743 337.188M743 337.188L778.937 272.75M743 337.188L795.937 353.75M778.937 272.75L730.312 255.75M778.937 272.75L827.937 283.438M778.937 272.75L810.187 214.25M730.312 255.75L769.062 188.938L810.187 214.25M827.937 283.438L795.937 353.75M827.937 283.438L848.5 231.25L810.187 214.25M827.937 283.438L869.062 289.75M795.937 353.75L852.75 375.562L837.187 313.562L881 314.75L905.125 347.625M810.187 214.25L839.437 160.125" stroke="#8B98A9" stroke-width="1.5"/>
<path d="M350.312 460L299.75 526.812M299.75 526.812L362.187 482.938M299.75 526.812L261 605.062L342.437 599.938M342.437 599.938L391.437 538.688M342.437 599.938L406.062 566.312" stroke="#8B98A9" stroke-width="1.25"/>
<path d="M383.187 449.438L338 438L362.312 416.812L394.75 409.875L383.187 449.438ZM383.187 449.438L423.062 478.75M383.187 449.438L362.312 484.5L400.062 495.562M423.062 478.75L400.062 495.562M423.062 478.75V535.5M400.062 495.562L391.187 538.312L423.062 535.5M423.062 535.5L451.937 543.688L444.125 569.875L421.687 595.5L423.062 535.5Z" stroke="#8B98A9" stroke-width="1.5"/>
<path d="M862.437 200.875L849.187 231.562L877.187 263.438M862.437 200.875L840.188 161.188M862.437 200.875L877.187 263.438M862.437 200.875L855.812 155.188M877.187 263.438L869.062 289.562L895.187 317.562L877.187 263.438Z" stroke="#8B98A9" stroke-width="1.5"/>
<ellipse cx="286.438" cy="480.688" rx="5.9375" ry="5.9375" fill="#F7F7F7"/>
<ellipse cx="235.688" cy="527.062" rx="5.9375" ry="5.9375" fill="#F7F7F7"/>
<ellipse cx="339" cy="438.75" rx="3.75" ry="3.75" fill="#F7F7F7"/>
<ellipse cx="349.875" cy="689.125" rx="3.75" ry="3.75" fill="#F7F7F7"/>
<path d="M425.625 594.5C425.625 596.571 423.946 598.25 421.875 598.25C419.804 598.25 418.125 596.571 418.125 594.5C418.125 592.429 419.804 590.75 421.875 590.75C423.946 590.75 425.625 592.429 425.625 594.5Z" fill="#F7F7F7"/>
<path d="M448 569.625C448 571.696 446.321 573.375 444.25 573.375C442.179 573.375 440.5 571.696 440.5 569.625C440.5 567.554 442.179 565.875 444.25 565.875C446.321 565.875 448 567.554 448 569.625Z" fill="#F7F7F7"/>
<path d="M397.125 537.812C397.125 541.092 394.467 543.75 391.187 543.75C387.908 543.75 385.25 541.092 385.25 537.812C385.25 534.533 387.908 531.875 391.187 531.875C394.467 531.875 397.125 534.533 397.125 537.812Z" fill="#F7F7F7"/>
<path d="M369.25 483.688C369.25 486.967 366.592 489.625 363.312 489.625C360.033 489.625 357.375 486.967 357.375 483.688C357.375 480.408 360.033 477.75 363.312 477.75C366.592 477.75 369.25 480.408 369.25 483.688Z" fill="#F7F7F7"/>
<path d="M302.5 526C302.5 528.071 300.821 529.75 298.75 529.75C296.679 529.75 295 528.071 295 526C295 523.929 296.679 522.25 298.75 522.25C300.821 522.25 302.5 523.929 302.5 526Z" fill="#F7F7F7"/>
<path d="M264.5 604.375C264.5 606.446 262.821 608.125 260.75 608.125C258.679 608.125 257 606.446 257 604.375C257 602.304 258.679 600.625 260.75 600.625C262.821 600.625 264.5 602.304 264.5 604.375Z" fill="#F7F7F7"/>
<path d="M346.125 599.125C346.125 601.196 344.446 602.875 342.375 602.875C340.304 602.875 338.625 601.196 338.625 599.125C338.625 597.054 340.304 595.375 342.375 595.375C344.446 595.375 346.125 597.054 346.125 599.125Z" fill="#F7F7F7"/>
<path d="M367.125 416.875C367.125 418.946 365.446 420.625 363.375 420.625C361.304 420.625 359.625 418.946 359.625 416.875C359.625 414.804 361.304 413.125 363.375 413.125C365.446 413.125 367.125 414.804 367.125 416.875Z" fill="#F7F7F7"/>
<path d="M405.875 495.562C405.875 498.842 403.217 501.5 399.937 501.5C396.658 501.5 394 498.842 394 495.562C394 492.283 396.658 489.625 399.937 489.625C403.217 489.625 405.875 492.283 405.875 495.562Z" fill="#F7F7F7"/>
<path d="M428.875 535.938C428.875 539.217 426.217 541.875 422.937 541.875C419.658 541.875 417 539.217 417 535.938C417 532.658 419.658 530 422.937 530C426.217 530 428.875 532.658 428.875 535.938Z" fill="#F7F7F7"/>
<path d="M455.75 543.125C455.75 545.196 454.071 546.875 452 546.875C449.929 546.875 448.25 545.196 448.25 543.125C448.25 541.054 449.929 539.375 452 539.375C454.071 539.375 455.75 541.054 455.75 543.125Z" fill="#F7F7F7"/>
<path d="M389.375 449.562C389.375 452.842 386.717 455.5 383.437 455.5C380.158 455.5 377.5 452.842 377.5 449.562C377.5 446.283 380.158 443.625 383.437 443.625C386.717 443.625 389.375 446.283 389.375 449.562Z" fill="#F7F7F7"/>
<ellipse cx="499.25" cy="512.625" rx="3.75" ry="3.75" fill="#F7F7F7"/>
<ellipse cx="558.125" cy="487.25" rx="3.75" ry="3.75" fill="#F7F7F7"/>
<ellipse cx="628.375" cy="451.75" rx="3.75" ry="3.75" fill="#F7F7F7"/>
<ellipse cx="696.375" cy="415.375" rx="3.75" ry="3.75" fill="#F7F7F7"/>
<ellipse cx="751.75" cy="373.375" rx="3.75" ry="3.75" fill="#F7F7F7"/>
<ellipse cx="796.375" cy="353.625" rx="3.75" ry="3.75" fill="#F7F7F7"/>
<ellipse cx="837.625" cy="314.25" rx="3.75" ry="3.75" fill="#F7F7F7"/>
<ellipse cx="869.5" cy="289.375" rx="3.75" ry="3.75" fill="#F7F7F7"/>
<ellipse cx="840.25" cy="161" rx="3.75" ry="3.75" fill="#F7F7F7"/>
<path d="M808.5 173.967C808.5 176.038 806.821 177.717 804.75 177.717C802.679 177.717 801 176.038 801 173.967C801 171.896 802.679 170.217 804.75 170.217C806.821 170.217 808.5 171.896 808.5 173.967Z" fill="#F7F7F7"/>
<ellipse cx="770" cy="189.125" rx="3.75" ry="3.75" fill="#F7F7F7"/>
<ellipse cx="725.625" cy="208.625" rx="3.75" ry="3.75" fill="#F7F7F7"/>
<ellipse cx="665.375" cy="236.125" rx="3.75" ry="3.75" fill="#F7F7F7"/>
<path d="M598.437 271.437C598.437 273.509 596.759 275.187 594.687 275.187C592.616 275.187 590.938 273.509 590.938 271.437C590.938 269.366 592.616 267.687 594.687 267.687C596.759 267.687 598.437 269.366 598.437 271.437Z" fill="#F7F7F7"/>
<ellipse cx="529.75" cy="308" rx="3.75" ry="3.75" fill="#F7F7F7"/>
<ellipse cx="461.25" cy="353.5" rx="3.75" ry="3.75" fill="#F7F7F7"/>
<ellipse cx="395" cy="410" rx="3.75" ry="3.75" fill="#F7F7F7"/>
<path d="M426.125 478.75C426.125 480.821 424.446 482.5 422.375 482.5C420.304 482.5 418.625 480.821 418.625 478.75C418.625 476.679 420.304 475 422.375 475C424.446 475 426.125 476.679 426.125 478.75Z" fill="#F7F7F7"/>
<ellipse cx="543.375" cy="401.875" rx="3.75" ry="3.75" fill="#F7F7F7"/>
<ellipse cx="674" cy="329.25" rx="3.75" ry="3.75" fill="#F7F7F7"/>
<ellipse cx="779.625" cy="272.25" rx="3.75" ry="3.75" fill="#F7F7F7"/>
<path d="M852.625 231.75C852.625 233.821 850.946 235.5 848.875 235.5C846.804 235.5 845.125 233.821 845.125 231.75C845.125 229.679 846.804 228 848.875 228C850.946 228 852.625 229.679 852.625 231.75Z" fill="#F7F7F7"/>
<path d="M898.625 316.75C898.625 318.821 896.946 320.5 894.875 320.5C892.804 320.5 891.125 318.821 891.125 316.75C891.125 314.679 892.804 313 894.875 313C896.946 313 898.625 314.679 898.625 316.75Z" fill="#F7F7F7"/>
<path d="M913.125 329.125C913.125 330.851 911.726 332.25 910 332.25C908.274 332.25 906.875 330.851 906.875 329.125C906.875 327.399 908.274 326 910 326C911.726 326 913.125 327.399 913.125 329.125Z" fill="#F7F7F7"/>
<path d="M880.75 262.875C880.75 264.946 879.071 266.625 877 266.625C874.929 266.625 873.25 264.946 873.25 262.875C873.25 260.804 874.929 259.125 877 259.125C879.071 259.125 880.75 260.804 880.75 262.875Z" fill="#F7F7F7"/>
<path d="M865.75 200.375C865.75 202.446 864.071 204.125 862 204.125C859.929 204.125 858.25 202.446 858.25 200.375C858.25 198.304 859.929 196.625 862 196.625C864.071 196.625 865.75 198.304 865.75 200.375Z" fill="#F7F7F7"/>
<path d="M860.125 154.25C860.125 156.321 858.446 158 856.375 158C854.304 158 852.625 156.321 852.625 154.25C852.625 152.179 854.304 150.5 856.375 150.5C858.446 150.5 860.125 152.179 860.125 154.25Z" fill="#F7F7F7"/>
<path d="M1140.25 69C1140.25 71.0711 1138.57 72.75 1136.5 72.75C1134.43 72.75 1132.75 71.0711 1132.75 69C1132.75 66.9289 1134.43 65.25 1136.5 65.25C1138.57 65.25 1140.25 66.9289 1140.25 69Z" fill="#F7F7F7"/>
<path d="M948.5 150.5C948.5 152.571 946.821 154.25 944.75 154.25C942.679 154.25 941 152.571 941 150.5C941 148.429 942.679 146.75 944.75 146.75C946.821 146.75 948.5 148.429 948.5 150.5Z" fill="#F7F7F7"/>
<path d="M1065.37 125.5C1065.37 127.571 1063.7 129.25 1061.62 129.25C1059.55 129.25 1057.88 127.571 1057.88 125.5C1057.88 123.429 1059.55 121.75 1061.62 121.75C1063.7 121.75 1065.37 123.429 1065.37 125.5Z" fill="#F7F7F7"/>
<ellipse cx="905.625" cy="348.75" rx="3.75" ry="3.75" fill="#F7F7F7"/>
<path d="M857.125 376.75C857.125 378.821 855.446 380.5 853.375 380.5C851.304 380.5 849.625 378.821 849.625 376.75C849.625 374.679 851.304 373 853.375 373C855.446 373 857.125 374.679 857.125 376.75Z" fill="#F7F7F7"/>
<ellipse cx="934.875" cy="337.875" rx="3.75" ry="3.75" fill="#F7F7F7"/>
<ellipse cx="969.125" cy="339.625" rx="3.75" ry="3.75" fill="#F7F7F7"/>
<ellipse cx="1013.75" cy="328.75" rx="3.75" ry="3.75" fill="#F7F7F7"/>
<ellipse cx="1062.38" cy="292.75" rx="3.75" ry="3.75" fill="#F7F7F7"/>
<ellipse cx="1119.62" cy="271.875" rx="3.75" ry="3.75" fill="#F7F7F7"/>
<ellipse cx="1161.38" cy="225.75" rx="3.75" ry="3.75" fill="#F7F7F7"/>
<ellipse cx="979.062" cy="373.438" rx="7.9375" ry="3.3125" fill="#F7F7F7"/>
<ellipse cx="1021.69" cy="370.062" rx="7.9375" ry="3.3125" fill="#F7F7F7"/>
<ellipse cx="1056.56" cy="341.688" rx="7.9375" ry="3.3125" fill="#F7F7F7"/>
<ellipse cx="1061.12" cy="250.25" rx="3.75" ry="3.75" fill="#F7F7F7"/>
<ellipse cx="1094" cy="224.25" rx="3.75" ry="3.75" fill="#F7F7F7"/>
<ellipse cx="1018" cy="274.375" rx="3.75" ry="3.75" fill="#F7F7F7"/>
<ellipse cx="972.875" cy="298.5" rx="3.75" ry="3.75" fill="#F7F7F7"/>
<ellipse cx="934.5" cy="312" rx="3.75" ry="3.75" fill="#F7F7F7"/>
<ellipse cx="1075.88" cy="175.625" rx="6.25" ry="6.25" fill="#F7F7F7"/>
<path d="M1025.37 184.438C1025.37 183.747 1025.93 183.188 1026.62 183.188C1027.32 183.188 1027.88 183.747 1027.88 184.438C1027.88 185.128 1027.32 185.688 1026.62 185.688C1025.93 185.688 1025.37 185.128 1025.37 184.438Z" fill="#F7F7F7" stroke="#F7F7F7" stroke-width="15"/>
<g filter="url(#filter1_d)">
<ellipse cx="988.625" cy="213.625" rx="6.25" ry="6.25" fill="#F7F7F7"/>
</g>
<g filter="url(#filter2_d)">
<ellipse cx="956.125" cy="234.25" rx="6.25" ry="6.25" fill="#F7F7F7"/>
</g>
<ellipse cx="932.625" cy="208.625" rx="6.25" ry="6.25" fill="#F7F7F7"/>
<ellipse cx="902.25" cy="241.75" rx="6.25" ry="6.25" fill="#F7F7F7"/>
<ellipse cx="1206.62" cy="116" rx="5" ry="5" fill="#CECECE"/>
<ellipse cx="1262.25" cy="103.625" rx="5" ry="5" fill="#CECECE"/>
<ellipse cx="1319.5" cy="85.5" rx="5" ry="5" fill="#CECECE"/>
<ellipse cx="1374.75" cy="61.75" rx="5" ry="5" fill="#CECECE"/>
<ellipse cx="90" cy="693.875" rx="6.25" ry="6.25" fill="#998AA3"/>
<ellipse cx="132.375" cy="711.75" rx="6.25" ry="6.25" fill="#998AA3"/>
<ellipse cx="145" cy="652.125" rx="7.5" ry="7.5" fill="#CECECE"/>
<ellipse cx="113" cy="671.375" rx="6.25" ry="6.25" fill="#998AA3"/>
<ellipse cx="68.25" cy="659.625" rx="6.25" ry="6.25" fill="#898AA3"/>
<ellipse cx="75.625" cy="720.25" rx="5" ry="5" fill="#898AA3"/>
<ellipse cx="45.75" cy="697.625" rx="5" ry="5" fill="#898AA3"/>
<ellipse cx="39.75" cy="740.25" rx="5" ry="5" fill="#898AA3"/>
<ellipse cx="111.562" cy="738.188" rx="5.4375" ry="5.4375" fill="#998AA3"/>
<ellipse cx="28.5" cy="947.25" rx="3.125" ry="3.125" fill="#898AA3"/>
<ellipse cx="9.375" cy="922" rx="3.125" ry="3.125" fill="#898AA3"/>
<ellipse cx="3.125" cy="893.375" rx="3.125" ry="3.125" fill="#898AA3"/>
<ellipse cx="15.875" cy="868.5" rx="3.125" ry="3.125" fill="#898AA3"/>
<ellipse cx="31.625" cy="846.125" rx="3.125" ry="3.125" fill="#898AA3"/>
<ellipse cx="99.8125" cy="769.938" rx="4.6875" ry="4.6875" fill="#898AA3"/>
<ellipse cx="66.875" cy="813.5" rx="3.75" ry="3.75" fill="#898AA3"/>
<ellipse cx="48.875" cy="831" rx="3.125" ry="3.125" fill="#898AA3"/>
<ellipse cx="71.5625" cy="749.188" rx="4.6875" ry="4.6875" fill="#898AA3"/>
<ellipse cx="63.5625" cy="781.812" rx="4.6875" ry="4.6875" fill="#898AA3"/>
<ellipse cx="36.3125" cy="775.562" rx="4.6875" ry="4.6875" fill="#898AA3"/>
<ellipse cx="38.8125" cy="804.438" rx="4.0625" ry="4.0625" fill="#898AA3"/>
<ellipse cx="94.6875" cy="798.688" rx="4.6875" ry="4.6875" fill="#898AA3"/>
<ellipse cx="196.188" cy="795.688" rx="4.6875" ry="4.6875" fill="#998AA3"/>
<ellipse cx="161.312" cy="798.688" rx="4.6875" ry="4.6875" fill="#998AA3"/>
<ellipse cx="129.562" cy="793.938" rx="4.6875" ry="4.6875" fill="#898AA3"/>
<ellipse cx="137.812" cy="769.188" rx="5.4375" ry="5.4375" fill="#998AA3"/>
<ellipse cx="130" cy="604.75" rx="7.5" ry="7.5" fill="#CECECE"/>
<ellipse cx="222.25" cy="777.125" rx="7.5" ry="7.5" fill="#CECECE"/>
<ellipse cx="99.25" cy="629.75" rx="7.5" ry="7.5" fill="#998AA3"/>
<ellipse cx="186" cy="732.75" rx="7.5" ry="7.5" fill="#CECECE"/>
<ellipse cx="176.75" cy="771.5" rx="5.625" ry="5.625" fill="#998AA3"/>
<ellipse cx="163.25" cy="695.125" rx="7.5" ry="7.5" fill="#CECECE"/>
<ellipse cx="155.75" cy="743.625" rx="5.625" ry="5.625" fill="#998AA3"/>
<ellipse cx="569.125" cy="680.75" rx="3.125" ry="3.125" fill="#898AA3"/>
<ellipse cx="603.125" cy="683.875" rx="3.125" ry="3.125" fill="#898AA3"/>
<ellipse cx="637.062" cy="676.062" rx="4.6875" ry="4.6875" fill="#898AA3"/>
<ellipse cx="673.125" cy="663.625" rx="6.25" ry="6.25" fill="#898AA3"/>
<ellipse cx="709.5" cy="638.5" rx="6.25" ry="6.25" fill="#898AA3"/>
<ellipse cx="753.125" cy="611.375" rx="6.25" ry="6.25" fill="#998AA3"/>
<ellipse cx="780.5" cy="579.875" rx="6.25" ry="6.25" fill="#CECECE"/>
<ellipse cx="820.75" cy="552.125" rx="7.5" ry="7.5" fill="#CECECE"/>
<ellipse cx="1232.25" cy="547.75" rx="3.125" ry="3.125" fill="#898AA3"/>
<ellipse cx="1256" cy="529.75" rx="3.125" ry="3.125" fill="#898AA3"/>
<ellipse cx="1277.69" cy="504.188" rx="4.6875" ry="4.6875" fill="#898AA3"/>
<ellipse cx="1299.38" cy="474.25" rx="6.25" ry="6.25" fill="#898AA3"/>
<ellipse cx="1325.62" cy="439" rx="6.25" ry="6.25" fill="#898AA3"/>
<ellipse cx="1338.12" cy="400.375" rx="6.25" ry="6.25" fill="#B2B3BC"/>
<ellipse cx="1350.62" cy="365" rx="6.25" ry="6.25" fill="#CECECE"/>
<ellipse cx="1364.38" cy="327.5" rx="7.5" ry="7.5" fill="#CECECE"/>
<ellipse cx="889.25" cy="568.875" rx="3.125" ry="3.125" fill="#898AA3"/>
<ellipse cx="923.25" cy="572" rx="3.125" ry="3.125" fill="#898AA3"/>
<ellipse cx="957.188" cy="564.188" rx="4.6875" ry="4.6875" fill="#898AA3"/>
<ellipse cx="993.25" cy="551.75" rx="6.25" ry="6.25" fill="#898AA3"/>
<ellipse cx="1029.62" cy="526.625" rx="6.25" ry="6.25" fill="#998AA3"/>
<ellipse cx="1073.25" cy="499.5" rx="6.25" ry="6.25" fill="#B2B3BC"/>
<ellipse cx="1100.62" cy="468" rx="6.25" ry="6.25" fill="#CECECE"/>
<ellipse cx="1140.88" cy="440.25" rx="7.5" ry="7.5" fill="#CECECE"/>
<ellipse cx="955.625" cy="677" rx="3.125" ry="3.125" fill="#898AA3"/>
<ellipse cx="993.188" cy="673.812" rx="4.6875" ry="4.6875" fill="#898AA3"/>
<ellipse cx="1024" cy="659" rx="6.25" ry="6.25" fill="#898AA3"/>
<ellipse cx="1062.25" cy="633" rx="6.25" ry="6.25" fill="#898AA3"/>
<ellipse cx="1085.75" cy="591.625" rx="6.25" ry="6.25" fill="#898AA3"/>
<ellipse cx="1106.88" cy="551.75" rx="6.25" ry="6.25" fill="#B2B3BC"/>
<ellipse cx="1125.62" cy="520.375" rx="6.25" ry="6.25" fill="#F7F7F7"/>
<ellipse cx="1145.25" cy="481.125" rx="6.875" ry="6.875" fill="#F7F7F7"/>
<path d="M1102.62 91.625C1102.62 93.6961 1100.95 95.375 1098.87 95.375C1096.8 95.375 1095.12 93.6961 1095.12 91.625C1095.12 89.5539 1096.8 87.875 1098.87 87.875C1100.95 87.875 1102.62 89.5539 1102.62 91.625Z" fill="#F7F7F7"/>
<path d="M972.25 119.625C972.25 121.696 970.571 123.375 968.5 123.375C966.429 123.375 964.75 121.696 964.75 119.625C964.75 117.554 966.429 115.875 968.5 115.875C970.571 115.875 972.25 117.554 972.25 119.625Z" fill="#F7F7F7"/>
<path d="M912.625 138.25C912.625 140.321 910.946 142 908.875 142C906.804 142 905.125 140.321 905.125 138.25C905.125 136.179 906.804 134.5 908.875 134.5C910.946 134.5 912.625 136.179 912.625 138.25Z" fill="#F7F7F7"/>
<path d="M1028.5 109C1028.5 111.071 1026.82 112.75 1024.75 112.75C1022.68 112.75 1021 111.071 1021 109C1021 106.929 1022.68 105.25 1024.75 105.25C1026.82 105.25 1028.5 106.929 1028.5 109Z" fill="#F7F7F7"/>
<path d="M1165 36.25C1165 38.3211 1163.32 40 1161.25 40C1159.18 40 1157.5 38.3211 1157.5 36.25C1157.5 34.1789 1159.18 32.5 1161.25 32.5C1163.32 32.5 1165 34.1789 1165 36.25Z" fill="#F7F7F7"/>
<defs>
<filter id="filter0_d" x="152.625" y="0.183289" width="1279.88" height="761.891" filterUnits="userSpaceOnUse" color-interpolation-filters="sRGB">
<feFlood flood-opacity="0" result="BackgroundImageFix"/>
<feColorMatrix in="SourceAlpha" type="matrix" values="0 0 0 0 0 0 0 0 0 0 0 0 0 0 0 0 0 0 127 0"/>
<feOffset dy="4"/>
<feGaussianBlur stdDeviation="2"/>
<feColorMatrix type="matrix" values="0 0 0 0 0 0 0 0 0 0 0 0 0 0 0 0 0 0 0.25 0"/>
<feBlend mode="normal" in2="BackgroundImageFix" result="effect1_dropShadow"/>
<feBlend mode="normal" in="SourceGraphic" in2="effect1_dropShadow" result="shape"/>
</filter>
<filter id="filter1_d" x="978.375" y="207.375" width="20.5" height="20.5" filterUnits="userSpaceOnUse" color-interpolation-filters="sRGB">
<feFlood flood-opacity="0" result="BackgroundImageFix"/>
<feColorMatrix in="SourceAlpha" type="matrix" values="0 0 0 0 0 0 0 0 0 0 0 0 0 0 0 0 0 0 127 0"/>
<feOffset dy="4"/>
<feGaussianBlur stdDeviation="2"/>
<feColorMatrix type="matrix" values="0 0 0 0 0 0 0 0 0 0 0 0 0 0 0 0 0 0 0.25 0"/>
<feBlend mode="normal" in2="BackgroundImageFix" result="effect1_dropShadow"/>
<feBlend mode="normal" in="SourceGraphic" in2="effect1_dropShadow" result="shape"/>
</filter>
<filter id="filter2_d" x="945.875" y="228" width="20.5" height="20.5" filterUnits="userSpaceOnUse" color-interpolation-filters="sRGB">
<feFlood flood-opacity="0" result="BackgroundImageFix"/>
<feColorMatrix in="SourceAlpha" type="matrix" values="0 0 0 0 0 0 0 0 0 0 0 0 0 0 0 0 0 0 127 0"/>
<feOffset dy="4"/>
<feGaussianBlur stdDeviation="2"/>
<feColorMatrix type="matrix" values="0 0 0 0 0 0 0 0 0 0 0 0 0 0 0 0 0 0 0.25 0"/>
<feBlend mode="normal" in2="BackgroundImageFix" result="effect1_dropShadow"/>
<feBlend mode="normal" in="SourceGraphic" in2="effect1_dropShadow" result="shape"/>
</filter>
</defs>
</svg>
