<svg width="719" height="476" viewBox="0 0 719 476" fill="none" xmlns="http://www.w3.org/2000/svg">
<path d="M369.375 209.845L379.594 227.001L393.125 219.032L369.375 209.845Z" fill="#D4388B"/>
<path d="M394.562 200.595L386.687 209.689L371.5 197.22L394.562 200.595Z" fill="#D4388B"/>
<path d="M461.125 209.376L467.375 216.345L456.844 217.032L461.125 209.376Z" fill="#C84A9D"/>
<path d="M138.562 311.439L182.469 294.72L141.687 264.064L138.562 311.439Z" fill="#3A214E"/>
<path d="M183.937 293.22L177.406 266.064L148.719 274.595L183.937 293.22Z" fill="#542A6C"/>
<path d="M142.969 247.751L148.625 277.283L123 274.689L142.969 247.751Z" fill="#6A3787"/>
<path d="M159.906 338.533L187.719 312.47L121.688 302.47L159.906 338.533Z" fill="#7D4AAB"/>
<path d="M135.438 367.658L185.562 332.314L143.75 338.283L135.438 367.658Z" fill="#9A57A3"/>
<path d="M117.813 302.033L99.6563 353.033L144.281 344.783L117.813 302.033Z" fill="#542A6C"/>
<path d="M383.15 199.564L374.469 216.095L389.094 215.657L383.15 199.564Z" fill="#883685"/>
<path d="M379.906 221.564L393.125 234.97L394.344 221.564H379.906Z" fill="#A3327C"/>
<path d="M370.094 219.939L386.062 200.782L347.125 193.751L370.094 219.939Z" fill="#A3327C"/>
<path d="M368.781 185.782L390.719 198.126L367.438 203.689L368.781 185.782Z" fill="#883685"/>
<path d="M186.875 263.501L206.094 302.22L169.344 291.97L186.875 263.501Z" fill="#8A4DA7"/>
<path d="M160.5 296.939L207 293.439L181.094 333.377L160.5 296.939Z" fill="#6A3787"/>
<path d="M544.094 136.376L536.594 161.876L520.469 153.845L544.094 136.376Z" fill="#883685"/>
<path d="M516.562 155.126L504.406 176.157L496.031 155.126H516.562Z" fill="#D4388B"/>
<path d="M469.062 201.814L460.188 212.095L465.219 215.407L469.062 201.814Z" fill="#A3327C"/>
<path d="M444.281 188.688L447.562 199.032L452.531 188.688H444.281Z" fill="#883685"/>
<path d="M145.469 268.314L160.281 238.908L194.5 268.314L145.469 268.314Z" fill="#6A3787"/>
<path d="M88.625 297.752L81.0938 312.845L117.812 308.814L88.625 297.752Z" fill="#492666"/>
<path d="M519.156 92.0317L552.875 75.8754V108.657L519.156 92.0317Z" fill="#67236D"/>
<path d="M519.687 172.813L513.969 189.688L497.875 181.376L519.687 172.813Z" fill="#D4388B"/>
<path d="M559.687 139.813L554.25 153.845L526.188 141.594L559.687 139.813Z" fill="#7D4AAB"/>
<path d="M271.844 255.939L284.031 258.47L269.75 275.689L271.844 255.939Z" fill="#73328A"/>
<path d="M286.375 254.126L269.5 261.908L279.875 245.533L286.375 254.126Z" fill="#9A57A3"/>
<path d="M259.031 215.689L277.656 239.47L229.5 240.876L259.031 215.689Z" fill="#8A4DA7"/>
<path d="M483.562 97.4693L498.156 100.313V119.157L483.562 97.4693Z" fill="#67236D"/>
<path d="M397.062 174.876L393.687 149.688L363.156 181.47L397.062 174.876Z" fill="#67236D"/>
<path d="M473.344 153.688L455.875 164.407L442.188 131.626L473.344 153.688Z" fill="#7D4AAB"/>
<path d="M487.344 162.563L500.937 177.407L470.156 164.595L487.344 162.563Z" fill="#7D4AAB"/>
<path d="M534.656 172.72L519.656 162.407L547.625 157.72L534.656 172.72Z" fill="#A3327C"/>
<path d="M390.562 104.469L422.531 134.094L354.938 129.813L390.562 104.469Z" fill="#743C94"/>
<path d="M147.219 305.033L116.281 275.376L110.75 312.564L147.219 305.033Z" fill="#6A3787"/>
<path d="M458.375 134.594L497.594 121.876L456.812 109.157L458.375 134.594Z" fill="#8B4EAD"/>
<path d="M166.062 318.627L147.719 343.252L125.344 318.627H166.062Z" fill="#6A3787"/>
<path d="M424.219 138.032L427.969 157.22L392.906 141.094L424.219 138.032Z" fill="#9A57A3"/>
<path d="M602.563 188.657L592.438 211.501L607.75 193.595L602.563 188.657Z" fill="#C84A9D"/>
<path d="M615.469 182.22L609.688 184.199L616.438 167.157L615.469 182.22Z" fill="#883685"/>
<path d="M363.812 190.313L349.094 203.532L362.625 227.001L363.812 190.313Z" fill="#7D4AAB"/>
<path d="M400.9 215.939L390.688 234.001L404.687 230.351L400.9 215.939Z" fill="#883685"/>
<path d="M432.25 100.157L493.344 84.5942L445.75 81.0004L432.25 100.157Z" fill="#743C94"/>
<path d="M483.469 120.063L456.656 81.4379L488.375 75.7504L483.469 120.063Z" fill="#69307D"/>
<path d="M597.531 43.9377L591.344 30.4377L573.75 34.7189L597.531 43.9377Z" fill="#6D2367"/>
<path d="M467.968 144.594L446.937 140.594L454.843 118.844L467.968 144.594Z" fill="#743C94"/>
<path d="M278.844 243.533L244.656 244.408L225.312 267.595L278.844 243.533Z" fill="#8B4EAD"/>
<path d="M310.75 229.282L305.781 245.876L303.891 233.376L310.75 229.282Z" fill="#8B4EAD"/>
<path d="M418.625 186.563L450.594 174.876L434.719 152.532L418.625 186.563Z" fill="#7D4AAB"/>
<path d="M241.187 239.814L227.469 267.095L201.781 211.001L241.187 239.814Z" fill="#6A3787"/>
<path d="M271.312 162.657L255.875 222.876L228.5 200.876L271.312 162.657Z" fill="#6A3787"/>
<path d="M326.875 162.345L355.344 130.657L301.062 143.845L326.875 162.345Z" fill="#743C94"/>
<path d="M469.531 193.751L467.312 213.001L462.594 200.314L469.531 193.751Z" fill="#D4388B"/>
<path d="M459.312 204.939L458.187 226.97L449.969 207.439L459.312 204.939Z" fill="#D4388B"/>
<path d="M551.219 101.969L547.781 142.094L537.938 118.063L551.219 101.969Z" fill="#D4388B"/>
<path d="M556.062 46.0002L574.781 64.9691L539.438 57.969L556.062 46.0002Z" fill="#883685"/>
<path d="M308.272 166.407L303.531 200.407L270 169.688L308.272 166.407Z" fill="#9A57A3"/>
<path d="M383.687 131.563L364.812 155.345L333.406 145.47L383.687 131.563Z" fill="#9A57A3"/>
<path d="M248.25 200.407L242.281 247.814L224.312 213.689L248.25 200.407Z" fill="#9A57A3"/>
<path d="M340.344 188.782L325.25 216.845L312.281 200.407L340.344 188.782Z" fill="#9A57A3"/>
<path d="M322.656 128.688L359.156 155.376L320.062 172.938L322.656 128.688Z" fill="#67236D"/>
<path d="M698.844 118.563L689.062 137.657L696.125 116.313L698.844 118.563Z" fill="#D4388B"/>
<path d="M307.594 152.126L332.781 188.563L280.125 173.032L307.594 152.126Z" fill="#743C94"/>
<path d="M445.375 181.532L446.156 206.314L436 184.001L445.375 181.532Z" fill="#C84A9D"/>
<path d="M433 247.439L426.062 263.533L422 253.314L433 247.439Z" fill="#C84A9D"/>
<path d="M454.344 218.407L455.531 232.407L448.188 218.407H454.344Z" fill="#C84A9D"/>
<path d="M115.281 300.627L106.75 281.158L78.5312 300.627H115.281Z" fill="#542D6A"/>
<path d="M445.312 228.939L432.344 241.689L444.062 236.283L445.312 228.939Z" fill="#C84A9D"/>
<path d="M456.156 233.595L439.5 247.939L451.625 229.251L456.156 233.595Z" fill="#C84A9D"/>
<path d="M471.094 236.876L456.625 246.22L462.344 236.032L471.094 236.876Z" fill="#C84A9D"/>
<path d="M467.062 223.345L460.625 235.532L457.438 221.22L467.062 223.345Z" fill="#C84A9D"/>
<path d="M252.094 262.189L264.969 264.626L248.688 279.689L252.094 262.189Z" fill="#9A57A3"/>
<path d="M246.687 274.501L254.594 276.251L225.469 302.47L246.687 274.501Z" fill="#883685"/>
<path d="M268.812 257.876L281.844 247.001L266.719 244.814L268.812 257.876Z" fill="#7D4AAB"/>
<path d="M239.75 265.283L257.594 267.939L247.5 256.501L239.75 265.283Z" fill="#7D4AAB"/>
<path d="M295.562 233.751L306.656 234.907L295.562 254.564V233.751Z" fill="#9A57A3"/>
<path d="M279.698 239.876L274.875 227.626H313.562L279.698 239.876Z" fill="#7D4AAB"/>
<path d="M336.906 169.251L333.531 208.064L298.281 174.626L336.906 169.251Z" fill="#73328A"/>
<path d="M412.781 131.563L393.906 155.345L362.5 145.47L412.781 131.563Z" fill="#73328A"/>
<path d="M283.469 189.438L271.687 243.439L253.406 213.689L283.469 189.438Z" fill="#73328A"/>
<path d="M303 257.251L297.437 249.876L293.781 263.689L303 257.251Z" fill="#7D4AAB"/>
<path d="M293.656 262.189L297.656 264.189L278.875 280.033L293.656 262.189Z" fill="#883685"/>
<path d="M269.406 271.689L274.031 275.251L256 287.752L269.406 271.689Z" fill="#883685"/>
<path d="M325.219 188.563L306.12 222.517H266.438L325.219 188.563Z" fill="#7D4AAB"/>
<path d="M486.437 172.095L499.437 181.282L482.468 185.345L486.437 172.095Z" fill="#C84A9D"/>
<path d="M529.031 159.282L507.968 178.188L510.593 159.282H529.031Z" fill="#C84A9D"/>
<path d="M538.875 152.563L538.093 172.095L560.124 144.438L538.875 152.563Z" fill="#C84A9D"/>
<path d="M529.031 176.001L512.687 187.72H522.625L529.031 176.001Z" fill="#C84A9D"/>
<path d="M452.344 177.188V195.814L444.781 178.595L452.344 177.188Z" fill="#D4388B"/>
<path d="M307.5 240.876L299.438 243.251L301.5 258.158L307.5 240.876Z" fill="#883685"/>
<path d="M471.344 179.626L468.5 190.751L466.062 173.751L471.344 179.626Z" fill="#D4388B"/>
<path d="M425.312 205.97L411.281 215.345L403.938 205.97H425.312Z" fill="#A3327C"/>
<path d="M422.75 207.157L432.844 213.751L414.031 215.126L422.75 207.157Z" fill="#C84A9D"/>
<path d="M401.562 239.876L403.75 227.876L380.344 234.501L401.562 239.876Z" fill="#D4388B"/>
<path d="M449.562 223.751V238.876L443.219 229.407L449.562 223.751Z" fill="#D4388B"/>
<path d="M443.125 243.689L427.969 254.033L431.375 242.126L443.125 243.689Z" fill="#D4388B"/>
<path d="M451.031 248.126L435.875 258.47L439.281 246.564L451.031 248.126Z" fill="#D4388B"/>
<path d="M464.969 238.689L449.812 249.033L453.219 237.126L464.969 238.689Z" fill="#D4388B"/>
<path d="M468.844 229.626V240.595L457.312 229.626H468.844Z" fill="#D4388B"/>
<path d="M336.062 209.814L294.969 214.47L277.125 242.408L336.062 209.814Z" fill="#8863AA"/>
<path d="M218.281 234.064L266.219 156.313L198.75 206.032L218.281 234.064Z" fill="#492666"/>
<path d="M390.687 178.563L349.594 183.22L334.875 209.407L390.687 178.563Z" fill="#8863AA"/>
<path d="M440.719 158.438L404.062 149.407L399.125 172.813L440.719 158.438Z" fill="#883685"/>
<path d="M432.781 180.688L404.719 167.188L402.625 187.188L432.781 180.688Z" fill="#883685"/>
<path d="M447.906 172.532V182.751L426.531 184.876L447.906 172.532Z" fill="#883685"/>
<path d="M428.062 188.407L438.594 194.845L437.344 186.376L428.062 188.407Z" fill="#883685"/>
<path d="M468.719 166.563L461.656 177.126L452.688 172.563L468.719 166.563Z" fill="#883685"/>
<path d="M588.531 58.0315L594.844 45.0703L572.281 36.1877L588.531 58.0315Z" fill="#542A6C"/>
<path d="M552.687 51.969V70.4379L509.125 57.1253L552.687 51.969Z" fill="#542A6C"/>
<path d="M599.875 38.9064L595.312 25.6408L581.688 20.6251L599.875 38.9064Z" fill="#542A6C"/>
<path d="M604.906 67.1566H586.625L592.969 61.2816L604.906 67.1566Z" fill="#743C94"/>
<path d="M562.406 81.7192L532.156 61.5316L502.531 75.8754L562.406 81.7192Z" fill="#743C94"/>
<path d="M580.437 84.2504L571.125 69.0629L563.594 81.8754L580.437 84.2504Z" fill="#743C94"/>
<path d="M387.344 153.001L369.906 183.813H329.062L387.344 153.001Z" fill="#7D4AAB"/>
<path d="M448.938 73.6254L487.594 60.1566L467.156 86.6567L448.938 73.6254Z" fill="#542A6C"/>
<path d="M484.219 91.063L535.75 66.9066L508.25 109.219L484.219 91.063Z" fill="#3A214E"/>
<path d="M454 152.501L483.969 118.313L508.687 134.469L454 152.501Z" fill="#542A6C"/>
<path d="M416.031 82.3754L435.437 153.282L402.781 118.501L416.031 82.3754Z" fill="#67236D"/>
<path d="M551.25 128.626L565.812 132.094L536.938 140.063L551.25 128.626Z" fill="#542A6C"/>
<path d="M612.688 89.9067L639.705 98.7505L635.312 89.9067H612.688Z" fill="#D4388B"/>
<path d="M582.312 73.2816L608.031 85.5004L592.187 88.0942L582.312 73.2816Z" fill="#D4388B"/>
<path d="M517.625 133.563L539.688 137.969L512.375 162.47L517.625 133.563Z" fill="#A3327C"/>
<path d="M518.906 147.063L473.281 169.282L508.25 135.844L518.906 147.063Z" fill="#542A6C"/>
<path d="M470.062 164.22L455.781 173.313L457.594 159.813L470.062 164.22Z" fill="#542A6C"/>
<path d="M496.312 134.344L551.812 111.907L515 107.313L496.312 134.344Z" fill="#883685"/>
<path d="M465 166.407L515.75 141.907L478.687 139.313L465 166.407Z" fill="#883685"/>
<path d="M494.75 126.563L543.656 92.0005L518.125 76.1879L494.75 126.563Z" fill="#743C94"/>
<path d="M583.969 80.2192L576.906 65.1878L572.844 74.8129L583.969 80.2192Z" fill="#A3327C"/>
<path d="M477.218 63.0941L530.718 53.6565L505.781 79.3754L477.218 63.0941Z" fill="#73328A"/>
<path d="M432.125 103.563L454.687 142.563L447.656 157.251L432.125 103.563Z" fill="#542A6C"/>
<path d="M552.937 130.719L579.406 110.688L551.125 98.7505L552.937 130.719Z" fill="#883685"/>
<path d="M571.031 83.5317L589.844 97.188L582.312 82.3442L571.031 83.5317Z" fill="#A3327C"/>
<path d="M565.156 73.5629L587.5 88.6255L590.625 81.0942L565.156 73.5629Z" fill="#883685"/>
<path d="M634.281 93.6255L649.75 94.6255L667.281 111.907L634.281 93.6255Z" fill="#883685"/>
<path d="M659.312 97.0318L681.594 110.251L685.687 101.063L659.312 97.0318Z" fill="#883685"/>
<path d="M679 114.938L690.437 113.001L697.062 122.532L679 114.938Z" fill="#A3327C"/>
<path d="M588.781 75.1254L613.031 82.6879L617.5 94.2192L588.781 75.1254Z" fill="#883685"/>
<path d="M594.875 69.4066L570.563 70.0316L582.313 63.0941L594.875 69.4066Z" fill="#883685"/>
<path d="M448.438 135.844L436.719 102.751L453.281 89.8442L448.438 135.844Z" fill="#67236D"/>
<path d="M447.281 111.813L498.719 117.376L461.875 92.3755L447.281 111.813Z" fill="#743C94"/>
<path d="M427.562 78.1254L448.937 71.9691L435.687 98.8755L427.562 78.1254Z" fill="#542A6C"/>
<path d="M370.781 149.688L362.719 169.907L335.5 162.657L370.781 149.688Z" fill="#73328A"/>
<path d="M580.937 19.3126L591.75 27.6251L570.812 24.0001L580.937 19.3126Z" fill="#3A214E"/>
<path d="M176.156 248.345L169.719 220.876L132.312 254.626L176.156 248.345Z" fill="#492666"/>
<path d="M393.813 150.313L400.281 172.97H435.847L393.813 150.313Z" fill="#7D4AAB"/>
<path d="M442.468 180.813L448.781 186.688L444.281 193.595L442.468 180.813Z" fill="#A3327C"/>
<path d="M445.938 214.407L426.094 205.814L431.5 215.876L445.938 214.407Z" fill="#A3327C"/>
<path d="M449.563 193.126L446.25 206.251L454.89 206.876L449.563 193.126Z" fill="#A3327C"/>
<path d="M455.25 175.095L468.468 173.595L462.156 186.376L455.25 175.095Z" fill="#A3327C"/>
<path d="M463.969 186.407L467.594 193.439L460.531 204.564L463.969 186.407Z" fill="#A3327C"/>
<path d="M485.219 191.376L514.625 187.751L491.625 179.813L485.219 191.376Z" fill="#A3327C"/>
<path d="M527.719 181.282L512.812 175.522L526.812 171.813L527.719 181.282Z" fill="#A3327C"/>
<path d="M601.937 194.782L588.125 203.814L603.844 186.063L601.937 194.782Z" fill="#A3327C"/>
<path d="M488.312 175.563L504.562 180.376L497.093 155.657L488.312 175.563Z" fill="#A3327C"/>
<path d="M560.219 136.219L549.25 145.97L534.938 131.688L560.219 136.219Z" fill="#A3327C"/>
<path d="M576.688 120.969L557.938 132.063L537.969 118.719L576.688 120.969Z" fill="#A3327C"/>
<path d="M537.094 97.7193L562.781 116.501L526.531 107.594L537.094 97.7193Z" fill="#A3327C"/>
<path d="M461.156 198.501L464.5 206.189L456.969 212.345L461.156 198.501Z" fill="#C84A9D"/>
<path d="M433 205.501L439.75 211.97L450.125 207.157L433 205.501Z" fill="#C84A9D"/>
<path d="M373 240.064V227.907L397.656 244.126L373 240.064Z" fill="#C84A9D"/>
<path d="M458.719 212.189L450.625 218.782L442.25 208.782L458.719 212.189Z" fill="#A3327C"/>
<path d="M445.5 214.814L446.688 225.032L455.031 229.251L445.5 214.814Z" fill="#A3327C"/>
<path d="M446.062 235.126L445.156 242.126H433.812L446.062 235.126Z" fill="#A3327C"/>
<path d="M436.156 255.501L434.656 263.689H424.812L436.156 255.501Z" fill="#A3327C"/>
<path d="M465.906 216.626V229.689L456.437 218.282L465.906 216.626Z" fill="#A3327C"/>
<path d="M424.687 254.814L433.687 242.439L416.844 249.001L424.687 254.814Z" fill="#A3327C"/>
<path d="M446.969 249.408L453.75 239.626L440.969 244.283L446.969 249.408Z" fill="#A3327C"/>
<path d="M457.687 238.158L463.375 229.407L451.688 233.032L457.687 238.158Z" fill="#A3327C"/>
<path d="M571.125 24.4376L585.937 38.7502L562.438 43.7502L571.125 24.4376Z" fill="#3A214E"/>
<path d="M399.594 235.251L408.625 254.376L393.75 241.564L399.594 235.251Z" fill="#A3327C"/>
<path d="M575.625 35.6877L601.687 38.1877L595.625 48.469L575.625 35.6877Z" fill="#542A6C"/>
<path d="M477.719 79.1254L505.781 59.3753L508.375 86.3754L477.719 79.1254Z" fill="#542A6C"/>
<path d="M286.972 218.189L303.566 195.314L259.625 171.563L286.972 218.189Z" fill="#743C94"/>
<path d="M356.094 218.189L380.937 226.064L374.906 234.532L356.094 218.189Z" fill="#A3327C"/>
<path d="M106.844 374.658L122.187 341.158L146.875 361.689L106.844 374.658Z" fill="#743C94"/>
<path d="M411.5 108.876V85.7817L379 99.6255L411.5 108.876Z" fill="#73328A"/>
<path d="M284.562 179.876L334.656 120.376L265.438 156.938L284.562 179.876Z" fill="#542A6C"/>
<path d="M352.687 148.813L405.312 88.6567L333.938 120.063L352.687 148.813Z" fill="#542A6C"/>
<path d="M252.344 280.626L258.75 270.876L247.25 271.997L252.344 280.626Z" fill="#73328A"/>
<path d="M108.75 337.721L107.594 307.127L88.625 330.439L108.75 337.721Z" fill="#743C94"/>
<path d="M391.344 198.689L403.781 221.751L387.781 209.657L391.344 198.689Z" fill="#A3327C"/>
<path d="M661.75 45.7815L644.75 48.7503L654.562 52.1878L661.75 45.7815Z" fill="#883685"/>
<path d="M636.375 53.6253L647.437 48.219L652.906 52.4378L636.375 53.6253Z" fill="#67236D"/>
<path d="M646.812 51.8128H636.188V56.969L646.812 51.8128Z" fill="#743C94"/>
<path d="M701.406 25.5001L687.719 33.6564H695.906L701.406 25.5001Z" fill="#883685"/>
<path d="M708.906 39.1877L692.219 40.219L703.062 45.7815L708.906 39.1877Z" fill="#883685"/>
<path d="M702.312 16.0313L683.625 7.59379L691.312 4.75002L702.312 16.0313Z" fill="#883685"/>
<path d="M711.469 15.5626L703.969 18.2813L708.031 27.5939L711.469 15.5626Z" fill="#883685"/>
<path d="M677.875 38.2189L688.625 32.0939L692.656 35.1252L677.875 38.2189Z" fill="#67236D"/>
<path d="M688.312 37.3752H677.688V42.5315L688.312 37.3752Z" fill="#743C94"/>
<path d="M638.625 52.4378L621.625 55.4065L631.437 58.8441L638.625 52.4378Z" fill="#883685"/>
<path d="M613.25 60.2816L624.312 54.8753L629.781 59.0941L613.25 60.2816Z" fill="#67236D"/>
<path d="M620.75 60.7191L610.219 57.9065L604.438 65.2191L620.75 60.7191Z" fill="#883685"/>
<path d="M671.781 40.094L659.438 47.3752H669.062L671.781 40.094Z" fill="#883685"/>
<path d="M691.937 39.469L673.125 41.2815L677.781 46.2502L691.937 39.469Z" fill="#883685"/>
<path d="M651.688 49.094L662.75 43.6877L668.219 47.9065L651.688 49.094Z" fill="#67236D"/>
<path d="M574.5 107.773L580.031 105.876L590.219 118.398L574.5 107.773Z" fill="#743C94"/>
<path d="M678.531 37.0081L668.906 42.7268L675.094 46.0081L678.531 37.0081Z" fill="#67236D"/>
<path d="M593.938 67.3754L606.062 59.1878L611.906 64.0941L593.938 67.3754Z" fill="#67236D"/>
<path d="M461.844 179.813L470.969 185.188L468.344 196.345L461.844 179.813Z" fill="#C84A9D"/>
<path d="M625.625 57.5315L614.219 56.7503L618.594 62.1253L625.625 57.5315Z" fill="#743C94"/>
<path d="M583.752 50.2561L588.656 60.5003L563.062 55.6253L583.752 50.2561Z" fill="#3A214E"/>
<path d="M582.594 107.032L571.688 118.251L560.781 97.438L582.594 107.032Z" fill="#67236D"/>
<path d="M556.25 104.032L569.812 96.9693L548.625 84.0004L556.25 104.032Z" fill="#743C94"/>
<path d="M560.187 81.2817L584.281 56.6565L539.531 61.6253L560.187 81.2817Z" fill="#6D2367"/>
<path d="M688.812 110.719L664.906 129.938L681.031 110.719H688.812Z" fill="#D4388B"/>
<path d="M666.25 111.251L671.844 106.376L684.312 118.844L666.25 111.251Z" fill="#A3327C"/>
<path d="M681.719 108.532L656.438 126.844L673.937 108.532H681.719Z" fill="#D4388B"/>
<path d="M652.469 99.8755L658.062 95.0005L670.531 107.469L652.469 99.8755Z" fill="#A3327C"/>
<path d="M691.781 6.40628L676.438 13.7501L687.125 2.03125L691.781 6.40628Z" fill="#D4388B"/>
<path d="M709.687 24.4376L694.625 32.0627L705.312 20.3751L709.687 24.4376Z" fill="#D4388B"/>
<path d="M694.938 13.4688L709.375 16.7813L694.938 6.40628V13.4688Z" fill="#D4388B"/>
<path d="M712.531 41.4377L706.969 50.9065L704.094 39.4689L712.531 41.4377Z" fill="#D4388B"/>
<path d="M700.938 43.2502L687.281 38.8752L685.625 46.094L700.938 43.2502Z" fill="#67236D"/>
<path d="M656.438 104.094L680.299 106.376L684.299 99.813L656.438 104.094Z" fill="#D4388B"/>
<path d="M553.688 131.563L502.031 137.969L531.906 120.313L553.688 131.563Z" fill="#743C94"/>
<path d="M612.75 186.251L609.25 181.751L603.125 191.688L612.75 186.251Z" fill="#D4388B"/>
<path d="M620.687 173.876L618.094 169.251L613.125 181.282L620.687 173.876Z" fill="#D4388B"/>
<path d="M601.531 179.501L604.438 171.938L606.312 191.72L601.531 179.501Z" fill="#883685"/>
<path d="M602.375 168.438L606.75 166.126L606.75 182.563L602.375 168.438Z" fill="#A3327C"/>
<path d="M604.562 154.33L599.063 157.251V140.688L604.562 154.33Z" fill="#D4388B"/>
<path d="M600.5 164.974L605.75 169.907L603.273 150.126L600.5 164.974Z" fill="#883685"/>
<path d="M599.575 133.075L594.625 138.282L591.188 118.376L599.575 133.075Z" fill="#A3327C"/>
<path d="M594.969 124.344L590.018 127.188L582.344 111.407L594.969 124.344Z" fill="#883685"/>
<path d="M596.562 143.161L601.812 148.095L598.75 131.188L596.562 143.161Z" fill="#883685"/>
<path d="M610.062 144.251L615.375 141.938L615.375 158.376L610.062 144.251Z" fill="#A3327C"/>
<path d="M604.562 118.267L609.375 115.501L610.594 137.501L604.562 118.267Z" fill="#D4388B"/>
<path d="M609.125 138.599L614.375 143.532L611.898 123.751L609.125 138.599Z" fill="#883685"/>
<path d="M614.312 159.72L619.625 157.407L619.625 173.845L614.312 159.72Z" fill="#A3327C"/>
<path d="M616.562 147.267L611.063 150.188V133.626L616.562 147.267Z" fill="#D4388B"/>
<path d="M613.375 158.286L618.625 163.22L616.148 143.438L613.375 158.286Z" fill="#883685"/>
<path d="M603.125 107.751L600.938 112.563L585.813 96.1255L603.125 107.751Z" fill="#A3327C"/>
<path d="M581.562 88.188L597.125 99.7818L595.562 105.001L581.562 88.188Z" fill="#883685"/>
<path d="M602.5 115.313L610.25 117.813L600.781 104.844L602.5 115.313Z" fill="#883685"/>
<path d="M130.812 256.001L97.75 284.97L138 282.751L130.812 256.001Z" fill="#542A6C"/>
<g filter="url(#filter0_d)">
<path d="M674.169 46.1661H704.207L707.415 53.3367L713.775 38.9785L685.227 38.8748L707.436 28.7545L713.769 16.841L685.249 1L681.264 6.5539L681.264 6.55432L674.18 16.8806L685.262 10.5749L704.184 16.8721L700.313 25.595L674.495 38.8748M674.169 46.1661L629.861 59.6335L629.86 59.6337L604.517 66.7588M674.169 46.1661L652.002 52.8386L629.844 59.5736L629.843 59.5737L604.5 66.6986L580.781 73.011L580.784 73.0719L601.346 77.0407L625.09 87.32L625.091 87.3208L625.094 87.3214L650.406 94.4464L650.408 94.447L685.227 99.1936V108.684L700.248 118.177L685.408 146.316L693.203 122.898L681.284 118.131L658.597 136.12L674.188 118.187L674.15 118.139L650.601 130.688L668.686 113.409L650.429 103.889L650.427 103.888L650.425 103.887L625.108 94.3851H617.202L601.357 87.2592L587.853 88.8608L604.484 108.686L604.485 108.688L604.486 108.688L609.23 113.433L620 157.728L621.914 170.354L617.167 180.685M604.517 66.7588L604.508 66.7287M604.517 66.7588L580.929 73.0364L601.361 76.9799L625.11 87.2612L625.114 87.2626L650.419 94.3854L650.423 94.3862L685.289 99.1391V108.649L700.331 118.155L685.288 146.676L685.286 146.681L685.229 146.657L685.231 146.652L693.126 122.935L681.295 118.202L658.376 136.375L658.371 136.379L658.328 136.334L658.333 136.33L674.03 118.274L650.429 130.85L650.393 130.8L668.58 113.424L650.404 103.946L650.4 103.944L625.096 94.4476H617.189L601.347 87.3233L587.976 88.9093L604.53 108.644L604.532 108.646L609.28 113.394L609.286 113.4L609.288 113.408M617.167 180.685L609.285 191.777L609.284 191.779L596.629 212.371L596.626 212.375L587.934 219.472L587.886 219.436L596.527 198.982L583.184 209.192L583.14 209.147L601.321 186.999V170.385L596.572 142.706L591.824 130.837L580.791 113.477L572.094 128.47L572.088 128.474L560.227 136.371V146.677L542.033 170.404L542.03 170.409L542.025 170.412L531.748 176.753L523.814 187.03L523.808 187.038L507.2 191.792H484.988L480.224 180.698L484.96 170.415L467.64 169.637M617.167 180.685L609.233 191.742L609.232 191.743L609.232 191.744L596.578 212.334L587.992 219.344L596.677 198.789L583.36 208.978L601.376 187.03L601.383 187.022V170.383L601.383 170.38L596.633 142.693L596.632 142.689L596.631 142.686L591.881 130.811L591.88 130.808L591.878 130.806L580.788 113.356L572.047 128.426L560.183 136.325L538.027 142.669L531.714 146.638L531.71 146.64L515.089 154.545L515.082 154.548L507.178 164.827L485.005 170.354L467.564 169.571M471.602 191.755L471.603 191.761L471.601 191.767M375.809 186.979L371.341 169.531L364.72 128.434L362.339 103.888M375.809 186.979L348.102 208.386M375.809 186.979L394.844 200.72L403.937 219.479L405.312 236.115L401.973 240.439L406.308 245.355L410.632 257.448L398.027 246.398L371.341 241.908M397.961 177.477L389.946 136.326L385.277 94.3876M397.961 177.477L418.602 157.735M397.961 177.477L375.833 187.042M397.961 177.477L402.594 188.626H426.281M426.281 188.626L440.937 180.698L452.812 174.657M426.281 188.626L439.656 196.751L442.875 205.261M452.812 174.657L467.564 169.571M452.812 174.657L418.602 157.735M452.812 174.657L462.827 188.626L458.102 205.229L454.146 205.219M452.812 174.657L454.146 205.219M452.812 174.657L455 165.032M467.572 215.604L471.539 191.76V180.698L467.564 169.571M467.572 215.604V223.292L471.603 239.423L448.406 251.314L439.545 257.14L432.367 267.189L421.125 262.97L423.724 257.14M467.572 215.604L460.25 215.878L454.146 216.19L458.102 234.72L432.365 253.693L423.724 257.14M467.564 169.571L462.719 164.595L455 165.032M674.495 38.8748L629.862 53.2896L629.86 53.2901L601.359 59.6341L601.358 59.6343L577.61 63.5713L577.607 63.572L577.594 63.511M674.495 38.8748L629.845 53.2294L629.842 53.2301L601.347 59.5728L601.345 59.5731L578.182 63.4133L591.876 59.6294L596.63 46.1489L601.387 39.0141L596.631 25.5618L596.627 25.5492L580.788 18.4122L568.102 25.5539V34.2503M577.594 63.511L577.597 63.5103M577.594 63.511L563.383 56.4161L560.212 46.1661M577.597 63.5103L591.828 59.5779L596.573 46.1244L596.574 46.1207M577.597 63.5103L560.165 76.9799L541.996 53.2286M596.574 46.1207L601.317 39.0054L596.577 25.5952L580.791 18.4822L568.165 25.5905V34.2692L568.159 34.2771L560.212 46.1661M596.574 46.1207L583.36 34.2771L568.102 34.2503M560.212 46.1661H549.927L542.029 53.2831L542.02 53.2911H523.79M523.79 53.2911L485.017 59.6337L485.013 59.6345L420.133 80.3537M523.79 53.2911L541.996 53.2286M523.79 53.2911L504.394 56.4009L485.001 59.5731L485 59.5736M420.133 80.3537L424.867 115.541L435.196 145.198M420.133 80.3537L401.904 87.2619M401.927 87.32L401.924 87.3212M401.924 87.3212L385.302 94.445L362.365 103.945L362.364 103.945L332.304 118.194L332.303 118.195M401.924 87.3212L405.122 107.877L409.915 128.434L418.602 157.735M332.303 118.195L297.461 136.381L297.46 136.382L265.025 154.599L265.024 154.6M332.303 118.195L336.977 164.899L348.102 208.386M332.303 118.195L362.34 103.888M265.024 154.6L230.994 176.755L230.994 176.756L230.993 176.756M265.024 154.6C267.654 172.92 269.128 183.191 271.758 201.511L279.258 244.011M230.993 176.756L214.335 190.988M230.993 176.756L235.383 201.511L244.477 235.105L249.977 257.448M214.335 190.988L197.763 205.236M214.335 190.988L197.708 205.204M214.335 190.988L197.71 205.273L210.944 239.448L225.781 272.126L237.693 264.57M214.335 190.988L230.96 176.703L230.961 176.702L264.991 154.547L264.992 154.546L264.993 154.546L297.431 136.327M297.431 136.327L297.431 136.326L332.275 118.139L332.276 118.138L332.276 118.138L362.339 103.888M297.431 136.327L304.165 182.136L308.133 203.636L314.071 225.792M362.339 103.888L362.339 103.888L362.34 103.888M362.34 103.888L385.277 94.3876M385.277 94.3876L401.904 87.2619M385.277 94.3876L401.905 87.2614L401.904 87.2619M541.996 53.2286L549.894 46.1116L549.903 46.1036M560.179 46.1036L568.102 34.2503M442.875 205.261H401.973L409.594 215.604L423.724 215.878L433.594 216.19L443.844 216.532L445.437 227.001L430.028 243.332L414.216 248.512L423.724 257.14M442.875 205.261L454.146 205.219M249.977 257.448L279.258 244.011M249.977 257.448L237.693 264.57M249.977 257.448L260.187 261.251L265.719 264.126L254.727 278.824L219.469 308.252L249.437 269.22L237.693 264.57M279.258 244.011L294.346 236.115M279.258 244.011L287.165 251.917L284.937 259.039L273.562 276.47L253.094 290.064L268.977 271.692V257.448L264.991 250.367M314.071 225.792L348.102 208.386M314.071 225.792L309.321 237.667L302.196 260.603L272.915 285.949L294.346 260.606V236.115M314.071 225.792L294.346 236.115M348.102 208.386L350.281 209.97L356.531 215.126M418.602 157.735L435.196 145.198M353.469 223.157L371.594 232.501M435.196 145.198L440.564 157.735L447.437 158.938L455 165.032M206.875 304.658L176.362 344.487L126.125 375.512L101.531 377.189L111.625 357.627L92.6562 355.002L104.719 336.502L85.1562 331.564L95.1334 317.355L78.625 313.564V297.627L118.227 264.57L142.946 240.649L169.227 219.429L210.944 298.158L206.875 304.658ZM538.052 142.727L560.165 136.396V146.656L541.987 170.362L531.718 176.698H523.806L519.076 169.603L531.75 146.689L538.052 142.727ZM531.663 176.761L523.771 186.983L507.216 191.722L502.479 176.731L507.223 164.87L515.122 154.598L531.653 146.737L519.003 169.606L523.773 176.761H531.663ZM502.416 176.739L507.153 191.729H485.029L480.293 180.698L485.03 170.412L507.144 164.899L502.413 176.728L502.416 176.739ZM554.665 87.2592L572.094 94.3851L568.165 99.1391L580.781 103.887L583.36 108.688L596.677 124.479L601.317 136.371L609.23 181.479L615.187 169.571L604.484 118.155L587.992 99.1391L577.61 88.9093L563.383 81.7876L554.665 87.2592Z" stroke="#8B98A9" stroke-width="0.625"/>
</g>
<path d="M420.281 205.439L423.656 216.126" stroke="#8B98A9" stroke-width="0.625"/>
<path d="M430 243.376L431.047 248.767L432.094 254.158L439.312 257.033M443.875 216.564L454.406 216.22" stroke="#8B98A9" stroke-width="0.625"/>
<path d="M294.25 236.126L309.125 238.189" stroke="#8B98A9" stroke-width="0.625"/>
<path d="M268.906 257.626L287.25 251.97" stroke="#8B98A9" stroke-width="0.625"/>
<path d="M294.219 260.783H301.969" stroke="#8B98A9" stroke-width="0.625"/>
<path d="M249.531 269.064L258.219 273.876" stroke="#8B98A9" stroke-width="0.625"/>
<path d="M248.875 269.876L259.875 261.126" stroke="#8B98A9" stroke-width="0.625"/>
<path d="M375.906 219.501L362.188 205.314V215.376L375.906 225.782V219.501Z" stroke="#8B98A9" stroke-width="0.875"/>
<path d="M388.625 210.47L382.094 212.532L396.844 221.782L388.625 210.47Z" stroke="#8B98A9" stroke-width="0.875"/>
<path d="M396.844 240.876L382.094 225.782L378.312 231.157L396.844 240.876Z" stroke="#8B98A9" stroke-width="0.875"/>
<path d="M356.125 215.001L353.625 223.751" stroke="#8B98A9" stroke-width="0.875"/>
<path d="M371.219 232.251L371.625 242.314" stroke="#8B98A9" stroke-width="0.875"/>
<path d="M555.75 46.3127L559.646 60.0427L573.812 66.4691" stroke="#8B98A9" stroke-width="0.625"/>
<path d="M583.656 34.7189L591.187 47.0002L588.437 55.8753L577.375 63.4691" stroke="#8B98A9" stroke-width="0.625"/>
<path d="M580.594 18.6251L593.25 28.5626L596.812 38.6564L593.25 43.4065" stroke="#8B98A9" stroke-width="0.625"/>
<path d="M446.281 159.251L473.656 146.751L492.781 138.251L513.312 127.063L535.406 114.438L547.5 99.938L556.312 102.594L558.844 112.876L553.781 120.376L543.469 127.063L536.625 133.782L524.906 137.626L515.844 145.595L501.969 151.407L492.781 157.313L480.469 160.813L471.781 163.72L462.656 164.595" stroke="#8B98A9" stroke-width="0.94"/>
<path d="M547.5 100.657L547.062 112.501M547.062 112.501L558.812 112.876M547.062 112.501L535.531 114.438L530.75 125.376M547.062 112.501L543.469 127.126L530.75 125.376M530.75 125.376L525.031 137.501L509.094 137.657M530.75 125.376L513.406 126.969L509.094 137.657M509.094 137.657L493.062 138.157L486.406 149.595M509.094 137.657L502.062 151.407L486.406 149.595M486.406 149.595L480.469 160.876L467.312 156.282M486.406 149.595L473.437 146.782L467.312 156.282M467.312 156.282L462.781 164.438M467.312 156.282L447.281 158.97" stroke="#8B98A9" stroke-width="0.625"/>
<path d="M428.656 78.4067L444.656 84.0004M444.656 84.0004L454.594 69.8754L472.344 75.6879M444.656 84.0004L461.406 90.813M444.656 84.0004L430.75 100.594L449.687 101.251L461.406 90.813M472.344 75.6879L484.312 60.6566L501.375 67.5003M472.344 75.6879L491.25 82.1254M472.344 75.6879L461.406 90.813M501.375 67.5003L512.312 55.1878L531.437 63.3753M501.375 67.5003L518.531 75.6879M501.375 67.5003L491.25 82.1254M531.437 63.3753L542 53.1565M531.437 63.3753L518.531 75.6879M531.437 63.3753L553.125 68.5629L537.219 78.4067L518.531 75.6879M518.531 75.6879L508.375 84.7504L491.25 82.1254M491.25 82.1254L478.75 92.6255L461.406 90.813" stroke="#8B98A9" stroke-width="0.625"/>
<path d="M579.406 113.969L567.594 123.501L559.25 130.282L536.75 137.157L528.937 142.094L512.375 150.438L503.844 160.188L483.781 164.782L466.969 169.188" stroke="#8B98A9" stroke-width="0.625"/>
<path d="M197.969 205.47L235.125 201.689M235.125 201.689L211 239.845L244.406 235.095M235.125 201.689H271.875M235.125 201.689L264.75 155.063L301.125 160.782M244.406 235.095L225.937 272.033M244.406 235.095L271.875 201.689M244.406 235.095L279.406 244.001L308.25 203.876M271.875 201.689L301.125 160.782M271.875 201.689L308.25 203.876M301.125 160.782L332.156 118.688M301.125 160.782L337.312 164.938M308.25 203.876L348.156 208.407M308.25 203.876L337.312 164.938M332.156 118.688L337.312 164.938M332.156 118.688L365.156 128.376M337.312 164.938L348.156 208.407M337.312 164.938L365.156 128.376M337.312 164.938L371.5 169.095M348.156 208.407L371.5 169.095M371.5 169.095L389.469 136.876M371.5 169.095L397.969 177.376M389.469 136.876L365.156 128.376M389.469 136.876L413.969 142.219M389.469 136.876L405.094 107.626M365.156 128.376L384.531 94.9692L405.094 107.626M413.969 142.219L397.969 177.376M413.969 142.219L424.25 116.126L405.094 107.626M413.969 142.219L434.531 145.376M397.969 177.376L426.375 188.282L418.594 157.282L440.5 157.876L452.562 174.313M405.094 107.626L419.719 80.5629" stroke="#8B98A9" stroke-width="0.75"/>
<path d="M175.156 230.501L149.875 263.908M149.875 263.908L181.094 241.97M149.875 263.908L130.5 303.033L171.219 300.47M171.219 300.47L195.719 269.845M171.219 300.47L203.031 283.658" stroke="#8B98A9" stroke-width="0.625"/>
<path d="M191.594 225.22L169 219.501L181.156 208.907L197.375 205.439L191.594 225.22ZM191.594 225.22L211.531 239.876M191.594 225.22L181.156 242.751L200.031 248.283M211.531 239.876L200.031 248.283M211.531 239.876V268.251M200.031 248.283L195.594 269.658L211.531 268.251M211.531 268.251L225.969 272.345L222.062 285.439L210.844 298.252L211.531 268.251Z" stroke="#8B98A9" stroke-width="0.75"/>
<path d="M431.219 100.938L424.594 116.282L438.594 132.219M431.219 100.938L420.094 81.0942M431.219 100.938L438.594 132.219M431.219 100.938L427.906 78.0942M438.594 132.219L434.531 145.282L447.594 159.282L438.594 132.219Z" stroke="#8B98A9" stroke-width="0.75"/>
<ellipse cx="143.219" cy="240.845" rx="2.96875" ry="2.96877" fill="#F7F7F7"/>
<ellipse cx="117.844" cy="264.033" rx="2.96875" ry="2.96877" fill="#F7F7F7"/>
<ellipse cx="169.5" cy="219.876" rx="1.875" ry="1.87501" fill="#F7F7F7"/>
<ellipse cx="174.938" cy="345.064" rx="1.875" ry="1.87501" fill="#F7F7F7"/>
<path d="M212.812 297.752C212.812 298.787 211.973 299.627 210.937 299.627C209.902 299.627 209.062 298.787 209.062 297.752C209.062 296.716 209.902 295.877 210.937 295.877C211.973 295.877 212.812 296.716 212.812 297.752Z" fill="#F7F7F7"/>
<path d="M224 285.314C224 286.35 223.161 287.189 222.125 287.189C221.089 287.189 220.25 286.35 220.25 285.314C220.25 284.278 221.089 283.439 222.125 283.439C223.161 283.439 224 284.278 224 285.314Z" fill="#F7F7F7"/>
<path d="M198.562 269.408C198.562 271.047 197.233 272.376 195.594 272.376C193.954 272.376 192.625 271.047 192.625 269.408C192.625 267.768 193.954 266.439 195.594 266.439C197.233 266.439 198.562 267.768 198.562 269.408Z" fill="#F7F7F7"/>
<path d="M184.625 242.345C184.625 243.985 183.296 245.314 181.656 245.314C180.017 245.314 178.688 243.985 178.688 242.345C178.688 240.705 180.017 239.376 181.656 239.376C183.296 239.376 184.625 240.705 184.625 242.345Z" fill="#F7F7F7"/>
<path d="M151.25 263.501C151.25 264.537 150.411 265.376 149.375 265.376C148.339 265.376 147.5 264.537 147.5 263.501C147.5 262.466 148.339 261.626 149.375 261.626C150.411 261.626 151.25 262.466 151.25 263.501Z" fill="#F7F7F7"/>
<path d="M132.25 302.689C132.25 303.725 131.411 304.564 130.375 304.564C129.339 304.564 128.5 303.725 128.5 302.689C128.5 301.654 129.339 300.814 130.375 300.814C131.411 300.814 132.25 301.654 132.25 302.689Z" fill="#F7F7F7"/>
<path d="M173.062 300.064C173.062 301.1 172.223 301.939 171.187 301.939C170.152 301.939 169.312 301.1 169.312 300.064C169.312 299.029 170.152 298.189 171.187 298.189C172.223 298.189 173.062 299.029 173.062 300.064Z" fill="#F7F7F7"/>
<path d="M183.562 208.939C183.562 209.974 182.723 210.814 181.687 210.814C180.652 210.814 179.812 209.974 179.812 208.939C179.812 207.903 180.652 207.064 181.687 207.064C182.723 207.064 183.562 207.903 183.562 208.939Z" fill="#F7F7F7"/>
<path d="M202.937 248.283C202.937 249.922 201.608 251.251 199.969 251.251C198.329 251.251 197 249.922 197 248.283C197 246.643 198.329 245.314 199.969 245.314C201.608 245.314 202.937 246.643 202.937 248.283Z" fill="#F7F7F7"/>
<path d="M214.437 268.47C214.437 270.11 213.108 271.439 211.469 271.439C209.829 271.439 208.5 270.11 208.5 268.47C208.5 266.831 209.829 265.501 211.469 265.501C213.108 265.501 214.437 266.831 214.437 268.47Z" fill="#F7F7F7"/>
<path d="M227.875 272.064C227.875 273.099 227.036 273.939 226 273.939C224.964 273.939 224.125 273.099 224.125 272.064C224.125 271.028 224.964 270.189 226 270.189C227.036 270.189 227.875 271.028 227.875 272.064Z" fill="#F7F7F7"/>
<path d="M194.687 225.282C194.687 226.922 193.358 228.251 191.719 228.251C190.079 228.251 188.75 226.922 188.75 225.282C188.75 223.643 190.079 222.314 191.719 222.314C193.358 222.314 194.687 223.643 194.687 225.282Z" fill="#F7F7F7"/>
<ellipse cx="249.625" cy="256.814" rx="1.875" ry="1.87501" fill="#F7F7F7"/>
<ellipse cx="279.062" cy="244.126" rx="1.875" ry="1.87501" fill="#F7F7F7"/>
<ellipse cx="314.188" cy="226.376" rx="1.875" ry="1.87501" fill="#F7F7F7"/>
<ellipse cx="348.188" cy="208.189" rx="1.875" ry="1.87501" fill="#F7F7F7"/>
<ellipse cx="375.875" cy="187.188" rx="1.875" ry="1.87501" fill="#F7F7F7"/>
<ellipse cx="398.188" cy="177.313" rx="1.875" ry="1.87501" fill="#F7F7F7"/>
<ellipse cx="418.812" cy="157.626" rx="1.875" ry="1.87501" fill="#F7F7F7"/>
<ellipse cx="434.75" cy="145.188" rx="1.875" ry="1.87501" fill="#F7F7F7"/>
<ellipse cx="420.125" cy="81.0004" rx="1.875" ry="1.87501" fill="#F7F7F7"/>
<path d="M404.25 87.484C404.25 88.5195 403.411 89.359 402.375 89.359C401.339 89.359 400.5 88.5195 400.5 87.484C400.5 86.4484 401.339 85.609 402.375 85.609C403.411 85.609 404.25 86.4484 404.25 87.484Z" fill="#F7F7F7"/>
<ellipse cx="385" cy="95.063" rx="1.875" ry="1.87501" fill="#F7F7F7"/>
<ellipse cx="362.812" cy="104.813" rx="1.875" ry="1.87501" fill="#F7F7F7"/>
<ellipse cx="332.688" cy="118.563" rx="1.875" ry="1.87501" fill="#F7F7F7"/>
<path d="M299.219 136.219C299.219 137.255 298.379 138.094 297.344 138.094C296.308 138.094 295.469 137.255 295.469 136.219C295.469 135.184 296.308 134.344 297.344 134.344C298.379 134.344 299.219 135.184 299.219 136.219Z" fill="#F7F7F7"/>
<ellipse cx="264.875" cy="154.501" rx="1.875" ry="1.87501" fill="#F7F7F7"/>
<ellipse cx="230.625" cy="177.251" rx="1.875" ry="1.87501" fill="#F7F7F7"/>
<ellipse cx="197.5" cy="205.501" rx="1.875" ry="1.87501" fill="#F7F7F7"/>
<path d="M213.062 239.876C213.062 240.912 212.223 241.751 211.187 241.751C210.152 241.751 209.312 240.912 209.312 239.876C209.312 238.841 210.152 238.001 211.187 238.001C212.223 238.001 213.062 238.841 213.062 239.876Z" fill="#F7F7F7"/>
<ellipse cx="271.688" cy="201.439" rx="1.875" ry="1.87501" fill="#F7F7F7"/>
<ellipse cx="337" cy="165.126" rx="1.875" ry="1.87501" fill="#F7F7F7"/>
<ellipse cx="389.812" cy="136.626" rx="1.875" ry="1.87501" fill="#F7F7F7"/>
<path d="M426.312 116.376C426.312 117.411 425.473 118.251 424.437 118.251C423.402 118.251 422.562 117.411 422.562 116.376C422.562 115.34 423.402 114.501 424.437 114.501C425.473 114.501 426.312 115.34 426.312 116.376Z" fill="#F7F7F7"/>
<path d="M449.312 158.876C449.312 159.911 448.473 160.751 447.437 160.751C446.402 160.751 445.562 159.911 445.562 158.876C445.562 157.84 446.402 157.001 447.437 157.001C448.473 157.001 449.312 157.84 449.312 158.876Z" fill="#F7F7F7"/>
<path d="M456.562 165.063C456.562 165.926 455.863 166.626 455 166.626C454.137 166.626 453.438 165.926 453.438 165.063C453.438 164.2 454.137 163.501 455 163.501C455.863 163.501 456.562 164.2 456.562 165.063Z" fill="#F7F7F7"/>
<path d="M440.375 131.938C440.375 132.974 439.536 133.813 438.5 133.813C437.464 133.813 436.625 132.974 436.625 131.938C436.625 130.903 437.464 130.063 438.5 130.063C439.536 130.063 440.375 130.903 440.375 131.938Z" fill="#F7F7F7"/>
<path d="M432.875 100.688C432.875 101.724 432.036 102.563 431 102.563C429.964 102.563 429.125 101.724 429.125 100.688C429.125 99.6525 429.964 98.813 431 98.813C432.036 98.813 432.875 99.6525 432.875 100.688Z" fill="#F7F7F7"/>
<path d="M430.062 77.6254C430.062 78.6609 429.223 79.5004 428.187 79.5004C427.152 79.5004 426.312 78.6609 426.312 77.6254C426.312 76.5899 427.152 75.7504 428.187 75.7504C429.223 75.7504 430.062 76.5899 430.062 77.6254Z" fill="#F7F7F7"/>
<path d="M570.125 35.0002C570.125 36.0357 569.286 36.8752 568.25 36.8752C567.214 36.8752 566.375 36.0357 566.375 35.0002C566.375 33.9646 567.214 33.1252 568.25 33.1252C569.286 33.1252 570.125 33.9646 570.125 35.0002Z" fill="#F7F7F7"/>
<path d="M474.25 75.7504C474.25 76.7859 473.411 77.6254 472.375 77.6254C471.339 77.6254 470.5 76.7859 470.5 75.7504C470.5 74.7149 471.339 73.8754 472.375 73.8754C473.411 73.8754 474.25 74.7149 474.25 75.7504Z" fill="#F7F7F7"/>
<path d="M532.687 63.2503C532.687 64.2859 531.848 65.1253 530.812 65.1253C529.777 65.1253 528.938 64.2859 528.938 63.2503C528.938 62.2148 529.777 61.3753 530.812 61.3753C531.848 61.3753 532.687 62.2148 532.687 63.2503Z" fill="#F7F7F7"/>
<ellipse cx="452.812" cy="174.876" rx="1.875" ry="1.87501" fill="#F7F7F7"/>
<path d="M428.562 188.876C428.562 189.912 427.723 190.751 426.687 190.751C425.652 190.751 424.812 189.912 424.812 188.876C424.812 187.84 425.652 187.001 426.687 187.001C427.723 187.001 428.562 187.84 428.562 188.876Z" fill="#F7F7F7"/>
<ellipse cx="467.438" cy="169.438" rx="1.875" ry="1.87501" fill="#F7F7F7"/>
<ellipse cx="484.562" cy="170.313" rx="1.875" ry="1.87501" fill="#F7F7F7"/>
<ellipse cx="506.875" cy="164.876" rx="1.875" ry="1.87501" fill="#F7F7F7"/>
<ellipse cx="531.188" cy="146.876" rx="1.875" ry="1.87501" fill="#F7F7F7"/>
<ellipse cx="559.812" cy="136.438" rx="1.875" ry="1.87501" fill="#F7F7F7"/>
<ellipse cx="580.688" cy="113.376" rx="1.875" ry="1.87501" fill="#F7F7F7"/>
<ellipse cx="489.531" cy="187.22" rx="3.96875" ry="1.65626" fill="#F7F7F7"/>
<ellipse cx="510.844" cy="185.532" rx="3.96875" ry="1.65626" fill="#F7F7F7"/>
<ellipse cx="528.281" cy="171.345" rx="3.96875" ry="1.65626" fill="#F7F7F7"/>
<ellipse cx="530.562" cy="125.626" rx="1.875" ry="1.87501" fill="#F7F7F7"/>
<ellipse cx="547" cy="112.626" rx="1.875" ry="1.87501" fill="#F7F7F7"/>
<ellipse cx="509" cy="137.688" rx="1.875" ry="1.87501" fill="#F7F7F7"/>
<ellipse cx="486.438" cy="149.751" rx="1.875" ry="1.87501" fill="#F7F7F7"/>
<ellipse cx="467.25" cy="156.501" rx="1.875" ry="1.87501" fill="#F7F7F7"/>
<ellipse cx="537.938" cy="88.313" rx="3.125" ry="3.12502" fill="#F7F7F7"/>
<path d="M516.437 92.7192C516.437 94.4451 515.038 95.8442 513.312 95.8442C511.587 95.8442 510.188 94.4451 510.188 92.7192C510.188 90.9933 511.587 89.5942 513.312 89.5942C515.038 89.5942 516.437 90.9933 516.437 92.7192Z" fill="#F7F7F7" stroke="#F7F7F7" stroke-width="15"/>
<g filter="url(#filter1_d)">
<ellipse cx="494.312" cy="107.313" rx="3.125" ry="3.12502" fill="#F7F7F7"/>
</g>
<g filter="url(#filter2_d)">
<ellipse cx="478.062" cy="117.626" rx="3.125" ry="3.12502" fill="#F7F7F7"/>
</g>
<ellipse cx="466.312" cy="104.813" rx="3.125" ry="3.12502" fill="#F7F7F7"/>
<ellipse cx="451.125" cy="121.376" rx="3.125" ry="3.12502" fill="#F7F7F7"/>
<ellipse cx="603.312" cy="58.5003" rx="2.5" ry="2.50001" fill="#CECECE"/>
<ellipse cx="631.125" cy="52.3128" rx="2.5" ry="2.50001" fill="#CECECE"/>
<ellipse cx="659.75" cy="43.2502" rx="2.5" ry="2.50001" fill="#CECECE"/>
<ellipse cx="687.375" cy="31.3752" rx="2.5" ry="2.50001" fill="#CECECE"/>
<ellipse cx="45" cy="347.439" rx="3.125" ry="3.12502" fill="#998AA3"/>
<ellipse cx="66.1875" cy="356.377" rx="3.125" ry="3.12502" fill="#998AA3"/>
<ellipse cx="72.5" cy="326.564" rx="3.75" ry="3.75002" fill="#CECECE"/>
<ellipse cx="56.5" cy="336.189" rx="3.125" ry="3.12502" fill="#998AA3"/>
<ellipse cx="34.125" cy="330.314" rx="3.125" ry="3.12502" fill="#898AA3"/>
<ellipse cx="37.8125" cy="360.627" rx="2.5" ry="2.50001" fill="#898AA3"/>
<ellipse cx="22.875" cy="349.314" rx="2.5" ry="2.50001" fill="#898AA3"/>
<ellipse cx="19.875" cy="370.627" rx="2.5" ry="2.50001" fill="#898AA3"/>
<ellipse cx="55.7812" cy="369.596" rx="2.71875" ry="2.71876" fill="#998AA3"/>
<ellipse cx="14.25" cy="474.127" rx="1.5625" ry="1.56251" fill="#898AA3"/>
<ellipse cx="4.6875" cy="461.502" rx="1.5625" ry="1.56251" fill="#898AA3"/>
<ellipse cx="1.5625" cy="447.19" rx="1.5625" ry="1.56251" fill="#898AA3"/>
<ellipse cx="7.9375" cy="434.752" rx="1.5625" ry="1.56251" fill="#898AA3"/>
<ellipse cx="15.8125" cy="423.565" rx="1.5625" ry="1.56251" fill="#898AA3"/>
<ellipse cx="49.9062" cy="385.471" rx="2.34375" ry="2.34376" fill="#898AA3"/>
<ellipse cx="33.4375" cy="407.252" rx="1.875" ry="1.87501" fill="#898AA3"/>
<ellipse cx="24.4375" cy="416.002" rx="1.5625" ry="1.56251" fill="#898AA3"/>
<ellipse cx="35.7812" cy="375.096" rx="2.34375" ry="2.34376" fill="#898AA3"/>
<ellipse cx="31.7812" cy="391.408" rx="2.34375" ry="2.34376" fill="#898AA3"/>
<ellipse cx="18.1562" cy="388.283" rx="2.34375" ry="2.34376" fill="#898AA3"/>
<ellipse cx="19.4062" cy="402.721" rx="2.03125" ry="2.03126" fill="#898AA3"/>
<ellipse cx="47.3438" cy="399.846" rx="2.34375" ry="2.34376" fill="#898AA3"/>
<ellipse cx="98.0938" cy="398.346" rx="2.34375" ry="2.34376" fill="#998AA3"/>
<ellipse cx="80.6562" cy="399.846" rx="2.34375" ry="2.34376" fill="#998AA3"/>
<ellipse cx="64.7812" cy="397.471" rx="2.34375" ry="2.34376" fill="#898AA3"/>
<ellipse cx="68.9062" cy="385.096" rx="2.71875" ry="2.71876" fill="#998AA3"/>
<ellipse cx="65" cy="302.877" rx="3.75" ry="3.75002" fill="#CECECE"/>
<ellipse cx="111.125" cy="389.065" rx="3.75" ry="3.75002" fill="#CECECE"/>
<ellipse cx="49.625" cy="315.377" rx="3.75" ry="3.75002" fill="#998AA3"/>
<ellipse cx="93" cy="366.877" rx="3.75" ry="3.75002" fill="#CECECE"/>
<ellipse cx="88.375" cy="386.252" rx="2.8125" ry="2.81251" fill="#998AA3"/>
<ellipse cx="81.625" cy="348.064" rx="3.75" ry="3.75002" fill="#CECECE"/>
<ellipse cx="77.875" cy="372.314" rx="2.8125" ry="2.81251" fill="#998AA3"/>
<ellipse cx="284.562" cy="340.877" rx="1.5625" ry="1.56251" fill="#898AA3"/>
<ellipse cx="301.562" cy="342.439" rx="1.5625" ry="1.56251" fill="#898AA3"/>
<ellipse cx="318.531" cy="338.533" rx="2.34375" ry="2.34376" fill="#898AA3"/>
<ellipse cx="336.562" cy="332.314" rx="3.125" ry="3.12502" fill="#898AA3"/>
<ellipse cx="354.75" cy="319.752" rx="3.125" ry="3.12502" fill="#898AA3"/>
<ellipse cx="376.562" cy="306.189" rx="3.125" ry="3.12502" fill="#998AA3"/>
<ellipse cx="390.25" cy="290.439" rx="3.125" ry="3.12502" fill="#CECECE"/>
<ellipse cx="410.375" cy="276.564" rx="3.75" ry="3.75002" fill="#CECECE"/>
<ellipse cx="616.125" cy="274.376" rx="1.5625" ry="1.56251" fill="#898AA3"/>
<ellipse cx="628" cy="265.376" rx="1.5625" ry="1.56251" fill="#898AA3"/>
<ellipse cx="638.844" cy="252.595" rx="2.34375" ry="2.34376" fill="#898AA3"/>
<ellipse cx="649.688" cy="237.626" rx="3.125" ry="3.12502" fill="#898AA3"/>
<ellipse cx="662.812" cy="220.001" rx="3.125" ry="3.12502" fill="#898AA3"/>
<ellipse cx="669.062" cy="200.689" rx="3.125" ry="3.12502" fill="#B2B3BC"/>
<ellipse cx="675.312" cy="183.001" rx="3.125" ry="3.12502" fill="#CECECE"/>
<ellipse cx="682.188" cy="164.251" rx="3.75" ry="3.75002" fill="#CECECE"/>
<ellipse cx="444.625" cy="284.939" rx="1.5625" ry="1.56251" fill="#898AA3"/>
<ellipse cx="461.625" cy="286.501" rx="1.5625" ry="1.56251" fill="#898AA3"/>
<ellipse cx="478.594" cy="282.595" rx="2.34375" ry="2.34376" fill="#898AA3"/>
<ellipse cx="496.625" cy="276.376" rx="3.125" ry="3.12502" fill="#898AA3"/>
<ellipse cx="514.812" cy="263.814" rx="3.125" ry="3.12502" fill="#998AA3"/>
<ellipse cx="536.625" cy="250.251" rx="3.125" ry="3.12502" fill="#B2B3BC"/>
<ellipse cx="550.312" cy="234.501" rx="3.125" ry="3.12502" fill="#CECECE"/>
<ellipse cx="570.438" cy="220.626" rx="3.75" ry="3.75002" fill="#CECECE"/>
<ellipse cx="477.812" cy="339.002" rx="1.5625" ry="1.56251" fill="#898AA3"/>
<ellipse cx="496.594" cy="337.408" rx="2.34375" ry="2.34376" fill="#898AA3"/>
<ellipse cx="512" cy="330.002" rx="3.125" ry="3.12502" fill="#898AA3"/>
<ellipse cx="531.125" cy="317.002" rx="3.125" ry="3.12502" fill="#898AA3"/>
<ellipse cx="542.875" cy="296.314" rx="3.125" ry="3.12502" fill="#898AA3"/>
<ellipse cx="553.438" cy="276.376" rx="3.125" ry="3.12502" fill="#B2B3BC"/>
<ellipse cx="562.812" cy="260.689" rx="3.125" ry="3.12502" fill="#F7F7F7"/>
<ellipse cx="572.625" cy="241.064" rx="3.4375" ry="3.43752" fill="#F7F7F7"/>
<path d="M551.312 46.3127C551.312 47.3483 550.473 48.1877 549.437 48.1877C548.402 48.1877 547.562 47.3483 547.562 46.3127C547.562 45.2772 548.402 44.4377 549.437 44.4377C550.473 44.4377 551.312 45.2772 551.312 46.3127Z" fill="#F7F7F7"/>
<path d="M486.125 60.3128C486.125 61.3484 485.286 62.1878 484.25 62.1878C483.214 62.1878 482.375 61.3484 482.375 60.3128C482.375 59.2773 483.214 58.4378 484.25 58.4378C485.286 58.4378 486.125 59.2773 486.125 60.3128Z" fill="#F7F7F7"/>
<path d="M456.312 69.6254C456.312 70.6609 455.473 71.5004 454.437 71.5004C453.402 71.5004 452.562 70.6609 452.562 69.6254C452.562 68.5898 453.402 67.7504 454.437 67.7504C455.473 67.7504 456.312 68.5898 456.312 69.6254Z" fill="#F7F7F7"/>
<path d="M514.25 55.0003C514.25 56.0358 513.411 56.8753 512.375 56.8753C511.339 56.8753 510.5 56.0358 510.5 55.0003C510.5 53.9647 511.339 53.1253 512.375 53.1253C513.411 53.1253 514.25 53.9647 514.25 55.0003Z" fill="#F7F7F7"/>
<path d="M582.5 18.6251C582.5 19.6606 581.661 20.5001 580.625 20.5001C579.589 20.5001 578.75 19.6606 578.75 18.6251C578.75 17.5896 579.589 16.7501 580.625 16.7501C581.661 16.7501 582.5 17.5896 582.5 18.6251Z" fill="#F7F7F7"/>
<defs>
<filter id="filter0_d" x="74.3125" y="0.591644" width="643.942" height="384.947" filterUnits="userSpaceOnUse" color-interpolation-filters="sRGB">
<feFlood flood-opacity="0" result="BackgroundImageFix"/>
<feColorMatrix in="SourceAlpha" type="matrix" values="0 0 0 0 0 0 0 0 0 0 0 0 0 0 0 0 0 0 127 0"/>
<feOffset dy="4"/>
<feGaussianBlur stdDeviation="2"/>
<feColorMatrix type="matrix" values="0 0 0 0 0 0 0 0 0 0 0 0 0 0 0 0 0 0 0.25 0"/>
<feBlend mode="normal" in2="BackgroundImageFix" result="effect1_dropShadow"/>
<feBlend mode="normal" in="SourceGraphic" in2="effect1_dropShadow" result="shape"/>
</filter>
<filter id="filter1_d" x="487.188" y="104.188" width="14.25" height="14.25" filterUnits="userSpaceOnUse" color-interpolation-filters="sRGB">
<feFlood flood-opacity="0" result="BackgroundImageFix"/>
<feColorMatrix in="SourceAlpha" type="matrix" values="0 0 0 0 0 0 0 0 0 0 0 0 0 0 0 0 0 0 127 0"/>
<feOffset dy="4"/>
<feGaussianBlur stdDeviation="2"/>
<feColorMatrix type="matrix" values="0 0 0 0 0 0 0 0 0 0 0 0 0 0 0 0 0 0 0.25 0"/>
<feBlend mode="normal" in2="BackgroundImageFix" result="effect1_dropShadow"/>
<feBlend mode="normal" in="SourceGraphic" in2="effect1_dropShadow" result="shape"/>
</filter>
<filter id="filter2_d" x="470.938" y="114.501" width="14.25" height="14.25" filterUnits="userSpaceOnUse" color-interpolation-filters="sRGB">
<feFlood flood-opacity="0" result="BackgroundImageFix"/>
<feColorMatrix in="SourceAlpha" type="matrix" values="0 0 0 0 0 0 0 0 0 0 0 0 0 0 0 0 0 0 127 0"/>
<feOffset dy="4"/>
<feGaussianBlur stdDeviation="2"/>
<feColorMatrix type="matrix" values="0 0 0 0 0 0 0 0 0 0 0 0 0 0 0 0 0 0 0.25 0"/>
<feBlend mode="normal" in2="BackgroundImageFix" result="effect1_dropShadow"/>
<feBlend mode="normal" in="SourceGraphic" in2="effect1_dropShadow" result="shape"/>
</filter>
</defs>
</svg>
