<svg width="11072" height="9704" viewBox="0 0 11072 9704" fill="none" xmlns="http://www.w3.org/2000/svg">
<path d="M6241.5 6812L5915.7 7041.82L5928.5 6759.5L6241.5 6812Z" fill="#B43C7C"/>
<path d="M5533.5 7105.5L4997.5 6972.5L5263.12 6785.98L5533.5 7105.5Z" fill="#B43C7C"/>
<path d="M3930 6065L3522 5914.5L3227.5 6323.5L3930 6065Z" fill="#C84A9D"/>
<path d="M5824 4926.5L5954 5175L5498.5 5075.5L5824 4926.5Z" fill="#532B69"/>
<path d="M5602 5675L5849.5 5256.5L6107 5620L5602 5675Z" fill="#AD618A"/>
<path d="M6036.26 6347.42L5849.14 5720.52L6099.76 5829.01L6036.26 6347.42Z" fill="#D4388B"/>
<path d="M7214 3723.5L7611.43 3198.26L8203.52 3767.24L7214 3723.5Z" fill="#86499B"/>
<path d="M7241.5 3874L6696.5 4156.5L6504 3791.5L7241.5 3874Z" fill="#633075"/>
<path d="M8150.1 4565.24L8080 3878L8767.33 4129.43L8150.1 4565.24Z" fill="#532B69"/>
<path d="M6493 3861.5L7416 3774L6996.24 3464.39L6493 3861.5Z" fill="#4F3261"/>
<path d="M6464 3117.5L6842 2739L6268.5 2739L6464 3117.5Z" fill="#6A3787"/>
<path d="M7899.5 4402.5L8580.5 4910L9112 4506L7899.5 4402.5Z" fill="#5C4075"/>
<path d="M8391.51 3078.21L8854.4 3963.21H7928.62L8391.51 3078.21Z" fill="#4F3261"/>
<path d="M8618.72 4119L8690 4539.5L8945 4325L8618.72 4119Z" fill="#6F498E"/>
<path d="M8657.43 4151.47L8103 4809.88L8532 4894.88L8657.43 4151.47Z" fill="#6A3787"/>
<path d="M7831.5 3565.5L7917.5 3048.5L8427.5 3364.5L7831.5 3565.5Z" fill="#743C94"/>
<path d="M5570 2577L6357 2855.5L5496.5 3499.5L5570 2577Z" fill="#432A52"/>
<path d="M5570 2577L6357 2855.5L5496.5 3499.5L5570 2577Z" fill="#432A52"/>
<path d="M5570 2577L6357 2855.5L5496.5 3499.5L5570 2577Z" fill="#432A52"/>
<path d="M5570 2577L6357 2855.5L5496.5 3499.5L5570 2577Z" fill="#432A52"/>
<path d="M7473.5 2749L7906.5 3358.5H7046L7473.5 2749Z" fill="#542A6C"/>
<path d="M3367.5 3195L3697.5 3741H2958L3367.5 3195Z" fill="#432A52"/>
<path d="M3367.5 3195L3697.5 3741H2958L3367.5 3195Z" fill="#432A52"/>
<path d="M3367.5 3195L3697.5 3741H2958L3367.5 3195Z" fill="#432A52"/>
<path d="M3367.5 3195L3697.5 3741H2958L3367.5 3195Z" fill="#432A52"/>
<path d="M2136.51 3374.21L2599.4 4259.21H1673.62L2136.51 3374.21Z" fill="#432A52"/>
<path d="M2136.51 3374.21L2599.4 4259.21H1673.62L2136.51 3374.21Z" fill="#432A52"/>
<path d="M2136.51 3374.21L2599.4 4259.21H1673.62L2136.51 3374.21Z" fill="#432A52"/>
<path d="M2136.51 3374.21L2599.4 4259.21H1673.62L2136.51 3374.21Z" fill="#432A52"/>
<path d="M4499.51 2679.21L4962.4 3564.21H4036.62L4499.51 2679.21Z" fill="#432A52"/>
<path d="M4499.51 2679.21L4962.4 3564.21H4036.62L4499.51 2679.21Z" fill="#432A52"/>
<path d="M4499.51 2679.21L4962.4 3564.21H4036.62L4499.51 2679.21Z" fill="#432A52"/>
<path d="M4499.51 2679.21L4962.4 3564.21H4036.62L4499.51 2679.21Z" fill="#432A52"/>
<path d="M7137.5 4277L7927 4406L7644.5 3907L7137.5 4277Z" fill="#4F3261"/>
<path d="M5665.01 5183.05L5159.01 5114.55L5412 4929.5L5665.01 5183.05Z" fill="#D4388B"/>
<path d="M4899.94 5593.42L4772 5067L5244.35 5266.88L4899.94 5593.42Z" fill="#C84A9D"/>
<path d="M3071.5 3473.51L2464 3811.5L2777 3266L3071.5 3473.51Z" fill="#703C82"/>
<path d="M5491 2697.5L5066.5 3178L4506 2785L5491 2697.5Z" fill="#6F498E"/>
<path d="M6261 3533.89L5836.5 4014.39L5276 3621.39L6261 3533.89Z" fill="#86499B"/>
<path d="M6998.08 3351.52L6430.5 3691L6024 3181.11L6998.08 3351.52Z" fill="#86499B"/>
<path d="M7943.08 6246.52L7420 6675.5L6969 6076.11L7943.08 6246.52Z" fill="#86499B"/>
<path d="M8185.25 6704.27L8000.67 6865.86L7834 6630.9L8185.25 6704.27Z" fill="#86499B"/>
<path d="M8550.5 7207.5L8064.5 7465.5L7953 7063.9L8550.5 7207.5Z" fill="#86499B"/>
<path d="M7495.08 2741.52L6960.68 3095.78L6521 2571.11L7495.08 2741.52Z" fill="#86499B"/>
<path d="M4228.5 6457L3974.5 5958L3596.5 6457L4228.5 6457Z" fill="#D94C98"/>
<path d="M4910.41 5555.24L4406.5 5117L4231.5 5491L4910.41 5555.24Z" fill="#B54883"/>
<path d="M8799.08 2748.52L8264.68 3102.78L7981 2568.5L8799.08 2748.52Z" fill="#86499B"/>
<path d="M9377.04 3069.9L8957.98 3259.77L8804 3076.72L9377.04 3069.9Z" fill="#86499B"/>
<path d="M4291 2889.72L3989 3436.5L3347 3019.11L4291 2889.72Z" fill="#6F498E"/>
<path d="M3471.63 2781.75L2945.96 3013.25L3471.63 3379L3471.63 2781.75Z" fill="#3A214E"/>
<path d="M5990.04 5272.55L5579.35 5482.43L5434 5103.7L5990.04 5272.55Z" fill="#9F2968"/>
<path d="M4169.5 2469L3924 2880.5L3622 2648.5L4169.5 2469Z" fill="#542A6C"/>
<path d="M8106.51 4197.9L7179 3820L7839.86 3663.34L8106.51 4197.9Z" fill="#5C4075"/>
<path d="M6024.44 3500L5226.46 3678.81L5193.26 3322.28L6024.44 3500Z" fill="#6F498E"/>
<path d="M2984.5 2955L2619 3121.5L2549.7 2826.26L2984.5 2955Z" fill="#6F498E"/>
<path d="M3350 3465.46L3850.22 2980.59L3594.84 2697.78L3350 3465.46Z" fill="#743C94"/>
<path d="M4633.03 3019L4805.04 2511L4305.54 2603L4633.03 3019Z" fill="#3A214E"/>
<path d="M4540.5 4555.5L4141.5 4331L3549.5 4650L4540.5 4555.5Z" fill="#73328A"/>
<path d="M2971.67 3355.05L3416.37 2586.23L2860 2772.5L2971.67 3355.05Z" fill="#6A3787"/>
<path d="M4019.23 4082.98L4530.23 3866.48L3890.23 3712.98L4019.23 4082.98Z" fill="#6A3787"/>
<path d="M3393 6428L3866.5 6261.5L3292 6122.5L3393 6428Z" fill="#94368A"/>
<path d="M6073 3682.5L6601 4052.5L6443.17 3601.23L6073 3682.5Z" fill="#6A3787"/>
<path d="M8201.06 2317.63L7532.5 2460.5L7844 3096.5L8201.06 2317.63Z" fill="#532B69"/>
<path d="M6519.47 6446.56L6051.17 6315.81L6335.64 5973L6519.47 6446.56Z" fill="#AD618A"/>
<path d="M3634.5 4942L3876.5 4757.5L3104.5 4757.5L3634.5 4942Z" fill="#532B69"/>
<path d="M3244 4943.5L3472.5 4609.5L3001 4744L3244 4943.5Z" fill="#873C69"/>
<path d="M3912.01 4408.21L3545.5 4714L3065.5 4464L3912.01 4408.21Z" fill="#5E3575"/>
<path d="M4715 7760.5L4165 7237L3928 7640L4715 7760.5Z" fill="#6C296A"/>
<path d="M6044.51 5285.84L5886.22 5013L6552.52 5285.84L6044.51 5285.84Z" fill="#3A214E"/>
<path d="M7137 7398L6978 7111.5L6444.5 7259L7137 7398Z" fill="#5C4075"/>
<path d="M8225.61 7400.07L7943.45 7182.86L7321 7365.53L8225.61 7400.07Z" fill="#5C4075"/>
<path d="M1601.15 3672.44L2045.85 2903.62L1606.51 2972.21L1601.15 3672.44Z" fill="#6A3787"/>
<path d="M6340.16 3296.04L6177.35 2899L6801.06 3237.25L6340.16 3296.04Z" fill="#3A214E"/>
<path d="M5849 4213.5L5223.16 4533L4894 4251.59L5849 4213.5Z" fill="#5C4075"/>
<path d="M7245 4248.5L6759 4467.5L6476.5 4077.5L7245 4248.5Z" fill="#5C4075"/>
<path d="M3928 2456.5L3490.5 2939.9L3248 2616.9L3928 2456.5Z" fill="#52346E"/>
<path d="M4759 2876L5210 2467L4759 2164.55L4759 2876Z" fill="#542A6C"/>
<path d="M3234.5 2629L2651.51 2924.95L2311.01 2700.95L3234.5 2629Z" fill="#5C4075"/>
<path d="M4905 2169.5L4292.5 2889.5L3868.01 2427.95L4905 2169.5Z" fill="#5C4075"/>
<path d="M3665.54 3188.73L3501 3532.36L4250.45 3409.42L3665.54 3188.73Z" fill="#5C4075"/>
<path d="M4128 3038.5L4177.5 2805.5L3649.5 2872L4128 3038.5Z" fill="#5C4075"/>
<path d="M1866.5 4314.5L1563 4601.5L1222 4314.5L1866.5 4314.5Z" fill="#743C94"/>
<path d="M4248.5 3603.5L4535 2926L4202.5 2660L4248.5 3603.5Z" fill="#743C94"/>
<path d="M4680.5 3100.5L4959 3163L5042.5 2606L4680.5 3100.5Z" fill="#743C94"/>
<path d="M6475.97 3912.11L5996.72 4132L5866.81 3748.56L6475.97 3912.11Z" fill="#5C4075"/>
<path d="M7743.92 2885.33L7499.42 2475L7154 2805.5L7743.92 2885.33Z" fill="#412458"/>
<path d="M7851.5 4700.5L8093.5 4260.5L7628 4443.5L7851.5 4700.5Z" fill="#6F498E"/>
<path d="M3573 3981L2889.96 4259.62L2710.5 3903L3573 3981Z" fill="#6F498E"/>
<path d="M1596.5 5460.38L1865.9 6026.84L2108.13 5460.4L1596.5 5460.38Z" fill="#542A6C"/>
<path d="M4510 4593L4272.49 4280.32L4858 4462.49L4510 4593Z" fill="#3A214E"/>
<path d="M8420.76 4239.31L7687.51 4093.69L7925.45 4386.49L8420.76 4239.31Z" fill="#7D4AAB"/>
<path d="M5619.5 3408.85L5354.5 3183.35L4823 3552.71L5619.5 3408.85Z" fill="#743C94"/>
<path d="M5698.9 3700.31L5083.9 3995.31L4881.38 3514.93L5698.9 3700.31Z" fill="#5C4075"/>
<path d="M5437.7 2921L5335.33 3200.25L6006.5 3533L5437.7 2921Z" fill="#3A214E"/>
<path d="M5903.43 3737.82L6272.5 3005L5881.84 3104.94L5903.43 3737.82Z" fill="#6A3787"/>
<path d="M5267 4165L5556 3952.5L5220.06 3682.63L5267 4165Z" fill="#6A3787"/>
<path d="M949 3964.5L1630.5 3745L1346 3469L949 3964.5Z" fill="#6A3787"/>
<path d="M2626.51 6684.92L3126.51 6684.92L2465.51 6320.71L2626.51 6684.92Z" fill="#823C88"/>
<path d="M927.001 4821.5L985 4520.5L1451.13 4561.75L927.001 4821.5Z" fill="#3A214E"/>
<path d="M3414.5 7325L4299.5 7374L3462.34 6959.5L3414.5 7325Z" fill="#743C94"/>
<path d="M2718.5 6164.5L2361 6634L2128.5 6089.5L2718.5 6164.5Z" fill="#5C4075"/>
<path d="M6210 2269L6884 2672.5L7149 2359L6210 2269Z" fill="#492666"/>
<path d="M8330.5 6813L8638 7104L8176.5 7378L8330.5 6813Z" fill="#733688"/>
<path d="M7972.15 4762.84L7890 4518L8381 4626L7972.15 4762.84Z" fill="#8B4EAD"/>
<path d="M5772.5 5852L6436.21 5801L6145.5 5429.5L5772.5 5852Z" fill="#883685"/>
<path d="M6818.5 7735.5L6569.51 7243L7393.98 7603.17L6818.5 7735.5Z" fill="#743C94"/>
<path d="M7207.55 6670.87L6835 6979L6653 6659.22L7207.55 6670.87Z" fill="#934C9E"/>
<path d="M5990.4 7276.39L6480.22 7630.69L6191.41 7789.07L5990.4 7276.39Z" fill="#934C9E"/>
<path d="M4277.5 3727.66L3942 3375L3501.5 3727.65L4277.5 3727.66Z" fill="#703C82"/>
<path d="M3518 7498L4060.84 7786.36L3948 7295.5L3518 7498Z" fill="#542A6C"/>
<path d="M5138 3637L4636 4078.5L4471.5 3681.5L5138 3637Z" fill="#743C94"/>
<path d="M7578 6027L6854.5 6304.18L7682.75 6304.18L7578 6027Z" fill="#542A6C"/>
<path d="M8735 6675.5L8664 6110L8032.5 6068.5L8735 6675.5Z" fill="#6E2C67"/>
<path d="M2157.5 6222.5L2192.98 5571.41L2572.81 6041.9L2157.5 6222.5Z" fill="#5B296C"/>
<path d="M6663.5 3986L6069 4032L6311.35 4422.18L6663.5 3986Z" fill="#3A214E"/>
<path d="M7598.5 5494L8192 5748L8107 6197.5L7598.5 5494Z" fill="#52306E"/>
<path d="M1169.74 4331L1169.74 3829L1625.5 4223L1169.74 4331Z" fill="#3A214E"/>
<path d="M7764.06 6437.26L7343.03 6955.45L7880.96 7018.29L7764.06 6437.26Z" fill="#7C4DA7"/>
<path d="M3958.5 4772L4091.5 4942L3718 4809.5L3958.5 4772Z" fill="#802D5F"/>
<path d="M4675.13 5105.04L5154.84 5092.87L4830.5 4867.5L4675.13 5105.04Z" fill="#9F2968"/>
<path d="M6370 4438.98L5945.5 4239.5L5392.5 4438.98L6370 4438.98Z" fill="#8053AA"/>
<path d="M5092.72 4320L4885 3789L5576.72 4245L5092.72 4320Z" fill="#3A214E"/>
<path d="M3821.51 4420.49L3701.51 3984L4237.51 4363.07L3821.51 4420.49Z" fill="#3A214E"/>
<path d="M2814 5428.5L3035 5660.5L2734.36 5707.17L2814 5428.5Z" fill="#B53B7C"/>
<path d="M2462 5946L2816.01 6026.21L2839 5570L2462 5946Z" fill="#5E2858"/>
<path d="M2269.5 7017.5L2164.01 6379.71L2820.51 6788.71L2269.5 7017.5Z" fill="#52306E"/>
<path d="M3331.5 6822L3405 6587.17L4061.5 6996.17L3331.5 6822Z" fill="#3A214E"/>
<path d="M8481.5 6733.5L9088 7397.15L8580.5 7305L8481.5 6733.5Z" fill="#5E3D79"/>
<path d="M4254.5 7524.5L4163 6942.5L4803.5 7269.17L4254.5 7524.5Z" fill="#3A214E"/>
<path d="M1705.5 6086.5L1418.01 5513.71L2062.51 6091.71L1705.5 6086.5Z" fill="#743C94"/>
<path d="M1909 5461.5L2121 4958.5L2307.51 5647.21L1909 5461.5Z" fill="#743C94"/>
<path d="M3259 6276.5L2789 6044L3284 5819.5L3259 6276.5Z" fill="#AD3E81"/>
<path d="M1917 3230.23L2219.5 2735L2865 3200.32L1917 3230.23Z" fill="#3A214E"/>
<path d="M2986.5 5371L2529.5 5347L2943 4890L2986.5 5371Z" fill="#B53B7C"/>
<path d="M2871 4757.5L2794 5037.5L2260 4802L2871 4757.5Z" fill="#873C69"/>
<path d="M833.5 4561L1362.5 4489L1088.5 4036.5L833.5 4561Z" fill="#542A6C"/>
<path d="M1668.55 5196.66L1804 4177.5L1382 4739.5L1668.55 5196.66Z" fill="#5C4075"/>
<path d="M2142 4960.5L2228.5 4504L1899.49 4647.79L2142 4960.5Z" fill="#5C4075"/>
<path d="M1331.5 5177L905.5 4347L985 4946L1331.5 5177Z" fill="#5C4075"/>
<path d="M1312.08 3732.37L900.5 4344.5L1030.5 3813L1312.08 3732.37Z" fill="#5C4075"/>
<path d="M2839.38 3320.75L1837.5 3645L1795.5 3161L2839.38 3320.75Z" fill="#6F498E"/>
<path d="M3888.05 7017.26L3182 7088L2942.25 6630.2L3888.05 7017.26Z" fill="#6C296A"/>
<path d="M5283.5 2909.5L5698.18 2835.09L5790.5 3117.5L5283.5 2909.5Z" fill="#5C4075"/>
<path d="M3350 3199.5L2775 3375L2506.5 3038.5L3350 3199.5Z" fill="#5C4075"/>
<path d="M3589.51 3870.7L2955.69 3978.57L2733.12 3573.89L3589.51 3870.7Z" fill="#5C4075"/>
<path d="M2863 4183L2284.01 4480.97L2138 4183H2863Z" fill="#5C4075"/>
<path d="M2850.45 4495.14L2594.95 4711.14L2249 4447.5L2850.45 4495.14Z" fill="#5C4075"/>
<path d="M2659.68 4769.5L2226.5 4951L2148.68 4649L2659.68 4769.5Z" fill="#452A5A"/>
<path d="M2781.5 3804.51L2392.73 4038.98L2266.42 3700.9L2781.5 3804.51Z" fill="#5C4075"/>
<path d="M1952 3315L1196.5 3519.5L1302.5 3221.45L1952 3315Z" fill="#5C4075"/>
<path d="M2382.5 2844.5L1980 3134L1869 2819.5L2382.5 2844.5Z" fill="#5C4075"/>
<path d="M2196.77 3867.71L1833 3940.5L1633.54 3593.85L2196.77 3867.71Z" fill="#5C4075"/>
<path d="M3905.5 4003.25L3386.22 4130.36L3288.23 3795.85L3905.5 4003.25Z" fill="#743C94"/>
<path d="M2656.31 4449.9L2267.44 4697.36L2003.5 4422.5L2656.31 4449.9Z" fill="#7C4DA7"/>
<path d="M1779.51 5177.21L1487.5 5355L1098 4645.5L1779.51 5177.21Z" fill="#743C94"/>
<path d="M4202.5 3882L3626.15 3933.42L3393.42 3551.76L4202.5 3882Z" fill="#5C4075"/>
<path d="M3732.57 5284.65L3874.88 5731.38L3485.28 5588.03L3732.57 5284.65Z" fill="#873C69"/>
<path d="M4037.62 5095.27L3384.79 5137.66L3616.5 5457.5L4037.62 5095.27Z" fill="#C84A9D"/>
<path d="M4665.47 4151.38L4280.82 4414.28L3857.57 3986.67L4665.47 4151.38Z" fill="#5C4075"/>
<path d="M4348.5 4133L4227.5 3637L4783 4061.5L4348.5 4133Z" fill="#3A214E"/>
<path d="M6465.5 5792L6818.5 6151.5L6590 6372L6465.5 5792Z" fill="#5C4075"/>
<path d="M6582.4 5702.58L7216.5 5865L6829.5 6239L6582.4 5702.58Z" fill="#6A3787"/>
<path d="M7245.44 5366.39L7548.5 5585L7305.36 5898.26L7245.44 5366.39Z" fill="#934C9E"/>
<path d="M9678.5 6721.63L8560 6139L9026 6775L9678.5 6721.63Z" fill="#883685"/>
<path d="M1500.45 3760.55L1455.9 3288.78L2042.84 3729.04L1500.45 3760.55Z" fill="#3A214E"/>
<path d="M1965.57 4148.69L2506.5 3645L2051.78 3409.21L1965.57 4148.69Z" fill="#542A6C"/>
<path d="M7786 5994L8498.5 6018.5L7880 6425L7786 5994Z" fill="#794193"/>
<path d="M5532.29 4060.96L5412.56 3691L6029.28 4032.14L5532.29 4060.96Z" fill="#3A214E"/>
<path d="M2174 3354L2719.01 2654.21L2269.5 2826.5L2174 3354Z" fill="#6A3787"/>
<path d="M2402.5 3672L2259.1 3360.76L2787.1 3415.26L2402.5 3672Z" fill="#3A214E"/>
<path d="M2842 3763.58L3088.5 3232L3418.5 3592.58L2842 3763.58Z" fill="#3A214E"/>
<path d="M4305.5 5251.5L3932.73 5032.56L3621 5202.13L4305.5 5251.5Z" fill="#9E449C"/>
<path d="M6324.5 4995L6522 5341L6148 5369L6324.5 4995Z" fill="#5E2858"/>
<path d="M5343.86 4296.12L4863.5 4556.5L4526.87 4342.82L5343.86 4296.12Z" fill="#743C94"/>
<path d="M6386.42 3798.51L6413.26 3458.01L6862 3659L6386.42 3798.51Z" fill="#553073"/>
<path d="M6985.19 2814L7010.5 2370L7366 2643.5L6985.19 2814Z" fill="#743C94"/>
<path d="M5990 3440.98L6410.08 3419.1L6320.05 3675.16L5990 3440.98Z" fill="#5C4075"/>
<path d="M7324.5 7041.74L7204 6788L6550 7068L7324.5 7041.74Z" fill="#6C296A"/>
<path d="M5145.5 4183.5L4838.5 3857L4438 4396.66L5145.5 4183.5Z" fill="#542A6C"/>
<path d="M4911.04 3492.73L4477 3786.5L4020 3529.5L4911.04 3492.73Z" fill="#5C4075"/>
<path d="M7259 6397L7163.5 6891.5L6810 6559L7259 6397Z" fill="#3A214E"/>
<path d="M6622 2701.5L6174.18 2858.29L5898.54 2464.47L6622 2701.5Z" fill="#5C4075"/>
<path d="M7349.5 3075.5L6760.53 3285.81L6537.95 2881.13L7349.5 3075.5Z" fill="#5C4075"/>
<path d="M3048.5 5431.17L3285.5 5142.5L3623 5431.17L3048.5 5431.17Z" fill="#A3327C"/>
<path d="M4684 3196.5L5279 3342L5442 2953.6L4684 3196.5Z" fill="#5C4075"/>
<path d="M6763 4015L7019 4496L7551.5 3846L6763 4015Z" fill="#532B69"/>
<path d="M6749.5 4284.5L6493 4456L6126.5 4253L6749.5 4284.5Z" fill="#73328A"/>
<path d="M6767.61 2491.8L6808.89 2876.47L6098.61 2454.3L6767.61 2491.8Z" fill="#3A214E"/>
<path d="M8792 4377L9182 4578L9684 4054L8792 4377Z" fill="#532B69"/>
<path d="M8287 4015.28L9048.92 3932.6L9320.67 4350.33L8287 4015.28Z" fill="#5C4075"/>
<path d="M8538 3325L9291.45 3193.55L9074 3587L8538 3325Z" fill="#5C4075"/>
<path d="M8692 2893L9337.12 2807.37L9593 3297L8692 2893Z" fill="#502869"/>
<path d="M8368 2722.5L8736.3 2553.19L8967.8 3060.69L8368 2722.5Z" fill="#743C94"/>
<path d="M6246.5 5485L6901.5 5582L6585.5 5237L6246.5 5485Z" fill="#934C9E"/>
<path d="M6556.45 6884.78L6157 6650.92L6640.16 6650.92L6556.45 6884.78Z" fill="#AD618A"/>
<path d="M7544 3092L8130.37 2779.45L8478 3156.5L7544 3092Z" fill="#5C4075"/>
<path d="M4353.5 5917.5L4073.5 5503.5L3757 5996.5L4353.5 5917.5Z" fill="#883685"/>
<path d="M5513 5268L5138.5 4889.5L4897.5 5147.5L5513 5268Z" fill="#883685"/>
<path d="M4706.19 4886L4776 5196L4294 4921.5L4706.19 4886Z" fill="#883685"/>
<path d="M6727 6696L6727 7146L6256 7029L6727 6696Z" fill="#683784"/>
<path d="M6031.5 7149.5L6518 6800L6193.5 6764L6031.5 7149.5Z" fill="#D4388B"/>
<path d="M5722 5263.5L6413.5 5616L5977 5158.46L5722 5263.5Z" fill="#D4388B"/>
<path d="M6855.5 5721L6634 6053L6505.5 5570L6855.5 5721Z" fill="#6C296A"/>
<path d="M9534.77 3434.5L9292.5 4226.5L9771 3907.5L9534.77 3434.5Z" fill="#5C4075"/>
<path d="M9699.02 3160.23L9755.69 3677.5L9169.76 3266.43L9699.02 3160.23Z" fill="#8254A8"/>
<path d="M9339.59 3342L9047.95 3633.03L9437.25 4042.86L9339.59 3342Z" fill="#542A6C"/>
<path d="M9224 3741L8671.5 4264.5L9328 4156.5L9224 3741Z" fill="#71408D"/>
<path d="M9053.5 3549.5L9087 3936L8590.75 3596.64L9053.5 3549.5Z" fill="#532E61"/>
<path d="M8643.2 2580L9189.56 3089.67L9440.36 2854.66L8643.2 2580Z" fill="#654087"/>
<path d="M2174 4090L1576.01 4329.2L1297.76 3780.53L2174 4090Z" fill="#482763"/>
<path d="M8715 3135L8334 3135L8829 3695L8715 3135Z" fill="#6A3787"/>
<path d="M8794.47 2880.32L8896.62 3292.11L8303 2990.46L8794.47 2880.32Z" fill="#60376F"/>
<path d="M7783.5 2315.5L8107.63 2619.81L8675.5 2527L7783.5 2315.5Z" fill="#654087"/>
<path d="M7478.5 2616L6937.5 2337.5L7781.5 2306.5L7478.5 2616Z" fill="#52346E"/>
<path d="M5055 3450L4520.01 3398L4765.51 3169.5L5055 3450Z" fill="#3A214E"/>
<path d="M6992.72 5323.7L6484.5 5275L6407.5 5027L6992.72 5323.7Z" fill="#532B69"/>
<path d="M6426.13 5039.7L6116.5 5176.5L5698 4863.5L6426.13 5039.7Z" fill="#5C4075"/>
<path d="M7793.05 5877.6L7204 6093.5L7003.05 5682.1L7793.05 5877.6Z" fill="#6C296A"/>
<path d="M8497.05 6515.4L8490.14 6193L8795.15 6382.23L8497.05 6515.4Z" fill="#3A214E"/>
<path d="M6937.47 5680.34L6467.52 5759.11L6144 5279L6937.47 5680.34Z" fill="#743C94"/>
<path d="M7376.52 5539.54L6882.06 5553.18L6668.63 5233L7376.52 5539.54Z" fill="#7D4AAB"/>
<path d="M6939 5844L6788.21 5444L7454.51 5716.84L6939 5844Z" fill="#3A214E"/>
<path d="M3363.01 6484.25L2741 6267.04L3199.01 6306.25L3363.01 6484.25Z" fill="#91416C"/>
<path d="M6726 6946L6389 7569.5L6167.32 7141.5L6726 6946Z" fill="#7A4394"/>
<path d="M7353.5 5478.5L7243.5 5291L6846.5 5358L7353.5 5478.5Z" fill="#5C4075"/>
<path d="M7299.5 7424L6684.5 7054L7540.5 7187L7299.5 7424Z" fill="#3A214E"/>
<path d="M6615 6322L7101 6322L6697.93 6746.49L6615 6322Z" fill="#5B296C"/>
<path d="M7195.5 6548.2L7615.5 6629.2L7291 6991.2L7195.5 6548.2Z" fill="#5B296C"/>
<path d="M8117.65 6549.57L8537.65 6630.57L8213.15 6992.57L8117.65 6549.57Z" fill="#5B296C"/>
<path d="M1238.5 5100L1574.5 4756L1238.5 4269L1238.5 5100Z" fill="#542A6C"/>
<path d="M1856 5163.5L2354.5 5018L1886.38 4667.21L1856 5163.5Z" fill="#542A6C"/>
<path d="M1609.59 4138.41L1964.86 3581L1568.09 3693.41L1609.59 4138.41Z" fill="#6A3787"/>
<path d="M2796.5 4977.5L2659.5 5618.5L2363.5 5057L2796.5 4977.5Z" fill="#7D2359"/>
<path d="M2871.01 6360.71L3805.22 6682.13L3145.54 6736.18L2871.01 6360.71Z" fill="#743C94"/>
<path d="M9631.5 6987.5L8762.5 7162L9349 6767L9631.5 6987.5Z" fill="#57347A"/>
<path d="M9216.6 6796.26L8628.5 6733L8858.5 7178.5L9216.6 6796.26Z" fill="#6E2C67"/>
<path d="M2632.38 5916.42L2307.5 5700.96L2793.5 5362L2632.38 5916.42Z" fill="#873C69"/>
<path d="M7004.5 6451L6759 6172.5L7436.5 6451L7004.5 6451Z" fill="#6C296A"/>
<path d="M7197 7041.5L7738.5 7260.5L7593.17 6915.76L7197 7041.5Z" fill="#704E93"/>
<path d="M7823 4605.5L7328 4243L7003 4471.5L7823 4605.5Z" fill="#73328A"/>
<path d="M8392.07 6488.83L8034.57 6705.33L7695.07 6235.33L8392.07 6488.83Z" fill="#6B4690"/>
<path d="M8166.5 5729.5L8654.23 6109.35L8347.93 6210.85L8166.5 5729.5Z" fill="#57347A"/>
<path d="M8052 6858.5L7619 7178.52L7956.5 7203.5L8052 6858.5Z" fill="#6E2C67"/>
<path d="M8512.53 6353.46L7997.03 6244.46L8172.53 6553.96L8512.53 6353.46Z" fill="#663764"/>
<path d="M4859.5 2140.5L5253 2661L6754.5 2347.5L4859.5 2140.5Z" fill="#654087"/>
<path d="M3572.5 5868L2940.5 5817.5L3168.5 5407.5L3572.5 5868Z" fill="#D4388B"/>
<path d="M4617.6 6477.31L4019.56 6220.74L4267.7 5974.47L4617.6 6477.31Z" fill="#D4388B"/>
<path d="M4410.5 5557.5L3770.5 5532.5L3913.23 5202.72L4410.5 5557.5Z" fill="#D4388B"/>
<path d="M8374 7102.21L7566 7036.21L7907 6786.71L8374 7102.21Z" fill="#57347A"/>
<path d="M8710 7295L8136 7353L8219.5 7640L8710 7295Z" fill="#462B62"/>
<path d="M8545.79 6514.65L9109.5 6850.26L8153 6717.26L8545.79 6514.65Z" fill="#7C4DA7"/>
<path d="M9574.01 7072L9386 6858.5L9665 6709L9574.01 7072Z" fill="#5B296C"/>
<path d="M8956.5 7406.5L9307.5 7008L9526 7146.5L8956.5 7406.5Z" fill="#622D6A"/>
<path d="M7442.76 5620.1L7748.5 6118.5L7781.5 5653L7442.76 5620.1Z" fill="#57347A"/>
<path d="M2053.96 5231.9L1691.84 5454.67L1649.3 4978L2053.96 5231.9Z" fill="#3A214E"/>
<path d="M2270.92 4331L1800.92 4759L1744.14 4132L2270.92 4331Z" fill="#3A214E"/>
<path d="M6717.5 3674.5L7038.5 3114L7494 3537L6717.5 3674.5Z" fill="#743C94"/>
<path d="M3393 7447.5L3068.83 7147.82L3914.5 7396.5L3393 7447.5Z" fill="#52306E"/>
<path d="M3006.01 6499.21L2550.5 6167L2661.01 6449.21L3006.01 6499.21Z" fill="#7E56A4"/>
<path d="M1825.54 6238.89L2242.5 6722.5L2187.5 5910.5L1825.54 6238.89Z" fill="#6D4486"/>
<path d="M2849.7 7221.02L2575 6855.5L3327.87 7108.85L2849.7 7221.02Z" fill="#743C94"/>
<path d="M3935.74 4289.51L3642.59 4520.43L3153 4163.51L3935.74 4289.51Z" fill="#5C4075"/>
<path d="M2243.51 7024.71L2617.46 7247.46L2748.5 6912L2243.51 7024.71Z" fill="#542A6C"/>
<path d="M2799.23 6953.38L3119.5 6901L2723.89 6583.21L2799.23 6953.38Z" fill="#542A6C"/>
<path d="M3830.5 7015.21L3672.01 6663.21L4663.51 7015.21L3830.5 7015.21Z" fill="#7E56A4"/>
<path d="M5733.01 7293.21L5332 7103.5L6167.51 7159.59L5733.01 7293.21Z" fill="#7E56A4"/>
<path d="M1449.97 5703.34L2063 5316L1398.5 5224.5L1449.97 5703.34Z" fill="#5C4075"/>
<path d="M1892.5 6060L2333.89 5713.6L1971.5 5557L1892.5 6060Z" fill="#5C4075"/>
<path d="M3729.5 7042.56L4066 7273.5L4234.5 7042.56L3729.5 7042.56Z" fill="#542A6C"/>
<path d="M4722 7534L5388.5 7428L4799 7150.5L4722 7534Z" fill="#542A6C"/>
<path d="M6102.85 7142.77L5494 7468.5L6452.31 7414.91L6102.85 7142.77Z" fill="#743C94"/>
<path d="M5463.5 7681.5L5774.5 7286.5L4989.5 7112L5463.5 7681.5Z" fill="#5C3971"/>
<path d="M6207.5 7704.5L5484.7 7791.44L5803 7390.5L6207.5 7704.5Z" fill="#542A6C"/>
<path d="M4552.5 7214.21L4603 6990.5L5541 7112L4552.5 7214.21Z" fill="#743C94"/>
<path d="M7870.5 7376L7433.5 7706.49L8342 7666.5L7870.5 7376Z" fill="#6B4690"/>
<path d="M4722.92 7739.54L4366.38 7343.68L5060 7500L4722.92 7739.54Z" fill="#743C94"/>
<path d="M6348.66 7675.01L6662.38 7803.48L6685 7200.5L6348.66 7675.01Z" fill="#542A6C"/>
<path d="M7274 7746L7786.5 7471.5L7058.31 7301.04L7274 7746Z" fill="#542A6C"/>
<path d="M1802 5043L2055.5 4548.5L1619 4702L1802 5043Z" fill="#6A3787"/>
<path d="M2420.54 4820.82L2593.79 4601.11L2348.79 4601.11L2420.54 4820.82Z" fill="#6A3787"/>
<path d="M7229.5 5312L7643.5 5700.5L7643.5 5455.5L7229.5 5312Z" fill="#542A6C"/>
<path d="M2300.5 5741.5L2611.01 5393.7L2224 4964.5L2300.5 5741.5Z" fill="#5E2858"/>
<path d="M2914.51 6345.71L3271.5 6231L2775.01 6129.21L2914.51 6345.71Z" fill="#5E2858"/>
<path d="M2796.01 6347.21L2556.5 6044L3073 5956.5L2796.01 6347.21Z" fill="#873C69"/>
<path d="M5281.89 5604.9L5946.95 5907.94L5656.72 5517.46L5281.89 5604.9Z" fill="#BA4FAF"/>
<path d="M3152.26 5645.18L2967.27 6025.38L2750.77 5743.88L3152.26 5645.18Z" fill="#7D2359"/>
<path d="M5893.29 6782.89L5237.55 6645.4L5549.51 6962.24L5893.29 6782.89Z" fill="#BA4FAF"/>
<path d="M5955 5984.5L6564.51 6107.83L6379.19 5759.41L5955 5984.5Z" fill="#D4388B"/>
<path d="M4504.49 6563.5L4391 6084L4897.32 6143.95L4504.49 6563.5Z" fill="#C84A9D"/>
<path d="M3414 5283L3219 4852.5L3585.5 5025L3414 5283Z" fill="#7D2359"/>
<path d="M4053 5437L4295 4897L4527 5104.5L4053 5437Z" fill="#BB54B1"/>
<path d="M5040 5374.98L5512 5298L5386.08 5520L5040 5374.98Z" fill="#AB2E79"/>
<path d="M4989.13 2389L5398.12 2947.5L5768.62 2682.5L4989.13 2389Z" fill="#3A214E"/>
<path d="M2381 6402.79L2635.01 6453.5L2419.01 6171L2381 6402.79Z" fill="#542A6C"/>
<path d="M3155 6035.5L3492 5653L3857.5 5923L3155 6035.5Z" fill="#7D2359"/>
<path d="M2897.5 5352L3378.5 5162L3066.5 5034.63L2897.5 5352Z" fill="#6E2C67"/>
<path d="M4766.5 7719L5721.5 7778L5281 7429L4766.5 7719Z" fill="#3A214E"/>
<path d="M4881.7 5926.49L4727.38 6275.91L5115.82 6440.08L4881.7 5926.49Z" fill="#B43C7C"/>
<path d="M3155 5150L3082.2 5617.41L2752 5408L3155 5150Z" fill="#7D2359"/>
<path d="M4582.3 6745.35L3896 6418.53L4380.58 6342.93L4582.3 6745.35Z" fill="#7D2359"/>
<path d="M4834.5 6542.5L4732.32 6912.13L4398.5 6698L4834.5 6542.5Z" fill="#AF357E"/>
<path d="M4418.5 5499L4859.5 5690.5L4240 5786L4418.5 5499Z" fill="#7D2359"/>
<path d="M4456 6908.5L5127.8 7052.27L5063 6783.5L4456 6908.5Z" fill="#D4388B"/>
<path d="M5383 7026.97L6054.8 7170.75L5990 6901.97L5383 7026.97Z" fill="#9F2968"/>
<path d="M6251.79 6497.6L6025.08 6169L5823.79 6738.6L6251.79 6497.6Z" fill="#9F2968"/>
<path d="M4925.31 6028.9L4854.02 5604.5L5433.72 5696.56L4925.31 6028.9Z" fill="#D4388B"/>
<path d="M3666.5 5719.5L3167.5 5582.5L3471 5378.5L3666.5 5719.5Z" fill="#CD5CA7"/>
<path d="M2455 5138.5L2710 4917.5L2168.5 4917.5L2455 5138.5Z" fill="#823C88"/>
<path d="M3396.51 5102.94L2847 5073.24L3093.51 4868.79L3396.51 5102.94Z" fill="#9F3274"/>
<path d="M4130 4973.5L3321 4865L3637.9 5131.61L4130 4973.5Z" fill="#9F3274"/>
<path d="M4334.38 4884.15L4075.5 5142.5L3824.37 4884.15L4334.38 4884.15Z" fill="#D4388B"/>
<path d="M7648.6 6499.84L8107.04 6268.73L7707.48 7066.38L7648.6 6499.84Z" fill="#6C296A"/>
<path d="M5279.24 6773.79L4955.86 6300.59L4885.62 6697.05L5279.24 6773.79Z" fill="#AD618A"/>
<path d="M4354 5209.74L4923.5 5247.24L4582.5 5010.24L4354 5209.74Z" fill="#D4388B"/>
<path d="M6552.33 6163.3L6432.39 6372L6400.89 6016L6552.33 6163.3Z" fill="#883685"/>
<path d="M2921.31 4626.58L2575.81 4117.79L3378.18 4342.67L2921.31 4626.58Z" fill="#3A214E"/>
<path d="M2543.03 4205.28L2906.59 3832.17L2643.5 3342L2543.03 4205.28Z" fill="#542A6C"/>
<path d="M3904.5 4194L3192.5 3982L3005.5 4323L3904.5 4194Z" fill="#542A6C"/>
<path d="M2689.44 4493.03L2901.44 3973.53L2503.63 4202.91L2689.44 4493.03Z" fill="#6A3787"/>
<path d="M3130 6362.41L4216.5 6786.41L4013.5 6437L3130 6362.41Z" fill="#D4388B"/>
<path d="M4078 6758.5L4422 6606L4669.5 6991.5L4078 6758.5Z" fill="#A3327C"/>
<path d="M4458.5 4733.97L4889.5 4917L4042 4820.47L4458.5 4733.97Z" fill="#873C69"/>
<path d="M5527.5 4838L5908 5033.5L5280.5 4904.5L5527.5 4838Z" fill="#873C69"/>
<path d="M4305 4765L4093 4866L3863 4750.35L4305 4765Z" fill="#5E2858"/>
<path d="M5525 4947L5007.5 4743L4880 4959L5525 4947Z" fill="#5E2858"/>
<path d="M4757 4914L5125.5 4738.5L4526.5 4738.5L4757 4914Z" fill="#532B69"/>
<path d="M2815.5 4952.5L3222 4851.5L2626 4648L2815.5 4952.5Z" fill="#5E2858"/>
<path d="M3386 4558L2989 4805L2670 4576L3386 4558Z" fill="#7C4DA7"/>
<path d="M9457 3678.5L9527.5 2897L9702 3175.5L9457 3678.5Z" fill="#522F6E"/>
<path d="M6227.23 4329.01L5795.28 3964.81L5376.04 4143.39L6227.23 4329.01Z" fill="#542A6C"/>
<path d="M6050.5 2438L5646.23 2158L5646.23 2847.5L6050.5 2438Z" fill="#542A6C"/>
<path d="M1157 3416.5L1593 3471L1824 3742.64" stroke="#F7F7F7" stroke-width="10"/>
<path d="M2179.51 4566.2L2330.54 4030.54L2011.5 3988L1833.5 3738M2179.51 4566.2L1611.01 4716.7M2179.51 4566.2L2226.51 5144.2L1807.51 5543.7M2179.51 4566.2L3020 4328M1833.5 3738L1985.5 3497L2282.5 3429M1833.5 3738L1476.01 4173.7M1611.01 4716.7L1330.01 5162.2L1807.51 5543.7M1611.01 4716.7L1476.01 4173.7M1807.51 5543.7L1580.01 5913.2L2295.01 6499.2M1807.51 5543.7L2179.51 5755.2L2295.01 6499.2M1476.01 4173.7L900.506 4030.54M2295.01 6499.2L2266.01 7027.2L3010.01 7193.7M2295.01 6499.2L2841.01 6602.71L3010.01 7193.7M3010.01 7193.7L3535.51 7230.7L4077.51 7596.2M3010.01 7193.7L3622.01 6925.21L4077.51 7596.2M4077.51 7596.2L4556.01 7218.21L5262.51 7496.21M4752.01 7662.21L5262.51 7496.21M5262.51 7496.21L5744.01 7546.71L6202.51 7706.21L6664.01 7546.71M5262.51 7496.21L5754.51 7291.21L6664.01 7546.71M6664.01 7546.71L7188.51 7594.21L7582.01 7306.71" stroke="#F7F7F7" stroke-width="10"/>
<path d="M7677.29 6317.22L9270.99 6726.68" stroke="#F7F7F7" stroke-width="10"/>
<path d="M1144.79 3430.24L1294.78 3710.48L1074.53 3733.76L895.63 4038.71L960.369 4184.08L805.001 4563.51L993.973 4959.66L1335.72 5180.65L1475.61 5789.03L2157.26 6684.1L2284.81 7098.33L2570.41 7258.5L2988.82 7186.7L3485.78 7503.66M1144.79 3430.24L1232.89 3215.08L1495.62 3220.01M1144.79 3430.24L1495.62 3220.01M1495.62 3220.01L1535 3113M1596.04 2974.77L1739.81 2855.89L2109.74 2756.82M1596.04 2974.77L2109.74 2756.82M1596.04 2974.77L1535 3113M4478 4590.45L3734.52 4649.7M4478 4590.45L4857.03 4263.58L5386.02 4518.09M4478 4590.45L4069.51 4370.08L3734.52 4649.7M6973.52 5306.45L6451.51 5022.09L5193.01 4758.2L4964.02 4707.09L3393.52 4761.09M6973.52 5306.45L7245.72 5288.24L7588.13 5428.45L8176.17 5734.08M6973.52 5306.45L7519.3 5556.95L7698.55 5761.95M8176.17 5734.08L8505.09 5933.6L8816.08 6282.47L9047.44 6377.21L9276.28 6438.5L9668.7 6707.25L9637.69 6980.91M8176.17 5734.08L8117.39 5996.37L8887.74 6490.11L9267.16 6645.48L9264.17 6784.73L8859.86 6835.29L8124.69 6809.8L7987.83 7196.8M9637.69 6980.91L9112.59 7154.9L7987.83 7196.8M9637.69 6980.91L9498.58 7188.69L9082.63 7412.78L8801.4 7400.28L8435.78 7488.29L8367.39 7562.94L8344.21 7672.32L8132.38 7688.23L8023.85 7676.21L7942.63 7729.4L7855.95 7769.55L7354.5 7703L7316.62 7754.01C7190.13 7741.83 6931.39 7718.37 6908.34 7721.9C6885.28 7725.42 6706.25 7758.01 6645.17 7770.82L6630.01 7807.84L6327.53 7781.23L5789.87 7787.99L5162.18 7790.3L4734.56 7739.46L4698.56 7827.38L4449.93 7801.21L4325.22 7723.13L4128.54 7702.03L4026.49 7806.12L3772 7701.91L3485.78 7503.66M7987.83 7196.8L7442.91 7524.77L6985.98 7651.03L6078.29 7716.99L4654.44 7658.03L4166.44 7609.49L3485.78 7503.66M7987.83 7196.8L7581.18 7305.84L6668.25 7331.82L5707.58 7289.64L4554.04 7217.1L4284.65 7004.13L3621.44 6921.66L3368.49 6628.98L2839.46 6601.45L2478 6291.2L2450.75 6100.2L2423.5 5909.2L2264.52 5871.7L2182.51 5766.21L2157.26 5464.2L2224.5 5148.2L2341 5022.09L2423.5 4860.59L2592.02 4716.59M2592.02 4716.59L2702 4734M2592.02 4716.59L3020 4327M3393.52 4761.09L3734.52 4649.7M3393.52 4761.09L3198.02 4798.59L2702 4734M3734.52 4649.7L5386.02 4518.09M3734.52 4649.7L3051.5 4418.5L2702 4734M6159.27 7123.4L6443.49 6996.66L6658.36 6722.64L6620.18 6393.64L6502.21 6285.9L6465.97 5833.42L6153.13 5370.33L5668.52 5022.09L5277.02 4915.09L5124.02 4949.59L4893.02 4941.59L4490.52 4871.59L4262.02 4871.59C4170.52 4867.92 3987.52 4860.59 3987.52 4860.59L3734.52 4860.59L3472.52 4885.59L3289.52 4918.59M6159.27 7123.4L7135.7 7166.64L7653.18 7130.01L7882.9 7083.6L7760 7004.13M6159.27 7123.4L4676.54 6997.11L3424.05 6532.86L2807.15 6350.49L2570.41 6166.7M6761.66 2312.24L6153.13 2657.75L5651.77 2175.79M6761.66 2312.24L7158.5 2727L7677.85 2312.24M6761.66 2312.24L7677.85 2312.24M6761.66 2312.24L6208.67 2241.75L5651.77 2175.79M9668.7 2957.24L9791.66 3733.76M9668.7 2957.24L8664.66 2523.35M9668.7 2957.24L8887.74 3082.75L8664.66 2523.35M9791.66 3733.76L9620.53 3064.08L8860.03 3177.08M9791.66 3733.76L9385.16 3975.58L9385.16 4454.45M9791.66 3733.76L9297.53 3921.58M9791.66 3733.76L9768.5 3898.58L9668.7 4086L9385.16 4454.45M9385.16 4454.45L8717.03 4324.58L8344.21 4931.28M9385.16 4454.45L8654.5 4900.5L8344.21 4931.28M8344.21 4931.28L7519.3 4547.16M8344.21 4931.28L7891.03 4324.58L7519.3 4547.16M7519.3 4547.16L6620.18 4454.45M7519.3 4547.16L7062.03 4113.08L6620.18 4454.45M6620.18 4454.45L5386.02 4518.09M6620.18 4454.45L5948.53 4113.08L5386.02 4518.09M4473.16 2229.75L3851.53 2432.07L3228.17 2616.75M4473.16 2229.75L5061.67 2103.25L5651.77 2175.79M4473.16 2229.75L5107.67 2583.75L5651.77 2175.79M4473.16 2229.75L3923.03 2760.51L3228.17 2616.75M7677.85 2312.24L8176.17 2312.24L8664.66 2523.35M7677.85 2312.24L8029.5 2821L8664.66 2523.35M3228.17 2616.75L2479.67 2657.75L2109.74 2756.82M3228.17 2616.75L2705 2821L2109.74 2756.82M3950.53 2898.58L4473.16 2362.58L5107.67 2699.08M3950.53 2898.58L4204.03 3189.58M3950.53 2898.58L3228.16 2731.5L2705 2929L2109.74 2855.89L1535 3113M5107.67 2699.08L5651.77 2300.08L6153.13 2760.51M5107.67 2699.08L5281.5 3013.5M6153.13 2760.51L6753.03 2427.58L7158.5 2857.51M6153.13 2760.51L6268 3028M7158.5 2857.51L7659 2455L7991 2951M7158.5 2857.51L7245.72 3064.08M7991 2951L8636.03 2650.58L8860.03 3177.08M7991 2951L8071 3201M8860.03 3177.08L8814.03 3375.95M9297.53 3921.58L9297.53 4376.08L8689.03 4230.08M9297.53 3921.58L8918.03 3898.58M9297.53 3921.58L9446.5 3733.76L9385.16 3571.5L9121.5 3417.5L8814.03 3375.95M8689.03 4230.08L8344.21 4786.08L7891.03 4230.08M8689.03 4230.08L8918.03 3898.58M7891.03 4230.08L7519.3 4454.45L7062.03 4008.58M7891.03 4230.08L8212 3819.5M7062.03 4008.58L6620.18 4370.08L5948.53 4008.58M7062.03 4008.58L7377.5 3667.5M5948.53 4008.58L5386.02 4431.09L4836.03 4178.08M5948.53 4008.58L6286.03 3689.08M4836.03 4178.08L4478 4495.7L4052.53 4263.58M4836.03 4178.08L5334.5 3689.08M4052.53 4263.58L4416.03 3863.08M4052.53 4263.58L3708 4546L3020 4327M6286.03 3689.08L6078.03 3380.08M6286.03 3689.08L6753.03 3648.5L6937 3554.5L7016 3375.95M6078.03 3380.08L6268 3028M6078.03 3380.08L5885.5 3028L5568 2994L5281.5 3013.5M6078.03 3380.08L5948.53 3554.5L5808.5 3648.5L5334.5 3689.08M6268 3028L6595.5 3013.5L6886.5 3086.08L7016 3375.95M7377.5 3667.5L7677.85 3651.08L7841.03 3447.58M7377.5 3667.5L7158.5 3569L7016 3375.95M7016 3375.95L7245.72 3064.08M7245.72 3064.08L7537.5 3086.08L7806 3192.5L7841.03 3447.58M7841.03 3447.58L8071 3201M7841.03 3447.58L7942.5 3689.08L8212 3819.5M8212 3819.5L8503.5 3771L8599.53 3545.08M8599.53 3545.08L8568.5 3345.5L8349.5 3220L8071 3201M8599.53 3545.08L8814.03 3375.95M8599.53 3545.08L8746.5 3793L8918.03 3898.58M5281.5 3013.5L5061.67 3380.08M5061.67 3380.08L4820 3112L4449.03 3086.08L4204.03 3189.58M5061.67 3380.08L4977.03 3605.58L4805.5 3788.5L4416.03 3863.08M5061.67 3380.08L5214.5 3605.58L5334.5 3689.08M4204.03 3189.58L3963 3509.2M3963 3509.2L3722.5 3232.5L3342.5 3223.08L3008 3319L2839.46 3631.58M3963 3509.2L3821 3755.7L3652.5 3863.08L3424.05 3921.58M3963 3509.2L4119.5 3735.5L4416.03 3863.08M2839.46 3631.58L3029.5 3855.5L3424.05 3921.58M2839.46 3631.58L2625.5 3415L2276 3428.5M2839.46 3631.58L2724 3921.58L2331 4031M3424.05 3921.58L3020 4327M7698.55 5761.95L7740.08 5809.45L7809.63 6048.64L7641.26 6314.68L7684.58 6354.03L7606.85 6662.59L7677.85 6951.01L7760 7004.13M7698.55 5761.95L7191.5 5665.5L6923 5665.5L6793 5706.5L6730.5 5879.5L6923 5933.6L7139.5 5906L7298 5965L7442.91 5965L7505 6031L7555.5 6156.5L7461.5 6206L7281.5 6206L7055 6183L6871.5 6156.5L6752 6231L6812 6418.5L7019 6440L7238 6409L7425.5 6459.5L7442.91 6606L7298 6707.5L7103 6662.59L6872.5 6695.5L6793 6801L6812 6909.5L6944.5 6951.01L7103 6892.5L7281.5 6909.5L7442.91 6936L7653.18 6996.66L7760 7004.13" stroke="#F7F7F7" stroke-width="10"/>
<circle cx="9127.55" cy="3436.61" r="48" transform="rotate(22.2684 9127.55 3436.61)" fill="#F7F7F7"/>
<circle cx="5586.55" cy="3009.61" r="48" transform="rotate(22.2684 5586.55 3009.61)" fill="#F7F7F7"/>
<circle cx="6592.55" cy="3027.61" r="48" transform="rotate(22.2684 6592.55 3027.61)" fill="#F7F7F7"/>
<path d="M4238.51 4921.5L4393.95 4967.33L4612.04 5094.46L4635.79 5142.01L4673.61 5287.16L4736.89 5383.31L4843.31 5426.89L4949.56 5378.55L4987.45 5286.01L4947.52 5172.4L4836.29 5035L5028.52 5146.13L5274.37 5284.63L5495.2 5418.28L5647.89 5480.8L5664.54 5374.16L5624.4 5287.48L5513.13 5268.93L5263.26 5166.62L4982.29 5008.34L4864.51 4938.5" stroke="#F7F7F7" stroke-width="15"/>
<path d="M3291.51 4915L3380.19 5173.55L3242.4 5219.79L3258.13 5339.69L3330.93 5293.86L3401.79 5371.5L3540.6 5428.35L3670.74 5638.32L3774.17 5821.15L3883.94 5909.33L4218.37 6003.05L4503.4 6006.3" stroke="#F7F7F7" stroke-width="15"/>
<path d="M2731 5307.54L2719.37 5481.08L2750.4 5774.74L2866.88 5952.11L2994.9 6193.63L3233.18 6350.64L3442.41 6538.97M2731 5307.54L2458 5068.5M2731 5307.54L2884.39 5170.44L2931.76 5054.77L2989.14 4974.88L3107.51 4899M2458 5068.5L2384.51 5208L2321.4 5436.98L2296.95 5589.06L2320.88 5728.53L2488.73 5754.04L2545.06 5906.77L2572.5 6170M2458 5068.5L2627.51 4880.5L2813.01 4953L3107.51 4899M3107.51 4899L3294 4919" stroke="#F7F7F7" stroke-width="15"/>
<path d="M4250 4872.5L4208.6 5037.32L4148.85 5077.68L4179.08 5241.35L4221.13 5323.4L4152.92 5489.98L4134.99 5639.32L4225.81 5773.77L4451.88 5947.38L4581.62 6092.36L4541.83 6189.53L4659.58 6324.19L4697.51 6598.7L4981.01 6834.7L5241.01 6954.22L5520.01 6969.2L5811.87 7006.75L5894.54 7002.78L5973.85 6954.22L6092.88 7046.18L6190.05 7085.97" stroke="#F7F7F7" stroke-width="15"/>
<circle cx="883.348" cy="4721.35" r="80" transform="rotate(22.2684 883.348 4721.35)" fill="#F7F7F7"/>
<circle cx="1601.19" cy="5968.72" r="80" transform="rotate(22.2684 1601.19 5968.72)" fill="#F7F7F7"/>
<circle cx="2113.79" cy="6643.28" r="80" transform="rotate(22.2684 2113.79 6643.28)" fill="#F7F7F7"/>
<circle cx="2575.35" cy="7292.35" r="80" transform="rotate(22.2684 2575.35 7292.35)" fill="#F7F7F7"/>
<circle cx="3022.05" cy="7228.28" r="67.2" transform="rotate(22.2684 3022.05 7228.28)" fill="#F7F7F7"/>
<circle cx="4005.35" cy="7788.35" r="80" transform="rotate(22.2684 4005.35 7788.35)" fill="#F7F7F7"/>
<circle cx="5288.35" cy="7809.35" r="80" transform="rotate(22.2684 5288.35 7809.35)" fill="#F7F7F7"/>
<circle cx="6197.74" cy="7788.53" r="56" transform="rotate(22.2684 6197.74 7788.53)" fill="#F7F7F7"/>
<circle cx="5708.04" cy="7788.99" r="56" transform="rotate(22.2684 5708.04 7788.99)" fill="#F7F7F7"/>
<circle cx="929.349" cy="4030.35" r="80" transform="rotate(22.2684 929.349 4030.35)" fill="#F7F7F7"/>
<circle cx="1588.35" cy="2961.35" r="80" transform="rotate(22.2684 1588.35 2961.35)" fill="#F7F7F7"/>
<circle cx="7663.87" cy="5458.05" r="40" transform="rotate(22.2684 7663.87 5458.05)" fill="#F7F7F7"/>
<path d="M8221.52 5744.21C8213.15 5764.65 8189.79 5774.44 8169.34 5766.07C8148.9 5757.7 8139.11 5734.34 8147.48 5713.89C8155.86 5693.45 8179.22 5683.66 8199.66 5692.03C8220.1 5700.41 8229.89 5723.77 8221.52 5744.21Z" fill="#DBDBDB"/>
<circle cx="8678.38" cy="6115.53" r="40" transform="rotate(22.2684 8678.38 6115.53)" fill="#F7F7F7"/>
<circle cx="9239.38" cy="6431.71" r="40" transform="rotate(22.2684 9239.38 6431.71)" fill="#F7F7F7"/>
<circle cx="9239.35" cy="7344.35" r="80" transform="rotate(22.2684 9239.35 7344.35)" fill="#F7F7F7"/>
<circle cx="8686.35" cy="7457.35" r="80" transform="rotate(22.2684 8686.35 7457.35)" fill="#F7F7F7"/>
<circle cx="9658.35" cy="6698.35" r="80" transform="rotate(22.2684 9658.35 6698.35)" fill="#F7F7F7"/>
<circle cx="2420.35" cy="2667.35" r="80" transform="rotate(22.2684 2420.35 2667.35)" fill="#F7F7F7"/>
<circle cx="3249.35" cy="2603.35" r="80" transform="rotate(22.2684 3249.35 2603.35)" fill="#F7F7F7"/>
<circle cx="3480.22" cy="7521.39" r="74.6667" transform="rotate(22.2684 3480.22 7521.39)" fill="#F7F7F7"/>
<circle cx="8348.39" cy="7686.66" r="40" transform="rotate(22.2684 8348.39 7686.66)" fill="#F7F7F7"/>
<circle cx="9635.35" cy="7002.35" r="80" transform="rotate(22.2684 9635.35 7002.35)" fill="#F7F7F7"/>
<circle cx="7669.02" cy="6306.63" r="53.3333" transform="rotate(22.2684 7669.02 6306.63)" fill="#F7F7F7"/>
<circle cx="7030.04" cy="5310.81" r="66.67" transform="rotate(22.2684 7030.04 5310.81)" fill="#F7F7F7"/>
<circle cx="5072.3" cy="3391.35" r="80" transform="rotate(22.2684 5072.3 3391.35)" fill="#F7F7F7"/>
<circle cx="6088.3" cy="3386.35" r="80" transform="rotate(22.2684 6088.3 3386.35)" fill="#F7F7F7"/>
<circle cx="7024.29" cy="3380.35" r="80" transform="rotate(22.2684 7024.29 3380.35)" fill="#F7F7F7"/>
<circle cx="7850.29" cy="3454.35" r="80" transform="rotate(22.2684 7850.29 3454.35)" fill="#F7F7F7"/>
<circle cx="7543.54" cy="3096.61" r="48" transform="rotate(22.2684 7543.54 3096.61)" fill="#F7F7F7"/>
<circle cx="8346.54" cy="3230.61" r="48" transform="rotate(22.2684 8346.54 3230.61)" fill="#F7F7F7"/>
<circle cx="8609.31" cy="3559.35" r="80" transform="rotate(22.2684 8609.31 3559.35)" fill="#F7F7F7"/>
<circle cx="3970.3" cy="3515.34" r="80" transform="rotate(22.2684 3970.3 3515.34)" fill="#F7F7F7"/>
<circle cx="4466.54" cy="3093.61" r="48" transform="rotate(22.2684 4466.54 3093.61)" fill="#F7F7F7"/>
<circle cx="2858.3" cy="3637.35" r="80" transform="rotate(22.2684 2858.3 3637.35)" fill="#F7F7F7"/>
<circle cx="3053.04" cy="4316.04" r="56" transform="rotate(22.2684 3053.04 4316.04)" fill="#F7F7F7"/>
<circle cx="4084.04" cy="4260.04" r="56" transform="rotate(22.2684 4084.04 4260.04)" fill="#F7F7F7"/>
<circle cx="5981.04" cy="4002.04" r="56" transform="rotate(22.2684 5981.04 4002.04)" fill="#F7F7F7"/>
<circle cx="4866.04" cy="4160.04" r="56" transform="rotate(22.2684 4866.04 4160.04)" fill="#F7F7F7"/>
<circle cx="7922.04" cy="4227.04" r="56" transform="rotate(22.2684 7922.04 4227.04)" fill="#F7F7F7"/>
<circle cx="7090.04" cy="4002.04" r="56" transform="rotate(22.2684 7090.04 4002.04)" fill="#F7F7F7"/>
<circle cx="8719.04" cy="4207.04" r="56" transform="rotate(22.2684 8719.04 4207.04)" fill="#F7F7F7"/>
<circle cx="7181.74" cy="5676.74" r="55" transform="rotate(22.2684 7181.74 5676.74)" fill="#F7F7F7"/>
<circle cx="7136.58" cy="6185.74" r="55" transform="rotate(22.2684 7136.58 6185.74)" fill="#F7F7F7"/>
<circle cx="7112.74" cy="6672.74" r="55" transform="rotate(22.2684 7112.74 6672.74)" fill="#F7F7F7"/>
<circle cx="5390.48" cy="4517.48" r="33.335" transform="rotate(22.2684 5390.48 4517.48)" fill="#F7F7F7"/>
<circle cx="4320.23" cy="4736.96" r="66.67" transform="rotate(22.2684 4320.23 4736.96)" fill="#F7F7F7"/>
<circle cx="6187.21" cy="7093.81" r="53.3333" transform="rotate(22.2684 6187.21 7093.81)" fill="#F7F7F7"/>
<circle cx="7977.68" cy="7191.6" r="53.3333" transform="rotate(22.2684 7977.68 7191.6)" fill="#F7F7F7"/>
<circle cx="8488.27" cy="6521.26" r="60" transform="rotate(22.2684 8488.27 6521.26)" fill="#DBDBDB"/>
<circle cx="1345.66" cy="5194.11" r="80" transform="rotate(22.2684 1345.66 5194.11)" fill="#F7F7F7"/>
<circle cx="4467.35" cy="2204.35" r="80" transform="rotate(22.2684 4467.35 2204.35)" fill="#F7F7F7"/>
<circle cx="4028.26" cy="6753.26" r="60" transform="rotate(22.2684 4028.26 6753.26)" fill="#F7F7F7"/>
<circle cx="4685.11" cy="7021.26" r="60" transform="rotate(22.2684 4685.11 7021.26)" fill="#F7F7F7"/>
<circle cx="6645.39" cy="7797.51" r="74.6667" transform="rotate(22.2684 6645.39 7797.51)" fill="#F7F7F7"/>
<circle cx="4711.57" cy="7808.57" r="53.3333" transform="rotate(22.2684 4711.57 7808.57)" fill="#F7F7F7"/>
<circle cx="7179.18" cy="7743.04" r="56" transform="rotate(22.2684 7179.18 7743.04)" fill="#F7F7F7"/>
<path d="M7883.38 7812.66C7866.64 7853.55 7819.92 7873.13 7779.03 7856.38C7738.15 7839.64 7718.57 7792.92 7735.32 7752.03C7752.06 7711.15 7798.78 7691.57 7839.66 7708.32C7880.55 7725.06 7900.13 7771.78 7883.38 7812.66Z" fill="#F7F7F7"/>
<circle cx="1176.74" cy="3477.03" r="80" transform="rotate(22.2684 1176.74 3477.03)" fill="#F7F7F7"/>
<circle cx="1837.96" cy="3740.96" r="66.6667" transform="rotate(22.2684 1837.96 3740.96)" fill="#F7F7F7"/>
<circle cx="2334.49" cy="4029.48" r="33.3333" transform="rotate(22.2684 2334.49 4029.48)" fill="#F7F7F7"/>
<circle cx="2193.96" cy="4570.96" r="66.665" transform="rotate(22.2684 2193.96 4570.96)" fill="#F7F7F7"/>
<circle cx="1484.96" cy="4171.16" r="66.6667" transform="rotate(22.2684 1484.96 4171.16)" fill="#F7F7F7"/>
<circle cx="1615.48" cy="4718.69" r="33.3333" transform="rotate(22.2684 1615.48 4718.69)" fill="#F7F7F7"/>
<circle cx="1806.48" cy="5542.69" r="33.3333" transform="rotate(22.2684 1806.48 5542.69)" fill="#F7F7F7"/>
<circle cx="2295.48" cy="6498.69" r="33.3333" transform="rotate(22.2684 2295.48 6498.69)" fill="#F7F7F7"/>
<circle cx="2845.48" cy="6609.48" r="33.3333" transform="rotate(22.2684 2845.48 6609.48)" fill="#F7F7F7"/>
<circle cx="3620.48" cy="6924.48" r="33.3333" transform="rotate(22.2684 3620.48 6924.48)" fill="#F7F7F7"/>
<circle cx="2280.12" cy="3435.17" r="40" transform="rotate(22.2684 2280.12 3435.17)" fill="#F7F7F7"/>
<circle cx="3346.12" cy="3229.17" r="40" transform="rotate(22.2684 3346.12 3229.17)" fill="#F7F7F7"/>
<circle cx="6773.96" cy="2300.96" r="66.6667" transform="rotate(22.2684 6773.96 2300.96)" fill="#F7F7F7"/>
<circle cx="7692.96" cy="2300.96" r="66.6667" transform="rotate(22.2684 7692.96 2300.96)" fill="#F7F7F7"/>
<circle cx="5663.96" cy="2181.96" r="66.6667" transform="rotate(22.2684 5663.96 2181.96)" fill="#F7F7F7"/>
<ellipse cx="5506.85" cy="6245.04" rx="506.637" ry="506.635" transform="rotate(22.2684 5506.85 6245.04)" fill="url(#paint0_linear)"/>
<circle cx="3005.48" cy="6197.48" r="52.5" transform="rotate(22.2684 3005.48 6197.48)" fill="#F7F7F7"/>
<circle cx="2738.29" cy="5335.92" r="52.5" transform="rotate(22.2684 2738.29 5335.92)" fill="#F7F7F7"/>
<circle cx="3371.48" cy="5178.48" r="52.5" transform="rotate(22.2684 3371.48 5178.48)" fill="#F7F7F7"/>
<circle cx="2764.22" cy="5809.48" r="52.5" transform="rotate(22.2684 2764.22 5809.48)" fill="#F7F7F7"/>
<circle cx="2504.04" cy="6316.83" r="75" transform="rotate(22.2684 2504.04 6316.83)" fill="#F7F7F7"/>
<circle cx="3439.23" cy="6553.68" r="52.5" transform="rotate(22.2684 3439.23 6553.68)" fill="#F7F7F7"/>
<circle cx="6930.65" cy="7151.65" r="35" transform="rotate(22.2684 6930.65 7151.65)" fill="#F7F7F7"/>
<circle cx="3413.22" cy="4754.22" r="50" transform="rotate(22.2684 3413.22 4754.22)" fill="#F7F7F7"/>
<circle cx="2593.22" cy="4713.22" r="50" transform="rotate(22.2684 2593.22 4713.22)" fill="#F7F7F7"/>
<circle cx="2237.48" cy="5141.48" r="33.335" transform="rotate(22.2684 2237.48 5141.48)" fill="#F7F7F7"/>
<path d="M2422.18 5479.25C2406.49 5517.58 2362.69 5535.93 2324.36 5520.23C2286.03 5504.54 2267.68 5460.74 2283.37 5422.41C2299.07 5384.07 2342.87 5365.72 2381.2 5381.42C2419.53 5397.12 2437.88 5440.92 2422.18 5479.25Z" fill="#F7F7F7"/>
<circle cx="8692.96" cy="2525.96" r="66.6667" transform="rotate(22.2684 8692.96 2525.96)" fill="#F7F7F7"/>
<circle cx="9690.96" cy="2967.96" r="66.67" transform="rotate(22.2684 9690.96 2967.96)" fill="#F7F7F7"/>
<circle cx="9816.96" cy="3749.96" r="66.67" transform="rotate(22.2684 9816.96 3749.96)" fill="#F7F7F7"/>
<circle cx="9308.94" cy="3919.16" r="66.6667" transform="rotate(22.2684 9308.94 3919.16)" fill="#F7F7F7"/>
<circle cx="9393.46" cy="4455.69" r="33.3333" transform="rotate(22.2684 9393.46 4455.69)" fill="#F7F7F7"/>
<circle cx="8356.48" cy="4927.69" r="33.3333" transform="rotate(22.2684 8356.48 4927.69)" fill="#F7F7F7"/>
<circle cx="7542.48" cy="4556.69" r="33.3333" transform="rotate(22.2684 7542.48 4556.69)" fill="#F7F7F7"/>
<circle cx="6620.96" cy="4462.96" r="66.67" transform="rotate(22.2684 6620.96 4462.96)" fill="#F7F7F7"/>
<circle cx="4987.23" cy="4717.96" r="66.67" transform="rotate(22.2684 4987.23 4717.96)" fill="#F7F7F7"/>
<circle cx="6204.22" cy="4969.96" r="66.67" transform="rotate(22.2684 6204.22 4969.96)" fill="#F7F7F7"/>
<circle cx="5544.23" cy="4832.96" r="66.67" transform="rotate(22.2684 5544.23 4832.96)" fill="#F7F7F7"/>
<circle cx="4562.48" cy="7215.48" r="33.3333" transform="rotate(22.2684 4562.48 7215.48)" fill="#F7F7F7"/>
<circle cx="5274.48" cy="7495.48" r="33.3333" transform="rotate(22.2684 5274.48 7495.48)" fill="#F7F7F7"/>
<circle cx="5760.48" cy="7290.48" r="33.3333" transform="rotate(22.2684 5760.48 7290.48)" fill="#F7F7F7"/>
<circle cx="4079.48" cy="7591.48" r="33.3333" transform="rotate(22.2684 4079.48 7591.48)" fill="#F7F7F7"/>
<circle cx="7441.48" cy="7528.48" r="33.3333" transform="rotate(22.2684 7441.48 7528.48)" fill="#F7F7F7"/>
<circle cx="6651.48" cy="7544.48" r="33.3333" transform="rotate(22.2684 6651.48 7544.48)" fill="#F7F7F7"/>
<circle cx="7580.48" cy="7310.48" r="33.3333" transform="rotate(22.2684 7580.48 7310.48)" fill="#F7F7F7"/>
<ellipse cx="8661" cy="5362" rx="45" ry="45.0002" fill="#BDBDBD"/>
<ellipse cx="8377" cy="5168" rx="45" ry="45.0002" fill="#DBDBDB"/>
<ellipse cx="8347" cy="5539" rx="45" ry="45.0002" fill="#DBDBDB"/>
<ellipse cx="8821" cy="5016" rx="45" ry="45.0002" fill="#BDBDBD"/>
<ellipse cx="9053" cy="6030" rx="45" ry="45.0002" fill="#BDBDBD"/>
<ellipse cx="9016" cy="5574" rx="45" ry="45.0002" fill="#BDBDBD"/>
<ellipse cx="9194" cy="4914" rx="45" ry="45.0002" fill="#998AA3"/>
<ellipse cx="9053" cy="5213" rx="45" ry="45.0002" fill="#998AA3"/>
<ellipse cx="9337" cy="5385" rx="45" ry="45.0002" fill="#998AA3"/>
<ellipse cx="9337" cy="5794" rx="45" ry="45.0002" fill="#BDBDBD"/>
<ellipse cx="9392" cy="6203" rx="45" ry="45.0002" fill="#BDBDBD"/>
<ellipse cx="9463" cy="5086" rx="45" ry="45.0002" fill="#998AA3"/>
<ellipse cx="9577" cy="4730" rx="45" ry="45.0002" fill="#998AA3"/>
<ellipse cx="9649" cy="4303" rx="45" ry="45.0002" fill="#998AA3"/>
<ellipse cx="8028" cy="5333" rx="45" ry="45.0002" fill="#DBDBDB"/>
<ellipse cx="6051" cy="5940" rx="45" ry="45.0002" fill="white"/>
<ellipse cx="4490" cy="6005" rx="45" ry="45.0002" fill="white"/>
<ellipse cx="3703" cy="5684" rx="45" ry="45.0002" fill="white"/>
<ellipse cx="8009" cy="4996" rx="45" ry="45.0002" fill="#DBDBDB"/>
<ellipse cx="7657" cy="5161" rx="45" ry="45.0002" fill="#DBDBDB"/>
<ellipse cx="7272" cy="4959" rx="45" ry="45.0002" fill="#F7F7F7"/>
<ellipse cx="7619" cy="4839" rx="45" ry="45.0002" fill="#DBDBDB"/>
<ellipse cx="6769" cy="5517" rx="45" ry="45.0002" fill="white"/>
<ellipse cx="8776" cy="5749" rx="45" ry="45.0002" fill="#BDBDBD"/>
<defs>
<linearGradient id="paint0_linear" x1="5952.45" y1="5980.4" x2="5164.29" y2="6943.93" gradientUnits="userSpaceOnUse">
<stop stop-color="white"/>
<stop offset="1" stop-color="#979393"/>
</linearGradient>
</defs>
</svg>
