<svg width="8576" height="5702" viewBox="0 0 8576 5702" fill="none" xmlns="http://www.w3.org/2000/svg">
<path d="M4432.5 2511.14L4555.13 2717.02L4717.5 2621.4L4432.5 2511.14Z" fill="#D4388B"/>
<path d="M4734.75 2400.14L4640.25 2509.27L4458 2359.64L4734.75 2400.14Z" fill="#D4388B"/>
<path d="M5533.5 2505.52L5608.5 2589.14L5482.13 2597.4L5533.5 2505.52Z" fill="#C84A9D"/>
<path d="M1662.75 3730.28L2189.63 3529.65L1700.25 3161.77L1662.75 3730.28Z" fill="#3A214E"/>
<path d="M2207.25 3511.65L2128.88 3185.77L1784.63 3288.15L2207.25 3511.65Z" fill="#542A6C"/>
<path d="M1715.62 2966.02L1783.5 3320.4L1476 3289.27L1715.62 2966.02Z" fill="#6A3787"/>
<path d="M1918.87 4055.4L2252.62 3742.65L1460.25 3622.65L1918.87 4055.4Z" fill="#7D4AAB"/>
<path d="M1625.25 4404.91L2226.75 3980.78L1725 4052.4L1625.25 4404.91Z" fill="#9A57A3"/>
<path d="M1413.75 3617.4L1195.88 4229.4L1731.38 4130.4L1413.75 3617.4Z" fill="#542A6C"/>
<path d="M4597.8 2387.77L4493.63 2586.15L4669.13 2580.9L4597.8 2387.77Z" fill="#883685"/>
<path d="M4558.88 2651.77L4717.5 2812.65L4732.13 2651.77H4558.88Z" fill="#A3327C"/>
<path d="M4441.13 2632.27L4632.75 2402.39L4165.5 2318.02L4441.13 2632.27Z" fill="#A3327C"/>
<path d="M4425.38 2222.39L4688.63 2370.52L4409.25 2437.27L4425.38 2222.39Z" fill="#883685"/>
<path d="M2242.5 3155.02L2473.13 3619.65L2032.13 3496.65L2242.5 3155.02Z" fill="#8A4DA7"/>
<path d="M1926 3556.28L2484 3514.28L2173.13 3993.53L1926 3556.28Z" fill="#6A3787"/>
<path d="M6529.13 1629.51L6439.13 1935.51L6245.63 1839.14L6529.13 1629.51Z" fill="#883685"/>
<path d="M6198.75 1854.52L6052.88 2106.89L5952.38 1854.52H6198.75Z" fill="#D4388B"/>
<path d="M5628.75 2414.77L5522.25 2538.15L5582.63 2577.9L5628.75 2414.77Z" fill="#A3327C"/>
<path d="M5331.38 2257.27L5370.75 2381.39L5430.38 2257.27H5331.38Z" fill="#883685"/>
<path d="M1745.63 3212.77L1923.38 2859.9L2334 3212.77L1745.63 3212.77Z" fill="#6A3787"/>
<path d="M1063.5 3566.03L973.125 3747.15L1413.75 3698.78L1063.5 3566.03Z" fill="#492666"/>
<path d="M6229.88 1097.38L6634.5 903.506V1296.88L6229.88 1097.38Z" fill="#67236D"/>
<path d="M6236.25 2066.77L6167.63 2269.27L5974.5 2169.52L6236.25 2066.77Z" fill="#D4388B"/>
<path d="M6716.25 1670.76L6651 1839.14L6314.25 1692.14L6716.25 1670.76Z" fill="#7D4AAB"/>
<path d="M3262.13 3064.27L3408.38 3094.65L3237 3301.27L3262.13 3064.27Z" fill="#73328A"/>
<path d="M3436.5 3042.52L3234 3135.9L3358.5 2939.4L3436.5 3042.52Z" fill="#9A57A3"/>
<path d="M3108.38 2581.27L3331.88 2866.65L2754 2883.52L3108.38 2581.27Z" fill="#8A4DA7"/>
<path d="M5802.75 1162.63L5977.88 1196.76V1422.88L5802.75 1162.63Z" fill="#67236D"/>
<path d="M4764.75 2091.52L4724.25 1789.27L4357.88 2170.64L4764.75 2091.52Z" fill="#67236D"/>
<path d="M5680.13 1837.26L5470.5 1965.89L5306.25 1572.51L5680.13 1837.26Z" fill="#7D4AAB"/>
<path d="M5848.13 1943.77L6011.25 2121.89L5641.88 1968.14L5848.13 1943.77Z" fill="#7D4AAB"/>
<path d="M6415.88 2065.64L6235.88 1941.89L6571.5 1885.64L6415.88 2065.64Z" fill="#A3327C"/>
<path d="M4686.75 1246.63L5070.38 1602.13L4259.25 1550.76L4686.75 1246.63Z" fill="#743C94"/>
<path d="M1766.62 3653.4L1395.37 3297.52L1329 3743.78L1766.62 3653.4Z" fill="#6A3787"/>
<path d="M5500.5 1608.14L5971.13 1455.51L5481.75 1302.88L5500.5 1608.14Z" fill="#8B4EAD"/>
<path d="M1992.75 3816.53L1772.62 4112.03L1504.12 3816.53H1992.75Z" fill="#6A3787"/>
<path d="M5090.63 1649.39L5135.63 1879.64L4714.88 1686.14L5090.63 1649.39Z" fill="#9A57A3"/>
<path d="M7230.75 2256.89L7109.25 2531.02L7293 2316.14L7230.75 2256.89Z" fill="#C84A9D"/>
<path d="M7385.63 2179.64L7316.25 2203.39L7397.25 1998.89L7385.63 2179.64Z" fill="#883685"/>
<path d="M4365.75 2276.77L4189.13 2435.39L4351.5 2717.02L4365.75 2276.77Z" fill="#7D4AAB"/>
<path d="M4810.8 2584.27L4688.25 2801.02L4856.25 2757.22L4810.8 2584.27Z" fill="#883685"/>
<path d="M5187 1194.88L5920.13 1008.13L5349 965.006L5187 1194.88Z" fill="#743C94"/>
<path d="M5801.63 1433.76L5479.88 970.257L5860.5 902.007L5801.63 1433.76Z" fill="#69307D"/>
<path d="M7170.38 520.253L7096.13 358.252L6885 409.627L7170.38 520.253Z" fill="#6D2367"/>
<path d="M5615.62 1728.14L5363.25 1680.14L5458.12 1419.13L5615.62 1728.14Z" fill="#743C94"/>
<path d="M3346.13 2915.4L2935.88 2925.9L2703.75 3204.15L3346.13 2915.4Z" fill="#8B4EAD"/>
<path d="M3729 2744.4L3669.38 2943.52L3646.7 2793.52L3729 2744.4Z" fill="#8B4EAD"/>
<path d="M5023.5 2231.77L5407.13 2091.52L5216.63 1823.39L5023.5 2231.77Z" fill="#7D4AAB"/>
<path d="M2894.25 2870.77L2729.63 3198.15L2421.38 2525.02L2894.25 2870.77Z" fill="#6A3787"/>
<path d="M3255.75 1944.89L3070.5 2667.52L2742 2403.52L3255.75 1944.89Z" fill="#6A3787"/>
<path d="M3922.5 1941.14L4264.13 1560.89L3612.75 1719.14L3922.5 1941.14Z" fill="#743C94"/>
<path d="M5634.38 2318.02L5607.75 2549.02L5551.13 2396.77L5634.38 2318.02Z" fill="#D4388B"/>
<path d="M5511.75 2452.27L5498.25 2716.65L5399.63 2482.27L5511.75 2452.27Z" fill="#D4388B"/>
<path d="M6614.63 1216.63L6573.38 1698.13L6455.25 1409.76L6614.63 1216.63Z" fill="#D4388B"/>
<path d="M6672.75 545.002L6897.38 772.628L6473.25 688.627L6672.75 545.002Z" fill="#883685"/>
<path d="M3699.27 1989.89L3642.38 2397.89L3240 2029.26L3699.27 1989.89Z" fill="#9A57A3"/>
<path d="M4604.25 1571.76L4377.75 1857.14L4000.88 1738.64L4604.25 1571.76Z" fill="#9A57A3"/>
<path d="M2979 2397.89L2907.38 2966.77L2691.75 2557.27L2979 2397.89Z" fill="#9A57A3"/>
<path d="M4084.13 2258.39L3903 2595.14L3747.38 2397.89L4084.13 2258.39Z" fill="#9A57A3"/>
<path d="M3871.88 1537.26L4309.88 1857.51L3840.75 2068.26L3871.88 1537.26Z" fill="#67236D"/>
<path d="M8386.13 1415.76L8268.75 1644.89L8353.5 1388.76L8386.13 1415.76Z" fill="#D4388B"/>
<path d="M3691.13 1818.52L3993.38 2255.77L3361.5 2069.39L3691.13 1818.52Z" fill="#743C94"/>
<path d="M5344.5 2171.39L5353.88 2468.77L5232 2201.02L5344.5 2171.39Z" fill="#C84A9D"/>
<path d="M5196 2962.27L5112.75 3155.4L5064 3032.77L5196 2962.27Z" fill="#C84A9D"/>
<path d="M5452.13 2613.89L5466.38 2781.9L5378.25 2613.89H5452.13Z" fill="#C84A9D"/>
<path d="M1383.37 3600.53L1281 3366.9L942.375 3600.53H1383.37Z" fill="#542D6A"/>
<path d="M5343.75 2740.27L5188.13 2893.27L5328.75 2828.4L5343.75 2740.27Z" fill="#C84A9D"/>
<path d="M5473.88 2796.15L5274 2968.27L5419.5 2744.02L5473.88 2796.15Z" fill="#C84A9D"/>
<path d="M5653.13 2835.52L5479.5 2947.65L5548.13 2825.4L5653.13 2835.52Z" fill="#C84A9D"/>
<path d="M5604.75 2673.15L5527.5 2819.4L5489.25 2647.65L5604.75 2673.15Z" fill="#C84A9D"/>
<path d="M3025.13 3139.27L3179.63 3168.52L2984.25 3349.27L3025.13 3139.27Z" fill="#9A57A3"/>
<path d="M2960.25 3287.02L3055.13 3308.02L2705.63 3622.65L2960.25 3287.02Z" fill="#883685"/>
<path d="M3225.75 3087.52L3382.13 2957.02L3200.63 2930.77L3225.75 3087.52Z" fill="#7D4AAB"/>
<path d="M2877 3176.4L3091.13 3208.27L2970 3071.02L2877 3176.4Z" fill="#7D4AAB"/>
<path d="M3546.75 2798.02L3679.88 2811.9L3546.75 3047.77V2798.02Z" fill="#9A57A3"/>
<path d="M3356.38 2871.52L3298.5 2724.52H3762.75L3356.38 2871.52Z" fill="#7D4AAB"/>
<path d="M4042.88 2024.01L4002.38 2489.77L3579.38 2088.51L4042.88 2024.01Z" fill="#73328A"/>
<path d="M4953.38 1571.76L4726.88 1857.14L4350 1738.64L4953.38 1571.76Z" fill="#73328A"/>
<path d="M3401.63 2266.27L3260.25 2914.27L3040.88 2557.27L3401.63 2266.27Z" fill="#73328A"/>
<path d="M3636 3080.02L3569.25 2991.52L3525.38 3157.27L3636 3080.02Z" fill="#7D4AAB"/>
<path d="M3523.88 3139.27L3571.88 3163.27L3346.5 3353.4L3523.88 3139.27Z" fill="#883685"/>
<path d="M3232.88 3253.27L3288.38 3296.02L3072 3446.02L3232.88 3253.27Z" fill="#883685"/>
<path d="M3902.63 2255.77L3673.45 2663.21H3197.25L3902.63 2255.77Z" fill="#7D4AAB"/>
<path d="M5837.25 2058.14L5993.25 2168.39L5789.62 2217.14L5837.25 2058.14Z" fill="#C84A9D"/>
<path d="M6348.37 1904.39L6095.62 2131.27L6127.12 1904.39H6348.37Z" fill="#C84A9D"/>
<path d="M6466.5 1823.77L6457.12 2058.14L6721.5 1726.27L6466.5 1823.77Z" fill="#C84A9D"/>
<path d="M6348.37 2105.02L6152.25 2245.64H6271.5L6348.37 2105.02Z" fill="#C84A9D"/>
<path d="M5428.13 2119.27V2342.77L5337.38 2136.14L5428.13 2119.27Z" fill="#D4388B"/>
<path d="M3690 2883.52L3593.25 2912.02L3618 3090.9L3690 2883.52Z" fill="#883685"/>
<path d="M5656.13 2148.52L5622 2282.02L5592.75 2078.02L5656.13 2148.52Z" fill="#D4388B"/>
<path d="M5103.75 2464.64L4935.38 2577.15L4847.25 2464.64H5103.75Z" fill="#A3327C"/>
<path d="M5073 2478.89L5194.13 2558.02L4968.38 2574.52L5073 2478.89Z" fill="#C84A9D"/>
<path d="M4818.75 2871.52L4845 2727.52L4564.13 2807.02L4818.75 2871.52Z" fill="#D4388B"/>
<path d="M5394.75 2678.02V2859.52L5318.63 2745.9L5394.75 2678.02Z" fill="#D4388B"/>
<path d="M5317.5 2917.27L5135.63 3041.4L5176.5 2898.52L5317.5 2917.27Z" fill="#D4388B"/>
<path d="M5412.38 2970.52L5230.5 3094.65L5271.38 2951.77L5412.38 2970.52Z" fill="#D4388B"/>
<path d="M5579.63 2857.27L5397.75 2981.4L5438.63 2838.52L5579.63 2857.27Z" fill="#D4388B"/>
<path d="M5626.13 2748.52V2880.15L5487.75 2748.52H5626.13Z" fill="#D4388B"/>
<path d="M4032.75 2510.77L3539.63 2566.64L3325.5 2901.9L4032.75 2510.77Z" fill="#8863AA"/>
<path d="M2619.38 2801.77L3194.63 1868.77L2385 2465.39L2619.38 2801.77Z" fill="#492666"/>
<path d="M4688.25 2135.77L4195.13 2191.64L4018.5 2505.89L4688.25 2135.77Z" fill="#8863AA"/>
<path d="M5288.63 1894.27L4848.75 1785.89L4789.5 2066.77L5288.63 1894.27Z" fill="#883685"/>
<path d="M5193.38 2161.27L4856.63 1999.27L4831.5 2239.27L5193.38 2161.27Z" fill="#883685"/>
<path d="M5374.88 2063.39V2186.02L5118.38 2211.52L5374.88 2063.39Z" fill="#883685"/>
<path d="M5136.75 2253.89L5263.13 2331.14L5248.13 2229.52L5136.75 2253.89Z" fill="#883685"/>
<path d="M5624.63 1991.77L5539.88 2118.52L5432.25 2063.77L5624.63 1991.77Z" fill="#883685"/>
<path d="M7062.38 689.379L7138.13 533.845L6867.38 427.253L7062.38 689.379Z" fill="#542A6C"/>
<path d="M6632.25 616.628V838.254L6109.5 678.503L6632.25 616.628Z" fill="#542A6C"/>
<path d="M7198.5 459.878L7143.75 300.69L6980.25 240.502L7198.5 459.878Z" fill="#542A6C"/>
<path d="M7258.88 798.878H7039.5L7115.63 728.378L7258.88 798.878Z" fill="#743C94"/>
<path d="M6748.88 973.629L6385.88 731.378L6030.38 903.504L6748.88 973.629Z" fill="#743C94"/>
<path d="M6965.25 1004L6853.5 821.753L6763.13 975.504L6965.25 1004Z" fill="#743C94"/>
<path d="M4648.13 1829.02L4438.88 2198.77H3948.75L4648.13 1829.02Z" fill="#7D4AAB"/>
<path d="M5387.25 876.504L5851.13 714.878L5605.88 1032.88L5387.25 876.504Z" fill="#542A6C"/>
<path d="M5810.63 1085.75L6429 795.878L6099 1303.63L5810.63 1085.75Z" fill="#3A214E"/>
<path d="M5448 1823.02L5807.63 1412.76L6104.25 1606.64L5448 1823.02Z" fill="#542A6C"/>
<path d="M4992.38 981.506L5225.25 1832.39L4833.38 1415.01L4992.38 981.506Z" fill="#67236D"/>
<path d="M6615 1536.51L6789.75 1578.14L6443.25 1673.76L6615 1536.51Z" fill="#542A6C"/>
<path d="M7352.25 1071.88L7676.46 1178.01L7623.75 1071.88H7352.25Z" fill="#D4388B"/>
<path d="M6987.75 872.379L7296.38 1019L7106.25 1050.13L6987.75 872.379Z" fill="#D4388B"/>
<path d="M6211.5 1595.76L6476.25 1648.64L6148.5 1942.64L6211.5 1595.76Z" fill="#A3327C"/>
<path d="M6226.88 1757.77L5679.38 2024.39L6099 1623.14L6226.88 1757.77Z" fill="#542A6C"/>
<path d="M5640.75 1963.64L5469.38 2072.77L5491.13 1910.77L5640.75 1963.64Z" fill="#542A6C"/>
<path d="M5955.75 1605.14L6621.75 1335.89L6180 1280.76L5955.75 1605.14Z" fill="#883685"/>
<path d="M5580 1989.89L6189 1695.89L5744.25 1664.76L5580 1989.89Z" fill="#883685"/>
<path d="M5937 1511.76L6523.88 1097.01L6217.5 907.258L5937 1511.76Z" fill="#743C94"/>
<path d="M7007.63 955.629L6922.88 775.253L6874.13 890.754L7007.63 955.629Z" fill="#A3327C"/>
<path d="M5726.62 750.129L6368.62 636.878L6069.37 945.505L5726.62 750.129Z" fill="#73328A"/>
<path d="M5185.5 1235.76L5456.25 1703.77L5371.88 1880.02L5185.5 1235.76Z" fill="#542A6C"/>
<path d="M6635.25 1561.64L6952.88 1321.26L6613.5 1178.01L6635.25 1561.64Z" fill="#883685"/>
<path d="M6852.38 995.381L7078.13 1159.26L6987.75 981.131L6852.38 995.381Z" fill="#A3327C"/>
<path d="M6781.88 875.755L7050 1056.51L7087.5 966.13L6781.88 875.755Z" fill="#883685"/>
<path d="M7611.38 1116.51L7797 1128.51L8007.38 1335.88L7611.38 1116.51Z" fill="#883685"/>
<path d="M7911.75 1157.38L8179.13 1316.01L8228.25 1205.76L7911.75 1157.38Z" fill="#883685"/>
<path d="M8148 1372.26L8285.25 1349.01L8364.75 1463.38L8148 1372.26Z" fill="#A3327C"/>
<path d="M7065.38 894.504L7356.38 985.254L7410 1123.63L7065.38 894.504Z" fill="#883685"/>
<path d="M7138.5 825.878L6846.75 833.378L6987.75 750.127L7138.5 825.878Z" fill="#883685"/>
<path d="M5381.25 1623.14L5240.63 1226.01L5439.38 1071.13L5381.25 1623.14Z" fill="#67236D"/>
<path d="M5367.38 1334.76L5984.63 1401.51L5542.5 1101.51L5367.38 1334.76Z" fill="#743C94"/>
<path d="M5130.75 930.506L5387.25 856.63L5228.25 1179.51L5130.75 930.506Z" fill="#542A6C"/>
<path d="M4449.38 1789.27L4352.63 2031.89L4026 1944.89L4449.38 1789.27Z" fill="#73328A"/>
<path d="M6971.25 224.752L7101 324.502L6849.75 281.002L6971.25 224.752Z" fill="#3A214E"/>
<path d="M2113.88 2973.15L2036.63 2643.52L1587.75 3048.52L2113.88 2973.15Z" fill="#492666"/>
<path d="M4725.75 1796.77L4803.38 2068.64H5230.16L4725.75 1796.77Z" fill="#7D4AAB"/>
<path d="M5309.62 2162.77L5385.37 2233.27L5331.37 2316.14L5309.62 2162.77Z" fill="#A3327C"/>
<path d="M5351.25 2565.9L5113.13 2462.77L5178 2583.52L5351.25 2565.9Z" fill="#A3327C"/>
<path d="M5394.75 2310.52L5355 2468.02L5458.69 2475.52L5394.75 2310.52Z" fill="#A3327C"/>
<path d="M5463 2094.14L5621.62 2076.14L5545.87 2229.52L5463 2094.14Z" fill="#A3327C"/>
<path d="M5567.63 2229.89L5611.13 2314.27L5526.38 2447.77L5567.63 2229.89Z" fill="#A3327C"/>
<path d="M5822.63 2289.52L6175.5 2246.02L5899.5 2150.77L5822.63 2289.52Z" fill="#A3327C"/>
<path d="M6332.63 2168.39L6153.75 2099.28L6321.75 2054.77L6332.63 2168.39Z" fill="#A3327C"/>
<path d="M7223.25 2330.39L7057.5 2438.77L7246.13 2225.77L7223.25 2330.39Z" fill="#A3327C"/>
<path d="M5859.75 2099.77L6054.75 2157.52L5965.12 1860.89L5859.75 2099.77Z" fill="#A3327C"/>
<path d="M6722.63 1627.64L6591 1744.64L6419.25 1573.26L6722.63 1627.64Z" fill="#A3327C"/>
<path d="M6920.25 1444.64L6695.25 1577.76L6455.63 1417.64L6920.25 1444.64Z" fill="#A3327C"/>
<path d="M6445.13 1165.63L6753.38 1391.01L6318.38 1284.13L6445.13 1165.63Z" fill="#A3327C"/>
<path d="M5533.88 2375.02L5574 2467.27L5483.63 2541.15L5533.88 2375.02Z" fill="#C84A9D"/>
<path d="M5196 2459.02L5277 2536.64L5401.5 2478.89L5196 2459.02Z" fill="#C84A9D"/>
<path d="M4476 2873.77V2727.9L4771.88 2922.52L4476 2873.77Z" fill="#C84A9D"/>
<path d="M5504.63 2539.27L5407.5 2618.4L5307 2498.39L5504.63 2539.27Z" fill="#A3327C"/>
<path d="M5346 2570.77L5360.25 2693.4L5460.38 2744.02L5346 2570.77Z" fill="#A3327C"/>
<path d="M5352.75 2814.52L5341.88 2898.52H5205.75L5352.75 2814.52Z" fill="#A3327C"/>
<path d="M5233.88 3059.02L5215.88 3157.27H5097.75L5233.88 3059.02Z" fill="#A3327C"/>
<path d="M5590.88 2592.52V2749.27L5477.25 2612.39L5590.88 2592.52Z" fill="#A3327C"/>
<path d="M5096.25 3050.77L5204.25 2902.27L5002.13 2981.02L5096.25 3050.77Z" fill="#A3327C"/>
<path d="M5363.63 2985.9L5445 2868.52L5291.63 2924.4L5363.63 2985.9Z" fill="#A3327C"/>
<path d="M5492.25 2850.9L5560.5 2745.9L5420.25 2789.4L5492.25 2850.9Z" fill="#A3327C"/>
<path d="M6853.5 286.252L7031.25 458.003L6749.25 518.003L6853.5 286.252Z" fill="#3A214E"/>
<path d="M4795.13 2816.02L4903.5 3045.52L4725 2891.77L4795.13 2816.02Z" fill="#A3327C"/>
<path d="M6907.5 421.253L7220.25 451.253L7147.5 574.629L6907.5 421.253Z" fill="#542A6C"/>
<path d="M5732.63 942.504L6069.38 705.503L6100.5 1029.5L5732.63 942.504Z" fill="#542A6C"/>
<path d="M3443.67 2611.27L3642.8 2336.77L3115.5 2051.77L3443.67 2611.27Z" fill="#743C94"/>
<path d="M4273.13 2611.27L4571.25 2705.77L4498.88 2807.4L4273.13 2611.27Z" fill="#A3327C"/>
<path d="M1282.12 4488.91L1466.25 4086.91L1762.5 4333.28L1282.12 4488.91Z" fill="#743C94"/>
<path d="M4938 1299.51V1022.38L4548 1188.51L4938 1299.51Z" fill="#73328A"/>
<path d="M3414.75 2151.51L4015.88 1437.51L3185.25 1876.26L3414.75 2151.51Z" fill="#542A6C"/>
<path d="M4232.25 1778.76L4863.75 1056.88L4007.25 1433.76L4232.25 1778.76Z" fill="#542A6C"/>
<path d="M3028.13 3360.52L3105 3243.52L2967 3256.97L3028.13 3360.52Z" fill="#73328A"/>
<path d="M1305 4045.65L1291.12 3678.53L1063.5 3958.28L1305 4045.65Z" fill="#743C94"/>
<path d="M4696.13 2377.27L4845.38 2654.02L4653.38 2508.9L4696.13 2377.27Z" fill="#A3327C"/>
<path d="M7941 542.378L7737 578.003L7854.75 619.253L7941 542.378Z" fill="#883685"/>
<path d="M7636.5 636.503L7769.25 571.628L7834.88 622.253L7636.5 636.503Z" fill="#67236D"/>
<path d="M7761.75 614.752H7634.25V676.627L7761.75 614.752Z" fill="#743C94"/>
<path d="M8416.88 299.001L8252.63 396.877H8350.88L8416.88 299.001Z" fill="#883685"/>
<path d="M8506.88 463.253L8306.63 475.628L8436.75 542.378L8506.88 463.253Z" fill="#883685"/>
<path d="M8427.75 185.377L8203.5 84.1264L8295.75 50.0013L8427.75 185.377Z" fill="#883685"/>
<path d="M8537.63 179.751L8447.63 212.376L8496.38 324.127L8537.63 179.751Z" fill="#883685"/>
<path d="M8134.5 451.628L8263.5 378.128L8311.88 414.503L8134.5 451.628Z" fill="#67236D"/>
<path d="M8259.75 441.503H8132.25V503.378L8259.75 441.503Z" fill="#743C94"/>
<path d="M7663.5 622.253L7459.5 657.878L7577.25 699.128L7663.5 622.253Z" fill="#883685"/>
<path d="M7359 716.378L7491.75 651.503L7557.38 702.128L7359 716.378Z" fill="#67236D"/>
<path d="M7449 721.628L7322.63 687.877L7253.25 775.628L7449 721.628Z" fill="#883685"/>
<path d="M8061.38 474.127L7913.25 561.503H8028.75L8061.38 474.127Z" fill="#883685"/>
<path d="M8303.25 466.628L8077.5 488.378L8133.38 548.003L8303.25 466.628Z" fill="#883685"/>
<path d="M7820.25 582.128L7953 517.253L8018.63 567.878L7820.25 582.128Z" fill="#67236D"/>
<path d="M6894 1286.28L6960.38 1263.51L7082.63 1413.78L6894 1286.28Z" fill="#743C94"/>
<path d="M8142.38 437.097L8026.88 505.722L8101.13 545.098L8142.38 437.097Z" fill="#67236D"/>
<path d="M7127.25 801.503L7272.75 703.252L7342.88 762.128L7127.25 801.503Z" fill="#67236D"/>
<path d="M5542.13 2150.77L5651.63 2215.27L5620.13 2349.14L5542.13 2150.77Z" fill="#C84A9D"/>
<path d="M7507.5 683.378L7370.63 674.003L7423.13 738.503L7507.5 683.378Z" fill="#743C94"/>
<path d="M7005.03 596.073L7063.88 719.003L6756.75 660.503L7005.03 596.073Z" fill="#3A214E"/>
<path d="M6991.13 1277.38L6860.25 1412.01L6729.38 1162.26L6991.13 1277.38Z" fill="#67236D"/>
<path d="M6675 1241.38L6837.75 1156.63L6583.5 1001.01L6675 1241.38Z" fill="#743C94"/>
<path d="M6722.25 968.379L7011.38 672.877L6474.38 732.502L6722.25 968.379Z" fill="#6D2367"/>
<path d="M8265.75 1321.63L7978.88 1552.26L8172.38 1321.63H8265.75Z" fill="#D4388B"/>
<path d="M7995 1328.01L8062.13 1269.51L8211.75 1419.13L7995 1328.01Z" fill="#A3327C"/>
<path d="M8180.63 1295.38L7877.25 1515.13L8087.25 1295.38H8180.63Z" fill="#D4388B"/>
<path d="M7829.63 1191.51L7896.75 1133.01L8046.38 1282.63L7829.63 1191.51Z" fill="#A3327C"/>
<path d="M8301.38 69.8753L8117.25 158.001L8245.5 17.375L8301.38 69.8753Z" fill="#D4388B"/>
<path d="M8516.25 286.252L8335.5 377.753L8463.75 237.502L8516.25 286.252Z" fill="#D4388B"/>
<path d="M8339.25 154.626L8512.5 194.377L8339.25 69.876V154.626Z" fill="#D4388B"/>
<path d="M8550.38 490.253L8483.63 603.879L8449.13 466.628L8550.38 490.253Z" fill="#D4388B"/>
<path d="M8411.25 512.003L8247.38 459.502L8227.5 546.128L8411.25 512.003Z" fill="#67236D"/>
<path d="M7877.25 1242.13L8163.59 1269.51L8211.59 1190.76L7877.25 1242.13Z" fill="#D4388B"/>
<path d="M6644.25 1571.76L6024.38 1648.64L6382.88 1436.76L6644.25 1571.76Z" fill="#743C94"/>
<path d="M7353 2228.02L7311 2174.02L7237.5 2293.27L7353 2228.02Z" fill="#D4388B"/>
<path d="M7448.25 2079.52L7417.13 2024.02L7357.5 2168.39L7448.25 2079.52Z" fill="#D4388B"/>
<path d="M7218.38 2147.02L7253.25 2056.27L7275.75 2293.64L7218.38 2147.02Z" fill="#883685"/>
<path d="M7228.5 2014.27L7281 1986.52L7281 2183.77L7228.5 2014.27Z" fill="#A3327C"/>
<path d="M7254.75 1844.96L7188.75 1880.01V1681.26L7254.75 1844.96Z" fill="#D4388B"/>
<path d="M7206 1972.69L7269 2031.89L7239.28 1794.52L7206 1972.69Z" fill="#883685"/>
<path d="M7194.91 1589.9L7135.5 1652.39L7094.25 1413.51L7194.91 1589.9Z" fill="#A3327C"/>
<path d="M7139.63 1485.13L7080.21 1519.26L6988.13 1329.88L7139.63 1485.13Z" fill="#883685"/>
<path d="M7158.75 1710.94L7221.75 1770.14L7185 1567.26L7158.75 1710.94Z" fill="#883685"/>
<path d="M7320.75 1724.02L7384.5 1696.27L7384.5 1893.52L7320.75 1724.02Z" fill="#A3327C"/>
<path d="M7254.75 1412.21L7312.5 1379.01L7327.13 1643.01L7254.75 1412.21Z" fill="#D4388B"/>
<path d="M7309.5 1656.19L7372.5 1715.39L7342.78 1478.01L7309.5 1656.19Z" fill="#883685"/>
<path d="M7371.75 1909.64L7435.5 1881.89L7435.5 2079.14L7371.75 1909.64Z" fill="#A3327C"/>
<path d="M7398.75 1760.21L7332.75 1795.26V1596.51L7398.75 1760.21Z" fill="#D4388B"/>
<path d="M7360.5 1892.44L7423.5 1951.64L7393.78 1714.27L7360.5 1892.44Z" fill="#883685"/>
<path d="M7237.5 1286.01L7211.25 1343.76L7029.75 1146.51L7237.5 1286.01Z" fill="#A3327C"/>
<path d="M6978.75 1051.26L7165.5 1190.38L7146.75 1253.01L6978.75 1051.26Z" fill="#883685"/>
<path d="M7230 1376.76L7323 1406.76L7209.38 1251.13L7230 1376.76Z" fill="#883685"/>
<path d="M1569.75 3065.02L1173 3412.65L1656 3386.02L1569.75 3065.02Z" fill="#542A6C"/>
<g filter="url(#filter0_d)">
<path d="M8090.03 546.993H8450.48L8488.98 633.04L8565.3 460.742L8222.72 459.498L8489.23 338.054L8565.23 195.092L8222.99 5L8175.17 71.6518L8090.16 195.567L8223.14 119.899L8450.21 195.466L8403.76 300.14L8093.94 459.498M8090.03 546.993L7558.33 708.603L7254.2 794.105M8090.03 546.993L7824.02 627.063L7558.11 707.885L7254 793.383L6969.38 869.132L6969.4 869.863L7216.15 917.488L7501.08 1040.84L7501.1 1040.85L7501.12 1040.86L7804.87 1126.36L7804.9 1126.36L8222.72 1183.32V1297.2L8402.98 1411.13L8224.9 1748.79L8318.44 1467.78L8175.41 1410.57L7903.16 1626.44L8090.26 1411.24L8089.8 1410.67L7807.21 1561.26L8024.24 1353.91L7805.15 1239.66L7805.13 1239.65L7805.11 1239.65L7501.29 1125.62H7406.43L7216.28 1040.11L7054.24 1059.33L7253.81 1297.24L7253.82 1297.25L7253.83 1297.26L7310.77 1354.19L7440 1885.74L7462.96 2037.25L7406 2161.22M7254.2 794.105L7254.1 793.744M7254.2 794.105L6971.15 869.436L7216.33 916.759L7501.33 1040.13L7501.37 1040.15L7805.02 1125.62L7805.08 1125.63L8223.47 1182.67V1296.79L8403.97 1410.87L8223.46 1753.12L8223.43 1753.17L8222.74 1752.88L8222.77 1752.82L8317.51 1468.21L8175.54 1411.43L7900.51 1629.49L7900.46 1629.54L7899.94 1629L7899.99 1628.95L8088.36 1412.28L7805.15 1563.2L7804.71 1562.6L8022.96 1354.09L7804.84 1240.35L7804.8 1240.33L7501.16 1126.37H7406.27L7216.16 1040.88L7055.71 1059.91L7254.36 1296.73L7254.39 1296.76L7311.36 1353.73L7311.43 1353.8L7311.46 1353.89M7406 2161.22L7311.42 2294.32L7311.4 2294.35L7159.54 2541.45L7159.51 2541.5L7055.21 2626.67L7054.63 2626.23L7158.33 2380.79L6998.2 2503.3L6997.68 2502.77L7215.85 2236.99V2037.63L7158.86 1705.48L7101.89 1563.04L6969.49 1354.72L6865.13 1534.64L6865.06 1534.69L6722.72 1629.45V1753.13L6504.4 2037.85L6504.35 2037.91L6504.3 2037.94L6380.98 2114.03L6285.77 2237.36L6285.7 2237.45L6086.4 2294.5H5819.85L5762.69 2161.37L5819.53 2037.98L5611.68 2028.65M7406 2161.22L7310.79 2293.91L7310.79 2293.92L7310.78 2293.93L7158.94 2541L7055.91 2625.13L7160.12 2378.47L7000.32 2500.74L7216.51 2237.36L7216.6 2237.26V2037.59L7216.59 2037.56L7159.59 1705.31L7159.59 1705.27L7159.57 1705.23L7102.57 1562.73L7102.56 1562.7L7102.54 1562.67L6969.46 1353.27L6864.57 1534.11L6722.19 1628.9L6456.32 1705.03L6380.56 1752.66L6380.52 1752.68L6181.06 1847.54L6180.98 1847.57L6086.13 1970.92L5820.06 2037.25L5610.77 2027.85M5659.22 2294.06L5659.23 2294.13L5659.22 2294.2M4509.71 2236.75L4456.09 2027.37L4376.64 1534.2L4348.06 1239.66M4509.71 2236.75L4177.22 2493.63M4509.71 2236.75L4738.12 2401.64L4847.25 2626.75L4863.75 2826.38L4823.68 2878.27L4875.7 2937.26L4927.58 3082.38L4776.32 2949.77L4456.09 2898.5M4775.53 2122.72L4679.35 1628.92L4623.33 1125.65M4775.53 2122.72L5023.22 1885.83M4775.53 2122.72L4509.99 2237.5M4775.53 2122.72L4831.12 2256.51H5115.37M5115.37 2256.51L5291.25 2161.37L5433.75 2088.89M5115.37 2256.51L5275.87 2354.01L5314.5 2456.13M5433.75 2088.89L5610.77 2027.85M5433.75 2088.89L5023.22 1885.83M5433.75 2088.89L5553.92 2256.51L5497.22 2455.75L5449.75 2455.63M5433.75 2088.89L5449.75 2455.63M5433.75 2088.89L5460 1973.39M5610.87 2580.25L5658.47 2294.12V2161.38L5610.77 2027.85M5610.87 2580.25V2672.5L5659.23 2866.08L5380.87 3008.77L5274.54 3078.68L5188.4 3199.27L5053.5 3148.64L5084.68 3078.68M5610.87 2580.25L5523 2583.53L5449.75 2587.29L5497.22 2809.64L5188.38 3037.31L5084.68 3078.68M5610.77 2027.85L5552.62 1968.14L5460 1973.39M8093.94 459.498L7558.34 632.475L7558.32 632.481L7216.31 708.61L6931.32 755.855L6931.29 755.864L6931.12 755.133M8093.94 459.498L7558.14 631.752L7558.11 631.761L7216.16 707.874L7216.14 707.878L6938.18 753.96L7102.51 708.553L7159.56 546.786L7216.64 461.169L7159.58 299.742L7159.52 299.591L6969.46 213.946L6817.22 299.647V404.004M6931.12 755.133L6931.16 755.124M6931.12 755.133L6760.6 669.993L6722.55 546.993M6931.16 755.124L7101.94 707.934L7158.87 546.493L7158.89 546.449M6931.16 755.124L6721.97 916.759L6503.96 631.743M7158.89 546.449L7215.81 461.065L7158.92 300.143L6969.49 214.786L6817.97 300.086V404.231L6817.91 404.326L6722.55 546.993M7158.89 546.449L7000.32 404.326L6817.22 404.004M6722.55 546.993H6599.12L6504.35 632.397L6504.24 632.493H6285.47M6285.47 632.493L5820.2 708.604L5820.16 708.614L5041.6 957.245M6285.47 632.493L6503.96 631.743M6285.47 632.493L6052.73 669.81L5820.02 707.877L5820 707.884M5041.6 957.245L5098.4 1379.5L5222.35 1735.37M5041.6 957.245L4822.85 1040.14M4823.12 1040.84L4823.08 1040.85M4823.08 1040.85L4623.62 1126.34L4348.39 1240.34L4348.37 1240.34L3987.65 1411.33L3987.64 1411.34M4823.08 1040.85L4861.47 1287.53L4918.97 1534.2L5023.22 1885.83M3987.64 1411.34L3569.53 1629.58L3180.3 1848.19L3180.28 1848.2M3987.64 1411.34L4043.72 1971.79L4177.22 2493.63M3987.64 1411.34L4348.08 1239.65M3180.28 1848.2L2771.93 2114.07L2771.92 2114.07M3180.28 1848.2C3211.84 2068.04 3229.54 2191.29 3261.1 2411.13L3351.1 2921.13M2771.92 2114.07L2572.02 2284.85M2771.92 2114.07L2824.6 2411.13L2933.73 2814.25L2999.73 3082.38M2572.02 2284.85L2373.16 2455.83M2572.02 2284.85L2372.49 2455.45M2572.02 2284.85L2372.52 2456.27L2531.32 2866.38L2709.37 3258.52L2852.31 3167.84M2572.02 2284.85L2771.52 2113.44L2771.53 2113.43L3179.9 1847.56L3179.91 1847.55L3179.92 1847.55L3569.17 1628.92M3569.17 1628.92L3987.3 1410.67L3987.31 1410.66L4348.06 1239.66M3569.17 1628.92L3649.98 2178.63L3697.6 2436.63L3768.85 2702.5M4348.06 1239.66L4348.08 1239.65M4348.08 1239.65L4623.33 1125.65M4623.33 1125.65L4822.85 1040.14M4623.33 1125.65L4822.87 1040.14L4822.85 1040.14M6503.96 631.743L6598.72 546.339L6598.83 546.243M6722.15 546.243L6817.22 404.004M5314.5 2456.13H4823.68L4915.12 2580.25L5084.68 2583.53L5203.12 2587.29L5326.12 2591.39L5345.25 2717.01L5160.33 2912.99L4970.59 2975.15L5084.68 3078.68M5314.5 2456.13L5449.75 2455.63M2999.73 3082.38L3351.1 2921.13M2999.73 3082.38L2852.31 3167.84M2999.73 3082.38L3122.25 3128.02L3188.62 3162.52L3056.73 3338.88L2633.62 3692.02L2993.25 3223.64L2852.31 3167.84M3351.1 2921.13L3532.16 2826.38M3351.1 2921.13L3445.98 3016.01L3419.25 3101.47L3282.75 3310.64L3037.12 3473.77L3227.73 3253.3V3082.38L3179.9 2997.41M3768.85 2702.5L4177.22 2493.63M3768.85 2702.5L3711.85 2845L3626.35 3120.24L3274.98 3424.38L3532.16 3120.28V2826.38M3768.85 2702.5L3532.16 2826.38M4177.22 2493.63L4203.37 2512.64L4278.37 2574.51M5023.22 1885.83L5222.35 1735.37M4241.5 2673.5L4456.09 2782.5M5222.35 1735.37L5286.77 1885.83L5369.25 1900.26L5460 1973.39M2482.5 3648.89L2116.35 4126.85L1513.5 4499.14L1218.37 4519.27L1339.5 4284.52L1111.87 4253.02L1256.62 4031.02L1021.87 3971.77L1141.6 3801.26L943.5 3755.77V3564.52L1418.73 3167.84L1715.35 2880.79L2030.73 2626.15L2531.32 3570.89L2482.5 3648.89ZM6456.63 1705.72L6721.97 1629.75V1752.87L6503.84 2037.34L6380.62 2113.38H6285.67L6228.91 2028.23L6381.01 1753.27L6456.63 1705.72ZM6379.96 2114.13L6285.25 2236.8L6086.6 2293.67L6029.75 2113.77L6086.68 1971.44L6181.47 1848.17L6379.83 1753.84L6228.04 2028.27L6285.27 2114.13H6379.96ZM6028.99 2113.86L6085.84 2293.75H5820.35L5763.51 2161.38L5820.36 2037.95L6085.73 1971.79L6028.95 2113.74L6028.99 2113.86ZM6655.97 1040.11L6865.13 1125.62L6817.97 1182.67L6969.38 1239.65L7000.32 1297.26L7160.12 1486.75L7215.81 1629.45L7263.29 1900.1L7310.77 2170.75L7382.25 2027.85L7253.81 1410.87L7055.91 1182.67L6931.32 1059.91L6760.6 974.452L6655.97 1040.11Z" stroke="#F7F7F7" stroke-width="7.56"/>
</g>
<path d="M5043.38 2458.27L5083.88 2586.52" stroke="#F7F7F7" stroke-width="7.56"/>
<path d="M5160 2913.52L5172.57 2978.21L5185.13 3042.9L5271.75 3077.4M5326.5 2591.77L5452.88 2587.64" stroke="#F7F7F7" stroke-width="7.56"/>
<path d="M3531 2826.52L3709.5 2851.27" stroke="#F7F7F7" stroke-width="7.56"/>
<path d="M3226.88 3084.52L3447 3016.65" stroke="#F7F7F7" stroke-width="7.56"/>
<path d="M3530.63 3122.4H3623.63" stroke="#F7F7F7" stroke-width="7.56"/>
<path d="M2994.38 3221.77L3098.63 3279.52" stroke="#F7F7F7" stroke-width="7.56"/>
<path d="M2986.5 3231.52L3118.5 3126.52" stroke="#F7F7F7" stroke-width="7.56"/>
<path d="M4510.88 2627.02L4346.25 2456.77V2577.52L4510.88 2702.4V2627.02Z" stroke="#F7F7F7" stroke-width="10.56"/>
<path d="M4663.5 2518.64L4585.13 2543.39L4762.13 2654.4L4663.5 2518.64Z" stroke="#F7F7F7" stroke-width="10.56"/>
<path d="M4762.13 2883.52L4585.13 2702.4L4539.75 2766.9L4762.13 2883.52Z" stroke="#F7F7F7" stroke-width="10.56"/>
<path d="M4273.5 2573.02L4243.5 2678.02" stroke="#8B98A9" stroke-width="10.56"/>
<path d="M4454.63 2780.02L4459.5 2900.77" stroke="#8B98A9" stroke-width="10.56"/>
<path d="M6669 548.753L6715.75 713.513L6885.75 790.629" stroke="#8B98A9" stroke-width="7.56"/>
<path d="M7003.88 409.627L7094.25 557.003L7061.25 663.503L6928.5 754.629" stroke="#8B98A9" stroke-width="7.56"/>
<path d="M6967.13 216.502L7119 335.753L7161.75 456.878L7119 513.879" stroke="#8B98A9" stroke-width="7.56"/>
<path d="M5355.38 1904.01L5683.88 1754.01L5913.38 1652.01L6159.75 1517.76L6424.88 1366.26L6570 1192.26L6675.75 1224.13L6706.13 1347.51L6645.38 1437.51L6521.63 1517.76L6439.5 1598.38L6298.88 1644.51L6190.13 1740.13L6023.63 1809.89L5913.38 1880.76L5765.63 1922.76L5661.38 1957.64L5551.88 1968.14" stroke="#F7F7F7" stroke-width="11.28"/>
<path d="M6570 1200.88L6564.75 1343.01M6564.75 1343.01L6705.75 1347.51M6564.75 1343.01L6426.38 1366.26L6369 1497.51M6564.75 1343.01L6521.63 1518.51L6369 1497.51M6369 1497.51L6300.38 1643.01L6109.13 1644.88M6369 1497.51L6160.88 1516.63L6109.13 1644.88M6109.13 1644.88L5916.75 1650.88L5836.88 1788.13M6109.13 1644.88L6024.75 1809.89L5836.88 1788.13M5836.88 1788.13L5765.63 1923.51L5607.75 1868.39M5836.88 1788.13L5681.25 1754.38L5607.75 1868.39M5607.75 1868.39L5553.38 1966.26M5607.75 1868.39L5367.38 1900.64" stroke="#F7F7F7" stroke-width="7.56"/>
<path d="M5143.88 933.879L5335.88 1001M5335.88 1001L5455.13 831.504L5668.13 901.254M5335.88 1001L5536.88 1082.76M5335.88 1001L5169 1200.13L5396.25 1208.01L5536.88 1082.76M5668.13 901.254L5811.75 720.878L6016.5 803.004M5668.13 901.254L5895 978.505M5668.13 901.254L5536.88 1082.76M6016.5 803.004L6147.75 655.253L6377.25 753.504M6016.5 803.004L6222.38 901.254M6016.5 803.004L5895 978.505M6377.25 753.504L6504 630.878M6377.25 753.504L6222.38 901.254M6377.25 753.504L6637.5 815.754L6446.63 933.879L6222.38 901.254M6222.38 901.254L6100.5 1010L5895 978.505M5895 978.505L5745 1104.51L5536.88 1082.76" stroke="#F7F7F7" stroke-width="7.56"/>
<path d="M6952.88 1360.63L6811.13 1475.01L6711 1556.38L6441 1638.89L6347.25 1698.14L6148.5 1798.26L6046.13 1915.26L5805.38 1970.39L5603.63 2023.26" stroke="#F7F7F7" stroke-width="7.56"/>
<path d="M2375.63 2458.64L2821.5 2413.26M2821.5 2413.26L2532 2871.14L2932.88 2814.14M2821.5 2413.26H3262.5M2821.5 2413.26L3177 1853.76L3613.5 1922.38M2932.88 2814.14L2711.25 3257.39M2932.88 2814.14L3262.5 2413.26M2932.88 2814.14L3352.88 2921.02L3699 2439.51M3262.5 2413.26L3613.5 1922.38M3262.5 2413.26L3699 2439.51M3613.5 1922.38L3985.88 1417.26M3613.5 1922.38L4047.75 1972.26M3699 2439.51L4177.88 2493.89M3699 2439.51L4047.75 1972.26M3985.88 1417.26L4047.75 1972.26M3985.88 1417.26L4381.88 1533.51M4047.75 1972.26L4177.88 2493.89M4047.75 1972.26L4381.88 1533.51M4047.75 1972.26L4458 2022.14M4177.88 2493.89L4458 2022.14M4458 2022.14L4673.63 1635.51M4458 2022.14L4775.63 2121.51M4673.63 1635.51L4381.88 1533.51M4673.63 1635.51L4967.63 1699.63M4673.63 1635.51L4861.13 1284.51M4381.88 1533.51L4614.38 1132.63L4861.13 1284.51M4967.63 1699.63L4775.63 2121.51M4967.63 1699.63L5091 1386.51L4861.13 1284.51M4967.63 1699.63L5214.38 1737.51M4775.63 2121.51L5116.5 2252.39L5023.13 1880.38L5286 1887.51L5430.75 2084.76M4861.13 1284.51L5036.63 959.755" stroke="#F7F7F7" stroke-width="9"/>
<path d="M2101.88 2759.02L1798.5 3159.9M1798.5 3159.9L2173.13 2896.65M1798.5 3159.9L1566 3629.4L2054.63 3598.65M2054.63 3598.65L2348.63 3231.15M2054.63 3598.65L2436.38 3396.9" stroke="#F7F7F7" stroke-width="7.56"/>
<path d="M2299.13 2695.65L2028 2627.02L2173.88 2499.89L2368.5 2458.27L2299.13 2695.65ZM2299.13 2695.65L2538.38 2871.52M2299.13 2695.65L2173.88 2906.02L2400.38 2972.4M2538.38 2871.52L2400.38 2972.4M2538.38 2871.52V3212.02M2400.38 2972.4L2347.13 3228.9L2538.38 3212.02M2538.38 3212.02L2711.63 3261.15L2664.75 3418.27L2530.13 3572.03L2538.38 3212.02Z" stroke="#F7F7F7" stroke-width="9"/>
<path d="M5174.63 1204.26L5095.13 1388.38L5263.13 1579.63M5174.63 1204.26L5041.13 966.13M5174.63 1204.26L5263.13 1579.63M5174.63 1204.26L5134.88 930.13M5263.13 1579.63L5214.38 1736.38L5371.13 1904.38L5263.13 1579.63Z" stroke="#F7F7F7" stroke-width="9"/>
<ellipse cx="1718.63" cy="2883.15" rx="35.625" ry="35.6252" fill="#F7F7F7"/>
<ellipse cx="1414.12" cy="3161.4" rx="35.625" ry="35.6252" fill="#F7F7F7"/>
<ellipse cx="2034" cy="2631.52" rx="22.5" ry="22.5001" fill="#F7F7F7"/>
<ellipse cx="2099.25" cy="4133.78" rx="22.5" ry="22.5001" fill="#F7F7F7"/>
<path d="M2553.75 3566.03C2553.75 3578.45 2543.68 3588.53 2531.25 3588.53C2518.83 3588.53 2508.75 3578.45 2508.75 3566.03C2508.75 3553.6 2518.83 3543.53 2531.25 3543.53C2543.68 3543.53 2553.75 3553.6 2553.75 3566.03Z" fill="#F7F7F7"/>
<path d="M2688 3416.77C2688 3429.2 2677.93 3439.27 2665.5 3439.27C2653.08 3439.27 2643 3429.2 2643 3416.77C2643 3404.35 2653.08 3394.27 2665.5 3394.27C2677.93 3394.27 2688 3404.35 2688 3416.77Z" fill="#F7F7F7"/>
<path d="M2382.75 3225.9C2382.75 3245.57 2366.8 3261.52 2347.13 3261.52C2327.45 3261.52 2311.5 3245.57 2311.5 3225.9C2311.5 3206.22 2327.45 3190.27 2347.13 3190.27C2366.8 3190.27 2382.75 3206.22 2382.75 3225.9Z" fill="#F7F7F7"/>
<path d="M2215.5 2901.15C2215.5 2920.82 2199.55 2936.77 2179.88 2936.77C2160.2 2936.77 2144.25 2920.82 2144.25 2901.15C2144.25 2881.47 2160.2 2865.52 2179.88 2865.52C2199.55 2865.52 2215.5 2881.47 2215.5 2901.15Z" fill="#F7F7F7"/>
<path d="M1815 3155.02C1815 3167.45 1804.93 3177.52 1792.5 3177.52C1780.08 3177.52 1770 3167.45 1770 3155.02C1770 3142.6 1780.08 3132.52 1792.5 3132.52C1804.93 3132.52 1815 3142.6 1815 3155.02Z" fill="#F7F7F7"/>
<path d="M1587 3625.28C1587 3637.7 1576.93 3647.78 1564.5 3647.78C1552.08 3647.78 1542 3637.7 1542 3625.28C1542 3612.85 1552.08 3602.78 1564.5 3602.78C1576.93 3602.78 1587 3612.85 1587 3625.28Z" fill="#F7F7F7"/>
<path d="M2076.75 3593.78C2076.75 3606.2 2066.68 3616.28 2054.25 3616.28C2041.83 3616.28 2031.75 3606.2 2031.75 3593.78C2031.75 3581.35 2041.83 3571.28 2054.25 3571.28C2066.68 3571.28 2076.75 3581.35 2076.75 3593.78Z" fill="#F7F7F7"/>
<path d="M2202.75 2500.27C2202.75 2512.7 2192.68 2522.77 2180.25 2522.77C2167.83 2522.77 2157.75 2512.7 2157.75 2500.27C2157.75 2487.84 2167.83 2477.77 2180.25 2477.77C2192.68 2477.77 2202.75 2487.84 2202.75 2500.27Z" fill="#F7F7F7"/>
<path d="M2435.25 2972.4C2435.25 2992.07 2419.3 3008.02 2399.63 3008.02C2379.95 3008.02 2364 2992.07 2364 2972.4C2364 2952.72 2379.95 2936.77 2399.63 2936.77C2419.3 2936.77 2435.25 2952.72 2435.25 2972.4Z" fill="#F7F7F7"/>
<path d="M2573.25 3214.65C2573.25 3234.32 2557.3 3250.27 2537.63 3250.27C2517.95 3250.27 2502 3234.32 2502 3214.65C2502 3194.97 2517.95 3179.02 2537.63 3179.02C2557.3 3179.02 2573.25 3194.97 2573.25 3214.65Z" fill="#F7F7F7"/>
<path d="M2734.5 3257.77C2734.5 3270.2 2724.43 3280.27 2712 3280.27C2699.58 3280.27 2689.5 3270.2 2689.5 3257.77C2689.5 3245.35 2699.58 3235.27 2712 3235.27C2724.43 3235.27 2734.5 3245.35 2734.5 3257.77Z" fill="#F7F7F7"/>
<path d="M2336.25 2696.4C2336.25 2716.07 2320.3 2732.02 2300.63 2732.02C2280.95 2732.02 2265 2716.07 2265 2696.4C2265 2676.72 2280.95 2660.77 2300.63 2660.77C2320.3 2660.77 2336.25 2676.72 2336.25 2696.4Z" fill="#F7F7F7"/>
<circle cx="2988" cy="3072.77" r="45" fill="#F7F7F7"/>
<circle cx="3341.25" cy="2920.52" r="45" fill="#F7F7F7"/>
<circle cx="3762.75" cy="2707.52" r="45" fill="#F7F7F7"/>
<circle cx="4170.75" cy="2489.26" r="45" fill="#F7F7F7"/>
<circle cx="4503" cy="2237.26" r="45" fill="#F7F7F7"/>
<circle cx="4770.75" cy="2118.76" r="45" fill="#F7F7F7"/>
<circle cx="5209.5" cy="1733.26" r="45" fill="#F7F7F7"/>
<path d="M5084 964C5084 988.853 5063.85 1009 5039 1009C5014.15 1009 4994 988.853 4994 964C4994 939.147 5014.15 919 5039 919C5063.85 919 5084 939.147 5084 964Z" fill="#F7F7F7"/>
<circle cx="4622" cy="1135.95" r="45" fill="#F7F7F7"/>
<circle cx="4355.75" cy="1252.95" r="45" fill="#F7F7F7"/>
<circle cx="3994.25" cy="1417.95" r="45" fill="#F7F7F7"/>
<path d="M3615.12 1629.83C3615.12 1654.68 3594.98 1674.83 3570.12 1674.83C3545.27 1674.83 3525.12 1654.68 3525.12 1629.83C3525.12 1604.98 3545.27 1584.83 3570.12 1584.83C3594.98 1584.83 3615.12 1604.98 3615.12 1629.83Z" fill="#F7F7F7"/>
<circle cx="3180.5" cy="1849.21" r="45" fill="#F7F7F7"/>
<circle cx="2769.5" cy="2122.21" r="45" fill="#F7F7F7"/>
<circle cx="2372" cy="2461.21" r="45" fill="#F7F7F7"/>
<path d="M2587 2865.01C2587 2889.87 2566.85 2910.01 2542 2910.01C2517.15 2910.01 2497 2889.87 2497 2865.01C2497 2840.16 2517.15 2820.01 2542 2820.01C2566.85 2820.01 2587 2840.16 2587 2865.01Z" fill="#F7F7F7"/>
<circle cx="3268" cy="2403.76" r="45" fill="#F7F7F7"/>
<circle cx="4051.75" cy="1968.01" r="45" fill="#F7F7F7"/>
<circle cx="4685.5" cy="1626" r="45" fill="#F7F7F7"/>
<path d="M5146 1383C5146 1407.85 5125.85 1428 5101 1428C5076.15 1428 5056 1407.85 5056 1383C5056 1358.15 5076.15 1338 5101 1338C5125.85 1338 5146 1358.15 5146 1383Z" fill="#F7F7F7"/>
<path d="M5391.75 1899.52C5391.75 1911.94 5381.68 1922.02 5369.25 1922.02C5356.83 1922.02 5346.75 1911.94 5346.75 1899.52C5346.75 1887.09 5356.83 1877.02 5369.25 1877.02C5381.68 1877.02 5391.75 1887.09 5391.75 1899.52Z" fill="#F7F7F7"/>
<path d="M5478.75 1973.77C5478.75 1984.12 5470.36 1992.52 5460 1992.52C5449.65 1992.52 5441.25 1984.12 5441.25 1973.77C5441.25 1963.41 5449.65 1955.02 5460 1955.02C5470.36 1955.02 5478.75 1963.41 5478.75 1973.77Z" fill="#F7F7F7"/>
<path d="M5284.5 1576.26C5284.5 1588.69 5274.43 1598.76 5262 1598.76C5249.58 1598.76 5239.5 1588.69 5239.5 1576.26C5239.5 1563.84 5249.58 1553.76 5262 1553.76C5274.43 1553.76 5284.5 1563.84 5284.5 1576.26Z" fill="#F7F7F7"/>
<path d="M5194.5 1201.26C5194.5 1213.68 5184.43 1223.76 5172 1223.76C5159.58 1223.76 5149.5 1213.68 5149.5 1201.26C5149.5 1188.83 5159.58 1178.76 5172 1178.76C5184.43 1178.76 5194.5 1188.83 5194.5 1201.26Z" fill="#F7F7F7"/>
<path d="M5691 902.004C5691 914.43 5680.93 924.504 5668.5 924.504C5656.08 924.504 5646 914.43 5646 902.004C5646 889.578 5656.08 879.504 5668.5 879.504C5680.93 879.504 5691 889.578 5691 902.004Z" fill="#F7F7F7"/>
<path d="M6392.25 752.003C6392.25 764.43 6382.18 774.503 6369.75 774.503C6357.33 774.503 6347.25 764.43 6347.25 752.003C6347.25 739.577 6357.33 729.503 6369.75 729.503C6382.18 729.503 6392.25 739.577 6392.25 752.003Z" fill="#F7F7F7"/>
<circle cx="5445" cy="2102.77" r="33.75" fill="#F7F7F7"/>
<path d="M5165.25 2270.77C5165.25 2289.41 5150.14 2304.52 5131.5 2304.52C5112.86 2304.52 5097.75 2289.41 5097.75 2270.77C5097.75 2252.13 5112.86 2237.02 5131.5 2237.02C5150.14 2237.02 5165.25 2252.13 5165.25 2270.77Z" fill="#F7F7F7"/>
<circle cx="5620.5" cy="2037.52" r="33.75" fill="#F7F7F7"/>
<circle cx="5826" cy="2048.02" r="33.75" fill="#F7F7F7"/>
<circle cx="6093.75" cy="1982.77" r="33.75" fill="#F7F7F7"/>
<circle cx="6385.5" cy="1766.77" r="33.75" fill="#F7F7F7"/>
<circle cx="6729" cy="1641.51" r="33.75" fill="#F7F7F7"/>
<circle cx="6979.5" cy="1364.76" r="33.75" fill="#F7F7F7"/>
<ellipse cx="5874.38" cy="2239.64" rx="47.625" ry="19.8751" fill="#F7F7F7"/>
<ellipse cx="6130.13" cy="2219.39" rx="47.625" ry="19.8751" fill="#F7F7F7"/>
<ellipse cx="6339.38" cy="2049.14" rx="47.625" ry="19.8751" fill="#F7F7F7"/>
<ellipse cx="6366.75" cy="1500.51" rx="22.5" ry="22.5001" fill="#F7F7F7"/>
<ellipse cx="6564" cy="1344.51" rx="22.5" ry="22.5001" fill="#F7F7F7"/>
<ellipse cx="6108" cy="1645.26" rx="22.5" ry="22.5001" fill="#F7F7F7"/>
<ellipse cx="5837.25" cy="1790.02" rx="22.5" ry="22.5001" fill="#F7F7F7"/>
<ellipse cx="5607" cy="1871.02" rx="22.5" ry="22.5001" fill="#F7F7F7"/>
<path d="M6485.25 1052.76C6485.25 1069.32 6471.82 1082.76 6455.25 1082.76C6438.69 1082.76 6425.25 1069.32 6425.25 1052.76C6425.25 1036.19 6438.69 1022.76 6455.25 1022.76C6471.82 1022.76 6485.25 1036.19 6485.25 1052.76Z" fill="#F7F7F7" stroke="#F7F7F7" stroke-width="15"/>
<path d="M6189.75 1105.63C6189.75 1122.2 6176.32 1135.63 6159.75 1135.63C6143.19 1135.63 6129.75 1122.2 6129.75 1105.63C6129.75 1089.06 6143.19 1075.63 6159.75 1075.63C6176.32 1075.63 6189.75 1089.06 6189.75 1105.63Z" fill="#F7F7F7" stroke="#F7F7F7" stroke-width="15"/>
<g filter="url(#filter1_d)">
<ellipse cx="5931.75" cy="1280.76" rx="37.5" ry="37.5002" fill="#F7F7F7"/>
<path d="M5961.75 1280.76C5961.75 1297.33 5948.32 1310.76 5931.75 1310.76C5915.19 1310.76 5901.75 1297.33 5901.75 1280.76C5901.75 1264.19 5915.19 1250.76 5931.75 1250.76C5948.32 1250.76 5961.75 1264.19 5961.75 1280.76Z" stroke="#F7F7F7" stroke-width="15"/>
</g>
<g filter="url(#filter2_d)">
<ellipse cx="5736.75" cy="1404.51" rx="37.5" ry="37.5002" fill="#F7F7F7"/>
<path d="M5766.75 1404.51C5766.75 1421.08 5753.32 1434.51 5736.75 1434.51C5720.19 1434.51 5706.75 1421.08 5706.75 1404.51C5706.75 1387.94 5720.19 1374.51 5736.75 1374.51C5753.32 1374.51 5766.75 1387.94 5766.75 1404.51Z" stroke="#F7F7F7" stroke-width="15"/>
</g>
<path d="M5625.75 1250.76C5625.75 1267.33 5612.32 1280.76 5595.75 1280.76C5579.19 1280.76 5565.75 1267.33 5565.75 1250.76C5565.75 1234.19 5579.19 1220.76 5595.75 1220.76C5612.32 1220.76 5625.75 1234.19 5625.75 1250.76Z" fill="#F7F7F7" stroke="#F7F7F7" stroke-width="15"/>
<path d="M5443.5 1449.51C5443.5 1466.08 5430.07 1479.51 5413.5 1479.51C5396.94 1479.51 5383.5 1466.08 5383.5 1449.51C5383.5 1432.94 5396.94 1419.51 5413.5 1419.51C5430.07 1419.51 5443.5 1432.94 5443.5 1449.51Z" fill="#F7F7F7" stroke="#F7F7F7" stroke-width="15"/>
<circle cx="7244" cy="694" r="45" fill="#F7F7F7"/>
<circle cx="7575" cy="620.251" r="45" fill="#F7F7F7"/>
<circle cx="7918.5" cy="511.501" r="45" fill="#F7F7F7"/>
<circle cx="8250" cy="369" r="45" fill="#F7F7F7"/>
<ellipse cx="540" cy="4162.28" rx="37.5" ry="37.5002" fill="#998AA3"/>
<ellipse cx="794.25" cy="4269.53" rx="37.5" ry="37.5002" fill="#998AA3"/>
<ellipse cx="870" cy="3911.78" rx="45" ry="45.0002" fill="#CECECE"/>
<ellipse cx="678" cy="4027.28" rx="37.5" ry="37.5002" fill="#998AA3"/>
<ellipse cx="409.5" cy="3956.78" rx="37.5" ry="37.5002" fill="#898AA3"/>
<ellipse cx="453.75" cy="4320.53" rx="30" ry="30.0002" fill="#898AA3"/>
<ellipse cx="274.5" cy="4184.78" rx="30" ry="30.0002" fill="#898AA3"/>
<ellipse cx="238.5" cy="4440.53" rx="30" ry="30.0002" fill="#898AA3"/>
<ellipse cx="669.375" cy="4428.16" rx="32.625" ry="32.6252" fill="#998AA3"/>
<ellipse cx="171" cy="5682.54" rx="18.75" ry="18.7501" fill="#898AA3"/>
<ellipse cx="56.25" cy="5531.04" rx="18.75" ry="18.7501" fill="#898AA3"/>
<ellipse cx="18.75" cy="5359.29" rx="18.75" ry="18.7501" fill="#898AA3"/>
<ellipse cx="95.25" cy="5210.04" rx="18.75" ry="18.7501" fill="#898AA3"/>
<ellipse cx="189.75" cy="5075.79" rx="18.75" ry="18.7501" fill="#898AA3"/>
<ellipse cx="598.875" cy="4618.66" rx="28.125" ry="28.1251" fill="#898AA3"/>
<ellipse cx="401.25" cy="4880.03" rx="22.5" ry="22.5001" fill="#898AA3"/>
<ellipse cx="293.25" cy="4985.04" rx="18.75" ry="18.7501" fill="#898AA3"/>
<ellipse cx="429.375" cy="4494.16" rx="28.125" ry="28.1251" fill="#898AA3"/>
<ellipse cx="381.375" cy="4689.91" rx="28.125" ry="28.1251" fill="#898AA3"/>
<ellipse cx="217.875" cy="4652.41" rx="28.125" ry="28.1251" fill="#898AA3"/>
<ellipse cx="232.875" cy="4825.66" rx="24.375" ry="24.3751" fill="#898AA3"/>
<ellipse cx="568.125" cy="4791.16" rx="28.125" ry="28.1251" fill="#898AA3"/>
<ellipse cx="1177.12" cy="4773.16" rx="28.125" ry="28.1251" fill="#998AA3"/>
<ellipse cx="967.875" cy="4791.16" rx="28.125" ry="28.1251" fill="#998AA3"/>
<ellipse cx="777.375" cy="4762.66" rx="28.125" ry="28.1251" fill="#898AA3"/>
<ellipse cx="826.875" cy="4614.16" rx="32.625" ry="32.6252" fill="#998AA3"/>
<ellipse cx="780" cy="3627.53" rx="45" ry="45.0002" fill="#CECECE"/>
<ellipse cx="1333.5" cy="4661.78" rx="45" ry="45.0002" fill="#CECECE"/>
<ellipse cx="595.5" cy="3777.53" rx="45" ry="45.0002" fill="#998AA3"/>
<ellipse cx="1116" cy="4395.53" rx="45" ry="45.0002" fill="#CECECE"/>
<ellipse cx="1060.5" cy="4628.03" rx="33.75" ry="33.7502" fill="#998AA3"/>
<ellipse cx="979.5" cy="4169.78" rx="45" ry="45.0002" fill="#CECECE"/>
<ellipse cx="934.5" cy="4460.78" rx="33.75" ry="33.7502" fill="#998AA3"/>
<ellipse cx="3414.75" cy="4083.53" rx="18.75" ry="18.7501" fill="#898AA3"/>
<ellipse cx="3618.75" cy="4102.28" rx="18.75" ry="18.7501" fill="#898AA3"/>
<ellipse cx="3822.38" cy="4055.4" rx="28.125" ry="28.1251" fill="#898AA3"/>
<ellipse cx="4038.75" cy="3980.78" rx="37.5" ry="37.5002" fill="#898AA3"/>
<ellipse cx="4257" cy="3830.03" rx="37.5" ry="37.5002" fill="#898AA3"/>
<ellipse cx="4518.75" cy="3667.28" rx="37.5" ry="37.5002" fill="#998AA3"/>
<ellipse cx="4683" cy="3478.27" rx="37.5" ry="37.5002" fill="#CECECE"/>
<ellipse cx="4924.5" cy="3311.77" rx="45" ry="45.0002" fill="#CECECE"/>
<ellipse cx="7393.5" cy="3285.52" rx="18.75" ry="18.7501" fill="#898AA3"/>
<ellipse cx="7536" cy="3177.52" rx="18.75" ry="18.7501" fill="#898AA3"/>
<ellipse cx="7666.13" cy="3024.15" rx="28.125" ry="28.1251" fill="#898AA3"/>
<ellipse cx="7796.25" cy="2844.52" rx="37.5" ry="37.5002" fill="#898AA3"/>
<ellipse cx="7953.75" cy="2633.02" rx="37.5" ry="37.5002" fill="#898AA3"/>
<ellipse cx="8028.75" cy="2401.27" rx="37.5" ry="37.5002" fill="#B2B3BC"/>
<ellipse cx="8103.75" cy="2189.02" rx="37.5" ry="37.5002" fill="#CECECE"/>
<ellipse cx="8186.25" cy="1964.02" rx="45" ry="45.0002" fill="#CECECE"/>
<ellipse cx="5335.5" cy="3412.27" rx="18.75" ry="18.7501" fill="#898AA3"/>
<ellipse cx="5539.5" cy="3431.02" rx="18.75" ry="18.7501" fill="#898AA3"/>
<ellipse cx="5743.13" cy="3384.15" rx="28.125" ry="28.1251" fill="#898AA3"/>
<ellipse cx="5959.5" cy="3309.52" rx="37.5" ry="37.5002" fill="#898AA3"/>
<ellipse cx="6177.75" cy="3158.77" rx="37.5" ry="37.5002" fill="#998AA3"/>
<ellipse cx="6439.5" cy="2996.02" rx="37.5" ry="37.5002" fill="#B2B3BC"/>
<ellipse cx="6603.75" cy="2807.02" rx="37.5" ry="37.5002" fill="#CECECE"/>
<ellipse cx="6845.25" cy="2640.52" rx="45" ry="45.0002" fill="#CECECE"/>
<ellipse cx="5733.75" cy="4061.03" rx="18.75" ry="18.7501" fill="#898AA3"/>
<ellipse cx="5959.13" cy="4041.9" rx="28.125" ry="28.1251" fill="#898AA3"/>
<ellipse cx="6144" cy="3953.03" rx="37.5" ry="37.5002" fill="#898AA3"/>
<ellipse cx="6373.5" cy="3797.03" rx="37.5" ry="37.5002" fill="#898AA3"/>
<ellipse cx="6514.5" cy="3548.78" rx="37.5" ry="37.5002" fill="#898AA3"/>
<ellipse cx="6641.25" cy="3309.52" rx="37.5" ry="37.5002" fill="#B2B3BC"/>
<ellipse cx="6753.75" cy="3121.27" rx="37.5" ry="37.5002" fill="#F7F7F7"/>
<ellipse cx="6871.5" cy="2885.77" rx="41.25" ry="41.2502" fill="#F7F7F7"/>
<path d="M6622 549.251C6622 574.104 6601.85 594.251 6577 594.251C6552.15 594.251 6532 574.104 6532 549.251C6532 524.398 6552.15 504.251 6577 504.251C6601.85 504.251 6622 524.398 6622 549.251Z" fill="#F7F7F7"/>
<path d="M5839.75 717.251C5839.75 742.104 5819.6 762.251 5794.75 762.251C5769.9 762.251 5749.75 742.104 5749.75 717.251C5749.75 692.398 5769.9 672.251 5794.75 672.251C5819.6 672.251 5839.75 692.398 5839.75 717.251Z" fill="#F7F7F7"/>
<path d="M5482 829.001C5482 853.854 5461.85 874.001 5437 874.001C5412.15 874.001 5392 853.854 5392 829.001C5392 804.148 5412.15 784.001 5437 784.001C5461.85 784.001 5482 804.148 5482 829.001Z" fill="#F7F7F7"/>
<path d="M6177.25 653.501C6177.25 678.354 6157.1 698.501 6132.25 698.501C6107.4 698.501 6087.25 678.354 6087.25 653.501C6087.25 628.648 6107.4 608.501 6132.25 608.501C6157.1 608.501 6177.25 628.648 6177.25 653.501Z" fill="#F7F7F7"/>
<path d="M6996.25 217C6996.25 241.853 6976.1 262 6951.25 262C6926.4 262 6906.25 241.853 6906.25 217C6906.25 192.147 6926.4 172 6951.25 172C6976.1 172 6996.25 192.147 6996.25 217Z" fill="#F7F7F7"/>
<defs>
<filter id="filter0_d" x="935.72" y="0.0605469" width="7639.38" height="4531.44" filterUnits="userSpaceOnUse" color-interpolation-filters="sRGB">
<feFlood flood-opacity="0" result="BackgroundImageFix"/>
<feColorMatrix in="SourceAlpha" type="matrix" values="0 0 0 0 0 0 0 0 0 0 0 0 0 0 0 0 0 0 127 0"/>
<feOffset dy="4"/>
<feGaussianBlur stdDeviation="2"/>
<feColorMatrix type="matrix" values="0 0 0 0 0 0 0 0 0 0 0 0 0 0 0 0 0 0 0.25 0"/>
<feBlend mode="normal" in2="BackgroundImageFix" result="effect1_dropShadow"/>
<feBlend mode="normal" in="SourceGraphic" in2="effect1_dropShadow" result="shape"/>
</filter>
<filter id="filter1_d" x="5890.25" y="1243.26" width="83" height="83.0004" filterUnits="userSpaceOnUse" color-interpolation-filters="sRGB">
<feFlood flood-opacity="0" result="BackgroundImageFix"/>
<feColorMatrix in="SourceAlpha" type="matrix" values="0 0 0 0 0 0 0 0 0 0 0 0 0 0 0 0 0 0 127 0"/>
<feOffset dy="4"/>
<feGaussianBlur stdDeviation="2"/>
<feColorMatrix type="matrix" values="0 0 0 0 0 0 0 0 0 0 0 0 0 0 0 0 0 0 0.25 0"/>
<feBlend mode="normal" in2="BackgroundImageFix" result="effect1_dropShadow"/>
<feBlend mode="normal" in="SourceGraphic" in2="effect1_dropShadow" result="shape"/>
</filter>
<filter id="filter2_d" x="5695.25" y="1367.01" width="83" height="83.0004" filterUnits="userSpaceOnUse" color-interpolation-filters="sRGB">
<feFlood flood-opacity="0" result="BackgroundImageFix"/>
<feColorMatrix in="SourceAlpha" type="matrix" values="0 0 0 0 0 0 0 0 0 0 0 0 0 0 0 0 0 0 127 0"/>
<feOffset dy="4"/>
<feGaussianBlur stdDeviation="2"/>
<feColorMatrix type="matrix" values="0 0 0 0 0 0 0 0 0 0 0 0 0 0 0 0 0 0 0.25 0"/>
<feBlend mode="normal" in2="BackgroundImageFix" result="effect1_dropShadow"/>
<feBlend mode="normal" in="SourceGraphic" in2="effect1_dropShadow" result="shape"/>
</filter>
</defs>
</svg>
